<svg width="495" height="515" viewBox="0 0 495 515" fill="none" xmlns="http://www.w3.org/2000/svg">
<path d="M253.269 86.7899C263.655 88.2707 274.386 88.0086 284.9 88.7818C325.651 91.7827 366.377 95.8843 407.064 99.868C413.408 100.484 420.456 100.353 426.813 101.257C428.399 101.48 432.338 102.004 432.863 103.577L408.676 248.72L411.873 243.177C416.619 238.42 422.72 237.162 429.064 236.258C428.949 226.102 428.731 215.291 433.771 206.144C441.663 191.834 461.297 195.936 459.813 213.81C459.186 221.332 452.113 232.484 453.417 239.272C453.788 241.185 458.24 242.876 459.838 244.474C468.856 253.411 467.641 272.177 464.891 283.63C464.366 285.805 462.486 288.819 462.397 290.903C462.307 292.986 464.187 296.446 464.315 299.316C464.673 307.323 460.977 313.862 455.272 318.854C454.07 319.903 451.678 320.702 451.026 321.37C450.066 322.353 447.47 328.617 446.255 330.53C433.349 350.842 416.721 341.538 403.508 327.412L397.138 319.234L386.522 384.455C385.09 387.154 382.237 386.578 379.615 386.381L328.695 377.981C328.273 386.486 324.935 393.051 332.226 399.512C338.826 405.356 337.508 401.87 342.164 398.594C346.82 395.318 355.211 395.253 359.841 398.096C361.209 398.935 362.693 401.071 363.678 401.359C365.034 401.765 366.773 401.385 368.385 401.779C378.873 404.373 385.243 416.77 387.354 426.808C390.551 442.048 384.642 456.568 376.034 468.715C378.605 469.148 395.348 471.887 393.647 475.91C392.457 478.714 380.626 480.994 377.454 481.584C338.007 488.949 289.3 487.808 249.124 486.97C222.162 486.406 177.164 487.048 152.209 478.845C143.345 475.923 146.198 473.027 153.463 470.983C176.473 464.496 218.056 464.063 242.678 463.474C260.483 463.054 278.313 463.932 296.105 463.828C299.942 460.316 297.921 458.586 297.972 454.694C298.164 437.226 316.02 426.14 331.931 430.202C329.578 428.328 330.601 423.899 329.706 422.365C329.45 421.92 322.748 417.674 321.392 416.482C308.883 405.448 304.201 390.483 308.908 374.076L222.213 359.688C210.151 362.531 199.33 373.29 194.124 384.533C192.884 387.207 189.852 395.987 189.929 398.594C190.019 401.792 195.583 406.549 195.084 414.215C194.572 421.959 189.788 422.981 188.829 426.113C187 432.089 187.473 437.816 184.327 444.368C182.229 448.731 178.673 451.378 176.627 454.786C174.44 458.429 175.437 460.473 170.794 463.199C158.374 470.485 144.113 458.651 135.914 449.806C124.786 437.802 109.731 425.576 102.236 411.07C97.7466 402.368 93.9861 389.749 98.6035 380.379C99.1535 379.252 104.104 373.015 105.28 371.534C124.786 347.068 154.588 364.13 163.708 388.792L170.462 387.849C172.905 378.623 177.56 369.974 183.598 362.688C184.928 361.077 191.234 355.56 191.259 354.197C182.651 352.31 172.291 352.061 163.977 349.388C162.288 348.85 160.843 348.745 160.191 346.727L168.863 285.334C168.351 284.927 158.784 289.986 157.057 290.575C137.884 297.088 123.264 291.715 111.688 275.479C110.755 274.169 108.926 269.936 108.094 269.359C105.715 267.721 99.9466 267.852 96.007 264.72C89.8035 259.793 92.157 254.84 90.0338 251.564C89.6884 251.026 84.4826 247.986 82.8454 246.165C77.5756 240.346 74.8896 230.741 74.2245 222.97C74.0582 221.096 74.7745 215.265 73.6233 214.452C63.6721 213.679 53.7594 212.552 43.8338 211.556C37.6047 210.94 28.178 213.299 30.1094 203.392C37.8989 150.7 43.0024 97.6272 49.9989 44.8299C50.5489 40.7151 51.0349 34.2678 51.9814 30.5331C52.2756 29.3668 52.8128 28.4757 53.9128 27.9253L256.709 39.9551C257.873 40.3482 258.411 42.2614 258.423 43.4277L253.307 86.8292L253.269 86.7899ZM76.578 46.5072C61.0117 49.2198 61.0117 76.4899 78.957 75.743C97.4652 74.9829 97.5931 42.838 76.578 46.5072ZM113.837 59.415C114.119 59.664 120.642 57.9473 120.834 57.0824C121.512 53.9243 115.116 48.8267 112.2 48.3549C90.2384 44.8299 88.2814 81.2206 111.458 76.8831C114.579 76.3065 119.107 72.5062 119.606 69.2039L113.569 66.5437C110.294 73.0042 102.402 71.6282 101.827 64.1063C101.481 59.5591 104.781 54.3436 109.629 54.8416C114.477 55.3395 113.377 58.9563 113.85 59.4019L113.837 59.415ZM143.256 50.9234L123.43 50.2682V56.8072C124.697 57.0038 129.378 56.1127 129.659 57.7507L127.344 77.6169C129.531 78.6521 131.962 78.3507 134.302 78.3507L136.221 57.4493L142.527 57.3576L143.256 50.9234ZM156.533 51.0806C139.15 53.3084 138.459 82.5441 158.924 80.2902C170.513 79.0191 175.655 62.1145 166.931 54.4878C164.207 52.1028 160.101 50.622 156.533 51.0806ZM174.913 80.9454C178.443 81.5482 185.03 80.9454 188.983 80.9454C189.187 80.9454 191.861 78.7439 192.167 78.3245C194.917 74.5767 193.971 69.7936 189.942 67.5659C194.662 66.5437 195.813 58.4846 191.822 55.8506C187.831 53.2166 180.374 54.3305 175.859 53.5311C176.857 57.4755 172.342 78.3901 173.404 80.1984C173.442 80.2771 174.772 80.9323 174.9 80.9585L174.913 80.9454ZM214.833 62.6255C215.114 61.3151 216.738 56.0603 215.114 55.5885C212.876 54.9333 207.107 55.5885 204.306 55.523C202.912 55.4837 200.571 54.2519 199.829 55.4575L196.99 82.2427C199.458 82.3082 212.351 84.4311 213.323 82.9504C213.617 82.5048 214.167 77.6562 213.63 77.3417C212.147 76.4637 204.14 77.761 203.999 76.0051C205.406 70.5537 203.436 72.1655 207.516 72.4669C208.488 72.5324 213.387 72.6897 213.592 72.4669C213.899 72.1393 213.004 67.8673 214.219 66.8976L205.278 65.9278V62.0096L214.82 62.6124L214.833 62.6255ZM236.436 58.9563C233.379 56.1782 224.72 56.4534 220.64 56.1389L217.442 83.5532L224.477 84.2084C224.669 81.6006 224.758 78.1542 225.436 75.6906C225.615 75.0222 226.101 73.4759 227.022 74.4194C227.636 75.0353 229.887 84.4443 230.297 84.7981C230.974 85.4009 236.436 84.1429 237.907 85.5188L233.584 74.0656C238.649 71.3137 241.092 63.189 236.436 58.9563ZM245.581 100.536L50.5489 86.8686L35.8012 204.991L118.519 212.198C121.205 198.727 139.393 193.079 145.801 206.616C147.438 210.062 146.94 214.976 150.751 215.278L229.542 221.948L245.569 100.536H245.581ZM426.557 107.744L252.629 92.6869C252.079 98.3479 250.442 103.943 250.698 109.67L405.197 123.98L405.414 126.876C394.235 189.606 383.9 252.494 373.974 315.46C373.655 316.496 372.938 317.151 371.864 317.282L190.748 289.37C189.699 288.885 189.123 288.256 189.341 287.011C192.5 266.463 195.915 245.863 198.256 225.224L183.969 223.887L166.317 344.002L381.201 379.672L426.557 107.744ZM399.07 128.606L249.483 115.619L234.53 225.368L233.149 227.229C223.773 228.815 213.669 225.237 204.101 225.971L195.736 284.6L369.651 310.743L399.07 128.606ZM447.674 238.276C446.165 230.61 461.335 207.704 449.631 203.969C435.741 199.54 432.863 227.504 435.651 236.192L447.674 238.276ZM79.9419 214.78V224.896C79.9419 232.707 86.5803 243.36 93.3466 247.108C95.6489 248.392 106.802 251.223 106.79 252.311C106.79 252.429 105.319 253.949 105.204 253.949H95.9303C95.7256 256.321 98.0152 258.85 99.8059 260.108C108.798 266.398 129.02 262.27 133.765 251.773C137.257 244.068 134.008 247.763 130.44 249.035C129.02 249.546 119.452 252.402 120.22 249.061C120.386 248.353 130.529 243.924 132.678 242.181C137.052 238.617 142.22 230.387 143.09 224.739C144.036 218.567 142.552 205.581 135.083 204.48C127.012 203.287 123.635 210.953 124.978 218.082C125.259 219.563 127.178 222.826 126.973 223.271C126.231 224.91 121.448 224.661 119.299 225.263C116.383 226.089 113.671 228.33 112.008 230.885C110.716 232.877 107.8 243.491 107.378 236.009C107.02 229.457 111.74 222.721 117.649 220.31C118.48 219.969 122.228 220.048 119.58 218.37C117.227 216.877 108.964 217.794 105.83 216.68C102.031 216.995 97.8873 223.887 95.5338 216.038L79.9419 214.78ZM177.791 223.258L148.359 220.637C148.845 226.862 146.274 233.336 143.371 238.721C142.693 239.979 141.094 241.028 140.813 241.984C140.288 243.78 140.915 246.296 140.621 248.314C139.521 255.718 134.686 261.693 127.894 264.393C138.101 285.583 163.977 267.839 173.173 254.774L177.791 223.245V223.258ZM437.122 282.018C434.756 282.713 424.51 282.018 421.134 282.018C419.855 282.018 414.726 283.827 413.766 284.94C411.31 287.758 412.295 293.157 415.097 295.371C416.567 296.525 422.669 299.001 424.331 299.001H435.523C435.613 299.001 436.137 300.548 436.137 300.639C436.086 302.094 428.693 303.182 427.209 302.92C435.216 310.402 445.769 305.265 451.844 297.704C460.12 287.391 464.801 263.869 458.176 252.062C453.085 242.98 436.828 241.277 427.619 242.286C422.119 242.889 413.152 246.597 413.907 253.451C414.662 260.304 417.974 256.845 421.786 256.57C425.918 256.268 435.408 256.53 438.926 258.64C439.834 259.19 440.358 259.636 440 260.789C439.297 263.069 432.019 261.038 430.1 261.064C426.455 261.117 419.778 261.969 416.555 263.62C411.566 266.162 410.492 269.556 411.272 275.125C412.155 281.442 415.647 277.392 419.944 276.868C422.809 276.514 437.467 277.274 438.094 280.393C438.209 280.983 437.544 281.9 437.135 282.018H437.122ZM410.466 261.667C411.374 260.095 408.957 257.775 408.816 256.085L408.036 250.031L406.117 265.69C407.077 265.349 407.461 263.96 408.317 263.03C408.906 262.388 410.377 261.837 410.479 261.667H410.466ZM414.956 301.714C414.79 301.426 410.914 299.316 409.609 297.691C406.488 293.825 406.476 290.431 406.744 285.596C406.936 281.992 408.484 281.612 405.759 277.471L404.838 270.906C404.941 275.597 401.654 283.8 402.408 288.033C403.035 291.506 410.3 304.807 412.82 307.467C416.107 310.939 414.367 307.899 414.38 306.471C414.393 305.042 415.467 302.566 414.956 301.701V301.714ZM420.174 304.872C418.409 306.969 423.001 313.744 425.073 315.198C437.263 323.769 459.928 316.155 458.534 298.988C450.309 309.223 439.476 315.198 426.634 309.026C425.623 308.541 420.469 304.505 420.174 304.859V304.872ZM166.279 406.706C166.305 408.383 165.576 419.443 162.736 415.211C162.314 414.582 161.495 402.643 160.958 400.049C156.213 376.907 134.686 353.961 111.906 371.783C119.734 372.674 125.259 374.299 131.68 379.016C145.187 388.963 148.935 405.225 157.057 419.05C161.163 426.048 166.445 431.67 170.897 438.222C172.073 439.965 174.862 446.255 175.245 446.53C177.471 448.155 181.692 435.142 181.986 433.504C184.199 420.99 177.637 410.939 166.292 406.706H166.279ZM170.756 455.008C171.331 450.16 170.487 447.552 168.313 443.477C164.476 436.282 157.645 429.625 153.233 422.313C145.174 408.973 141.133 390.928 127.472 382.017C120.565 377.509 110.154 374.194 104.257 381.886C132.141 377.536 139.636 408.331 151.314 426.887C155.445 433.439 160.459 439.27 165.269 445.285L170.756 455.021V455.008ZM166.433 400.678C167.123 401.399 170.487 401.949 171.83 402.67C175.117 404.439 178.558 407.427 180.963 410.31C183.24 413.035 184.659 416.901 186.424 419.089C187.806 420.806 189.11 415.853 189.238 414.791C190.147 407.112 182.881 399.014 176.486 395.934C174.197 394.833 166.867 392.029 165.294 394.899C165.077 395.305 165.87 400.101 166.42 400.665L166.433 400.678ZM335.756 424.986C336.741 432.613 345.323 432.954 351.092 430.53C366.377 424.121 365.801 399.472 348.892 402.185C347.702 402.368 343.277 404.046 345.349 405.71C348.47 408.2 354.878 407.047 354.929 414.857C354.993 424.593 343.302 427.542 335.743 424.986H335.756ZM351.245 448.338C350.977 448.194 348.508 444.721 347.216 443.647C337.969 435.968 322.658 431.709 312.272 439.205C303.715 445.377 298.624 459.359 310.673 464.64C322.722 469.921 350.273 470.039 360.659 462.491C372.555 453.842 388.466 416.036 369.472 407.885C365.571 406.208 367.643 408.567 367.733 410.965C368.334 425.589 359.879 435.483 345.988 438.064L353.177 445.403C354.379 447.604 353.663 449.701 351.245 448.351V448.338ZM301.873 465.466C300.338 467.444 306.26 472.909 308.051 473.839C318.706 479.343 347.766 479.566 358.766 474.927C373.501 468.702 382.813 448.443 383.081 432.836C382.007 433.019 381.93 434.107 381.623 434.933C376.494 448.718 371.212 464.116 356.4 469.895C345.413 474.18 321.929 474.193 310.814 470.367C309.215 469.816 302.18 465.073 301.861 465.479L301.873 465.466Z" fill="black" stroke="black" stroke-miterlimit="10"/>
<path d="M333.85 234.358C331.484 252.481 316.058 279.529 296.463 281.389C278.146 283.132 269.41 271.155 264.972 254.735C264.512 253.018 263.77 246.191 263.386 245.588C263.181 245.261 258.244 242.928 256.799 241.539C255.955 240.727 251.977 235.524 251.977 234.672C251.964 229.221 260.483 237.215 262.043 238.158C279.848 249.022 302.18 246.768 319.806 236.664C322.479 235.131 324.564 232.825 327.467 231.75C326.994 230.361 323.349 230.466 323.003 228.802C322.453 226.142 328.593 226.508 330.077 226.823C333.146 227.478 342.919 234.188 341.269 237.608C339.465 241.343 336.395 234.672 333.888 234.358H333.85ZM283.544 265.271C274.949 274.143 290.924 276.174 297 275.414C302.973 274.667 313.41 267.708 315.994 262.152C317.478 258.955 313.871 258.168 311.146 257.867C303.229 256.963 289.338 259.295 283.557 265.284L283.544 265.271Z" fill="black"/>
<path d="M177.791 151.46L182.92 155.679C194.163 169.504 188.177 190.262 172.022 196.814C161.316 201.151 141.695 199.539 132.435 192.201C118.992 181.547 122.496 157.16 137.052 149.363C138.395 148.642 140.621 149.31 138.779 147.188C135.709 143.663 133.445 142.09 132.435 136.717C126.973 107.626 170.436 97.8236 185.798 118.148C193.638 128.527 190.21 146.703 177.791 151.473V151.46ZM160.357 124.19C148.116 124.923 148.155 144.881 162.71 142.902C169.195 142.024 172.47 134.49 169.733 128.671C168.21 125.461 163.695 123.993 160.37 124.19H160.357ZM154.601 158.13C142.962 160.004 141.695 179.634 153.859 181.416C172.905 184.207 172.24 155.286 154.601 158.13Z" fill="black"/>
<path d="M95.2907 129.917C94.4209 129.222 86.6314 135.499 85.6977 134.477C85.0965 133.822 86.5419 118.214 87.143 116.694C87.8337 114.938 101.43 105.477 103.31 105.123C105.088 104.796 115.027 105.988 117.342 106.407C118.071 106.538 118.634 106.643 118.902 107.456L108.312 193.132L89.8547 192.568L88.3326 191.494L95.2907 129.903V129.917Z" fill="black"/>
<path d="M152.427 72.2442C146.326 66.0852 154.217 53.4919 161.79 59.1006C169.349 64.7092 159.474 79.3468 152.427 72.2442Z" fill="black"/>
<path d="M73.7511 67.0418C69.0697 61.9049 74.3139 49.5082 82.1034 53.6229C91.6197 58.6419 81.0802 75.0878 73.7511 67.0418Z" fill="black"/>
<path d="M180.349 75.7299L181.014 69.8853C189.405 68.9025 188.586 77.3679 180.349 75.7299Z" fill="black"/>
<path d="M187.307 60.1355C187.831 61.0004 187.09 63.5165 186.655 64.5386L181.628 64.6303L182.267 59.4148C182.549 59.1134 186.974 59.5983 187.307 60.1487V60.1355Z" fill="black"/>
<path d="M225.756 68.5356L226.395 62.6649C234.517 61.2889 233.609 70.3833 225.756 68.5356Z" fill="black"/>
<path d="M277.456 149.848C295.58 148.642 297.23 184.824 289.773 196.854C290.058 197.745 301.732 200.563 302.563 208.791C302.717 210.298 301.336 214.138 299.763 212.225C298.1 208.582 298.304 205.463 294.812 202.999C288.711 198.701 280.526 202.449 279.451 210.338C278.914 214.269 280.397 217.113 278.428 220.454C273.951 217.768 273.938 212.867 274.91 209.473C275.486 207.507 277.238 205.41 275.729 203.877L247.116 200.457L256.143 195.932C251.949 179.687 259.615 151.034 277.456 149.848ZM279.502 157.776C262.849 155.077 254.483 187.196 259.855 199.671H264.64C264.294 192.896 266.75 185.636 269.999 179.778L275.908 179.936L274.591 173.396C278.454 169.871 283.864 168.024 289.121 168.784H289.134C288.481 164.329 283.902 158.497 279.502 157.776Z" fill="black"/>
<path d="M350.542 222.433C349.403 224.438 338.301 216.601 335.807 215.618C326.201 211.779 315.879 212.041 305.902 212.185C304.252 206.262 313.244 209.446 314.037 208.083C309.944 192.581 318.322 157.357 336.894 159.886C356.95 162.624 354.609 203.235 344.019 215.776C346.359 217.781 350.209 218.554 350.555 222.446L350.542 222.433ZM347.805 179.961C338.544 156.963 321.469 172.898 317.657 189.737C316.148 196.421 316.429 203.536 317.657 210.219L322.326 210.678C323.784 204.44 324.615 187.47 333.633 191.349L332.328 184.81C336.997 181.154 341.703 177.904 347.792 179.975L347.805 179.961Z" fill="black"/>
<path d="M353.778 163.018C353.522 164.381 351.181 165.731 350.401 165.311C350.12 165.154 348.61 161.445 346.986 159.781C343.916 156.61 339.874 155.706 337.585 152.299C340.296 148.643 352.806 159.493 353.765 163.018" fill="black"/>
<path d="M282.355 143.296C275.217 142.68 270.792 145.904 265.049 149.402L264.333 145.694C264.844 144.344 282.815 135.787 282.355 143.283V143.296Z" fill="black"/>
</svg>
