<svg width="200" height="237" viewBox="0 0 200 237" fill="none" xmlns="http://www.w3.org/2000/svg">
<path d="M102.232 39.9357C106.425 40.6171 110.757 40.4965 115.001 40.8522C131.45 42.2331 147.889 44.1204 164.312 45.9535C166.873 46.2369 169.718 46.1766 172.284 46.5927C172.924 46.6952 174.514 46.9364 174.726 47.6599L164.963 114.447L166.254 111.896C168.169 109.707 170.632 109.128 173.193 108.712C173.146 104.039 173.059 99.0644 175.093 94.8556C178.278 88.271 186.204 90.1583 185.605 98.3831C185.352 101.844 182.496 106.976 183.023 110.099C183.173 110.979 184.97 111.757 185.615 112.493C189.255 116.605 188.764 125.24 187.654 130.51C187.443 131.511 186.684 132.898 186.648 133.857C186.611 134.815 187.37 136.407 187.422 137.728C187.567 141.412 186.074 144.421 183.772 146.718C183.286 147.201 182.321 147.569 182.058 147.876C181.67 148.328 180.622 151.211 180.132 152.091C174.922 161.437 168.21 157.156 162.877 150.656L160.306 146.893L156.021 176.904C155.442 178.146 154.291 177.881 153.233 177.79L132.679 173.925C132.508 177.838 131.161 180.859 134.104 183.832C136.768 186.521 136.236 184.917 138.115 183.41C139.995 181.903 143.382 181.872 145.251 183.181C145.803 183.567 146.402 184.55 146.799 184.682C147.347 184.869 148.049 184.694 148.699 184.875C152.933 186.069 155.504 191.773 156.356 196.392C157.647 203.405 155.262 210.086 151.787 215.676C152.825 215.875 159.583 217.135 158.896 218.986C158.416 220.277 153.64 221.326 152.36 221.597C136.437 224.986 116.777 224.461 100.56 224.075C89.6761 223.816 71.5127 224.111 61.4396 220.337C57.8617 218.992 59.013 217.66 61.9456 216.719C71.2339 213.734 88.0188 213.535 97.9575 213.264C105.144 213.071 112.342 213.475 119.523 213.427C121.072 211.811 120.257 211.015 120.277 209.224C120.355 201.186 127.562 196.085 133.985 197.954C133.035 197.092 133.448 195.054 133.087 194.348C132.983 194.143 130.278 192.189 129.731 191.641C124.681 186.564 122.792 179.678 124.692 172.128L89.6967 165.507C84.828 166.816 80.4601 171.766 78.3588 176.94C77.858 178.17 76.6344 182.21 76.6653 183.41C76.7015 184.881 78.9474 187.07 78.746 190.598C78.5395 194.161 76.6085 194.632 76.2213 196.073C75.483 198.822 75.674 201.457 74.4039 204.472C73.5572 206.48 72.1219 207.698 71.2958 209.266C70.4129 210.942 70.8156 211.883 68.9415 213.137C63.9282 216.49 58.1715 211.045 54.862 206.975C50.3702 201.451 44.2933 195.825 41.2678 189.15C39.4556 185.147 37.9377 179.34 39.8015 175.028C40.0235 174.51 42.0216 171.64 42.4966 170.958C50.3702 159.701 62.4 167.551 66.0812 178.9L68.8072 178.466C69.7934 174.22 71.6727 170.241 74.1096 166.888C74.6466 166.147 77.192 163.608 77.2023 162.981C73.7276 162.113 69.5456 161.998 66.1896 160.768C65.5081 160.521 64.9247 160.472 64.6614 159.544L68.1619 131.294C67.9553 131.107 64.0934 133.435 63.3964 133.706C55.6571 136.703 49.7558 134.231 45.0833 126.76C44.7064 126.157 43.9681 124.209 43.6325 123.944C42.6721 123.19 40.3436 123.25 38.7534 121.809C36.2494 119.542 37.1994 117.263 36.3423 115.755C36.2029 115.508 34.1016 114.109 33.4407 113.271C31.3135 110.594 30.2293 106.174 29.9608 102.598C29.8937 101.736 30.1829 99.0524 29.7182 98.6785C25.7014 98.3228 21.7 97.8042 17.6936 97.3459C15.1792 97.0625 11.3741 98.1479 12.1537 93.5893C15.2979 69.3433 17.358 44.9224 20.1821 20.6281C20.4041 18.7347 20.6003 15.7681 20.9824 14.0495C21.1011 13.5129 21.318 13.1029 21.762 12.8496L103.621 18.385C104.091 18.5659 104.308 19.4463 104.313 19.9829L102.248 39.9538L102.232 39.9357ZM30.9108 21.3999C24.6275 22.6481 24.6275 35.1962 31.8712 34.8525C39.342 34.5028 39.3936 19.7116 30.9108 21.3999ZM45.9506 27.3393C46.0642 27.4539 48.6974 26.664 48.7748 26.266C49.0485 24.8128 46.4669 22.4672 45.2898 22.2501C36.4249 20.6281 35.635 37.373 44.9903 35.3771C46.2501 35.1118 48.0778 33.3632 48.2792 31.8436L45.8422 30.6196C44.5205 33.5923 41.3349 32.9592 41.1026 29.498C40.9632 27.4057 42.2952 25.0058 44.252 25.2349C46.2088 25.4641 45.7648 27.1283 45.9558 27.3333L45.9506 27.3393ZM57.8255 23.432L49.8229 23.1305V26.1394C50.334 26.2298 52.2237 25.8198 52.3373 26.5736L51.4028 35.7148C52.2856 36.1912 53.2666 36.0525 54.2114 36.0525L54.9859 26.4349L57.5313 26.3927L57.8255 23.432ZM63.1847 23.5044C56.1682 24.5294 55.8894 37.982 64.1502 36.9449C68.8279 36.36 70.9034 28.5815 67.3823 25.0721C66.2825 23.9747 64.6252 23.2933 63.1847 23.5044ZM70.604 37.2464C72.029 37.5238 74.6879 37.2464 76.2833 37.2464C76.3659 37.2464 77.4449 36.2334 77.5689 36.0404C78.6789 34.3159 78.2968 32.115 76.6705 31.0899C78.5756 30.6196 79.0403 26.9112 77.4295 25.6992C75.8186 24.4872 72.8086 24.9998 70.986 24.6319C71.3887 26.4469 69.5662 36.0706 69.9947 36.9027C70.0102 36.9389 70.5472 37.2404 70.5988 37.2524L70.604 37.2464ZM86.7177 28.8167C86.8313 28.2137 87.487 25.7957 86.8313 25.5786C85.9277 25.2771 83.5992 25.5786 82.4685 25.5485C81.9058 25.5304 80.9609 24.9636 80.6615 25.5183L79.5153 37.8433C80.5118 37.8735 85.7161 38.8503 86.1085 38.169C86.2272 37.9639 86.4492 35.7329 86.2324 35.5882C85.6335 35.1842 82.4014 35.7811 82.3446 34.9731C82.9126 32.4647 82.1175 33.2064 83.7645 33.3451C84.1568 33.3752 86.1343 33.4476 86.2169 33.3451C86.3408 33.1943 85.9794 31.2286 86.4699 30.7824L82.8609 30.3362V28.5333L86.7125 28.8106L86.7177 28.8167ZM95.438 27.1283C94.204 25.85 90.7087 25.9766 89.0617 25.8319L87.7709 38.4463L90.6106 38.7478C90.688 37.5479 90.7242 35.962 90.9978 34.8284C91.0701 34.5209 91.2663 33.8094 91.638 34.2435C91.8859 34.5269 92.7945 38.8564 92.9598 39.0192C93.2334 39.2965 95.438 38.7177 96.0317 39.3508L94.2866 34.0807C96.3312 32.8144 97.3173 29.0759 95.438 27.1283ZM99.1295 46.261L20.4041 39.9719L14.4512 94.325L47.8403 97.6414C48.9245 91.4427 56.2663 88.8438 58.853 95.0727C59.5138 96.6585 59.3125 98.9197 60.8511 99.0584L92.6551 102.128L99.1244 46.261H99.1295ZM172.181 49.5774L101.974 42.6491C101.752 45.254 101.091 47.8288 101.195 50.4638L163.559 57.0484L163.646 58.381C159.134 87.2459 154.962 116.183 150.956 145.157C150.827 145.633 150.538 145.934 150.104 145.995L76.9958 133.151C76.5724 132.928 76.3401 132.639 76.4278 132.066C77.7031 122.611 79.0816 113.132 80.0264 103.635L74.2594 103.02L67.1344 158.29L153.873 174.703L172.181 49.5774ZM161.086 59.177L100.704 53.2014L94.6687 103.701L94.1111 104.558C90.3266 105.287 86.2479 103.641 82.3859 103.979L79.0093 130.956L149.211 142.986L161.086 59.177ZM180.705 109.641C180.096 106.113 186.219 95.5731 181.495 93.8546C175.888 91.8165 174.726 104.684 175.852 108.682L180.705 109.641ZM32.2687 98.8293V103.484C32.2687 107.078 34.9483 111.98 37.6795 113.705C38.6089 114.296 43.111 115.598 43.1058 116.099C43.1058 116.153 42.5121 116.852 42.4656 116.852H38.7225C38.6398 117.944 39.564 119.108 40.2868 119.687C43.9164 122.581 52.0791 120.681 53.9946 115.852C55.4041 112.306 54.0927 114.006 52.6522 114.591C52.0791 114.826 48.2172 116.141 48.527 114.603C48.5941 114.278 52.6884 112.24 53.5557 111.438C55.3215 109.798 57.4073 106.011 57.7584 103.412C58.1405 100.572 57.5416 94.5963 54.5264 94.0898C51.2685 93.5411 49.9055 97.0685 50.4476 100.349C50.5612 101.03 51.3357 102.532 51.253 102.737C50.9536 103.49 49.0226 103.376 48.1552 103.653C46.9781 104.033 45.8835 105.064 45.2123 106.24C44.6909 107.156 43.5137 112.041 43.3433 108.598C43.1988 105.583 45.1039 102.483 47.4892 101.374C47.8248 101.217 49.3376 101.253 48.2688 100.481C47.3188 99.794 43.9835 100.216 42.7186 99.7036C41.1852 99.8483 39.5124 103.02 38.5624 99.4081L32.2687 98.8293ZM71.7656 102.731L59.8856 101.525C60.0818 104.389 59.044 107.368 57.872 109.846C57.5984 110.425 56.953 110.907 56.8394 111.347C56.6277 112.173 56.8807 113.331 56.762 114.26C56.318 117.667 54.3663 120.416 51.6248 121.658C55.7449 131.409 66.1896 123.244 69.9018 117.232L71.7656 102.725V102.731ZM176.445 129.768C175.49 130.088 171.355 129.768 169.992 129.768C169.475 129.768 167.405 130.601 167.018 131.113C166.027 132.41 166.424 134.894 167.555 135.913C168.148 136.443 170.611 137.583 171.282 137.583H175.8C175.836 137.583 176.048 138.295 176.048 138.337C176.027 139.006 173.043 139.507 172.444 139.386C175.676 142.829 179.936 140.465 182.388 136.986C185.729 132.241 187.618 121.417 184.944 115.984C182.889 111.806 176.327 111.022 172.609 111.486C170.389 111.763 166.77 113.47 167.075 116.623C167.379 119.777 168.716 118.185 170.255 118.058C171.923 117.92 175.754 118.04 177.173 119.011C177.54 119.264 177.752 119.469 177.607 120C177.323 121.049 174.385 120.115 173.611 120.127C172.139 120.151 169.444 120.543 168.143 121.303C166.13 122.472 165.696 124.034 166.011 126.597C166.367 129.503 167.777 127.64 169.512 127.399C170.668 127.236 176.585 127.586 176.838 129.021C176.884 129.292 176.616 129.714 176.451 129.768H176.445ZM165.686 120.404C166.052 119.68 165.077 118.613 165.02 117.835L164.705 115.05L163.93 122.255C164.318 122.098 164.472 121.459 164.818 121.031C165.056 120.736 165.65 120.482 165.691 120.404H165.686ZM167.498 138.831C167.431 138.699 165.866 137.728 165.34 136.98C164.08 135.201 164.075 133.64 164.183 131.415C164.261 129.756 164.885 129.582 163.786 127.676L163.414 124.655C163.455 126.814 162.128 130.588 162.433 132.536C162.686 134.134 165.619 140.254 166.636 141.478C167.963 143.076 167.26 141.677 167.266 141.02C167.271 140.363 167.704 139.223 167.498 138.825V138.831ZM169.604 140.284C168.892 141.249 170.745 144.367 171.582 145.036C176.502 148.98 185.651 145.476 185.088 137.577C181.768 142.286 177.395 145.036 172.212 142.196C171.804 141.973 169.723 140.116 169.604 140.278V140.284ZM67.1189 187.142C67.1293 187.914 66.835 193.003 65.6888 191.056C65.5184 190.766 65.188 185.273 64.9711 184.079C63.0557 173.431 54.3663 162.872 45.171 171.073C48.3308 171.483 50.5612 172.231 53.153 174.401C58.6052 178.978 60.1179 186.461 63.3964 192.823C65.0537 196.043 67.1861 198.629 68.9828 201.644C69.4578 202.446 70.5833 205.341 70.7382 205.467C71.6366 206.215 73.3404 200.227 73.4591 199.474C74.3523 193.715 71.7037 189.09 67.1241 187.142H67.1189ZM68.926 209.368C69.1583 207.137 68.8176 205.938 67.9399 204.062C66.391 200.752 63.6339 197.689 61.8527 194.324C58.6 188.186 56.9685 179.883 51.4544 175.782C48.6664 173.708 44.4637 172.182 42.0836 175.722C53.3389 173.72 56.3644 187.89 61.0782 196.428C62.7459 199.443 64.7698 202.127 66.7111 204.894L68.926 209.375V209.368ZM67.1809 184.369C67.4597 184.7 68.8176 184.954 69.3597 185.285C70.6866 186.099 72.0754 187.474 73.0461 188.801C73.9651 190.055 74.5382 191.834 75.2507 192.841C75.8083 193.631 76.3349 191.351 76.3865 190.863C76.7531 187.329 73.8205 183.603 71.239 182.186C70.3148 181.679 67.3564 180.389 66.7214 181.71C66.6336 181.896 66.9537 184.103 67.1757 184.363L67.1809 184.369ZM135.529 195.554C135.926 199.063 139.391 199.22 141.719 198.105C147.889 195.156 147.657 183.814 140.831 185.062C140.351 185.147 138.565 185.918 139.401 186.684C140.661 187.83 143.247 187.299 143.268 190.893C143.294 195.373 138.575 196.73 135.524 195.554H135.529ZM141.781 206.299C141.673 206.233 140.676 204.635 140.155 204.141C136.422 200.607 130.242 198.647 126.049 202.096C122.595 204.937 120.54 211.37 125.404 213.8C130.268 216.23 141.389 216.285 145.581 212.812C150.383 208.832 156.805 191.436 149.138 187.685C147.564 186.913 148.4 187.999 148.436 189.102C148.679 195.831 145.266 200.384 139.659 201.572L142.561 204.949C143.046 205.962 142.757 206.926 141.781 206.305V206.299ZM121.852 214.18C121.232 215.091 123.623 217.605 124.346 218.033C128.646 220.566 140.377 220.668 144.817 218.534C150.765 215.67 154.523 206.348 154.632 199.166C154.198 199.25 154.167 199.751 154.043 200.131C151.973 206.474 149.841 213.559 143.862 216.218C139.427 218.19 129.947 218.196 125.461 216.435C124.815 216.182 121.976 213.999 121.847 214.186L121.852 214.18Z" fill="#262626"/>
<path d="M134.76 107.838C133.804 116.177 127.578 128.623 119.668 129.479C112.275 130.281 108.748 124.77 106.957 117.214C106.771 116.424 106.471 113.283 106.317 113.006C106.234 112.855 104.241 111.781 103.658 111.142C103.317 110.768 101.711 108.375 101.711 107.983C101.706 105.474 105.145 109.152 105.774 109.587C112.961 114.585 121.976 113.548 129.091 108.899C130.17 108.194 131.011 107.132 132.183 106.638C131.992 105.999 130.521 106.047 130.381 105.281C130.159 104.057 132.638 104.226 133.236 104.371C134.476 104.672 138.42 107.76 137.754 109.333C137.026 111.052 135.787 107.983 134.775 107.838H134.76ZM114.453 122.062C110.984 126.145 117.433 127.079 119.885 126.729C122.296 126.386 126.509 123.184 127.552 120.627C128.151 119.156 126.695 118.794 125.595 118.656C122.399 118.239 116.792 119.313 114.459 122.068L114.453 122.062Z" fill="#262626"/>
<path d="M71.766 69.6931L73.8364 71.6347C78.3746 77.9962 75.9584 87.5475 69.4375 90.5625C65.1161 92.5583 57.196 91.8167 53.458 88.4399C48.0317 83.5377 49.4464 72.3161 55.3218 68.7284C55.864 68.3967 56.7623 68.7042 56.0189 67.7274C54.7797 66.1054 53.8659 65.3818 53.458 62.9095C51.2534 49.5233 68.7973 45.0129 74.998 54.3652C78.1629 59.1409 76.7793 67.5043 71.766 69.6992V69.6931ZM64.7288 57.145C59.7878 57.4827 59.8033 66.6661 65.6788 65.7556C68.2965 65.3516 69.6182 61.8845 68.5133 59.2072C67.8989 57.7299 66.0764 57.0546 64.734 57.145H64.7288ZM62.4055 72.7623C57.7072 73.6246 57.196 82.6573 62.106 83.4774C69.7937 84.7617 69.5253 71.4538 62.4055 72.7623Z" fill="#262626"/>
<path d="M38.4648 59.7801C38.1137 59.4605 34.9695 62.3488 34.5926 61.8785C34.3499 61.577 34.9333 54.3954 35.176 53.6959C35.4548 52.8879 40.943 48.5344 41.702 48.3716C42.4197 48.2208 46.4313 48.7696 47.3658 48.9625C47.6601 49.0228 47.8873 49.071 47.9957 49.4449L43.7207 88.8681L36.2705 88.6088L35.6561 88.1143L38.4648 59.774V59.7801Z" fill="#262626"/>
<path d="M61.5277 33.2425C59.0649 30.4084 62.2505 24.6137 65.307 27.1945C68.3583 29.7753 64.3725 36.5106 61.5277 33.2425Z" fill="#262626"/>
<path d="M29.7702 30.8485C27.8805 28.4848 29.9974 22.7806 33.1416 24.6739C36.9829 26.9834 32.7286 34.5508 29.7702 30.8485Z" fill="#262626"/>
<path d="M72.7986 34.8461L73.0671 32.1568C76.454 31.7045 76.1236 35.5998 72.7986 34.8461Z" fill="#262626"/>
<path d="M75.6073 27.6706C75.819 28.0686 75.5195 29.2263 75.344 29.6966L73.3149 29.7389L73.5731 27.339C73.6867 27.2003 75.4731 27.4234 75.6073 27.6766V27.6706Z" fill="#262626"/>
<path d="M91.127 31.5359L91.3851 28.8346C94.6636 28.2014 94.297 32.3862 91.127 31.5359Z" fill="#262626"/>
<path d="M103.477 90.5078C101.603 83.1031 104.68 69.5058 111.996 68.951C119.312 68.3963 119.978 85.0447 116.968 90.5801C117.081 90.9902 121.795 92.2866 122.131 96.0733C122.193 96.7668 121.635 98.5335 121 97.6531C120.329 95.9768 120.411 94.5417 119.002 93.4081C116.539 91.4303 113.235 93.1549 112.801 96.7848C112.584 98.5938 113.183 99.9023 112.388 101.44C110.581 100.204 110.576 97.9486 110.968 96.3869C111.201 95.4824 111.908 94.5176 111.299 93.8121L99.749 92.2383" fill="#262626"/>
<path d="M116.709 77.6642C116.446 75.6141 114.598 72.9308 112.822 72.5992C106.099 71.357 102.723 86.1362 104.891 91.8766H106.822C106.683 88.7592 107.674 85.4186 108.986 82.7233L111.371 82.7956L110.839 79.7867C112.398 78.1647 114.582 77.3145 116.704 77.6642H116.709Z" fill="#F39FA8"/>
<path d="M141.497 102.351C141.038 103.273 136.556 99.6674 135.549 99.2152C131.672 97.4485 127.505 97.5691 123.478 97.6354C122.812 94.9099 126.442 96.3751 126.762 95.748C125.11 88.6147 128.491 72.4065 135.988 73.5702C144.084 74.8305 143.139 93.517 138.864 99.2876C139.809 100.21 141.363 100.566 141.502 102.357L141.497 102.351ZM140.392 82.808C136.654 72.2256 129.762 79.5579 128.223 87.3062C127.614 90.3815 127.727 93.6557 128.223 96.7309L130.107 96.942C130.696 94.0717 131.032 86.2631 134.672 88.0479L134.145 85.039C136.029 83.3567 137.929 81.8613 140.387 82.814L140.392 82.808Z" fill="#262626"/>
<path d="M142.803 75.0114C142.7 75.6385 141.755 76.2596 141.44 76.0666C141.327 75.9943 140.718 74.2878 140.062 73.522C138.823 72.0628 137.191 71.6467 136.267 70.079C137.362 68.3966 142.411 73.3894 142.798 75.0114" fill="#262626"/>
<path d="M113.973 65.9361C111.092 65.6527 109.306 67.1361 106.988 68.746L106.698 67.0396C106.905 66.4185 114.159 62.481 113.973 65.9301V65.9361Z" fill="#262626"/>
</svg>
