<svg width="349" height="359" viewBox="0 0 349 359" fill="none" xmlns="http://www.w3.org/2000/svg">
<path d="M339.83 168.93C338.58 167.72 335.09 166.42 334.81 164.96C333.79 159.78 339.32 151.27 339.81 145.53C340.96 131.9 325.62 128.76 319.45 139.68C315.5 146.66 315.68 154.91 315.77 162.66C310.8 163.35 306.03 164.31 302.33 167.94L299.83 172.17L299.98 171.31C299.78 172.11 299.59 172.9 299.4 173.71L299.94 177.79C300.05 179.08 301.94 180.85 301.23 182.05C301.15 182.19 300 182.6 299.54 183.09C298.88 183.8 298.57 184.86 297.82 185.12L299.08 175.11C298.81 176.33 298.55 177.56 298.3 178.8C297.03 185.25 296.03 191.74 295.15 198.25C295.73 195.15 296.88 191.52 296.82 189.1L297.54 194.11C299.68 197.27 298.47 197.56 298.31 200.31C298.1 203.99 298.11 206.59 300.55 209.54C301.57 210.77 304.6 212.38 304.73 212.61C305.12 213.27 304.29 215.18 304.28 216.25C304.27 217.34 305.62 219.66 303.06 217.01C301.09 214.98 295.41 204.83 294.92 202.18C294.83 201.67 294.82 201.09 294.86 200.46C293.7 209.26 292.71 218.08 291.54 226.87L295.81 232.21C306.13 242.99 319.14 250.09 329.23 234.59C330.18 233.13 332.21 228.35 332.96 227.6C333.47 227.09 335.35 226.48 336.28 225.68C340.74 221.87 343.63 216.87 343.35 210.77C343.25 208.58 341.78 205.98 341.85 204.35C341.92 202.76 343.39 200.46 343.8 198.8C345.94 190.06 346.9 175.74 339.84 168.92L339.83 168.93ZM331.84 138.04C340.98 140.89 329.12 158.37 330.31 164.22L320.91 162.63C318.73 155.99 320.98 134.66 331.84 138.04ZM312.65 222.92C311.03 221.81 307.44 216.63 308.82 215.04C309.05 214.77 313.09 217.85 313.87 218.22C323.91 222.93 332.38 218.37 338.81 210.56C339.9 223.66 322.18 229.47 312.65 222.93V222.92ZM333.57 209.56C328.82 215.34 320.58 219.26 314.31 213.54C315.47 213.74 321.25 212.91 321.29 211.8C321.29 211.73 320.88 210.55 320.81 210.55H312.06C310.76 210.55 305.99 208.66 304.84 207.78C302.64 206.1 301.88 201.97 303.8 199.82C304.56 198.97 308.56 197.59 309.56 197.59C312.2 197.59 320.21 198.12 322.06 197.59C322.38 197.5 322.9 196.8 322.81 196.35C322.32 193.97 310.86 193.39 308.62 193.66C305.26 194.06 302.54 197.15 301.84 192.33C301.23 188.08 302.07 185.49 305.97 183.55C308.49 182.3 313.71 181.64 316.56 181.6C318.06 181.58 323.75 183.13 324.3 181.39C324.58 180.5 324.17 180.16 323.46 179.74C320.71 178.13 313.29 177.93 310.06 178.16C307.08 178.37 304.48 180.93 303.9 175.78C303.31 170.54 310.33 167.72 314.62 167.26C321.83 166.48 334.53 167.79 338.51 174.72C343.69 183.73 340.03 201.68 333.56 209.55L333.57 209.56Z" fill="black" stroke="black" stroke-miterlimit="10"/>
<path d="M274.32 340.07C281.05 330.8 285.67 319.71 283.17 308.09C281.53 300.43 276.55 290.97 268.34 288.99C267.08 288.69 265.73 288.98 264.66 288.67C263.89 288.45 262.73 286.82 261.66 286.18C258.04 284.02 251.35 284.16 247.84 286.56C244.2 289.06 245.23 291.72 240.07 287.26C234.37 282.33 236.98 277.32 237.31 270.83L249.48 272.79C248.24 272.24 247 271.69 245.73 271.21C241.77 269.73 237.57 268.88 233.41 268.2C224.71 266.79 215.62 265.74 206.81 265.33C206.59 265.32 206.37 265.31 206.15 265.3L221.81 267.84C218.13 280.37 221.79 291.79 231.57 300.2C232.63 301.11 237.86 304.35 238.07 304.69C238.77 305.87 237.97 309.25 239.81 310.67C227.38 307.57 213.41 316.03 213.26 329.36C213.23 332.34 214.8 333.65 211.8 336.33C197.9 336.42 183.95 335.74 170.03 336.06C150.77 336.51 118.27 336.84 100.28 341.79C94.6 343.35 92.37 345.57 99.3 347.79C118.82 354.06 154 353.57 175.07 353.99C206.48 354.63 244.56 355.49 275.4 349.88C277.89 349.43 287.14 347.69 288.06 345.55C289.39 342.48 276.3 340.39 274.29 340.06L274.32 340.07ZM257.82 298.97C257.78 293.01 252.77 293.89 250.33 291.99C248.7 290.72 252.17 289.44 253.1 289.3C266.32 287.23 266.76 306.04 254.82 310.93C250.31 312.78 243.6 312.52 242.83 306.7C248.74 308.65 257.88 306.4 257.83 298.97H257.82ZM224.45 317.54C232.57 311.83 244.54 315.08 251.77 320.93C252.78 321.75 254.71 324.4 254.92 324.51C256.81 325.54 257.38 323.94 256.43 322.26L250.81 316.66C261.67 314.69 268.28 307.14 267.81 295.98C267.73 294.15 266.11 292.35 269.17 293.63C284.02 299.85 271.59 328.7 262.28 335.3C254.15 341.06 232.18 340.78 223.2 336.94C213.78 332.91 217.76 322.24 224.45 317.53V317.54ZM260.8 344.79C252.2 348.33 229.48 348.17 221.15 343.96C219.75 343.25 215.11 339.08 216.32 337.57C216.57 337.26 222.07 340.88 223.32 341.3C232.01 344.23 250.37 344.21 258.96 340.94C270.54 336.52 274.67 324.78 278.68 314.26C278.92 313.63 278.98 312.8 279.82 312.66C279.61 324.57 272.33 340.04 260.81 344.78L260.8 344.79Z" fill="black" stroke="black" stroke-miterlimit="10"/>
<path d="M113.83 335.85C117.46 333.77 116.68 332.21 118.39 329.43C119.99 326.82 122.77 324.8 124.41 321.48C126.87 316.48 126.5 312.11 127.93 307.55C128.68 305.16 132.43 304.38 132.82 298.47C133.21 292.62 128.86 288.99 128.79 286.55C128.74 284.56 131.11 277.86 132.07 275.82C136.14 267.24 144.6 259.03 154.03 256.86L161.26 258.03C157.93 256.81 154.62 255.58 151.29 254.49C146.69 252.99 141.94 251.39 137.15 250.61C132.38 249.83 127.46 250.14 122.65 250.18C117.22 250.22 110.88 250.51 106.43 246.85C106.37 246.8 106.31 246.74 106.25 246.69C106.03 246.62 105.82 246.53 105.61 246.43L105.54 246.94C106.05 248.49 107.18 248.56 108.5 248.97C115 251.01 123.1 251.2 129.83 252.64C129.81 253.68 124.88 257.89 123.84 259.12C119.12 264.68 115.49 271.28 113.57 278.32L108.29 279.04C101.16 260.22 77.86 247.21 62.61 265.87C61.69 267 57.82 271.76 57.39 272.62C53.79 279.77 56.72 289.4 60.23 296.04C66.08 307.11 77.85 316.45 86.56 325.6C92.97 332.35 104.13 341.38 113.83 335.82V335.85ZM109.55 283.75C110.78 281.55 116.51 283.7 118.3 284.54C123.3 286.89 128.98 293.07 128.27 298.93C128.17 299.74 127.15 303.52 126.07 302.21C124.69 300.53 123.58 297.58 121.8 295.51C119.91 293.31 117.23 291.02 114.66 289.68C113.61 289.13 110.98 288.71 110.44 288.16C110.02 287.73 109.39 284.07 109.56 283.76L109.55 283.75ZM106.17 287.66C106.59 289.64 107.23 298.75 107.56 299.23C109.78 302.46 110.35 294.02 110.33 292.74C119.2 295.97 124.33 303.64 122.6 313.19C122.37 314.44 119.07 324.37 117.33 323.13C117.04 322.92 114.86 318.12 113.93 316.79C110.46 311.79 106.32 307.5 103.11 302.16C96.77 291.61 93.84 279.19 83.27 271.61C78.25 268.01 73.94 266.77 67.81 266.09C85.62 252.49 102.45 270 106.16 287.66H106.17ZM61.82 273.81C66.44 267.94 74.58 270.47 79.97 273.91C90.65 280.71 93.81 294.48 100.11 304.66C103.56 310.23 108.9 315.31 111.9 320.81C113.6 323.92 114.26 325.91 113.81 329.61L109.52 322.18C105.75 317.6 101.83 313.15 98.61 308.14C89.48 293.98 83.62 270.48 61.82 273.8V273.81Z" fill="black" stroke="black" stroke-miterlimit="10"/>
<path d="M86.2 190.47C84.45 189.55 82.21 187.8 80.31 184.15C85.62 182.09 89.4 177.53 90.26 171.88C90.49 170.34 90 168.42 90.41 167.05C90.63 166.32 91.88 165.51 92.41 164.56C94.68 160.45 96.69 155.51 96.31 150.76L101.11 151.18C100.46 149.87 100.37 148.27 100.85 146.88L98.19 146.66C95.21 146.43 95.6 142.68 94.32 140.05C89.3 129.72 75.09 134.03 72.99 144.31L36.96 141.25C37.47 142.76 37.32 144.53 36.49 145.89C36.94 145.93 37.4 145.97 37.85 146C38.75 146.63 38.2 151.07 38.32 152.5C38.84 158.43 40.94 165.76 45.06 170.2C46.34 171.58 50.41 173.91 50.68 174.32C52.35 176.83 50.5 180.6 55.35 184.36C58.43 186.75 62.94 186.65 64.8 187.9C65.46 188.34 66.89 191.57 67.61 192.57C76.66 204.96 88.09 209.07 103.08 204.09C104.43 203.64 111.91 199.78 112.31 200.09C113.95 200.18 115.58 200.27 117.22 200.37C117.45 198.71 117.85 196.1 118.49 192.91C119.33 188.75 119.91 186.92 120.71 183.15C121.17 180.96 121.79 177.72 122.31 173.68C109.77 188.66 94.91 195.06 86.2 190.48V190.47ZM58.35 180.87C56.95 179.91 55.15 177.98 55.32 176.17H62.57C62.66 176.17 63.81 175.01 63.81 174.92C63.82 174.09 55.1 171.93 53.3 170.95C48.01 168.08 42.82 159.96 42.82 154V146.28L55.01 147.24C56.86 153.23 60.09 147.97 63.06 147.73C65.52 148.58 71.97 147.88 73.81 149.02C75.88 150.3 72.95 150.24 72.3 150.5C67.69 152.34 63.99 157.48 64.27 162.48C64.6 168.19 66.88 160.09 67.89 158.57C69.18 156.63 71.31 154.91 73.59 154.28C75.27 153.82 79.01 154.01 79.59 152.76C79.75 152.42 78.25 149.93 78.03 148.8C76.98 143.36 79.62 137.51 85.93 138.42C91.77 139.26 92.93 149.18 92.19 153.88C91.51 158.19 87.47 164.47 84.05 167.19C82.38 168.52 74.44 171.9 74.31 172.44C73.7 174.99 81.18 172.81 82.3 172.42C85.09 171.45 87.63 168.63 84.9 174.51C81.19 182.51 65.37 185.67 58.35 180.87Z" fill="black" stroke="black" stroke-miterlimit="10"/>
<path d="M180.98 12.8502L22.43 3.68018C21.58 4.10018 21.16 4.78018 20.92 5.67018C20.18 8.51018 19.79 13.4302 19.37 16.5802C13.9 56.8702 9.89999 97.3702 3.81999 137.58C2.31999 145.14 9.67999 143.33 14.55 143.81C19.03 144.24 23.49 144.81 27.97 145.14C44.83 146.41 53.26 147.04 58.12 147.73C61.48 148.2 64.92 147.87 68.29 148.27C70.62 148.55 72.8 148.92 73.61 147.78C74.17 146.98 73.97 145.6 73.27 144.81C72.29 143.7 70.62 144.09 67.81 144.03C65.58 143.98 65.83 143.72 61.45 143.19C56.53 142.59 52.64 142.39 50.15 142.39C50.15 142.39 42.71 142.01 29.24 140.96C24.34 140.58 17.16 139.93 8.29999 138.84C12.14 108.79 15.99 78.7502 19.83 48.7002L172.31 59.1302L159.78 151.78C138.71 150 117.64 148.23 96.57 146.45C96.76 147.12 96.93 147.94 97 148.9C97.06 149.63 97.04 150.29 97 150.86C104.04 151.47 111.08 152.08 118.12 152.69C119.5 152.87 120.92 153.03 122.39 153.17C123.87 153.31 125.32 153.42 126.72 153.51L135.3 154.29C135.28 154.45 135.26 154.6 135.24 154.76C135.72 154.6 136.26 154.51 136.85 154.51H139.2C139.88 154.51 140.49 154.61 141.02 154.79C148.16 154.56 155.62 156.95 162.58 155.81L163.66 154.39L175.35 70.6402L175.72 70.6702C175.95 68.2802 176.1 65.8802 176.35 63.5002C176.59 60.0302 177.46 56.6102 177.81 53.1502H177.98C178.09 51.6602 178.21 50.1502 178.32 48.6502L182.32 15.5302C182.32 14.6402 181.89 13.1802 180.98 12.8802V12.8502ZM42.04 40.1902C28.02 40.7502 28.01 19.9502 40.18 17.8802C56.6 15.0902 56.51 39.6102 42.04 40.1902ZM74.78 25.9402C74.63 26.6102 69.53 27.9102 69.31 27.7202C68.93 27.3802 69.69 24.6002 66.01 24.2402C62.22 23.8702 59.64 27.8502 59.91 31.3102C60.36 37.0402 66.53 38.1002 69.09 33.1702L73.81 35.2002C73.43 37.7202 69.88 40.6102 67.44 41.0602C49.33 44.3702 50.85 16.5902 68.02 19.2902C70.3 19.6502 75.3 23.5302 74.77 25.9502L74.78 25.9402ZM91.74 26.1502L86.81 26.2202L85.31 42.1702C83.48 42.1702 81.58 42.3902 79.87 41.6102L81.68 26.4502C81.46 25.2002 77.8 25.8802 76.81 25.7302V20.7402L92.31 21.2402L91.74 26.1502ZM104.57 43.6602C88.57 45.3802 89.11 23.0702 102.7 21.3702C105.49 21.0202 108.7 22.1502 110.83 23.9702C117.65 29.7902 113.63 42.6902 104.57 43.6602ZM130.56 42.1602C130.32 42.4802 128.23 44.1602 128.07 44.1602C124.98 44.1602 119.83 44.6202 117.07 44.1602C116.96 44.1402 115.93 43.6402 115.9 43.5802C115.07 42.2002 118.6 26.2402 117.82 23.2302C121.35 23.8402 127.33 23.0902 130.3 25.0002C133.42 27.0102 132.52 33.1502 128.83 33.9402C131.98 35.6402 132.72 39.2902 130.57 42.1502L130.56 42.1602ZM148.27 30.1702L140.81 29.7102V32.7002L147.8 33.4402C146.85 34.1802 147.56 37.4402 147.31 37.6902C147.14 37.8602 143.31 37.7402 142.56 37.6902C139.37 37.4602 140.91 36.2302 139.81 40.3902C139.92 41.7302 146.18 40.7502 147.34 41.4102C147.76 41.6502 147.32 45.3602 147.1 45.6902C146.34 46.8102 136.26 45.2002 134.33 45.1502L136.55 24.7102C138.89 24.6302 141.07 24.5802 143.09 24.5502C146.52 24.5002 147.59 24.5402 148.28 25.3202C149.5 26.7002 148.61 29.3202 148.28 30.1702H148.27ZM166.31 47.6502C165.17 46.6002 160.89 47.5602 160.36 47.1002C160.04 46.8302 158.28 39.6502 157.8 39.1802C157.07 38.4602 156.7 39.6502 156.56 40.1502C156.04 42.0402 155.96 44.6602 155.81 46.6502L150.31 46.1502L152.81 25.2302C156 25.4702 162.77 25.2602 165.16 27.3802C168.8 30.6102 166.89 36.8202 162.93 38.9102L166.31 47.6502Z" fill="#D2797B" stroke="black" stroke-miterlimit="10"/>
<path d="M172.32 59.1004L159.79 151.75L98.19 146.66C95.21 146.43 95.6 142.68 94.32 140.05C89.3 129.72 75.09 134.03 72.99 144.31L8.32001 138.81L19.85 48.6704L172.33 59.1004H172.32ZM54.81 81.5304L49.37 128.53L50.56 129.35L64.99 129.78L73.27 64.4004C73.06 63.7804 72.62 63.7004 72.05 63.6004C70.24 63.2704 62.48 62.3604 61.08 62.6204C59.6 62.8904 48.97 70.1104 48.44 71.4504C47.98 72.6004 46.84 84.5204 47.31 85.0204C48.04 85.8004 54.13 81.0204 54.81 81.5404V81.5304ZM119.32 97.9704C129.03 94.3304 131.71 80.4704 125.58 72.5404C113.58 57.0204 79.59 64.5004 83.86 86.7104C84.65 90.8104 86.42 92.0104 88.82 94.7004C90.26 96.3204 88.52 95.8104 87.47 96.3604C76.09 102.31 73.35 120.92 83.86 129.05C91.1 134.66 106.44 135.89 114.81 132.57C127.44 127.57 132.12 111.73 123.33 101.18L119.32 97.9604V97.9704Z" fill="white"/>
<path d="M322.06 197.59C322.38 197.5 322.9 196.8 322.81 196.35C322.32 193.97 310.86 193.39 308.62 193.66C305.26 194.06 302.54 197.15 301.84 192.33C301.23 188.08 302.07 185.49 305.97 183.55C308.49 182.3 313.71 181.64 316.56 181.6C318.06 181.58 323.75 183.13 324.3 181.39C324.58 180.5 324.17 180.16 323.46 179.75C320.71 178.14 313.29 177.94 310.06 178.17C307.08 178.38 304.48 180.94 303.9 175.79C303.32 170.64 310.33 167.73 314.62 167.27C321.83 166.49 334.53 167.8 338.51 174.73C343.69 183.74 340.03 201.69 333.56 209.56C328.81 215.34 320.57 219.26 314.3 213.54C315.46 213.74 321.24 212.91 321.28 211.8C321.28 211.73 320.87 210.55 320.8 210.55H312.05C310.75 210.55 305.98 208.66 304.83 207.78C302.63 206.1 301.87 201.97 303.79 199.82C304.55 198.97 308.55 197.59 309.55 197.59C312.19 197.59 320.2 198.12 322.05 197.59H322.06Z" fill="white"/>
<path d="M254.92 324.52C256.81 325.55 257.38 323.95 256.43 322.27L250.81 316.67C261.67 314.7 268.28 307.15 267.81 295.99C267.73 294.16 266.11 292.36 269.17 293.64C284.02 299.86 271.59 328.71 262.28 335.31C254.15 341.07 232.18 340.79 223.2 336.95C213.78 332.92 217.76 322.25 224.45 317.54C232.57 311.83 244.54 315.08 251.77 320.93C252.78 321.75 254.71 324.4 254.92 324.51V324.52Z" fill="#6FB3A8"/>
<path d="M42.81 146.28L55 147.24C56.85 153.23 60.08 147.97 63.05 147.73C65.51 148.58 71.96 147.88 73.8 149.02C75.87 150.3 72.94 150.24 72.29 150.5C67.68 152.34 63.98 157.48 64.26 162.48C64.59 168.19 66.87 160.09 67.88 158.57C69.17 156.63 71.3 154.91 73.58 154.28C75.26 153.82 79 154.01 79.58 152.76C79.74 152.42 78.24 149.93 78.02 148.8C76.97 143.36 79.61 137.51 85.92 138.42C91.76 139.26 92.92 149.18 92.18 153.88C91.5 158.19 87.46 164.47 84.04 167.19C82.37 168.52 74.43 171.9 74.3 172.44C73.69 174.99 81.17 172.81 82.29 172.42C85.08 171.45 87.62 168.63 84.89 174.51C81.18 182.51 65.36 185.67 58.34 180.87C56.94 179.91 55.14 177.98 55.31 176.17H62.56C62.65 176.17 63.8 175.01 63.8 174.92C63.81 174.09 55.09 171.93 53.29 170.95C48 168.08 42.81 159.96 42.81 154V146.28Z" fill="white"/>
<path d="M110.32 292.75C119.19 295.98 124.32 303.65 122.59 313.2C122.36 314.45 119.06 324.38 117.32 323.14C117.03 322.93 114.85 318.13 113.92 316.8C110.45 311.8 106.31 307.51 103.1 302.17C96.76 291.62 93.83 279.2 83.26 271.62C78.24 268.02 73.93 266.78 67.8 266.1C85.61 252.5 102.44 270.01 106.15 287.67C106.57 289.65 107.21 298.76 107.54 299.24C109.76 302.47 110.33 294.03 110.31 292.75H110.32Z" fill="#6FB3A8"/>
<path d="M330.31 164.22L320.91 162.63C318.73 155.99 320.98 134.66 331.84 138.04C340.98 140.89 329.12 158.37 330.31 164.22Z" fill="white"/>
<path d="M40.18 17.8701C56.6 15.0801 56.51 39.6001 42.04 40.1801C28.02 40.7401 28.01 19.9401 40.18 17.8701ZM37.97 33.5401C43.7 39.6801 51.94 27.1201 44.5 23.3001C38.41 20.1701 34.31 29.6301 37.97 33.5401Z" fill="white"/>
<path d="M216.32 337.58C216.57 337.27 222.07 340.89 223.32 341.31C232.01 344.24 250.37 344.22 258.96 340.95C270.54 336.53 274.67 324.79 278.68 314.27C278.92 313.64 278.98 312.81 279.82 312.67C279.61 324.58 272.33 340.05 260.81 344.79C252.21 348.33 229.49 348.17 221.16 343.96C219.76 343.25 215.12 339.08 216.33 337.57L216.32 337.58Z" fill="#6D4C00"/>
<path d="M113.81 329.61L109.52 322.18C105.75 317.6 101.83 313.15 98.61 308.14C89.48 293.98 83.62 270.48 61.82 273.8C66.44 267.93 74.58 270.46 79.97 273.9C90.65 280.7 93.81 294.47 100.11 304.65C103.56 310.22 108.9 315.3 111.9 320.8C113.6 323.91 114.26 325.9 113.81 329.6V329.61Z" fill="#6D4C00"/>
<path d="M69.32 27.7201C68.94 27.3801 69.7 24.6001 66.02 24.2401C62.34 23.8801 59.65 27.8501 59.92 31.3101C60.37 37.0401 66.54 38.1001 69.1 33.1701L73.82 35.2001C73.44 37.7201 69.89 40.6101 67.45 41.0601C49.34 44.3701 50.86 16.5901 68.03 19.2901C70.31 19.6501 75.31 23.5301 74.78 25.9501C74.63 26.6201 69.53 27.9201 69.31 27.7301L69.32 27.7201Z" fill="white"/>
<path d="M242.82 306.7C248.73 308.65 257.87 306.4 257.82 298.97C257.78 293.01 252.77 293.89 250.33 291.99C248.7 290.72 252.17 289.44 253.1 289.3C266.32 287.23 266.76 306.04 254.82 310.93C250.31 312.78 243.6 312.52 242.83 306.7H242.82Z" fill="#6FB3A8"/>
<path d="M308.82 215.03C309.05 214.76 313.09 217.84 313.87 218.21C323.91 222.92 332.38 218.36 338.81 210.55C339.9 223.65 322.18 229.46 312.65 222.92C311.03 221.81 307.44 216.63 308.82 215.04V215.03Z" fill="white"/>
<path d="M110.43 288.15C110.01 287.72 109.38 284.06 109.55 283.75C110.78 281.55 116.51 283.7 118.3 284.54C123.3 286.89 128.98 293.07 128.27 298.93C128.17 299.74 127.15 303.52 126.07 302.21C124.69 300.53 123.58 297.58 121.8 295.51C119.91 293.31 117.23 291.02 114.66 289.68C113.61 289.13 110.98 288.71 110.44 288.16L110.43 288.15Z" fill="#6FB3A8"/>
<path d="M299.39 173.73C299.28 174.2 299.18 174.67 299.07 175.14L297.81 185.15C298.56 184.89 298.86 183.83 299.53 183.12C299.99 182.63 301.14 182.21 301.22 182.08C301.93 180.88 300.04 179.11 299.93 177.82L299.39 173.74V173.73Z" fill="white"/>
<path d="M313 64.3404C310.78 96.9204 307.36 131.55 302.32 167.96C296.89 207.23 290.21 244.03 282.86 278.16C255.38 276.51 224.72 273.23 191.59 267.33C159.83 261.67 131.04 254.52 105.54 246.95C114.15 215.38 122.2 180.7 128.86 143.15C134.79 109.74 138.9 78.1304 141.69 48.6704C167.04 53.5404 195.04 57.7504 225.4 60.5804C256.96 63.5204 286.32 64.5304 312.99 64.3404H313Z" fill="white" stroke="black" stroke-width="3" stroke-miterlimit="10"/>
<path d="M161.27 74.71C180.67 77.87 201.79 80.52 224.46 82.25C248.45 84.08 270.9 84.63 291.54 84.35C290.75 105.27 289.08 127.81 286.16 151.72C282.8 179.19 278.27 204.56 273.19 227.59C251.11 227.15 225.53 225.11 197.44 220.02C176.52 216.23 157.61 211.35 140.92 206.16C145.86 187.13 150.43 166.07 154.05 143.16C157.95 118.53 160.16 95.58 161.27 74.73V74.71Z" fill="#FBFAF1" stroke="black" stroke-width="3" stroke-miterlimit="10"/>
<path d="M241.32 161.23C239.47 175.06 227.41 195.7 212.09 197.12C197.77 198.45 190.94 189.31 187.47 176.78C187.11 175.47 186.53 170.26 186.23 169.8C186.07 169.55 182.21 167.77 181.08 166.71C180.42 166.09 177.31 162.12 177.31 161.47C177.3 157.31 183.96 163.41 185.18 164.13C199.1 172.42 216.56 170.7 230.34 162.99C232.43 161.82 234.06 160.06 236.33 159.24C235.96 158.18 233.11 158.26 232.84 156.99C232.41 154.96 237.21 155.24 238.37 155.48C240.77 155.98 248.41 161.1 247.12 163.71C245.71 166.56 243.31 161.47 241.35 161.23H241.32ZM201.99 184.82C195.27 191.59 207.76 193.14 212.51 192.56C217.18 191.99 225.34 186.68 227.36 182.44C228.52 180 225.7 179.4 223.57 179.17C217.38 178.48 206.52 180.26 202 184.83L201.99 184.82Z" fill="black"/>
<path d="M119.32 97.9702L123.33 101.19C132.12 111.74 127.44 127.58 114.81 132.58C106.44 135.89 91.1 134.66 83.86 129.06C73.35 120.93 76.09 102.32 87.47 96.3702C88.52 95.8202 90.26 96.3302 88.82 94.7102C86.42 92.0202 84.65 90.8202 83.86 86.7202C79.59 64.5202 113.57 57.0402 125.58 72.5502C131.71 80.4702 129.03 94.3402 119.32 97.9802V97.9702ZM105.69 77.1602C96.12 77.7202 96.15 92.9502 107.53 91.4402C112.6 90.7702 115.16 85.0202 113.02 80.5802C111.83 78.1302 108.3 77.0102 105.7 77.1602H105.69ZM101.19 103.06C92.09 104.49 91.1 119.47 100.61 120.83C115.5 122.96 114.98 100.89 101.19 103.06Z" fill="black"/>
<path d="M54.81 81.5303C54.13 81.0003 48.04 85.7903 47.31 85.0103C46.84 84.5103 47.97 72.6003 48.44 71.4403C48.98 70.1003 59.61 62.8803 61.08 62.6103C62.47 62.3603 70.24 63.2703 72.05 63.5903C72.62 63.6903 73.06 63.7703 73.27 64.3903L64.99 129.77L50.56 129.34L49.37 128.52L54.81 81.5203V81.5303Z" fill="black"/>
<path d="M37.97 33.5401C34.31 29.6201 38.41 20.1601 44.5 23.3001C51.94 27.1301 43.7 39.6801 37.97 33.5401Z" fill="#7F1700" stroke="black" stroke-width="0.5" stroke-miterlimit="10"/>
<path d="M121.31 40.1702L121.83 35.7102C128.39 34.9602 127.75 41.4202 121.31 40.1702Z" fill="#7F1700" stroke="black" stroke-width="0.5" stroke-miterlimit="10"/>
<path d="M126.75 28.2803C127.16 28.9403 126.58 30.8603 126.24 31.6403L122.31 31.7103L122.81 27.7303C123.03 27.5003 126.49 27.8703 126.75 28.2903V28.2803Z" fill="#7F1700" stroke="black" stroke-width="0.5" stroke-miterlimit="10"/>
<path d="M156.82 34.6902L157.32 30.2102C163.67 29.1602 162.96 36.1002 156.82 34.6902Z" fill="#7F1700" stroke="black" stroke-width="0.5" stroke-miterlimit="10"/>
<path d="M201.99 184.82C206.52 180.25 217.37 178.47 223.56 179.16C225.69 179.4 228.51 179.99 227.35 182.43C225.33 186.67 217.18 191.98 212.5 192.55C207.76 193.13 195.27 191.59 201.98 184.81L201.99 184.82Z" fill="#AA5A63"/>
<path d="M101.19 103.06C114.98 100.89 115.5 122.97 100.61 120.83C91.1 119.47 92.09 104.49 101.19 103.06Z" fill="white"/>
<path d="M105.49 76.3701C118.29 74.4201 118.78 94.2401 104.95 92.3201C96.13 91.1001 97.04 77.6501 105.49 76.3701Z" fill="white"/>
<path d="M180.73 132.48C177.1 120.2 183.06 97.65 197.23 96.73C211.4 95.81 212.69 123.42 206.86 132.6C207.08 133.28 216.21 135.43 216.86 141.71C216.98 142.86 215.9 145.79 214.67 144.33C213.37 141.55 213.53 139.17 210.8 137.29C206.03 134.01 199.63 136.87 198.79 142.89C198.37 145.89 199.53 148.06 197.99 150.61C194.49 148.56 194.48 144.82 195.24 142.23C195.69 140.73 197.06 139.13 195.88 137.96L173.51 135.35" fill="black"/>
<path d="M206.36 111.18C205.85 107.78 202.27 103.33 198.83 102.78C185.81 100.72 179.27 125.23 183.47 134.75H187.21C186.94 129.58 188.86 124.04 191.4 119.57L196.02 119.69L194.99 114.7C198.01 112.01 202.24 110.6 206.35 111.18H206.36Z" fill="black"/>
<path d="M254.37 152.13C253.48 153.66 244.8 147.68 242.85 146.93C235.34 144 227.27 144.2 219.47 144.31C218.18 139.79 225.21 142.22 225.83 141.18C222.63 129.35 229.18 102.47 243.7 104.4C259.38 106.49 257.55 137.48 249.27 147.05C251.1 148.58 254.11 149.17 254.38 152.14L254.37 152.13ZM252.23 119.72C244.99 102.17 231.64 114.33 228.66 127.18C227.48 132.28 227.7 137.71 228.66 142.81L232.31 143.16C233.45 138.4 234.1 125.45 241.15 128.41L240.13 123.42C243.78 120.63 247.46 118.15 252.22 119.73L252.23 119.72Z" fill="black"/>
<path d="M256.9 106.78C256.7 107.82 254.87 108.85 254.26 108.53C254.04 108.41 252.86 105.58 251.59 104.31C249.19 101.89 246.03 101.2 244.24 98.5998C246.36 95.8098 256.14 104.09 256.89 106.78" fill="black"/>
<path d="M201.06 91.7298C195.48 91.2598 192.02 93.7198 187.53 96.3898L186.97 93.5598C187.37 92.5298 201.42 85.9998 201.06 91.7198V91.7298Z" fill="black"/>
<path d="M206.36 111.18C202.26 110.6 198.03 112.01 195 114.7L196.03 119.69L191.41 119.57C188.87 124.04 186.95 129.58 187.22 134.75H183.48C179.28 125.23 185.81 100.73 198.84 102.78C202.28 103.32 205.87 107.77 206.37 111.18H206.36Z" fill="white"/>
<path d="M252.23 119.72C247.47 118.14 243.79 120.62 240.14 123.41L241.16 128.4C234.1 125.44 233.46 138.39 232.32 143.15L228.67 142.8C227.71 137.7 227.48 132.27 228.67 127.17C231.65 114.32 245 102.17 252.24 119.71L252.23 119.72Z" fill="white"/>
<path d="M182.61 140.2C183 139.75 183.69 139.65 184.18 140.02C184.69 140.39 184.79 141.11 184.46 141.62C184.09 142.18 183.28 142.32 182.75 141.89C182.25 141.48 182.19 140.7 182.61 140.21V140.2Z" fill="black"/>
<path d="M188.91 139.03C189.3 138.58 189.99 138.48 190.48 138.85C190.99 139.22 191.09 139.94 190.76 140.45C190.39 141.01 189.58 141.15 189.05 140.72C188.55 140.31 188.49 139.53 188.91 139.04V139.03Z" fill="black"/>
<path d="M186.09 143.55C186.48 143.1 187.17 143 187.66 143.37C188.17 143.74 188.27 144.46 187.94 144.97C187.57 145.53 186.76 145.67 186.23 145.24C185.73 144.83 185.67 144.05 186.09 143.56V143.55Z" fill="black"/>
<path d="M226.44 146.13C226.83 145.68 227.52 145.58 228.01 145.95C228.52 146.32 228.62 147.04 228.29 147.55C227.92 148.11 227.11 148.25 226.58 147.82C226.08 147.41 226.02 146.63 226.44 146.14V146.13Z" fill="black"/>
<path d="M233.43 147.3C233.82 146.85 234.51 146.75 235 147.12C235.51 147.49 235.61 148.21 235.28 148.72C234.91 149.28 234.1 149.42 233.57 148.99C233.07 148.58 233.01 147.8 233.43 147.31V147.3Z" fill="black"/>
<path d="M228.76 149.85C229.15 149.4 229.84 149.3 230.33 149.67C230.84 150.04 230.94 150.76 230.61 151.27C230.24 151.83 229.43 151.97 228.9 151.54C228.4 151.13 228.34 150.35 228.76 149.86V149.85Z" fill="black"/>
<path d="M171.99 15.0801H29.05V48.6701H171.99V15.0801Z" fill="#D2797B"/>
<path d="M23.66 28.7698C23.89 25.2098 24.98 22.4998 26.93 20.6298C28.88 18.7598 31.47 17.9398 34.71 18.1498C37.95 18.3598 40.53 19.5098 42.2 21.5798C43.87 23.6498 44.59 26.4298 44.36 29.9398C44.19 32.4898 43.66 34.5498 42.77 36.1298C41.88 37.7098 40.66 38.8998 39.12 39.7098C37.58 40.5198 35.7 40.8498 33.48 40.7098C31.26 40.5698 29.39 40.0498 27.97 39.1698C26.55 38.2898 25.43 36.9698 24.63 35.2198C23.83 33.4698 23.5 31.3098 23.67 28.7598L23.66 28.7698ZM29.83 29.1998C29.69 31.3998 29.96 33.0098 30.64 34.0198C31.32 35.0298 32.31 35.5798 33.6 35.6598C34.89 35.7398 35.98 35.3398 36.77 34.4498C37.56 33.5598 38.03 31.8898 38.19 29.4498C38.32 27.3998 38.04 25.8698 37.35 24.8798C36.66 23.8898 35.66 23.3398 34.36 23.2598C33.06 23.1798 32.09 23.5898 31.27 24.5098C30.45 25.4298 29.97 26.9898 29.83 29.2098V29.1998Z" fill="#FEFEFE" stroke="black" stroke-width="0.5" stroke-miterlimit="10"/>
<path d="M60.83 33.1796L66.12 35.3196C65.65 36.9496 64.99 38.2996 64.13 39.3596C63.27 40.4196 62.25 41.1896 61.06 41.6796C59.87 42.1696 58.37 42.3596 56.59 42.2396C54.42 42.0996 52.67 41.6396 51.34 40.8596C50.01 40.0796 48.9 38.7896 48.02 36.9896C47.13 35.1896 46.78 32.9396 46.96 30.2296C47.2 26.6196 48.26 23.9096 50.14 22.0896C52.02 20.2696 54.57 19.4596 57.79 19.6696C60.3 19.8296 62.25 20.5196 63.61 21.7196C64.97 22.9196 65.93 24.6996 66.48 27.0496L60.95 28.0196C60.8 27.3396 60.64 26.8396 60.45 26.5196C60.14 25.9796 59.74 25.5596 59.26 25.2496C58.78 24.9396 58.23 24.7596 57.61 24.7196C56.21 24.6296 55.1 25.1696 54.28 26.3496C53.66 27.2196 53.28 28.6396 53.15 30.5896C52.99 33.0096 53.22 34.6796 53.83 35.6296C54.44 36.5796 55.36 37.0796 56.57 37.1596C57.78 37.2396 58.67 36.9296 59.32 36.2496C59.97 35.5696 60.48 34.5396 60.84 33.1796H60.83Z" fill="#FEFEFE" stroke="black" stroke-width="0.5" stroke-miterlimit="10"/>
<path d="M68.68 20.7598L87.43 21.9898L87.08 27.3698L80.79 26.9598L79.71 43.3798L73.54 42.9798L74.62 26.5598L68.33 26.1498L68.68 20.7698V20.7598Z" fill="#FEFEFE" stroke="black" stroke-width="0.5" stroke-miterlimit="10"/>
<path d="M87.78 32.97C88.01 29.41 89.1 26.7 91.05 24.83C93 22.96 95.59 22.14 98.83 22.35C102.07 22.56 104.65 23.71 106.32 25.78C107.99 27.85 108.71 30.63 108.48 34.14C108.31 36.69 107.78 38.75 106.89 40.33C106 41.91 104.78 43.1 103.24 43.91C101.7 44.72 99.82 45.05 97.6 44.91C95.38 44.77 93.51 44.25 92.09 43.37C90.67 42.49 89.55 41.17 88.75 39.42C87.95 37.67 87.62 35.51 87.79 32.96L87.78 32.97ZM93.95 33.41C93.81 35.61 94.08 37.22 94.76 38.23C95.44 39.24 96.43 39.79 97.72 39.87C99.01 39.95 100.1 39.55 100.89 38.66C101.68 37.77 102.15 36.1 102.31 33.66C102.44 31.61 102.16 30.08 101.47 29.09C100.78 28.1 99.78 27.55 98.48 27.47C97.18 27.39 96.21 27.8 95.39 28.72C94.57 29.64 94.09 31.2 93.95 33.42V33.41Z" fill="#FEFEFE" stroke="black" stroke-width="0.5" stroke-miterlimit="10"/>
<path d="M112.52 23.6299L124.07 24.3899C125.99 24.5199 127.44 25.1299 128.4 26.2399C129.36 27.3499 129.79 28.6699 129.69 30.2099C129.61 31.4999 129.17 32.5799 128.37 33.4499C127.84 34.0299 127.09 34.4699 126.12 34.7699C127.53 35.2399 128.54 35.9599 129.16 36.9199C129.78 37.8799 130.04 39.0599 129.95 40.4399C129.88 41.5699 129.57 42.5699 129.03 43.4399C128.49 44.3099 127.78 44.9799 126.91 45.4499C126.37 45.7399 125.57 45.9299 124.52 46.0099C123.12 46.1199 122.19 46.1599 121.74 46.1299L111.09 45.4299L112.52 23.6299ZM118.18 32.5899L120.86 32.7699C121.82 32.8299 122.5 32.6999 122.9 32.3599C123.3 32.0199 123.52 31.5099 123.57 30.8299C123.61 30.1999 123.46 29.6899 123.1 29.3099C122.74 28.9299 122.1 28.7099 121.17 28.6499L118.45 28.4699L118.18 32.5999V32.5899ZM117.62 41.1599L120.77 41.3699C121.83 41.4399 122.59 41.2799 123.06 40.8999C123.53 40.5199 123.78 39.9799 123.82 39.2799C123.86 38.6399 123.68 38.0999 123.28 37.6799C122.88 37.2599 122.13 37.0099 121.05 36.9399L117.92 36.7299L117.63 41.1499L117.62 41.1599Z" fill="#FEFEFE" stroke="black" stroke-width="0.5" stroke-miterlimit="10"/>
<path d="M134.19 25.0498L150.72 26.1298L150.41 30.7898L140.06 30.1098L139.83 33.5798L149.43 34.2098L149.14 38.6598L139.54 38.0298L139.26 42.3298L149.91 43.0298L149.59 47.9698L132.76 46.8698L134.19 25.0698V25.0498Z" fill="#FEFEFE" stroke="black" stroke-width="0.5" stroke-miterlimit="10"/>
<path d="M152.99 48.1799L154.42 26.3799L164.7 27.0499C166.61 27.1799 168.05 27.4499 169.04 27.8699C170.03 28.2899 170.79 29.0099 171.35 30.0199C171.91 31.0299 172.14 32.2199 172.04 33.6099C171.96 34.8199 171.66 35.8499 171.13 36.6899C170.6 37.5299 169.9 38.2099 169.04 38.6999C168.49 39.0099 167.75 39.2499 166.82 39.4199C167.54 39.7399 168.06 40.0399 168.37 40.3299C168.59 40.5199 168.89 40.9299 169.28 41.5399C169.67 42.1499 169.93 42.6199 170.06 42.9499L172.63 49.4599L165.66 48.9999L162.8 42.1199C162.44 41.2299 162.1 40.6499 161.79 40.3699C161.37 39.9999 160.87 39.7999 160.31 39.7699L159.77 39.7299L159.19 48.5799L152.99 48.1699V48.1799ZM160.04 35.6199L162.64 35.7899C162.92 35.8099 163.47 35.7499 164.29 35.5999C164.7 35.5399 165.05 35.3299 165.34 34.9799C165.63 34.6299 165.78 34.2199 165.81 33.7399C165.86 33.0399 165.69 32.4799 165.3 32.0799C164.91 31.6799 164.16 31.4399 163.04 31.3599L160.33 31.1799L160.04 35.6099V35.6199Z" fill="#FEFEFE" stroke="black" stroke-width="0.5" stroke-miterlimit="10"/>
</svg>
