<svg width="63" height="64" viewBox="0 0 63 64" fill="none" xmlns="http://www.w3.org/2000/svg">
<g clip-path="url(#clip0_442_1177)">
<path d="M60.7484 29.405C60.5225 29.1865 59.8917 28.9517 59.8411 28.688C59.6568 27.7525 60.6562 26.2155 60.7448 25.1788C60.9526 22.7172 58.1802 22.1501 57.0652 24.1223C56.3513 25.3829 56.3838 26.8729 56.4001 28.2726C55.5019 28.3972 54.6398 28.5706 53.9711 29.2262L53.5193 29.9901L53.5464 29.8348C53.5103 29.9793 53.4759 30.122 53.4416 30.2683L53.5392 31.0051C53.559 31.2381 53.9006 31.5578 53.7723 31.7745C53.7578 31.7998 53.55 31.8739 53.4669 31.9624C53.3476 32.0906 53.2916 32.282 53.156 32.329L53.3837 30.5211C53.3349 30.7415 53.288 30.9636 53.2428 31.1876C53.0132 32.3525 52.8325 33.5246 52.6735 34.7003C52.7783 34.1404 52.9861 33.4848 52.9753 33.0478L53.1054 33.9526C53.4922 34.5233 53.2735 34.5757 53.2446 35.0724C53.2066 35.737 53.2084 36.2066 53.6494 36.7393C53.8337 36.9615 54.3814 37.2523 54.4049 37.2938C54.4753 37.413 54.3253 37.758 54.3235 37.9512C54.3217 38.1481 54.5657 38.5671 54.103 38.0885C53.747 37.7218 52.7205 35.8887 52.6319 35.4101C52.6156 35.318 52.6138 35.2132 52.6211 35.0995C52.4114 36.6888 52.2325 38.2817 52.0211 39.8692L52.7928 40.8337C54.6579 42.7806 57.0091 44.0629 58.8327 41.2635C59.0044 40.9998 59.3712 40.1365 59.5068 40.0011C59.599 39.909 59.9387 39.7988 60.1068 39.6543C60.9128 38.9662 61.4351 38.0632 61.3845 36.9615C61.3665 36.566 61.1008 36.0964 61.1135 35.802C61.1261 35.5148 61.3918 35.0995 61.4659 34.7997C61.8526 33.2212 62.0261 30.6349 60.7502 29.4032L60.7484 29.405ZM59.3044 23.8243C60.9562 24.339 58.8128 27.496 59.0279 28.5525L57.329 28.2654C56.935 27.0662 57.3417 23.2139 59.3044 23.8243ZM55.8344 39.154C55.5416 38.9536 54.8928 38.018 55.1422 37.7309C55.1838 37.6821 55.9139 38.2384 56.0549 38.3052C57.8694 39.1558 59.4002 38.3323 60.5622 36.9218C60.7592 39.2877 57.5567 40.337 55.8344 39.1558V39.154ZM59.617 36.7412C58.7586 37.785 57.2694 38.493 56.1362 37.46C56.3459 37.4961 57.3905 37.3462 57.3977 37.1457C57.3977 37.1331 57.3236 36.92 57.3109 36.92H55.7296C55.4946 36.92 54.6326 36.5786 54.4247 36.4197C54.0271 36.1163 53.8898 35.3704 54.2368 34.9821C54.3741 34.8285 55.097 34.5793 55.2778 34.5793C55.7549 34.5793 57.2025 34.675 57.5369 34.5793C57.5947 34.5631 57.6887 34.4366 57.6724 34.3554C57.5838 33.9255 55.5127 33.8208 55.1079 33.8695C54.5006 33.9418 54.0091 34.4998 53.8825 33.6293C53.7723 32.8618 53.9241 32.394 54.629 32.0436C55.0844 31.8179 56.0278 31.6987 56.5429 31.6914C56.8139 31.6878 57.8423 31.9678 57.9417 31.6535C57.9923 31.4928 57.9182 31.4314 57.7899 31.3555C57.2929 31.0647 55.9519 31.0286 55.3681 31.0702C54.8296 31.1081 54.3597 31.5704 54.2548 30.6403C54.1482 29.694 55.4169 29.1846 56.1922 29.1016C57.4953 28.9607 59.7905 29.1973 60.5098 30.4489C61.446 32.0761 60.7845 35.318 59.6152 36.7393L59.617 36.7412Z" fill="black" stroke="black" stroke-width="0.33814" stroke-miterlimit="10"/>
<path d="M48.9071 60.312C50.1234 58.6378 50.9584 56.6349 50.5066 54.5363C50.2102 53.1529 49.3102 51.4444 47.8264 51.0868C47.5987 51.0326 47.3547 51.0849 47.1613 51.029C47.0222 50.9892 46.8125 50.6948 46.6191 50.5793C45.9649 50.1891 44.7558 50.2144 44.1215 50.6479C43.4636 51.0994 43.6498 51.5798 42.7172 50.7743C41.6871 49.8839 42.1588 48.9791 42.2184 47.807L44.4179 48.161C44.1938 48.0616 43.9697 47.9623 43.7401 47.8756C43.0245 47.6083 42.2654 47.4548 41.5136 47.332C39.9413 47.0773 38.2984 46.8877 36.7062 46.8136C36.6665 46.8118 36.6267 46.81 36.587 46.8082L39.4171 47.267C38.7521 49.5299 39.4135 51.5924 41.181 53.1113C41.3726 53.2757 42.3178 53.8608 42.3558 53.9222C42.4823 54.1354 42.3377 54.7458 42.6702 55.0023C40.4238 54.4424 37.899 55.9703 37.8719 58.3778C37.8665 58.916 38.1502 59.1526 37.6081 59.6366C35.096 59.6528 32.5748 59.53 30.0591 59.5878C26.5783 59.6691 20.7046 59.7287 17.4533 60.6227C16.4268 60.9044 16.0238 61.3054 17.2762 61.7063C20.804 62.8387 27.162 62.7502 30.9699 62.8261C36.6466 62.9417 43.5287 63.097 49.1023 62.0838C49.5523 62.0025 51.2241 61.6883 51.3903 61.3018C51.6307 60.7473 49.265 60.3698 48.9017 60.3102L48.9071 60.312ZM45.9251 52.8892C45.9179 51.8128 45.0125 51.9717 44.5715 51.6286C44.2769 51.3992 44.904 51.168 45.0721 51.1427C47.4613 50.7689 47.5408 54.1661 45.383 55.0492C44.5679 55.3833 43.3552 55.3364 43.216 54.2853C44.2841 54.6374 45.936 54.2311 45.9269 52.8892H45.9251ZM39.8961 56.243C41.3636 55.2118 43.5269 55.7987 44.8335 56.8553C45.0161 57.0034 45.3649 57.482 45.4028 57.5018C45.7444 57.6879 45.8474 57.3989 45.6757 57.0955L44.66 56.0841C46.6227 55.7283 47.8174 54.3647 47.7324 52.3492C47.718 52.0187 47.4252 51.6936 47.9782 51.9248C50.662 53.0481 48.4156 58.2586 46.733 59.4506C45.2637 60.4908 41.2931 60.4403 39.6702 59.7468C37.9677 59.0189 38.687 57.0919 39.8961 56.2412V56.243ZM46.4655 61.1663C44.9113 61.8056 40.8051 61.7767 39.2997 61.0164C39.0467 60.8882 38.2081 60.1351 38.4268 59.8623C38.4719 59.8064 39.4659 60.4601 39.6919 60.536C41.2624 61.0652 44.5805 61.0616 46.133 60.471C48.2258 59.6727 48.9722 57.5524 49.6969 55.6524C49.7403 55.5387 49.7511 55.3888 49.903 55.3635C49.865 57.5145 48.5493 60.3084 46.4673 61.1645L46.4655 61.1663Z" fill="black" stroke="black" stroke-width="0.33814" stroke-miterlimit="10"/>
<path d="M19.9022 59.5516C20.5582 59.176 20.4172 58.8942 20.7263 58.3921C21.0155 57.9208 21.5179 57.5559 21.8143 56.9563C22.2589 56.0533 22.192 55.2641 22.4504 54.4405C22.586 54.0089 23.2637 53.868 23.3342 52.8006C23.4047 51.7441 22.6185 51.0885 22.6059 50.6478C22.5968 50.2884 23.0251 49.0784 23.1986 48.7099C23.9342 47.1603 25.4632 45.6776 27.1674 45.2857L28.4741 45.497C27.8722 45.2766 27.274 45.0545 26.6722 44.8576C25.8409 44.5867 24.9824 44.2978 24.1167 44.1569C23.2547 44.016 22.3655 44.072 21.4962 44.0792C20.5148 44.0864 19.369 44.1388 18.5648 43.4778C18.5539 43.4688 18.5431 43.4579 18.5323 43.4489C18.4925 43.4363 18.4545 43.42 18.4166 43.4019L18.4039 43.4941C18.4961 43.774 18.7003 43.7866 18.9389 43.8607C20.1136 44.2291 21.5775 44.2634 22.7938 44.5235C22.7902 44.7113 21.8992 45.4717 21.7113 45.6938C20.8582 46.698 20.2022 47.89 19.8552 49.1614L18.9009 49.2915C17.6124 45.8925 13.4014 43.5428 10.6453 46.9129C10.479 47.117 9.77963 47.9767 9.70192 48.132C9.0513 49.4233 9.58083 51.1625 10.2152 52.3618C11.2724 54.361 13.3996 56.0479 14.9737 57.7004C16.1322 58.9195 18.1491 60.5504 19.9022 59.5462V59.5516ZM19.1305 50.1421C19.3528 49.7448 20.3883 50.1331 20.7118 50.2848C21.6155 50.7092 22.642 51.8254 22.5137 52.8837C22.4956 53.03 22.3113 53.7127 22.1161 53.4761C21.8667 53.1727 21.6661 52.6399 21.3444 52.266C21.0028 51.8687 20.5185 51.4551 20.054 51.2131C19.8642 51.1138 19.3889 51.0379 19.2913 50.9386C19.2154 50.8609 19.1015 50.1999 19.1323 50.1439L19.1305 50.1421ZM18.5178 50.8483C18.5937 51.2059 18.7094 52.8512 18.769 52.9379C19.1702 53.5212 19.2732 51.9969 19.2696 51.7658C20.8727 52.3491 21.7998 53.7343 21.4872 55.4591C21.4456 55.6849 20.8492 57.4783 20.5347 57.2543C20.4823 57.2164 20.0883 56.3495 19.9202 56.1093C19.2931 55.2063 18.5449 54.4315 17.9648 53.4671C16.819 51.5617 16.2894 49.3186 14.3791 47.9496C13.4719 47.2994 12.693 47.0754 11.5851 46.9526C14.8039 44.4964 17.8455 47.6588 18.516 50.8483H18.5178ZM10.5025 48.3451C11.3375 47.285 12.8086 47.7419 13.7827 48.3632C15.7129 49.5913 16.284 52.0782 17.4226 53.9168C18.0461 54.9227 19.0112 55.8402 19.5534 56.8335C19.8606 57.3952 19.9799 57.7546 19.8986 58.4228L19.1232 57.081C18.4419 56.2538 17.7334 55.4501 17.1515 54.5453C15.5015 51.9879 14.4424 47.7437 10.5025 48.3433V48.3451Z" fill="black" stroke="black" stroke-width="0.33814" stroke-miterlimit="10"/>
<path d="M14.9087 33.2953C14.5924 33.1291 14.1876 32.8131 13.8442 32.1539C14.8039 31.7818 15.487 30.9583 15.6424 29.9379C15.684 29.6597 15.5954 29.313 15.6695 29.0655C15.7093 28.9337 15.9352 28.7874 16.031 28.6158C16.4412 27.8735 16.8045 26.9814 16.7358 26.1235L17.6033 26.1993C17.4858 25.9627 17.4696 25.6738 17.5563 25.4227L17.0756 25.383C16.537 25.3415 16.6075 24.6642 16.3762 24.1892C15.4689 22.3236 12.9008 23.102 12.5213 24.9586L6.00966 24.4059C6.10183 24.6786 6.07472 24.9983 5.92471 25.2439C6.00604 25.2512 6.08918 25.2584 6.1705 25.2638C6.33316 25.3776 6.23376 26.1795 6.25544 26.4377C6.34942 27.5087 6.72895 28.8326 7.47355 29.6344C7.70488 29.8837 8.44044 30.3045 8.48924 30.3785C8.79105 30.8318 8.4567 31.5127 9.33323 32.1918C9.88987 32.6234 10.705 32.6054 11.0411 32.8311C11.1604 32.9106 11.4188 33.494 11.549 33.6746C13.1845 35.9123 15.2502 36.6545 17.9594 35.7551C18.2033 35.6739 19.5552 34.9767 19.6275 35.0327C19.9239 35.049 20.2184 35.0652 20.5148 35.0833C20.5564 34.7835 20.6287 34.3121 20.7444 33.736C20.8962 32.9847 21.001 32.6541 21.1456 31.9733C21.2287 31.5777 21.3408 30.9926 21.4347 30.2629C19.1684 32.9684 16.4828 34.1243 14.9087 33.2971V33.2953ZM9.87541 31.5615C9.6224 31.3881 9.29709 31.0395 9.32781 30.7126H10.6381C10.6543 30.7126 10.8622 30.5031 10.8622 30.4869C10.864 30.337 9.28805 29.9469 8.96274 29.7699C8.00669 29.2516 7.06872 27.785 7.06872 26.7086V25.3144L9.27179 25.4877C9.60613 26.5696 10.1899 25.6196 10.7266 25.5762C11.1712 25.7298 12.3369 25.6033 12.6695 25.8092C13.0436 26.0404 12.514 26.0296 12.3966 26.0765C11.5634 26.4088 10.8947 27.3371 10.9453 28.2402C11.005 29.2714 11.417 27.8085 11.5996 27.534C11.8327 27.1836 12.2176 26.873 12.6297 26.7592C12.9333 26.6761 13.6092 26.7104 13.7141 26.4847C13.743 26.4233 13.4719 25.9736 13.4321 25.7695C13.2424 24.787 13.7195 23.7305 14.8599 23.8948C15.9153 24.0465 16.125 25.8381 15.9912 26.687C15.8683 27.4654 15.1382 28.5996 14.5201 29.0908C14.2183 29.331 12.7833 29.9415 12.7598 30.039C12.6496 30.4995 14.0014 30.1058 14.2038 30.0354C14.7081 29.8602 15.1671 29.3509 14.6737 30.4128C14.0032 31.8577 11.1441 32.4284 9.87541 31.5615Z" fill="black" stroke="black" stroke-width="0.33814" stroke-miterlimit="10"/>
<path d="M32.0398 1.21629L3.38547 -0.441666C3.23186 -0.365812 3.15595 -0.243 3.11258 -0.0822621C2.97884 0.430656 2.90835 1.31923 2.83245 1.88814C1.84387 9.1647 1.12096 16.4792 0.0221385 23.7413C-0.248953 25.1067 1.0812 24.7798 1.96134 24.8665C2.771 24.9441 3.57705 25.0471 4.3867 25.1067C7.43377 25.3361 8.9573 25.4498 9.83563 25.5745C10.4429 25.6593 11.0646 25.5997 11.6736 25.672C12.0947 25.7226 12.4887 25.7894 12.6351 25.5835C12.7363 25.439 12.7002 25.1898 12.5737 25.0471C12.3965 24.8466 12.0947 24.9171 11.5869 24.9062C11.1839 24.8972 11.229 24.8502 10.4375 24.7545C9.54828 24.6462 8.84525 24.61 8.39524 24.61C8.39524 24.61 7.05063 24.5414 4.61623 24.3518C3.73066 24.2831 2.43304 24.1657 0.831797 23.9689C1.52579 18.5417 2.22159 13.1163 2.91558 7.68916L30.4729 9.57287L28.2084 26.3059C24.4005 25.9844 20.5925 25.6648 16.7846 25.3433C16.8189 25.4643 16.8497 25.6124 16.8623 25.7858C16.8732 25.9176 16.8695 26.0368 16.8623 26.1397C18.1346 26.2499 19.407 26.3601 20.6793 26.4703C20.9287 26.5028 21.1853 26.5317 21.451 26.5569C21.7185 26.5822 21.9805 26.6021 22.2335 26.6184L23.7842 26.7592C23.7806 26.7881 23.7769 26.8152 23.7733 26.8441C23.8601 26.8152 23.9577 26.799 24.0643 26.799H24.489C24.6119 26.799 24.7221 26.817 24.8179 26.8495C26.1083 26.808 27.4566 27.2396 28.7144 27.0337L28.9096 26.7773L31.0223 11.6516L31.0892 11.6571C31.1307 11.2254 31.1578 10.792 31.203 10.3621C31.2464 9.73542 31.4036 9.11775 31.4669 8.49285H31.4976C31.5175 8.22375 31.5392 7.95104 31.5591 7.68013L32.282 1.6985C32.282 1.53776 32.2043 1.27408 32.0398 1.2199V1.21629ZM6.92773 6.15222C4.39393 6.25335 4.39213 2.49677 6.59158 2.12292C9.55912 1.61904 9.54286 6.04747 6.92773 6.15222ZM12.8466 3.5786C12.8194 3.6996 11.8977 3.93439 11.858 3.90007C11.7893 3.83867 11.9267 3.33659 11.2616 3.27157C10.5766 3.20475 10.1103 3.92355 10.1591 4.54844C10.2405 5.58331 11.3556 5.77475 11.8182 4.88437L12.6712 5.251C12.6026 5.70612 11.961 6.22807 11.52 6.30934C8.24704 6.90714 8.52175 1.88994 11.6248 2.37758C12.0369 2.44259 12.9405 3.14334 12.8447 3.5804L12.8466 3.5786ZM15.9117 3.61833L15.0207 3.63097L14.7496 6.51162C14.4189 6.51162 14.0755 6.55135 13.7665 6.41048L14.0936 3.67251C14.0538 3.44676 13.3923 3.56957 13.2134 3.54248V2.64126L16.0147 2.73156L15.9117 3.61833ZM18.2286 6.77891C15.337 7.08956 15.4346 3.06026 17.8907 2.75323C18.3949 2.69002 18.975 2.89411 19.36 3.22281C20.5925 4.27393 19.866 6.60373 18.2286 6.77891ZM22.9257 6.50801C22.8823 6.5658 22.5046 6.86922 22.4757 6.86922C21.9173 6.86922 20.9865 6.9523 20.4877 6.86922C20.4678 6.86561 20.2817 6.7753 20.2763 6.76447C20.1263 6.51523 20.7642 3.63278 20.6233 3.08916C21.2612 3.19933 22.342 3.06387 22.8787 3.40883C23.4426 3.77184 23.2799 4.88076 22.6131 5.02344C23.1824 5.33046 23.3161 5.98967 22.9275 6.5062L22.9257 6.50801ZM26.1282 4.34436L24.78 4.26128V4.80129L26.0433 4.93494C25.8716 5.06859 25.9999 5.65736 25.9547 5.70251C25.924 5.73321 25.2318 5.71154 25.0963 5.70251C24.5197 5.66097 24.7981 5.43883 24.5993 6.19014C24.6191 6.43215 25.7505 6.25516 25.9601 6.37436C26.036 6.4177 25.9565 7.08775 25.9168 7.14735C25.7794 7.34963 23.9577 7.05885 23.6089 7.04982L24.0101 3.35826C24.1167 3.1921 24.4456 3.36187 24.6426 3.36729C25.0384 3.37813 25.8535 3.28421 26.1698 3.37632C26.3993 3.44134 26.1698 4.16376 26.13 4.34617L26.1282 4.34436ZM29.3885 7.49953C29.1825 7.30989 28.409 7.48327 28.3132 7.4002C28.2554 7.35143 27.9373 6.05469 27.8505 5.96981C27.7186 5.83977 27.6517 6.05469 27.6264 6.14499C27.5325 6.48633 27.518 6.95952 27.4909 7.31892L26.4969 7.22862L26.9487 3.45037C27.5252 3.49371 28.7488 3.45579 29.1807 3.83867C29.8385 4.42202 29.4934 5.54358 28.7777 5.92104L29.3885 7.49953Z" fill="#D2797B" stroke="black" stroke-width="0.33814" stroke-miterlimit="10"/>
<path d="M30.4729 9.56921L28.2084 26.3022L17.0756 25.383C16.5371 25.3414 16.6075 24.6642 16.3762 24.1892C15.469 22.3235 12.9008 23.1019 12.5213 24.9585L0.833649 23.9652L2.91744 7.6855L30.4747 9.56921H30.4729ZM9.23747 13.6184L8.25432 22.1068L8.46938 22.2549L11.0773 22.3326L12.5737 10.5246C12.5357 10.4126 12.4562 10.3982 12.3532 10.3801C12.0261 10.3205 10.6237 10.1562 10.3706 10.2031C10.1032 10.2519 8.18202 11.5559 8.08624 11.7979C8.0031 12.0056 7.79708 14.1584 7.88202 14.2487C8.01395 14.3896 9.11458 13.5263 9.23747 13.6202V13.6184ZM20.8944 16.5875C22.6493 15.9301 23.1336 13.4269 22.0257 11.9947C19.857 9.19175 13.7141 10.5427 14.4858 14.5539C14.6286 15.2944 14.9485 15.5111 15.3822 15.9969C15.6425 16.2895 15.328 16.1974 15.1382 16.2967C13.0815 17.3713 12.5864 20.7324 14.4858 22.2007C15.7943 23.2139 18.5666 23.436 20.0793 22.8364C22.3619 21.9334 23.2077 19.0726 21.6191 17.1673L20.8944 16.5857V16.5875Z" fill="white"/>
<path d="M57.5368 34.5811C57.5947 34.5649 57.6886 34.4384 57.6724 34.3572C57.5838 33.9273 55.5127 33.8226 55.1079 33.8713C54.5006 33.9436 54.009 34.5016 53.8825 33.6311C53.7723 32.8636 53.9241 32.3958 54.6289 32.0454C55.0844 31.8197 56.0278 31.7005 56.5428 31.6932C56.8139 31.6896 57.8423 31.9696 57.9417 31.6553C57.9923 31.4946 57.9182 31.4332 57.7899 31.3591C57.2929 31.0684 55.9519 31.0322 55.3681 31.0738C54.8295 31.1117 54.3596 31.574 54.2548 30.6439C54.15 29.7138 55.4169 29.1883 56.1922 29.1052C57.4953 28.9643 59.7905 29.2009 60.5098 30.4525C61.446 32.0797 60.7845 35.3216 59.6152 36.743C58.7567 37.7868 57.2676 38.4948 56.1344 37.4618C56.344 37.4979 57.3886 37.348 57.3959 37.1475C57.3959 37.1349 57.3218 36.9218 57.3091 36.9218H55.7278C55.4928 36.9218 54.6307 36.5804 54.4229 36.4215C54.0253 36.1181 53.888 35.3722 54.235 34.9839C54.3723 34.8303 55.0952 34.5811 55.2759 34.5811C55.7531 34.5811 57.2007 34.6768 57.535 34.5811H57.5368Z" fill="white"/>
<path d="M45.4028 57.5036C45.7444 57.6896 45.8474 57.4006 45.6757 57.0972L44.66 56.0858C46.6227 55.73 47.8173 54.3665 47.7324 52.3509C47.7179 52.0204 47.4251 51.6953 47.9782 51.9265C50.662 53.0499 48.4155 58.2603 46.733 59.4523C45.2636 60.4926 41.2931 60.442 39.6701 59.7485C37.9677 59.0207 38.687 57.0936 39.896 56.243C41.3635 55.2117 43.5268 55.7987 44.8335 56.8552C45.016 57.0033 45.3648 57.4819 45.4028 57.5018V57.5036Z" fill="#99B655"/>
<path d="M7.06873 25.3145L9.27179 25.4879C9.60614 26.5697 10.1899 25.6197 10.7266 25.5764C11.1712 25.7299 12.3369 25.6035 12.6695 25.8094C13.0436 26.0405 12.514 26.0297 12.3966 26.0766C11.5634 26.409 10.8947 27.3373 10.9453 28.2403C11.005 29.2715 11.417 27.8086 11.5996 27.5341C11.8327 27.1838 12.2176 26.8731 12.6297 26.7593C12.9333 26.6763 13.6093 26.7106 13.7141 26.4848C13.743 26.4234 13.4719 25.9737 13.4321 25.7696C13.2424 24.7871 13.7195 23.7306 14.8599 23.8949C15.9153 24.0466 16.125 25.8382 15.9912 26.6871C15.8683 27.4655 15.1382 28.5997 14.5201 29.0909C14.2183 29.3311 12.7833 29.9416 12.7598 30.0391C12.6496 30.4997 14.0014 30.1059 14.2038 30.0355C14.7081 29.8603 15.1671 29.351 14.6737 30.413C14.0032 31.8578 11.1441 32.4285 9.87542 31.5616C9.6224 31.3882 9.29709 31.0397 9.32782 30.7128H10.6381C10.6544 30.7128 10.8622 30.5033 10.8622 30.487C10.864 30.3371 9.28806 29.947 8.96275 29.77C8.0067 29.2517 7.06873 27.7852 7.06873 26.7088V25.3145Z" fill="white"/>
<path d="M19.2678 51.7659C20.8709 52.3493 21.798 53.7345 21.4854 55.4593C21.4438 55.685 20.8474 57.4784 20.5329 57.2545C20.4805 57.2166 20.0865 56.3497 19.9185 56.1095C19.2913 55.2064 18.5431 54.4316 17.963 53.4672C16.8172 51.5618 16.2876 49.3187 14.3774 47.9497C13.4701 47.2995 12.6912 47.0756 11.5833 46.9528C14.8021 44.4966 17.8437 47.659 18.5142 50.8484C18.5901 51.206 18.7058 52.8513 18.7654 52.938C19.1666 53.5214 19.2697 51.9971 19.266 51.7659H19.2678Z" fill="#99B655"/>
<path d="M59.0279 28.5526L57.329 28.2654C56.935 27.0662 57.3417 23.2139 59.3044 23.8244C60.9562 24.3391 58.8128 27.4961 59.0279 28.5526Z" fill="white"/>
<path d="M17.8907 2.75323C18.3949 2.69002 18.975 2.89411 19.36 3.22281C20.5925 4.27393 19.866 6.60373 18.2286 6.77892C15.337 7.08956 15.4346 3.06026 17.8907 2.75323ZM17.3105 5.67C18.3063 6.64888 19.7015 4.63152 18.6334 3.85854C17.5653 3.08555 16.4484 4.82116 17.3105 5.67Z" fill="white"/>
<path d="M6.59341 2.12293C9.56095 1.61905 9.54469 6.04747 6.92956 6.15223C4.39576 6.25336 4.39396 2.49678 6.59341 2.12293ZM6.194 4.95301C7.22957 6.06192 8.71876 3.79353 7.37415 3.10362C6.27352 2.53832 5.53254 4.24684 6.194 4.95301Z" fill="white"/>
<path d="M38.4267 59.8641C38.4719 59.8081 39.4659 60.4619 39.6918 60.5378C41.2624 61.067 44.5805 61.0633 46.133 60.4728C48.2258 59.6745 48.9722 57.5542 49.6969 55.6542C49.7403 55.5405 49.7511 55.3905 49.9029 55.3653C49.865 57.5163 48.5493 60.3102 46.4673 61.1663C44.9131 61.8056 40.8069 61.7767 39.3015 61.0164C39.0484 60.8882 38.2099 60.135 38.4286 59.8623L38.4267 59.8641Z" fill="#39311F"/>
<path d="M19.9004 58.4229L19.125 57.081C18.4437 56.2538 17.7352 55.4501 17.1533 54.5453C15.5033 51.9879 14.4442 47.7437 10.5043 48.3433C11.3393 47.2832 12.8104 47.7401 13.7845 48.3614C15.7147 49.5895 16.2858 52.0764 17.4244 53.915C18.0479 54.9209 19.013 55.8384 19.5552 56.8317C19.8624 57.3934 19.9817 57.7528 19.9004 58.4211V58.4229Z" fill="#39311F"/>
<path d="M20.4877 6.86929C20.4678 6.86568 20.2817 6.77538 20.2763 6.76454C20.1263 6.51531 20.7642 3.63285 20.6233 3.08923C21.2612 3.1994 22.342 3.06395 22.8787 3.4089C23.4426 3.77192 23.28 4.88083 22.6131 5.02351C23.1824 5.33054 23.3161 5.98975 22.9275 6.50628C22.8842 6.56407 22.5064 6.86749 22.4775 6.86749C21.9191 6.86749 20.9883 6.95056 20.4895 6.86749L20.4877 6.86929ZM22.239 4.00129C22.192 3.92724 21.5685 3.85861 21.5269 3.90015L21.4365 4.61896L22.1468 4.60631C22.2082 4.46544 22.3131 4.11868 22.239 3.99948V4.00129ZM21.2558 6.15048C22.4215 6.37624 22.5354 5.20953 21.3498 5.34499L21.2558 6.15048Z" fill="white"/>
<path d="M29.1807 3.83857C29.8386 4.42193 29.4934 5.54348 28.7777 5.92095L29.3886 7.49943C29.1825 7.3098 28.409 7.48318 28.3132 7.4001C28.2554 7.35134 27.9373 6.05459 27.8506 5.96971C27.7186 5.83967 27.6518 6.05459 27.6265 6.1449C27.5325 6.48624 27.518 6.95942 27.4909 7.31883L26.4969 7.22852L26.9487 3.45027C27.5253 3.49362 28.7488 3.45569 29.1807 3.83857ZM27.6716 5.15879C28.7795 5.41345 28.9078 4.16005 27.762 4.34968L27.6716 5.15879Z" fill="white"/>
<path d="M11.858 3.9019C11.7893 3.84049 11.9267 3.33841 11.2616 3.27339C10.5965 3.20837 10.1104 3.92537 10.1592 4.55027C10.2405 5.58513 11.3556 5.77657 11.8183 4.88619L12.6713 5.25282C12.6026 5.70794 11.961 6.22989 11.52 6.31116C8.24708 6.90897 8.52178 1.89176 11.6249 2.3794C12.0369 2.44441 12.9406 3.14516 12.8448 3.58222C12.8177 3.70323 11.896 3.93802 11.8562 3.9037L11.858 3.9019Z" fill="white"/>
<path d="M26.1282 4.34446L24.78 4.26138V4.80139L26.0433 4.93504C25.8716 5.06869 25.9999 5.65746 25.9547 5.70261C25.924 5.73331 25.2318 5.71164 25.0963 5.70261C24.5198 5.66107 24.7981 5.43893 24.5993 6.19024C24.6192 6.43225 25.7505 6.25526 25.9601 6.37446C26.0361 6.41781 25.9565 7.08785 25.9168 7.14745C25.7794 7.34973 23.9577 7.05895 23.6089 7.04992L24.0101 3.35836C24.1167 3.1922 24.4457 3.36197 24.6426 3.36739C25.0384 3.37823 25.8535 3.28431 26.1698 3.37642C26.3993 3.44144 26.1698 4.16386 26.13 4.34627L26.1282 4.34446Z" fill="white"/>
<path d="M43.2142 54.2852C44.2823 54.6373 45.9341 54.231 45.9251 52.8891C45.9179 51.8127 45.0124 51.9716 44.5714 51.6285C44.2769 51.3991 44.904 51.1679 45.072 51.1426C47.4613 50.7688 47.5408 54.166 45.3829 55.0491C44.5678 55.3832 43.3551 55.3363 43.216 54.2852H43.2142Z" fill="#99B655"/>
<path d="M55.1422 37.731C55.1838 37.6822 55.9139 38.2385 56.0549 38.3053C57.8694 39.156 59.4001 38.3324 60.5622 36.9219C60.7592 39.2878 57.5567 40.3371 55.8344 39.156C55.5416 38.9555 54.8928 38.02 55.1422 37.7328V37.731Z" fill="white"/>
<path d="M16.0147 2.73148L15.9117 3.61825L15.0207 3.63089L14.7497 6.51154C14.4189 6.51154 14.0755 6.55307 13.7665 6.4104L14.0936 3.67243C14.0539 3.44667 13.3924 3.56948 13.2135 3.54239V2.64117L16.0147 2.73148Z" fill="white"/>
<path d="M19.2895 50.935C19.2136 50.8573 19.0998 50.1963 19.1305 50.1403C19.3528 49.743 20.3883 50.1313 20.7118 50.283C21.6155 50.7074 22.642 51.8235 22.5137 52.8819C22.4956 53.0282 22.3113 53.7109 22.1161 53.4743C21.8667 53.1709 21.6661 52.6381 21.3444 52.2642C21.0028 51.8669 20.5185 51.4533 20.054 51.2113C19.8642 51.112 19.3889 51.0361 19.2913 50.9368L19.2895 50.935Z" fill="#99B655"/>
<path d="M53.4398 30.2703C53.4199 30.3551 53.4018 30.44 53.3819 30.5249L53.1542 32.3328C53.2898 32.2858 53.344 32.0944 53.4651 31.9661C53.5482 31.8776 53.756 31.8018 53.7705 31.7783C53.8988 31.5616 53.5572 31.2419 53.5373 31.0089L53.4398 30.2721V30.2703Z" fill="white"/>
<path d="M55.8976 10.5139C55.4964 16.398 54.8783 22.6523 53.9675 29.2282C52.9861 36.3205 51.7789 42.9668 50.4505 49.1308C45.4841 48.8328 39.943 48.2404 33.9555 47.1749C28.2156 46.1526 23.0125 44.8613 18.4039 43.4941C19.96 37.7924 21.4148 31.5291 22.6185 24.7473C23.6902 18.7133 24.433 13.0044 24.9372 7.68381C29.5187 8.56335 34.579 9.3237 40.0659 9.83481C45.7697 10.3658 51.0758 10.5482 55.8958 10.5139H55.8976Z" fill="white" stroke="black" stroke-width="1.35256" stroke-miterlimit="10"/>
<path d="M28.4759 12.3886C31.982 12.9593 35.7989 13.4379 39.896 13.7503C44.2317 14.0808 48.289 14.1802 52.0192 14.1296C51.8765 17.9078 51.5746 21.9787 51.0469 26.2969C50.4397 31.2582 49.621 35.8401 48.7029 39.9994C44.7124 39.92 40.0894 39.5515 35.0128 38.6322C31.232 37.9478 27.8144 37.0664 24.7981 36.1291C25.6909 32.6922 26.5168 28.8886 27.171 24.751C27.8759 20.3027 28.2753 16.1578 28.4759 12.3922V12.3886Z" fill="#FBFAF1" stroke="black" stroke-width="1.35256" stroke-miterlimit="10"/>
<path d="M42.945 28.0126C42.6106 30.5104 40.431 34.2381 37.6623 34.4945C35.0743 34.7347 33.8399 33.084 33.2128 30.821C33.1477 30.5844 33.0429 29.6435 32.9887 29.5604C32.9598 29.5153 32.2622 29.1938 32.0579 29.0023C31.9387 28.8904 31.3766 28.1734 31.3766 28.056C31.3748 27.3047 32.5784 28.4063 32.7989 28.5364C35.3146 30.0336 38.4701 29.723 40.9606 28.3305C41.3383 28.1192 41.6329 27.8013 42.0431 27.6532C41.9763 27.4618 41.4612 27.4762 41.4124 27.2469C41.3347 26.8802 42.2022 26.9308 42.4118 26.9741C42.8456 27.0644 44.2263 27.9891 43.9932 28.4605C43.7383 28.9752 43.3046 28.056 42.9504 28.0126H42.945ZM35.8369 32.2731C34.6225 33.4958 36.8797 33.7757 37.7382 33.671C38.5822 33.568 40.0569 32.609 40.422 31.8433C40.6316 31.4026 40.122 31.2942 39.737 31.2527C38.6183 31.1281 36.6556 31.4495 35.8387 32.2749L35.8369 32.2731Z" fill="black"/>
<path d="M20.8944 16.5877L21.6191 17.1692C23.2077 19.0746 22.3619 21.9354 20.0793 22.8384C18.5666 23.4362 15.7942 23.214 14.4858 22.2027C12.5863 20.7343 13.0815 17.3733 15.1382 16.2987C15.328 16.1994 15.6424 16.2915 15.3822 15.9989C14.9484 15.5131 14.6286 15.2963 14.4858 14.5559C13.7141 10.5464 19.8552 9.1955 22.0257 11.9967C23.1336 13.4271 22.6492 15.9321 20.8944 16.5895V16.5877ZM18.4311 12.8293C16.7015 12.9304 16.7069 15.681 18.7636 15.4083C19.6799 15.2873 20.1425 14.2488 19.7558 13.4469C19.5407 13.0045 18.9028 12.8022 18.4329 12.8293H18.4311ZM17.6178 17.5069C15.9732 17.7652 15.7942 20.4707 17.513 20.7163C20.204 21.101 20.11 17.115 17.6178 17.5069Z" fill="black"/>
<path d="M9.23745 13.6185C9.11455 13.5228 8.01392 14.3879 7.88199 14.247C7.79705 14.1567 8.00127 12.0057 8.08621 11.7962C8.1838 11.5542 10.1049 10.2502 10.3706 10.2015C10.6218 10.1563 12.0261 10.3207 12.3532 10.3785C12.4562 10.3965 12.5357 10.411 12.5737 10.523L11.0773 22.3309L8.46935 22.2532L8.25429 22.1051L9.23745 13.6167V13.6185Z" fill="black"/>
<path d="M17.3105 5.67006C16.4485 4.82122 17.5636 3.0856 18.6335 3.85859C19.7016 4.63158 18.3064 6.64894 17.3105 5.67006Z" fill="#D2797B"/>
<path d="M6.19398 4.95308C5.53252 4.24511 6.2735 2.53659 7.37413 3.10369C8.71874 3.79541 7.22955 6.062 6.19398 4.95308Z" fill="#D2797B"/>
<path d="M21.2558 6.15048L21.3498 5.34498C22.5354 5.20953 22.4197 6.37623 21.2558 6.15048Z" fill="#D2797B"/>
<path d="M22.239 4.00128C22.3131 4.12048 22.2082 4.46724 22.1468 4.60811L21.4365 4.62075L21.5269 3.90195C21.5666 3.86041 22.192 3.92723 22.239 4.00308V4.00128Z" fill="#D2797B"/>
<path d="M27.6716 5.15894L27.762 4.34983C28.9096 4.16019 28.7813 5.41359 27.6716 5.15894Z" fill="#D2797B"/>
<path d="M35.8369 32.2731C36.6556 31.4478 38.6165 31.1263 39.7352 31.2509C40.1201 31.2942 40.6298 31.4008 40.4201 31.8415C40.0551 32.6072 38.5822 33.5663 37.7363 33.6692C36.8797 33.7739 34.6224 33.4958 35.8351 32.2713L35.8369 32.2731Z" fill="#AA5A63"/>
<path d="M17.6178 17.5068C20.11 17.1149 20.204 21.1027 17.513 20.7162C15.7942 20.4705 15.9732 17.7651 17.6178 17.5068Z" fill="white"/>
<path d="M18.3967 12.6864C20.71 12.3342 20.7986 15.9138 18.2991 15.567C16.7051 15.3467 16.8696 12.9175 18.3967 12.6864Z" fill="white"/>
<path d="M32.5144 24.3344C31.9255 22.3436 32.8924 18.6877 35.1912 18.5386C37.49 18.3894 37.6993 22.8656 36.7535 24.3539C36.7892 24.4641 38.2704 24.8127 38.3758 25.8308C38.3953 26.0172 38.2201 26.4923 38.0205 26.2556C37.8096 25.8049 37.8356 25.419 37.3927 25.1142C36.6188 24.5825 35.5806 25.0461 35.4443 26.0221C35.3761 26.5085 35.5643 26.8603 35.3145 27.2737C34.7467 26.9413 34.7451 26.335 34.8684 25.9151C34.9414 25.6719 35.1636 25.4125 34.9722 25.2229L31.3431 24.7997" fill="black"/>
<path d="M36.6724 20.8813C36.5896 20.3301 36.0089 19.6086 35.4508 19.5194C33.3385 19.1855 32.2775 23.1591 32.9589 24.7025H33.5657C33.5218 23.8643 33.8333 22.9661 34.2454 22.2415L34.9949 22.2609L34.8278 21.4519C35.3177 21.0158 36.004 20.7872 36.6708 20.8813H36.6724Z" fill="black"/>
<path d="M44.4611 27.5184C44.3167 27.7665 42.9086 26.797 42.5922 26.6754C41.3738 26.2004 40.0646 26.2328 38.7992 26.2507C38.59 25.5179 39.7304 25.9118 39.831 25.7432C39.3119 23.8253 40.3745 19.4675 42.7301 19.7804C45.2739 20.1192 44.977 25.1434 43.6337 26.6949C43.9306 26.9429 44.4189 27.0386 44.4627 27.5201L44.4611 27.5184ZM44.1139 22.2641C42.9394 19.4189 40.7736 21.3903 40.2901 23.4735C40.0987 24.3003 40.1344 25.1807 40.2901 26.0075L40.8823 26.0642C41.0672 25.2925 41.1727 23.1931 42.3164 23.6729L42.1509 22.8639C42.7431 22.4116 43.3401 22.0096 44.1123 22.2657L44.1139 22.2641Z" fill="black"/>
<path d="M44.8715 20.1678C44.8391 20.3364 44.5422 20.5034 44.4432 20.4515C44.4076 20.4321 44.2161 19.9733 44.0101 19.7674C43.6207 19.3751 43.1081 19.2632 42.8177 18.8417C43.1616 18.3894 44.7482 19.7317 44.8699 20.1678" fill="black"/>
<path d="M35.8125 17.728C34.9073 17.6518 34.346 18.0506 33.6176 18.4835L33.5267 18.0247C33.5916 17.8577 35.8709 16.799 35.8125 17.7264V17.728Z" fill="black"/>
<path d="M36.6724 20.8812C36.0072 20.7872 35.321 21.0158 34.8294 21.4519L34.9965 22.2608L34.247 22.2414C33.835 22.9661 33.5235 23.8642 33.5673 24.7024H32.9605C32.2792 23.159 33.3385 19.187 35.4524 19.5194C36.0105 19.6069 36.5929 20.3284 36.674 20.8812H36.6724Z" fill="white"/>
<path d="M44.1139 22.2641C43.3417 22.0079 42.7447 22.41 42.1525 22.8623L42.318 23.6713C41.1727 23.1914 41.0688 25.2909 40.8839 26.0626L40.2918 26.0058C40.136 25.179 40.0987 24.2987 40.2918 23.4719C40.7752 21.3886 42.941 19.4188 44.1155 22.2624L44.1139 22.2641Z" fill="white"/>
<path d="M32.8178 25.5844C32.8811 25.5114 32.993 25.4952 33.0725 25.5552C33.1552 25.6152 33.1715 25.7319 33.1179 25.8146C33.0579 25.9054 32.9265 25.9281 32.8405 25.8584C32.7594 25.7919 32.7497 25.6654 32.8178 25.586V25.5844Z" fill="black"/>
<path d="M33.8398 25.3946C33.9031 25.3217 34.015 25.3055 34.0945 25.3654C34.1773 25.4254 34.1935 25.5421 34.14 25.6248C34.0799 25.7156 33.9485 25.7383 33.8625 25.6686C33.7814 25.6021 33.7717 25.4757 33.8398 25.3962V25.3946Z" fill="black"/>
<path d="M33.384 26.129C33.4472 26.0561 33.5592 26.0399 33.6387 26.0998C33.7214 26.1598 33.7376 26.2766 33.6841 26.3592C33.6241 26.45 33.4927 26.4727 33.4067 26.403C33.3256 26.3365 33.3158 26.2101 33.384 26.1306V26.129Z" fill="black"/>
<path d="M39.9284 26.5473C39.9916 26.4744 40.1036 26.4582 40.1831 26.5182C40.2658 26.5781 40.282 26.6949 40.2285 26.7776C40.1685 26.8683 40.0371 26.891 39.9511 26.8213C39.87 26.7549 39.8602 26.6284 39.9284 26.549V26.5473Z" fill="black"/>
<path d="M41.0624 26.7371C41.1256 26.6641 41.2376 26.6479 41.3171 26.7079C41.3998 26.7679 41.416 26.8846 41.3625 26.9673C41.3025 27.0581 41.1711 27.0808 41.0851 27.0111C41.004 26.9446 40.9942 26.8181 41.0624 26.7387V26.7371Z" fill="black"/>
<path d="M40.3064 27.1505C40.3696 27.0775 40.4816 27.0613 40.5611 27.1213C40.6438 27.1813 40.66 27.298 40.6065 27.3807C40.5465 27.4715 40.415 27.4942 40.3291 27.4245C40.2479 27.358 40.2382 27.2315 40.3064 27.1521V27.1505Z" fill="black"/>
</g>
<defs>
<clipPath id="clip0_442_1177">
<rect width="62.7835" height="63.7136" fill="white"/>
</clipPath>
</defs>
</svg>
