<svg width="270" height="274" viewBox="0 0 270 274" fill="none" xmlns="http://www.w3.org/2000/svg">
<g clip-path="url(#clip0_209_2051)">
<path d="M261.248 126.456C260.276 125.516 257.564 124.506 257.346 123.373C256.553 119.349 260.851 112.74 261.232 108.281C262.126 97.6951 250.204 95.2563 245.408 103.738C242.338 109.159 242.478 115.567 242.548 121.586C238.685 122.122 234.978 122.868 232.102 125.687L230.159 128.972L230.276 128.304C230.12 128.926 229.973 129.539 229.825 130.169L230.245 133.337C230.33 134.339 231.799 135.714 231.247 136.646C231.185 136.755 230.291 137.073 229.934 137.454C229.421 138.005 229.18 138.829 228.597 139.031L229.576 131.256C229.366 132.203 229.164 133.159 228.97 134.122C227.983 139.132 227.206 144.172 226.522 149.228C226.973 146.821 227.866 144.001 227.82 142.122L228.379 146.013C230.043 148.467 229.102 148.693 228.978 150.828C228.815 153.687 228.822 155.706 230.719 157.997C231.512 158.953 233.867 160.203 233.968 160.382C234.271 160.894 233.626 162.378 233.618 163.209C233.61 164.055 234.659 165.857 232.67 163.799C231.138 162.223 226.724 154.339 226.343 152.281C226.273 151.885 226.265 151.434 226.296 150.945C225.395 157.78 224.625 164.63 223.716 171.457L227.035 175.605C235.056 183.978 245.167 189.492 253.009 177.453C253.748 176.319 255.325 172.607 255.908 172.024C256.305 171.628 257.766 171.154 258.489 170.533C261.955 167.574 264.201 163.69 263.984 158.953C263.906 157.252 262.763 155.232 262.818 153.966C262.872 152.731 264.015 150.945 264.333 149.656C265.997 142.867 266.743 131.745 261.256 126.448L261.248 126.456ZM255.038 102.456C262.142 104.67 252.924 118.246 253.849 122.79L246.543 121.555C244.849 116.398 246.597 99.831 255.038 102.456ZM240.115 168.382C238.856 167.52 236.066 163.496 237.139 162.261C237.317 162.052 240.457 164.444 241.064 164.731C248.867 168.389 255.45 164.848 260.447 158.782C261.294 168.956 247.522 173.469 240.115 168.389V168.382ZM256.382 158.005C252.691 162.494 246.286 165.539 241.413 161.096C242.315 161.252 246.807 160.607 246.838 159.745C246.838 159.691 246.52 158.774 246.465 158.774H239.665C238.654 158.774 234.947 157.306 234.053 156.623C232.343 155.318 231.752 152.11 233.245 150.44C233.835 149.78 236.944 148.708 237.722 148.708C239.773 148.708 245.999 149.12 247.437 148.708C247.685 148.638 248.09 148.095 248.02 147.745C247.639 145.897 238.732 145.446 236.991 145.656C234.379 145.966 232.265 148.366 231.721 144.623C231.247 141.322 231.9 139.31 234.931 137.803C236.89 136.833 240.947 136.32 243.162 136.289C244.328 136.273 248.75 137.477 249.178 136.126C249.395 135.434 249.077 135.17 248.525 134.844C246.387 133.594 240.621 133.438 238.11 133.617C235.794 133.78 233.773 135.768 233.322 131.769C232.864 127.699 238.32 125.508 241.654 125.151C247.258 124.545 257.129 125.563 260.222 130.945C264.248 137.943 261.403 151.885 256.375 157.997L256.382 158.005Z" fill="black" stroke="black" stroke-width="1.45417" stroke-miterlimit="10"/>
<path d="M210.325 259.371C215.555 252.171 219.146 243.558 217.203 234.533C215.928 228.583 212.058 221.236 205.677 219.698C204.698 219.465 203.648 219.69 202.817 219.45C202.218 219.279 201.317 218.013 200.485 217.516C197.672 215.838 192.472 215.947 189.744 217.811C186.915 219.752 187.715 221.818 183.705 218.354C179.275 214.525 181.303 210.634 181.56 205.593L191.019 207.116C190.055 206.689 189.091 206.261 188.104 205.889C185.026 204.739 181.762 204.079 178.529 203.551C171.767 202.456 164.702 201.64 157.855 201.322C157.684 201.314 157.513 201.306 157.342 201.298L169.513 203.271C166.653 213.003 169.497 221.873 177.099 228.405C177.922 229.112 181.987 231.628 182.151 231.892C182.695 232.809 182.073 235.434 183.503 236.537C173.842 234.129 162.984 240.7 162.868 251.053C162.844 253.368 164.065 254.385 161.733 256.467C150.93 256.536 140.088 256.008 129.269 256.257C114.299 256.606 89.0399 256.863 75.0578 260.707C70.6432 261.919 68.91 263.643 74.2961 265.367C89.4674 270.237 116.81 269.857 133.186 270.183C157.598 270.68 187.195 271.348 211.164 266.991C213.099 266.641 220.289 265.29 221.004 263.628C222.037 261.243 211.864 259.62 210.301 259.364L210.325 259.371ZM197.501 227.449C197.469 222.82 193.576 223.504 191.679 222.028C190.412 221.042 193.109 220.048 193.832 219.939C204.107 218.331 204.449 232.941 195.169 236.739C191.664 238.176 186.449 237.974 185.85 233.453C190.443 234.968 197.547 233.22 197.508 227.449H197.501ZM171.573 241.873C177.884 237.438 187.187 239.962 192.806 244.506C193.591 245.142 195.091 247.201 195.254 247.286C196.723 248.086 197.166 246.843 196.428 245.539L192.06 241.189C200.501 239.659 205.638 233.795 205.273 225.127C205.211 223.706 203.951 222.308 206.33 223.302C217.871 228.133 208.211 250.54 200.975 255.667C194.656 260.14 177.58 259.923 170.601 256.94C163.28 253.81 166.373 245.523 171.573 241.865V241.873ZM199.824 263.045C193.14 265.795 175.482 265.67 169.008 262.4C167.92 261.849 164.313 258.61 165.254 257.437C165.448 257.197 169.723 260.008 170.694 260.335C177.448 262.61 191.718 262.595 198.394 260.055C207.395 256.622 210.604 247.504 213.721 239.333C213.908 238.844 213.954 238.199 214.607 238.09C214.444 247.34 208.786 259.356 199.832 263.037L199.824 263.045Z" fill="black" stroke="black" stroke-width="1.45417" stroke-miterlimit="10"/>
<path d="M85.5891 256.101C88.4103 254.486 87.8041 253.274 89.1332 251.115C90.3767 249.088 92.5374 247.519 93.812 244.94C95.724 241.057 95.4364 237.663 96.5478 234.121C97.1307 232.265 100.045 231.659 100.348 227.069C100.652 222.525 97.2706 219.706 97.2162 217.81C97.1774 216.265 99.0194 211.061 99.7655 209.477C102.929 202.813 109.504 196.436 116.833 194.751L122.452 195.659C119.864 194.712 117.292 193.756 114.704 192.91C111.128 191.745 107.437 190.502 103.714 189.896C100.006 189.29 96.1825 189.531 92.4441 189.562C88.2238 189.593 83.2963 189.819 79.8377 186.976C79.791 186.937 79.7444 186.89 79.6978 186.852C79.5268 186.797 79.3635 186.727 79.2003 186.65L79.1459 187.046C79.5423 188.25 80.4206 188.304 81.4465 188.622C86.4984 190.207 92.7938 190.354 98.0245 191.473C98.009 192.281 94.1773 195.551 93.369 196.506C89.7005 200.824 86.8792 205.95 85.387 211.418L81.2833 211.978C75.7417 197.36 57.6326 187.255 45.78 201.749C45.065 202.626 42.0571 206.323 41.7229 206.991C38.925 212.544 41.2022 220.024 43.9302 225.181C48.477 233.779 57.6248 241.033 64.3944 248.14C69.3763 253.383 78.05 260.396 85.5891 256.078V256.101ZM82.2703 215.636C83.2263 213.927 87.6798 215.597 89.071 216.249C92.9571 218.075 97.3717 222.874 96.8198 227.426C96.7421 228.055 95.9493 230.991 95.11 229.973C94.0374 228.669 93.1747 226.377 91.7912 224.77C90.3223 223.061 88.2394 221.282 86.2419 220.241C85.4258 219.814 83.3818 219.488 82.9621 219.061C82.6356 218.727 82.146 215.884 82.2781 215.643L82.2703 215.636ZM79.6356 218.673C79.962 220.21 80.4594 227.286 80.7159 227.659C82.4413 230.168 82.8843 223.612 82.8688 222.618C89.7627 225.127 93.7498 231.084 92.4052 238.501C92.2265 239.472 89.6617 247.185 88.3093 246.222C88.0839 246.059 86.3896 242.331 85.6668 241.298C82.9698 237.414 79.7522 234.082 77.2573 229.935C72.3297 221.741 70.0525 212.094 61.8373 206.207C57.9357 203.411 54.5859 202.448 49.8215 201.919C63.6638 191.356 76.7443 204.956 79.6278 218.673H79.6356ZM45.166 207.908C48.7567 203.349 55.0833 205.314 59.2725 207.985C67.5732 213.267 70.0292 223.962 74.9256 231.869C77.607 236.195 81.7574 240.14 84.089 244.412C85.4103 246.828 85.9233 248.373 85.5735 251.247L82.2392 245.476C79.3091 241.919 76.2625 238.463 73.7598 234.571C66.6638 223.573 62.1093 205.321 45.166 207.9V207.908Z" fill="black" stroke="black" stroke-width="1.45417" stroke-miterlimit="10"/>
<path d="M64.1146 143.186C62.7544 142.472 61.0135 141.112 59.5368 138.277C63.6638 136.677 66.6017 133.136 67.2701 128.747C67.4488 127.551 67.068 126.06 67.3867 124.996C67.5576 124.429 68.5292 123.8 68.9411 123.062C70.7054 119.87 72.2676 116.033 71.9722 112.344L75.7029 112.67C75.1977 111.653 75.1277 110.41 75.5008 109.33L73.4334 109.159C71.1173 108.981 71.4204 106.068 70.4256 104.025C66.524 96.0022 55.4797 99.3497 53.8475 107.334L25.8444 104.957C26.2408 106.13 26.1242 107.505 25.4791 108.561C25.8289 108.592 26.1864 108.623 26.5361 108.647C27.2356 109.136 26.8082 112.585 26.9014 113.695C27.3056 118.301 28.9377 123.994 32.1399 127.443C33.1347 128.514 36.298 130.324 36.5078 130.643C37.8058 132.592 36.3679 135.52 40.1374 138.441C42.5313 140.297 46.0365 140.219 47.4821 141.19C47.9951 141.532 49.1065 144.04 49.6661 144.817C56.6999 154.44 65.5835 157.633 77.234 153.765C78.2832 153.415 84.0968 150.417 84.4077 150.658C85.6824 150.728 86.9492 150.798 88.2238 150.875C88.4026 149.586 88.7135 147.559 89.2109 145.081C89.8638 141.85 90.3146 140.429 90.9363 137.501C91.2939 135.8 91.7757 133.283 92.1799 130.145C82.4336 141.78 70.8841 146.751 64.1146 143.194V143.186ZM42.4691 135.73C41.381 134.984 39.982 133.485 40.1141 132.079H45.7489C45.8189 132.079 46.7127 131.178 46.7127 131.109C46.7205 130.464 39.9431 128.786 38.5441 128.025C34.4327 125.796 30.3989 119.489 30.3989 114.86V108.864L39.8732 109.61C41.311 114.262 43.8214 110.177 46.1298 109.99C48.0417 110.651 53.0548 110.107 54.4849 110.992C56.0937 111.986 53.8165 111.94 53.3113 112.142C49.7283 113.571 46.8526 117.563 47.0702 121.447C47.3267 125.881 49.0987 119.59 49.8837 118.41C50.8863 116.903 52.5418 115.567 54.3139 115.078C55.6196 114.72 58.5264 114.868 58.9772 113.897C59.1015 113.633 57.9357 111.699 57.7647 110.821C56.9486 106.596 59.0005 102.053 63.9047 102.759C68.4437 103.412 69.3453 111.117 68.7701 114.767C68.2416 118.115 65.1016 122.992 62.4436 125.105C61.1456 126.138 54.9745 128.763 54.8735 129.182C54.3994 131.163 60.213 129.47 61.0834 129.167C63.2519 128.413 65.226 126.223 63.1042 130.79C60.2207 137.004 47.9251 139.458 42.4691 135.73Z" fill="black" stroke="black" stroke-width="1.45417" stroke-miterlimit="10"/>
<path d="M137.787 5.2306L14.5592 -1.89941C13.8985 -1.5732 13.5721 -1.04506 13.3856 -0.353802C12.8104 1.852 12.5073 5.67331 12.1809 8.11988C7.9295 39.4127 4.82063 70.8686 0.0951552 102.099C-1.07067 107.971 4.64965 106.565 8.43469 106.938C11.9166 107.272 15.383 107.715 18.8649 107.971C31.9688 108.958 38.5208 109.447 42.298 109.983C44.9095 110.348 47.5831 110.091 50.2023 110.402C52.0132 110.62 53.7076 110.907 54.3371 110.022C54.7724 109.4 54.6169 108.328 54.0729 107.715C53.3112 106.853 52.0132 107.156 49.8293 107.109C48.0961 107.07 48.2904 106.868 44.8862 106.457C41.0623 105.991 38.0389 105.835 36.1036 105.835C36.1036 105.835 30.3211 105.54 19.852 104.725C16.0436 104.429 10.4632 103.925 3.57709 103.078C6.5616 79.7384 9.55388 56.4067 12.5384 33.0672L131.048 41.168L121.31 113.128C104.934 111.746 88.558 110.371 72.182 108.989C72.3297 109.509 72.4618 110.146 72.5162 110.891C72.5629 111.458 72.5473 111.971 72.5162 112.414C77.9878 112.888 83.4594 113.361 88.931 113.835C90.0036 113.975 91.1072 114.099 92.2498 114.208C93.4 114.317 94.527 114.402 95.6151 114.472L102.284 115.078C102.268 115.202 102.253 115.319 102.237 115.443C102.61 115.319 103.03 115.249 103.488 115.249H105.315C105.843 115.249 106.317 115.326 106.729 115.466C112.279 115.288 118.077 117.144 123.486 116.258L124.326 115.155L133.411 50.1077L133.699 50.131C133.877 48.2747 133.994 46.4107 134.188 44.5622C134.375 41.8671 135.051 39.2108 135.323 36.5234H135.455C135.541 35.3662 135.634 34.1934 135.719 33.0283L138.828 7.30436C138.828 6.6131 138.494 5.47914 137.787 5.24613V5.2306ZM29.7926 26.4575C18.896 26.8925 18.8883 10.7373 28.347 9.12958C41.1089 6.96262 41.0389 26.007 29.7926 26.4575ZM55.2465 15.3897C55.1299 15.9101 51.1661 16.9198 50.9951 16.7722C50.6997 16.5081 51.2904 14.3489 48.4303 14.0693C45.4846 13.7819 43.4794 16.8732 43.6892 19.5605C44.039 24.011 48.8344 24.8342 50.8241 21.0052L54.4926 22.5818C54.1972 24.5391 51.4381 26.7837 49.5417 27.1332C35.4663 29.7041 36.6477 8.12765 49.9925 10.2247C51.7645 10.5043 55.6506 13.5179 55.2387 15.3975L55.2465 15.3897ZM68.4281 15.5606L64.5964 15.6149L63.4306 28.0031C62.0082 28.0031 60.5315 28.174 59.2025 27.5682L60.6093 15.7936C60.4383 14.8227 57.5937 15.3509 56.8242 15.2344V11.3587L68.8711 11.747L68.4281 15.5606ZM78.392 29.1526C65.9565 30.4885 66.3762 13.1606 76.9386 11.8402C79.107 11.5684 81.6019 12.446 83.2574 13.8596C88.558 18.38 85.4336 28.3993 78.392 29.1526ZM98.5919 27.9876C98.4053 28.2361 96.7809 29.541 96.6566 29.541C94.255 29.541 90.2523 29.8983 88.1072 29.541C88.0217 29.5255 87.2212 29.1371 87.1978 29.0905C86.5528 28.0187 89.2963 15.6227 88.6901 13.2849C91.4337 13.7586 96.0814 13.1761 98.3898 14.6596C100.815 16.2208 100.115 20.9896 97.2473 21.6032C99.6955 22.9236 100.271 25.7585 98.5996 27.9798L98.5919 27.9876ZM112.364 18.6829L106.566 18.3256V20.6479L111.999 21.2226C111.26 21.7974 111.812 24.3294 111.618 24.5236C111.486 24.6556 108.509 24.5624 107.926 24.5236C105.447 24.3449 106.644 23.3896 105.789 26.6206C105.874 27.6614 110.74 26.9002 111.641 27.4129C111.968 27.5993 111.626 30.4808 111.455 30.7371C110.864 31.607 103.03 30.3565 101.53 30.3177L103.255 14.4421C103.714 13.7276 105.128 14.4577 105.975 14.481C107.678 14.5276 111.183 14.1237 112.543 14.5198C113.53 14.7994 112.543 17.9062 112.372 18.6906L112.364 18.6829ZM126.385 32.2516C125.499 31.4361 122.173 32.1817 121.761 31.8245C121.512 31.6147 120.144 26.0381 119.771 25.6731C119.204 25.1139 118.916 26.0381 118.807 26.4265C118.403 27.8944 118.341 29.9293 118.224 31.4749L113.95 31.0866L115.893 14.8382C118.372 15.0247 123.634 14.8616 125.491 16.5081C128.32 19.0168 126.836 23.8401 123.758 25.4634L126.385 32.2516Z" fill="#D2797B" stroke="black" stroke-width="1.45417" stroke-miterlimit="10"/>
<path d="M131.049 41.1521L121.31 113.112L73.4334 109.159C71.1173 108.98 71.4204 106.068 70.4256 104.025C66.524 96.002 55.4797 99.3495 53.8476 107.334L3.58496 103.062L12.5463 33.0513L131.056 41.1521H131.049ZM39.7255 58.5655L35.4975 95.0699L36.4224 95.7068L47.6376 96.0408L54.073 45.2608C53.9098 44.7793 53.5678 44.7171 53.1248 44.6395C51.718 44.3832 45.6868 43.6764 44.5987 43.8783C43.4484 44.088 35.1866 49.6957 34.7747 50.7365C34.4172 51.6297 33.5311 60.8878 33.8964 61.2762C34.4638 61.882 39.197 58.1694 39.7255 58.5733V58.5655ZM89.856 71.3343C97.4028 68.5072 99.4857 57.7422 94.7214 51.5831C85.3948 39.5289 58.9772 45.3385 62.2959 62.5888C62.9099 65.7732 64.2856 66.7052 66.1509 68.7945C67.2701 70.0528 65.9178 69.6567 65.1017 70.0838C56.2569 74.7051 54.1274 89.1593 62.2959 95.4738C67.923 99.8311 79.8455 100.786 86.3508 98.2078C96.167 94.3243 99.8044 82.0216 92.9727 73.8275L89.856 71.3265V71.3343Z" fill="white"/>
<path d="M247.437 148.716C247.685 148.646 248.09 148.102 248.02 147.753C247.639 145.904 238.732 145.454 236.991 145.663C234.379 145.974 232.265 148.374 231.721 144.63C231.247 141.329 231.9 139.318 234.931 137.811C236.89 136.84 240.947 136.327 243.162 136.296C244.328 136.281 248.75 137.485 249.178 136.133C249.395 135.442 249.077 135.178 248.525 134.86C246.387 133.609 240.621 133.454 238.11 133.632C235.794 133.795 233.773 135.784 233.322 131.784C232.872 127.784 238.32 125.524 241.654 125.166C247.258 124.561 257.129 125.578 260.222 130.961C264.248 137.959 261.403 151.9 256.375 158.013C252.683 162.502 246.279 165.547 241.406 161.104C242.307 161.259 246.799 160.615 246.83 159.752C246.83 159.698 246.512 158.782 246.457 158.782H239.657C238.646 158.782 234.939 157.314 234.045 156.63C232.335 155.325 231.745 152.118 233.237 150.448C233.828 149.788 236.937 148.716 237.714 148.716C239.766 148.716 245.991 149.127 247.429 148.716H247.437Z" fill="white"/>
<path d="M195.254 247.294C196.723 248.094 197.166 246.851 196.428 245.546L192.06 241.197C200.501 239.667 205.638 233.803 205.273 225.135C205.211 223.713 203.951 222.315 206.33 223.309C217.871 228.14 208.211 250.548 200.975 255.674C194.656 260.148 177.58 259.93 170.601 256.948C163.28 253.818 166.373 245.531 171.573 241.872C177.884 237.437 187.187 239.962 192.806 244.505C193.591 245.142 195.091 247.2 195.254 247.286V247.294Z" fill="#99B655"/>
<path d="M30.3989 108.865L39.8732 109.61C41.3111 114.263 43.8215 110.177 46.1298 109.991C48.0417 110.651 53.0548 110.107 54.4849 110.993C56.0937 111.987 53.8165 111.94 53.3113 112.142C49.7283 113.571 46.8526 117.564 47.0702 121.447C47.3267 125.882 49.0988 119.591 49.8838 118.41C50.8864 116.903 52.5418 115.568 54.3139 115.078C55.6196 114.721 58.5264 114.869 58.9772 113.898C59.1015 113.634 57.9357 111.7 57.7647 110.822C56.9487 106.597 59.0005 102.053 63.9048 102.76C68.4437 103.412 69.3453 111.117 68.7701 114.768C68.2416 118.115 65.1017 122.993 62.4436 125.105C61.1456 126.138 54.9745 128.763 54.8735 129.183C54.3994 131.163 60.213 129.47 61.0835 129.167C63.2519 128.414 65.226 126.224 63.1042 130.791C60.2207 137.004 47.9252 139.459 42.4691 135.73C41.381 134.985 39.982 133.486 40.1141 132.08H45.749C45.8189 132.08 46.7127 131.179 46.7127 131.109C46.7205 130.464 39.9432 128.787 38.5442 128.026C34.4327 125.797 30.3989 119.49 30.3989 114.861V108.865Z" fill="white"/>
<path d="M82.861 222.619C89.7549 225.128 93.742 231.085 92.3974 238.502C92.2187 239.473 89.6539 247.186 88.3015 246.222C88.0761 246.059 86.3818 242.331 85.659 241.298C82.962 237.415 79.7443 234.083 77.2495 229.935C72.3219 221.741 70.0447 212.095 61.8295 206.207C57.9279 203.411 54.5781 202.448 49.8137 201.92C63.656 191.357 76.7365 204.957 79.62 218.673C79.9464 220.211 80.4438 227.287 80.7003 227.66C82.4257 230.168 82.8688 223.613 82.8532 222.619H82.861Z" fill="#99B655"/>
<path d="M253.849 122.79L246.543 121.555C244.849 116.398 246.597 99.8313 255.038 102.457C262.142 104.67 252.924 118.247 253.849 122.79Z" fill="white"/>
<path d="M76.9386 11.8403C79.107 11.5685 81.6019 12.4461 83.2574 13.8597C88.558 18.38 85.4336 28.3993 78.392 29.1527C65.9565 30.4886 66.3762 13.1607 76.9386 11.8403ZM74.4437 24.3838C78.7262 28.5935 84.7263 19.9179 80.133 16.5936C75.5396 13.2694 70.7364 20.7334 74.4437 24.3838Z" fill="white"/>
<path d="M28.3549 9.12952C41.1168 6.96256 41.0468 26.007 29.8005 26.4575C18.9039 26.8924 18.8961 10.7373 28.3549 9.12952ZM26.6372 21.3003C31.0907 26.0691 37.4949 16.3139 31.7124 13.3469C26.9792 10.9159 23.7926 18.2634 26.6372 21.3003Z" fill="white"/>
<path d="M165.254 257.445C165.448 257.204 169.723 260.016 170.694 260.342C177.448 262.618 191.718 262.602 198.394 260.063C207.395 256.63 210.604 247.511 213.721 239.341C213.908 238.851 213.954 238.207 214.607 238.098C214.444 247.348 208.786 259.364 199.832 263.045C193.148 265.795 175.49 265.67 169.016 262.401C167.927 261.849 164.321 258.61 165.262 257.437L165.254 257.445Z" fill="#39311F"/>
<path d="M85.5812 251.247L82.247 245.476C79.3168 241.919 76.2702 238.463 73.7675 234.572C66.6715 223.574 62.117 205.321 45.1737 207.9C48.7644 203.341 55.091 205.306 59.2802 207.978C67.5809 213.259 70.0369 223.954 74.9333 231.861C77.6147 236.187 81.7651 240.133 84.0967 244.404C85.418 246.82 85.931 248.366 85.5812 251.239V251.247Z" fill="#39311F"/>
<path d="M88.1073 29.5413C88.0218 29.5257 87.2213 29.1374 87.1979 29.0908C86.5528 28.019 89.2964 15.623 88.6902 13.2852C91.4338 13.7589 96.0815 13.1764 98.3899 14.6599C100.815 16.221 100.115 20.9899 97.2473 21.6035C99.6956 22.9239 100.271 25.7588 98.5997 27.9801C98.4132 28.2287 96.7888 29.5335 96.6644 29.5335C94.2628 29.5335 90.2602 29.8908 88.1151 29.5335L88.1073 29.5413ZM95.6385 17.2074C95.4364 16.889 92.755 16.5939 92.5763 16.7725L92.1877 19.8637L95.2421 19.8094C95.5064 19.2035 95.9572 17.7123 95.6385 17.1997V17.2074ZM91.4105 26.45C96.4235 27.4209 96.9132 22.4035 91.8146 22.986L91.4105 26.45Z" fill="white"/>
<path d="M125.491 16.5078C128.32 19.0165 126.836 23.8397 123.758 25.463L126.385 32.2513C125.499 31.4357 122.173 32.1814 121.761 31.8241C121.512 31.6144 120.144 26.0378 119.771 25.6727C119.204 25.1135 118.916 26.0378 118.807 26.4261C118.403 27.894 118.341 29.929 118.224 31.4746L113.95 31.0862L115.893 14.8379C118.372 15.0243 123.634 14.8612 125.491 16.5078ZM119.002 22.1854C123.766 23.2805 124.318 17.8903 119.39 18.7058L119.002 22.1854Z" fill="white"/>
<path d="M50.9951 16.7801C50.6998 16.5161 51.2905 14.3569 48.4303 14.0773C45.5702 13.7977 43.4795 16.8811 43.6893 19.5685C44.0391 24.0189 48.8345 24.8422 50.8242 21.0131L54.4926 22.5898C54.1973 24.547 51.4382 26.7917 49.5417 27.1412C35.4663 29.712 36.6477 8.13559 49.9925 10.2327C51.7646 10.5123 55.6507 13.5258 55.2388 15.4054C55.1222 15.9258 51.1584 16.9355 50.9874 16.7879L50.9951 16.7801Z" fill="white"/>
<path d="M112.364 18.6831L106.566 18.3259V20.6482L111.999 21.2229C111.261 21.7977 111.812 24.3297 111.618 24.5239C111.486 24.6559 108.509 24.5627 107.926 24.5239C105.447 24.3452 106.644 23.3899 105.789 26.6209C105.874 27.6617 110.74 26.9005 111.641 27.4131C111.968 27.5995 111.626 30.4811 111.455 30.7374C110.864 31.6073 103.03 30.3568 101.53 30.318L103.255 14.4424C103.714 13.7279 105.128 14.458 105.975 14.4813C107.678 14.5279 111.183 14.124 112.543 14.5201C113.53 14.7997 112.543 17.9065 112.372 18.6909L112.364 18.6831Z" fill="white"/>
<path d="M185.842 233.453C190.436 234.967 197.539 233.22 197.501 227.449C197.469 222.82 193.576 223.503 191.679 222.028C190.412 221.041 193.109 220.047 193.832 219.938C204.107 218.331 204.449 232.94 195.169 236.738C191.664 238.175 186.449 237.973 185.85 233.453H185.842Z" fill="#99B655"/>
<path d="M237.139 162.262C237.317 162.052 240.457 164.444 241.064 164.732C248.867 168.39 255.45 164.848 260.447 158.782C261.295 168.957 247.522 173.469 240.115 168.39C238.856 167.528 236.066 163.505 237.139 162.27V162.262Z" fill="white"/>
<path d="M68.8712 11.7465L68.4282 15.56L64.5965 15.6144L63.4307 28.0026C62.0084 28.0026 60.5317 28.1812 59.2026 27.5677L60.6094 15.7931C60.4384 14.8222 57.5938 15.3503 56.8243 15.2338V11.3582L68.8712 11.7465Z" fill="white"/>
<path d="M82.9543 219.046C82.6279 218.712 82.1383 215.869 82.2704 215.628C83.2264 213.919 87.6798 215.589 89.071 216.242C92.9571 218.067 97.3717 222.867 96.8199 227.418C96.7422 228.047 95.9494 230.983 95.11 229.966C94.0375 228.661 93.1748 226.37 91.7913 224.762C90.3224 223.053 88.2394 221.275 86.242 220.234C85.4259 219.807 83.3818 219.48 82.9621 219.053L82.9543 219.046Z" fill="#99B655"/>
<path d="M229.817 130.177C229.732 130.542 229.654 130.907 229.569 131.272L228.589 139.047C229.172 138.845 229.405 138.022 229.926 137.47C230.284 137.09 231.177 136.763 231.24 136.662C231.791 135.73 230.322 134.356 230.237 133.354L229.817 130.185V130.177Z" fill="white"/>
<path d="M240.387 45.2149C238.662 70.5195 236.004 97.4162 232.087 125.695C227.866 156.196 222.675 184.778 216.962 211.287C195.604 210.005 171.775 207.458 146.025 202.875C121.341 198.479 98.9649 192.926 79.1459 187.046C85.8377 162.526 92.0943 135.591 97.2706 106.426C101.879 80.4766 105.074 55.9255 107.242 33.0442C126.945 36.8267 148.707 40.0965 172.303 42.2946C196.832 44.578 219.651 45.3625 240.38 45.2149H240.387Z" fill="white" stroke="black" stroke-width="5.81667" stroke-miterlimit="10"/>
<path d="M122.46 53.2769C137.538 55.7312 153.953 57.7894 171.573 59.1331C190.218 60.5544 207.666 60.9816 223.708 60.7641C223.094 77.0125 221.796 94.5191 219.527 113.09C216.915 134.425 213.395 154.13 209.446 172.017C192.285 171.675 172.404 170.091 150.572 166.138C134.313 163.194 119.616 159.404 106.644 155.373C110.483 140.592 114.035 124.235 116.849 106.441C119.88 87.3114 121.597 69.4864 122.46 53.2924V53.2769Z" fill="#FBFAF1" stroke="black" stroke-width="5.81667" stroke-miterlimit="10"/>
<path d="M184.684 120.468C183.246 131.21 173.873 147.24 161.966 148.343C150.836 149.376 145.528 142.277 142.831 132.545C142.551 131.528 142.101 127.481 141.867 127.124C141.743 126.93 138.743 125.548 137.865 124.724C137.352 124.243 134.935 121.159 134.935 120.654C134.927 117.423 140.103 122.161 141.051 122.72C151.87 129.159 165.44 127.823 176.15 121.835C177.775 120.926 179.042 119.559 180.806 118.922C180.518 118.099 178.303 118.161 178.093 117.175C177.759 115.598 181.49 115.816 182.391 116.002C184.257 116.39 190.195 120.367 189.192 122.394C188.096 124.608 186.231 120.654 184.708 120.468H184.684ZM154.116 138.79C148.893 144.048 158.601 145.252 162.293 144.802C165.922 144.359 172.264 140.235 173.834 136.942C174.736 135.046 172.544 134.58 170.889 134.402C166.078 133.866 157.637 135.248 154.124 138.798L154.116 138.79Z" fill="black"/>
<path d="M89.856 71.335L92.9726 73.8359C99.8044 82.03 96.167 94.3328 86.3508 98.2162C79.8455 100.787 67.923 99.8317 62.2959 95.4823C54.1273 89.1678 56.2569 74.7136 65.1017 70.0923C65.9177 69.6651 67.2701 70.0612 66.1509 68.803C64.2856 66.7137 62.9099 65.7817 62.2959 62.5972C58.9772 45.3547 85.387 39.5451 94.7214 51.5916C99.4857 57.7429 97.4028 68.5156 89.856 71.3428V71.335ZM79.2625 55.1721C71.8246 55.607 71.8479 67.436 80.6926 66.2632C84.6331 65.7428 86.6228 61.2769 84.9595 57.8284C84.0347 55.9255 81.2911 55.0556 79.2703 55.1721H79.2625ZM75.7651 75.2883C68.6924 76.399 67.923 88.0338 75.3143 89.0901C86.887 90.7445 86.4829 73.6029 75.7651 75.2883Z" fill="black"/>
<path d="M39.7255 58.5662C39.197 58.1545 34.4637 61.8749 33.8964 61.2691C33.5311 60.8807 34.4093 51.6304 34.7746 50.7294C35.1943 49.6886 43.4561 44.0809 44.5986 43.8712C45.679 43.6771 51.7179 44.3838 53.1247 44.6324C53.5677 44.71 53.9097 44.7722 54.0729 45.2537L47.6376 96.0337L36.4223 95.6997L35.4974 95.0628L39.7255 58.5584V58.5662Z" fill="black"/>
<path d="M74.4437 24.384C70.7364 20.7335 75.5318 13.2696 80.1329 16.5938C84.7263 19.918 78.7262 28.5936 74.4437 24.384Z" fill="#D2797B"/>
<path d="M26.6371 21.3008C23.7925 18.2561 26.9791 10.9086 31.7124 13.3474C37.4949 16.3222 31.0906 26.0696 26.6371 21.3008Z" fill="#D2797B"/>
<path d="M91.4104 26.45L91.8146 22.9859C96.9131 22.4034 96.4157 27.4208 91.4104 26.45Z" fill="#D2797B"/>
<path d="M95.6385 17.2074C95.9571 17.72 95.5063 19.2112 95.2421 19.817L92.1876 19.8714L92.5762 16.7802C92.7472 16.6016 95.4364 16.8889 95.6385 17.2151V17.2074Z" fill="#D2797B"/>
<path d="M119.002 22.186L119.39 18.7065C124.326 17.8909 123.774 23.2812 119.002 22.186Z" fill="#D2797B"/>
<path d="M154.116 138.79C157.637 135.241 166.07 133.858 170.881 134.394C172.536 134.581 174.728 135.039 173.826 136.934C172.256 140.227 165.922 144.351 162.285 144.794C158.601 145.245 148.893 144.049 154.108 138.783L154.116 138.79Z" fill="#AA5A63"/>
<path d="M75.7651 75.2879C86.4829 73.6025 86.8871 90.7518 75.3143 89.0897C67.923 88.0334 68.6924 76.3985 75.7651 75.2879Z" fill="white"/>
<path d="M79.1148 54.5576C89.0632 53.0431 89.444 68.4371 78.6951 66.9458C71.8401 65.9983 72.5473 55.5518 79.1148 54.5576Z" fill="white"/>
<path d="M139.828 104.65C137.295 96.0884 141.453 80.3666 151.339 79.7251C161.226 79.0837 162.126 98.3334 158.058 104.734C158.212 105.208 164.581 106.707 165.035 111.085C165.119 111.887 164.365 113.93 163.507 112.912C162.6 110.974 162.712 109.314 160.807 108.004C157.479 105.717 153.014 107.711 152.428 111.908C152.135 114 152.944 115.512 151.87 117.29C149.428 115.861 149.421 113.254 149.951 111.448C150.265 110.402 151.221 109.286 150.398 108.471L134.791 106.651" fill="black"/>
<path d="M157.709 89.7997C157.353 87.4292 154.856 84.3267 152.456 83.9432C143.372 82.507 138.809 99.5953 141.739 106.233H144.349C144.16 102.628 145.5 98.7657 147.272 95.6492L150.495 95.7329L149.777 92.2538C151.884 90.3784 154.835 89.3953 157.702 89.7997H157.709Z" fill="black"/>
<path d="M191.205 118.343C190.584 119.41 184.528 115.24 183.167 114.717C177.928 112.675 172.298 112.814 166.856 112.891C165.956 109.739 170.861 111.434 171.293 110.708C169.061 102.461 173.63 83.7198 183.761 85.0654C194.7 86.5225 193.423 108.129 187.647 114.801C188.923 115.868 191.023 116.279 191.212 118.35L191.205 118.343ZM189.712 95.7465C184.661 83.5106 175.347 91.9886 173.267 100.948C172.444 104.503 172.598 108.289 173.267 111.845L175.814 112.089C176.609 108.77 177.063 99.7415 181.981 101.805L181.27 98.3261C183.816 96.381 186.384 94.6519 189.705 95.7535L189.712 95.7465Z" fill="black"/>
<path d="M192.97 86.7317C192.83 87.4568 191.553 88.1749 191.128 87.9518C190.974 87.8681 190.151 85.8951 189.265 85.0096C187.591 83.3224 185.386 82.8413 184.137 81.0286C185.616 79.0834 192.44 84.8562 192.963 86.7317" fill="black"/>
<path d="M154.012 76.2391C150.119 75.9114 147.705 77.6266 144.572 79.4881L144.181 77.515C144.46 76.7969 154.263 72.2442 154.012 76.2322V76.2391Z" fill="black"/>
<path d="M157.709 89.7994C154.849 89.395 151.898 90.3781 149.784 92.2536L150.502 95.7326L147.279 95.6489C145.507 98.7654 144.167 102.628 144.356 106.232H141.747C138.816 99.5951 143.372 82.5137 152.463 83.9429C154.863 84.3194 157.367 87.4219 157.716 89.7994H157.709Z" fill="white"/>
<path d="M189.712 95.7465C186.391 94.6449 183.823 96.3739 181.277 98.3191L181.988 101.798C177.063 99.7344 176.616 108.763 175.821 112.082L173.274 111.838C172.605 108.282 172.444 104.496 173.274 100.941C175.353 91.9816 184.667 83.5106 189.719 95.7395L189.712 95.7465Z" fill="white"/>
<path d="M141.133 110.026C141.405 109.712 141.886 109.642 142.228 109.9C142.584 110.158 142.654 110.66 142.423 111.016C142.165 111.406 141.6 111.504 141.23 111.204C140.881 110.918 140.84 110.374 141.133 110.032V110.026Z" fill="black"/>
<path d="M145.528 109.209C145.8 108.896 146.281 108.826 146.623 109.084C146.979 109.342 147.049 109.844 146.819 110.199C146.561 110.59 145.995 110.687 145.626 110.388C145.277 110.102 145.235 109.558 145.528 109.216V109.209Z" fill="black"/>
<path d="M143.567 112.368C143.839 112.054 144.321 111.984 144.663 112.242C145.019 112.5 145.088 113.002 144.858 113.358C144.6 113.748 144.035 113.846 143.665 113.546C143.316 113.26 143.274 112.716 143.567 112.375V112.368Z" fill="black"/>
<path d="M171.712 114.167C171.984 113.853 172.465 113.783 172.807 114.041C173.163 114.299 173.233 114.801 173.002 115.157C172.744 115.547 172.179 115.645 171.809 115.345C171.461 115.059 171.419 114.515 171.712 114.174V114.167Z" fill="black"/>
<path d="M176.588 114.983C176.86 114.669 177.342 114.599 177.684 114.857C178.04 115.115 178.109 115.617 177.879 115.973C177.621 116.363 177.056 116.461 176.686 116.161C176.337 115.875 176.295 115.331 176.588 114.99V114.983Z" fill="black"/>
<path d="M173.337 116.76C173.609 116.447 174.091 116.377 174.433 116.635C174.788 116.893 174.858 117.395 174.628 117.75C174.37 118.141 173.805 118.238 173.435 117.939C173.086 117.653 173.044 117.109 173.337 116.767V116.76Z" fill="black"/>
</g>
<defs>
<clipPath id="clip0_209_2051">
<rect width="270" height="274" fill="white"/>
</clipPath>
</defs>
</svg>
