<svg width="348" height="369" viewBox="0 0 348 369" fill="none" xmlns="http://www.w3.org/2000/svg">
<path d="M257.675 49.4079C263.518 48.2806 269.71 48.523 275.295 50.5109C275.063 49.7715 274.728 48.5473 274.56 47.0321C273.979 41.7472 276.198 40.0259 275.759 36.4622C275.295 32.741 272.161 28.9955 268.549 27.5651C265.969 26.5469 261.48 26.0621 259.171 25.8075C258.539 25.7348 257.159 25.6015 255.456 25.0318C253.883 24.5106 252.696 23.8318 251.922 23.3348C250.503 22.7045 246.84 20.8377 244.699 16.8619C244.028 15.6255 242.08 12.0134 243.512 8.20727C244.931 4.43752 248.878 2.70415 249.948 2.18293C264.15 -4.72626 279.616 6.17086 288.684 15.3104C289.987 16.6316 295.185 23.3226 295.946 23.6499C297.417 24.2924 300.603 24.8621 302.37 25.5409C306.395 27.1045 312.509 30.5834 316.211 32.8622C325.511 38.5956 332.605 46.523 335.895 56.4747C336.798 59.202 337.92 68.0869 338.81 69.3233C339.519 70.3173 343.067 70.9355 344.576 72.9355C345.053 73.5658 347.323 77.9538 347.478 78.6083C348.794 84.366 346.201 88.8024 342.938 93.457C351.322 109.639 349.335 129.458 336.656 143.324C327.227 153.64 310.871 158.379 307.014 159.531C300.139 161.591 291.264 164.246 283.189 164.719C281.925 164.791 277.965 164.973 272.909 166.222C269.761 166.998 267.259 167.931 265.634 168.598C264.911 165.24 264.266 161.591 263.776 157.676C263.273 153.7 263.002 149.955 262.886 146.488C266.227 146.44 269.568 146.391 272.909 146.343C284.698 145.761 296.617 144.779 307.685 140.864C310.909 138.476 315.295 136.997 318.726 134.197C328.684 126.076 327.201 114.063 324.505 103.166C317.449 105.336 307.143 104.415 302.731 98.3662C301.867 97.1783 300.538 93.0934 300.216 92.8995C299.197 92.2449 296.037 92.3298 294.527 91.5419C291.096 89.7479 286.311 86.0751 283.473 83.2266C280.932 80.6811 280.106 79.3114 278.52 77.9174C277.901 77.372 276.262 76.1477 273.889 74.8992C272.096 73.9537 266.885 71.2991 259.868 71.3961C258.346 71.4204 257.107 71.5658 256.333 71.6749C256.114 71.4567 255.908 71.2264 255.689 71.0082C255.121 70.4264 254.334 69.5658 253.444 68.4991C250.516 65.0081 249.02 63.2626 248.723 61.2626C248.388 58.9111 249.02 56.4141 250.709 53.8807C251.393 52.8625 253.07 52.3655 252.864 50.8018M305.079 31.6864C304.976 31.5652 302.383 30.5227 301.932 30.3894C288.181 26.3287 276.611 36.0622 280.442 48.8867C281.345 51.917 283.731 56.111 287.459 56.6201C286.865 52.5473 286.388 49.5776 287.794 45.5654C290.477 37.8805 296.256 35.0925 304.189 32.8016C304.834 32.6077 306.008 32.7531 305.092 31.6985L305.079 31.6864ZM259.971 53.9898C254.915 55.3352 251.496 60.1959 255.856 64.099C258.797 66.7415 269.903 67.7839 274.689 69.6506C288.529 75.0325 287.923 89.2146 308.51 87.6873C311.967 87.4327 311.696 89.8933 309.787 91.3722C308.458 92.4025 306.24 91.4085 306.291 92.9237C306.395 96.2692 311.322 98.8511 314.56 99.2511C323.512 100.366 335.121 95.6753 340.009 88.7297C344.292 82.6448 343.712 79.6508 338.681 74.5113C338.333 74.1477 338.745 73.4446 337.314 73.7961C338.165 77.5659 331.277 87.1782 326.981 85.166C323.718 83.6387 328.568 80.7296 329.677 79.2993C335.456 71.8325 331.819 57.5535 327.085 50.1473C323.37 44.329 315.347 35.9168 307.285 36.7289C295.301 37.9289 287.859 49.7473 294.244 59.5898C299.326 67.4324 311.864 65.2748 308.02 55.8928C307.517 54.6565 304.795 54.5231 305.105 52.7413C306.73 52.7776 308.394 52.5231 309.993 52.9837C310.806 53.214 315.837 55.8686 315.94 56.414C316.378 58.5595 314.018 58.0989 313.67 58.305C313.45 58.4383 313.657 61.8323 313.205 63.1657C312.122 66.3415 308.007 68.887 304.498 69.3597C306.756 74.4143 308.691 77.5053 312.999 81.2993C313.863 82.0629 314.998 81.7962 314.843 82.9235C314.534 85.1781 312.16 84.0993 310.638 83.4205C308.084 82.2811 305.659 79.275 304.279 77.0326C303.286 75.4204 301.416 70.0749 300.719 69.4809C299.855 68.7415 295.637 67.8203 293.612 66.2566C292.373 65.2869 291.135 63.1051 290.103 62.802C288.001 62.1839 284.815 62.4263 282.635 61.0323C280.558 69.3233 278.184 59.0686 275.966 56.8625C272.664 53.5898 264.499 52.7898 260.01 53.9777L259.971 53.9898ZM269.362 22.4135C273.631 23.8075 275.785 28.1106 278.662 31.1288C282.015 29.153 284.815 25.8682 289.252 25.5651C289.394 24.8015 289.342 24.0863 288.968 23.3832C288.104 21.7469 281.125 15.3953 279.268 13.9407C274.96 10.571 267.646 6.38907 262.074 5.79512C259.21 5.49209 254.05 5.686 251.78 7.46785C250.503 8.47392 249.11 10.971 249.11 12.571C249.11 20.0256 263.725 20.5832 269.362 22.4135Z" fill="black"/>
<path d="M47.82 350.443C55.3917 348.006 63.5826 347.764 71.3865 346.43C72.1089 346.309 72.47 346.176 72.8957 345.606C69.5807 341.024 67.6845 335.836 66.4075 330.466C64.4855 322.333 63.015 307.448 70.0708 301.169C71.0511 300.308 72.7667 299.69 73.7729 298.72C78.223 294.369 80.9189 289.896 87.5103 287.411C91.2123 286.017 94.2307 286.429 97.5071 285.435C99.5967 284.805 101.467 283.023 103.299 282.405C109.684 280.26 117.346 282.781 121.538 287.435L122.183 287.46C128.684 284.72 134.166 281.193 135.985 274.514C137.752 268.029 135.559 262.817 134.85 256.453C134.734 255.993 134.411 255.762 133.934 255.617C133.392 255.459 132.786 255.374 132.141 255.362C132.051 254.332 131.909 253.338 131.702 252.393C155.037 249.726 178.526 248.514 202.054 248.477C202.634 248.477 203.176 248.417 203.679 248.308C215.043 247.544 226.33 247.18 237.552 245.156C239.487 244.805 241.331 244.78 243.111 244.962C242.995 244.962 242.879 244.986 242.763 244.998C241.834 245.083 241.267 245.035 240.673 245.859C246.71 250.865 251.767 256.635 255.739 263.144C263.801 276.357 266.149 291.084 258.938 305.169C261.905 307.302 264.279 310.03 265.878 313.181C276.081 307.678 289.561 308.381 298.719 315.4C305.207 320.369 309.348 329.606 308.754 337.327C308.638 338.83 307.49 341.861 307.671 342.77C307.826 343.558 309.503 344.927 309.812 346.297C311.038 351.594 307.31 356.77 302.447 359.291C292.837 364.297 276.842 364.915 265.852 364.758C256.397 364.625 246.865 365.655 237.307 366.394C195.308 369.643 151.786 369.667 109.671 367.497C91.8186 366.576 70.6513 365.655 53.315 361.8C45.2273 360.006 33.257 355.121 47.8071 350.443H47.82ZM94.1791 291.581C86.6461 292.514 77.9263 298.514 77.1653 305.702C75.9657 317.06 81.3575 337.921 90.8512 345.861C100.912 354.273 118.12 353.849 130.799 351.836C133.534 351.4 143.518 349 145.066 347.388C148.123 344.224 146.807 336.139 144.963 332.551C143.995 330.685 142.847 329.23 141.519 328.079C138.294 325.279 134.772 324.406 131.689 323.691C129.845 323.266 126.13 322.43 121.396 323.012C117.075 323.533 113.786 325 112.431 325.654C108.652 327.497 103.982 330.588 101.067 330.83C99.4548 330.963 98.7196 329.569 99.945 328.127C101.648 326.139 103.724 325.557 107.13 323.703C108.278 323.072 109.968 322.03 111.812 320.381C96.6815 318.187 89.5484 304.357 94.192 291.569L94.1791 291.581ZM113.966 309.29C107.813 308.442 102.06 295.508 108.549 292.211C110.238 291.351 112.792 291.193 114.714 290.611C115.282 290.442 116.572 290.684 116.056 289.642C115.475 288.466 109.955 286.599 108.445 286.551C104.627 286.429 101.003 289.751 99.2613 292.599C94.9273 299.69 99.6225 312.381 108.613 314.709C114.366 316.187 122.48 314.139 123.963 308.199C120.725 308.999 117.372 309.751 113.966 309.278V309.29ZM257.339 309.884C256.539 309.727 254.024 313.206 252.773 313.993C247.91 317.036 237.874 316.721 234.082 312.296L236.404 307.109C230.251 306.599 223.311 312.357 228.239 317.606C233.837 323.569 253.147 323.678 258.603 317.654C261.222 314.769 260.435 312.103 257.339 309.896V309.884ZM301.737 328.163C296.113 315.06 281.667 311.496 268.071 317.412C264.214 319.084 262.666 321.024 259.88 323.521C256.462 326.588 255.043 328.2 252.321 331.86C251.921 332.394 251.702 333.327 250.696 333.145C247.948 332.624 251.921 326.236 251.599 325.945C244.62 327.751 236.675 327.485 229.916 324.939C226.73 323.739 226.549 322.478 223.956 320.963C221.222 324.66 218.229 329.388 218.126 333.982C218.1 334.964 219.158 340.794 219.545 341.327C219.687 341.521 222.254 342.806 222.808 343.061C238.842 350.346 276.984 352.891 293.714 347.436C303.505 344.248 305.414 336.721 301.737 328.175V328.163ZM152.908 341.933C167.871 342.309 182.873 341.703 197.836 341.982C199.151 342.006 200.299 342.527 201.447 342.564C205.859 342.685 209.664 342.527 213.908 341.448C211.599 335.157 212.902 328.03 216.23 322.236C217.197 320.539 220.757 317.193 221.08 316.139C221.725 314.115 220.796 312.527 222.163 309.933C225.478 303.69 232.057 301.545 239.358 301.496C240.519 298.114 242.131 294.308 242.466 290.757C244.014 274.102 229.116 256.684 214.785 247.786L154.34 253.35C160.209 274.284 153.811 298.017 129.548 305.557C128.697 310.987 126.014 314.757 121.512 318.175C127.768 317.424 132.657 317.145 138.539 319.557C144.589 322.054 150.78 330.333 151.747 336.333C152.005 337.945 151.322 341.473 152.895 341.933H152.908ZM96.8879 359.764C108.665 363.691 135.34 364.055 144.834 356.055C145.84 355.206 146.73 355.23 147.401 353.679C148.768 350.455 145.491 352.843 144.021 353.364C139.738 354.867 137.017 355.037 132.876 355.861C132.412 355.958 132.58 356.794 132.038 356.94C126.968 358.297 108.42 358.697 103.75 356.927C103.234 356.734 103.363 356.018 102.86 355.885C78.1327 349.182 73.7213 328.624 72.9086 307.363C72.8828 306.696 73.3601 305.302 72.3024 305.436C70.0837 310.66 69.4517 315.024 69.8644 320.672C70.9093 334.939 81.4994 354.636 96.8879 359.764Z" fill="black"/>
<path d="M2.09302 236.162C2.57028 234.708 4.15687 232.453 4.23426 231.423C4.33745 230.005 2.69927 228.162 2.45419 226.429C1.82214 222.101 2.42839 218.077 4.9308 214.368C7.38162 210.744 11.0191 209.568 14.4632 206.998C13.2507 176.101 39.9646 149.931 73.2054 146.949C73.9277 146.888 74.6759 146.912 75.4111 146.949C76.6365 147.446 77.8748 147.955 79.1002 148.452C79.4485 152.428 79.6162 156.622 79.5517 160.997C79.5388 162.052 79.513 163.082 79.4743 164.113C79.3195 164.113 79.1518 164.137 78.997 164.149C74.7275 164.234 65.6337 164.949 56.1013 170.137C52.8507 171.907 46.7108 175.87 41.4222 182.792C36.5592 189.143 34.1084 197.459 33.4506 205.107C36.5979 205.665 38.9842 206.61 40.545 207.338C43.3441 208.659 47.704 210.683 49.3551 214.707C49.8581 215.944 50 218.756 50.5805 219.41C51.3286 220.247 58.5908 221.811 60.345 222.841C61.5834 223.58 65.1435 226.235 66.5237 227.314C75.5014 234.32 79.9774 248.187 71.9542 257.181C71.4382 257.763 70.2515 257.932 69.9677 258.696C69.0132 261.229 70.6772 264.417 68.7681 268.139C65.9432 273.642 59.9839 277.193 53.2248 276.575C52.0639 276.466 50.387 275.666 49.5099 275.751C47.3299 275.957 43.2409 279.181 37.8749 279.205C34.5857 279.205 31.6318 277.533 29.3616 277.302C28.4973 277.205 27.4912 278.127 26.3948 278.284C18.4619 279.399 12.3736 276.575 7.62671 271.06C-0.71896 261.363 -1.64769 247.775 2.10593 236.187L2.09302 236.162ZM15.1984 270.769C17.2494 272.09 18.8876 272.078 20.7837 272.781C21.3642 272.987 21.764 274.684 24.2665 273.848C23.4022 270.539 19.8421 267.338 22.7444 263.884C25.1952 266.223 26.2658 268.611 29.181 270.757C31.735 272.636 34.6373 274.357 37.9265 274.43C41.6156 274.514 42.4154 274.163 44.9307 271.908C42.983 269.629 40.7514 266.538 40.6482 263.569C40.5966 261.787 41.5512 259.023 43.3957 261.108C44.2987 262.126 45.2016 265.545 46.4786 267.157C49.8452 271.387 56.8752 272.66 61.3512 269.145C66.8075 264.866 65.6078 257.957 61.6349 253.338L60.7191 258.878C59.5453 258.963 58.939 259.072 58.4231 257.932C57.2493 255.326 56.0368 244.429 58.8874 243.071C61.7123 241.738 61.4931 246.211 62.6411 247.993C62.9248 248.441 67.375 253.181 67.7233 253.338C68.5875 253.738 69.4002 251.787 69.671 251.253C75.4498 239.799 63.0925 229.083 52.2058 225.362C47.6266 223.798 43.4344 223.059 38.7134 222.15C37.5138 221.92 32.9991 221.253 33.3732 219.823C33.7601 219.459 35.1919 218.429 35.5015 218.429H44.9178C42.5573 210.453 32.3283 209.519 24.6276 210.174C16.5657 210.865 7.84599 215.083 7.38163 223.289C7.34293 223.883 7.49772 227.192 8.74892 226.732C12.0382 225.544 14.7728 221.132 19.3906 222.308L19.3003 224.998C1.69314 231.253 1.06109 261.69 15.1726 270.769H15.1984Z" fill="black"/>
<path d="M44.9564 218.429C42.5959 210.453 32.3669 209.52 24.6662 210.174C16.6043 210.865 7.88458 215.083 7.42022 223.289C7.38152 223.883 7.5363 227.192 8.78751 226.732C12.0768 225.544 14.8114 221.132 19.4292 222.308L19.3389 224.999C1.73175 231.253 1.09968 261.69 15.2112 270.769C17.2622 272.09 18.9003 272.078 20.7965 272.781C21.377 272.987 21.7768 274.684 24.2792 273.848C23.415 270.539 19.8549 267.339 22.7572 263.884C25.208 266.223 26.2786 268.611 29.1938 270.757C31.7478 272.636 34.6501 274.357 37.9393 274.43C41.6285 274.514 42.4282 274.163 44.9435 271.908C42.9957 269.629 40.7642 266.539 40.661 263.569C40.6094 261.787 41.5639 259.023 43.4085 261.108C44.3114 262.126 45.2144 265.545 46.4914 267.157C49.858 271.387 56.888 272.66 61.364 269.145C66.8202 264.866 65.6206 257.957 61.6477 253.338L60.7319 258.878C59.5581 258.963 58.9518 259.072 58.4359 257.932C57.2621 255.326 56.0496 244.429 58.9003 243.072C61.7509 241.714 61.5058 246.211 62.6539 247.993C62.9376 248.441 67.3878 253.181 67.7361 253.338C68.6003 253.738 69.413 251.787 69.6838 251.253C75.4626 239.799 63.1053 229.083 52.2185 225.362C47.6394 223.799 43.4472 223.059 38.7262 222.15C37.5266 221.92 33.0119 221.253 33.386 219.823C33.7729 219.459 35.2047 218.429 35.5143 218.429H44.9306H44.9564Z" fill="white"/>
<path d="M305.091 52.7415C306.717 52.7779 308.381 52.5233 309.98 52.984C310.793 53.2143 315.823 55.8688 315.927 56.4143C316.365 58.5598 314.005 58.0992 313.656 58.3052C313.437 58.4386 313.643 61.8326 313.192 63.1659C312.108 66.3417 307.994 68.8872 304.485 69.36C306.742 74.4146 308.677 77.5055 312.986 81.2995C313.85 82.0632 314.985 81.7965 314.83 82.9238C314.521 85.1784 312.147 84.0996 310.625 83.4208C308.071 82.2814 305.646 79.2753 304.266 77.0328C303.273 75.4207 301.402 70.0751 300.706 69.4812C299.841 68.7418 295.623 67.8205 293.598 66.2569C292.36 65.2872 291.122 63.1053 290.09 62.8023C287.987 62.1841 284.801 62.4265 282.621 61.0326C280.544 69.3236 278.171 59.0689 275.952 56.8628C272.65 53.59 264.485 52.79 259.996 53.9779C254.94 55.3234 251.522 60.1841 255.882 64.0872C258.823 66.7296 269.929 67.7721 274.714 69.6388C288.555 75.0207 287.949 89.2027 308.535 87.6754C311.992 87.4208 311.721 89.8815 309.812 91.3603C308.484 92.3906 306.265 91.3967 306.317 92.9118C306.42 96.2573 311.347 98.8392 314.585 99.2392C323.537 100.354 335.146 95.6634 340.035 88.7178C344.317 82.6329 343.737 79.6389 338.706 74.4994C338.358 74.1358 338.771 73.4328 337.339 73.7843C338.19 77.554 331.302 87.1663 327.007 85.1542C323.743 83.6269 328.593 80.7177 329.703 79.2874C335.481 71.8206 331.844 57.5416 327.11 50.1354C323.395 44.3172 315.372 35.9049 307.31 36.717C295.327 37.9171 287.884 49.7354 294.269 59.578C299.351 67.4205 311.889 65.2629 308.045 55.881C307.542 54.6446 304.82 54.5113 305.13 52.7294L305.091 52.7415Z" fill="white"/>
<path d="M259.88 323.521C256.461 326.588 255.042 328.2 252.321 331.861C251.921 332.394 251.702 333.327 250.696 333.146C247.948 332.624 251.921 326.236 251.598 325.946C244.62 327.752 236.674 327.485 229.915 324.939C226.729 323.739 226.549 322.479 223.956 320.964C221.221 324.661 218.229 329.388 218.125 333.982C218.1 334.964 219.157 340.794 219.544 341.328C219.686 341.522 222.253 342.806 222.808 343.061C238.841 350.346 276.984 352.891 293.714 347.437C303.504 344.249 305.413 336.721 301.737 328.176C296.113 315.073 281.666 311.509 268.071 317.424C264.214 319.097 262.666 321.036 259.88 323.533V323.521Z" fill="#99B655"/>
<path d="M145.065 347.4C148.123 344.236 146.807 336.151 144.962 332.564C143.995 330.697 142.847 329.242 141.518 328.091C138.048 325.073 134.127 324.188 131.689 323.703C129.135 323.194 120.106 321.4 112.431 325.666C110.483 326.745 103.866 330.612 101.067 330.842C99.4545 330.976 98.7193 329.582 99.9447 328.139C102.047 325.691 104.601 325.194 107.129 323.715C107.555 323.46 107.568 322.866 107.994 322.612C109.167 321.909 111.244 321.788 111.812 320.394C96.6812 318.2 89.5481 304.369 94.1917 291.581C86.6587 292.514 77.9389 298.515 77.1779 305.703C75.9783 317.06 81.3701 337.921 90.8637 345.861C100.925 354.273 118.132 353.849 130.812 351.837C133.547 351.4 143.53 349 145.078 347.388L145.065 347.4Z" fill="#99B655"/>
<path d="M251.78 7.46769C250.503 8.47377 249.11 10.9708 249.11 12.5708C249.11 20.0255 263.724 20.5831 269.361 22.4134C273.631 23.8074 275.785 28.1105 278.662 31.1287C282.015 29.1529 284.814 25.868 289.252 25.565C289.394 24.8013 289.342 24.0861 288.968 23.3831C288.104 21.7467 281.125 15.3951 279.268 13.9405C274.96 10.5708 267.646 6.38892 262.073 5.79497C259.21 5.49193 254.05 5.68584 251.78 7.46769Z" fill="white"/>
<path d="M144.834 356.055C145.84 355.206 146.73 355.231 147.401 353.679C148.768 350.455 145.492 352.843 144.021 353.364C141.57 354.225 138.81 355.025 132.876 355.861C121.641 357.473 112.883 358.722 102.86 355.885C99.7387 355 93.4181 353.146 87.5362 348.2C76.1076 338.576 73.5149 323.17 72.9087 307.375C72.8829 306.709 73.3601 305.315 72.3024 305.448C70.0838 310.672 69.4517 315.036 69.8645 320.685C70.9093 334.952 81.4994 354.649 96.888 359.776C108.665 363.704 135.34 364.067 144.834 356.067V356.055Z" fill="#5A4E3D"/>
<path d="M235.63 356.043C253.353 358.819 266.665 360.007 281.615 359.679C281.615 359.679 287.845 359.546 295.546 356.964C299.97 355.473 302.382 353.994 303.621 351.655C304.446 350.091 304.524 348.564 304.472 347.558C302.627 347.194 302.021 348.722 300.654 349.34C287.394 355.267 275.901 354.891 261.621 354.213C246.452 353.485 230.909 352.54 217.558 345.352C217.429 346.176 217.378 347.388 217.894 348.685C219.751 353.376 227.349 354.758 235.63 356.055V356.043Z" fill="#5A4E3D"/>
<path d="M123.963 308.212C120.726 309.012 117.372 309.763 113.967 309.29C107.814 308.442 102.061 295.508 108.549 292.211C110.239 291.351 112.793 291.193 114.715 290.611C115.282 290.442 116.572 290.684 116.056 289.642C115.476 288.466 109.955 286.599 108.446 286.551C104.628 286.429 101.003 289.751 99.2617 292.599C94.9276 299.69 99.6229 312.381 108.614 314.709C114.366 316.187 122.48 314.139 123.963 308.199V308.212Z" fill="#99B655"/>
<path d="M287.459 56.6079C286.865 52.5351 286.388 49.5653 287.794 45.5532C290.477 37.8682 296.256 35.0803 304.189 32.7893C304.834 32.5954 306.007 32.7408 305.091 31.6863C304.988 31.5651 302.396 30.5226 301.944 30.3893C288.194 26.3286 276.623 36.0621 280.454 48.8865C281.357 51.9169 283.744 56.1109 287.471 56.62L287.459 56.6079Z" fill="white"/>
<path d="M236.404 307.097C230.251 306.588 223.312 312.345 228.239 317.594C233.837 323.557 253.147 323.667 258.603 317.642C261.222 314.757 260.435 312.091 257.339 309.885C256.54 309.727 254.024 313.206 252.773 313.994C247.91 317.036 237.875 316.721 234.082 312.297L236.404 307.109V307.097Z" fill="#99B655"/>
<path d="M275.772 244.865C269.812 206.016 264.317 166.161 259.403 125.312C255.985 96.9117 252.94 68.9356 250.257 41.3958C223.75 46.2564 193.386 50.4019 159.732 52.5595C127.201 54.6444 97.4555 54.5111 71.1802 53.2262C72.7797 81.9418 74.7145 111.13 77.0105 140.743C80.0418 179.798 83.5762 218.017 87.562 255.387C118.997 255.181 152.07 254.199 186.614 252.175C217.687 250.357 247.445 247.859 275.798 244.853L275.772 244.865Z" fill="#FFF6E5" stroke="black" stroke-width="4" stroke-miterlimit="10"/>
<path d="M232.018 62.5354C212.347 66.1718 190.342 69.3112 166.285 71.3113C139.713 73.5174 115.269 73.9416 93.4956 73.3719C94.1664 89.1176 95.1209 105.251 96.4108 121.736C98.7326 151.47 101.957 179.955 105.84 207.119C129.742 206.186 154.16 204.974 179.081 203.434C202.931 201.968 226.278 200.259 249.122 198.343C245.756 176.501 242.608 154.137 239.732 131.276C236.778 107.894 234.224 84.9842 232.031 62.5475L232.018 62.5354Z" fill="white" stroke="black" stroke-width="4" stroke-miterlimit="10"/>
<path d="M177.106 167.325C170.967 166.379 163.704 168.549 159.022 172.198C156.752 173.967 152.792 178.21 157.049 180.101C160.247 181.519 163.988 176.513 167.394 175.398C170.064 174.525 174.217 173.992 176.965 174.67C179.106 175.204 184.64 180.804 185.955 176.792C187.361 172.501 181.312 167.979 177.106 167.337V167.325Z" fill="black"/>
<path d="M131.057 94.0267C128.284 96.3662 132.024 98.0389 134.398 98.742C140.847 100.645 149.515 98.9844 154.752 95.1298C156.3 93.9904 161.202 89.6388 157.074 88.56C154.391 87.8691 154.004 89.9176 152.792 90.7055C151.425 91.6025 145.31 94.0146 143.827 94.0146H131.07L131.057 94.0267Z" fill="black"/>
<path d="M197.152 78.087C192.831 77.5416 183.634 78.0386 184.498 83.5174C185.556 84.9114 190.032 83.0932 191.825 82.9356C196.778 82.4992 204.208 85.2023 207.343 88.7296C208.052 89.5296 208.955 93.0327 210.967 92.0994C213.199 91.069 211.47 88.2084 210.683 86.7781C208.271 82.378 202.454 78.7416 197.139 78.0749L197.152 78.087Z" fill="black"/>
<path d="M143.105 103.93C151.257 102.682 160.79 113.942 162.544 124.209C164.298 134.452 158.545 145.179 154.198 145.397C152.65 145.47 151.283 144.21 147.478 144.173C145.117 144.149 144.266 144.622 143.144 144.622C138.552 144.622 133.469 136.634 132.128 129.506C130.206 119.385 134.721 105.227 143.105 103.942V103.93Z" fill="white" stroke="black" stroke-width="3" stroke-miterlimit="10"/>
<path d="M192.19 101.102C200.716 99.8343 211.01 110.598 211.927 121.111C212.595 128.682 208.679 139.362 200.31 140.833C191.941 142.304 183.572 133.777 181.031 126.326C177.495 115.944 183.506 102.382 192.177 101.102H192.19Z" fill="white" stroke="black" stroke-width="3" stroke-miterlimit="10"/>
<path d="M154.211 110C153.019 110.623 151.01 111.868 149.388 114.029C147.157 117.008 146.991 119.95 147.005 121.183C148.487 122.587 149.97 124.003 151.453 125.407C150.095 126.176 148.737 126.933 147.379 127.702C147.226 128.215 145.813 133.196 149.652 137.005C151.675 139.007 154.197 139.727 155.361 139.984C156.04 140.033 157.093 139.996 158.299 139.52C159.38 139.093 160.183 138.458 160.71 137.982C161.057 134.93 161.417 129.131 159.712 122.392C158.202 116.373 155.735 112.246 154.169 110.012L154.211 110Z" fill="black" stroke="black" stroke-width="3" stroke-miterlimit="10"/>
<path d="M187.761 153.87C189.722 152.355 191.295 149.106 189.76 146.343C187.697 142.621 182.008 143.336 181.415 143.421C179.428 143.7 177.906 144.585 177.971 144.779C178.074 145.094 181.931 143.324 185.272 144.815C185.8 145.046 187.361 145.833 188.225 147.506C188.342 147.737 188.909 148.888 188.767 150.44C188.729 150.864 188.612 151.846 187.967 152.803C186.742 154.597 184.42 155.082 184.459 155.155C184.485 155.215 186.291 155.009 187.774 153.858L187.761 153.87Z" fill="black" stroke="black" stroke-width="3" stroke-miterlimit="10"/>
<path d="M203.211 106C202.019 106.623 200.01 107.868 198.388 110.029C196.157 113.008 195.991 115.95 196.005 117.183C197.487 118.587 198.97 120.003 200.453 121.407C199.095 122.176 197.737 122.933 196.379 123.702C196.226 124.215 194.813 129.196 198.651 133.005C200.675 135.007 203.197 135.727 204.361 135.984C205.04 136.033 206.093 135.996 207.299 135.52C208.38 135.093 209.183 134.458 209.71 133.982C210.057 130.93 210.417 125.131 208.712 118.392C207.202 112.373 204.735 108.246 203.169 106.012L203.211 106Z" fill="black" stroke="black" stroke-width="3" stroke-miterlimit="10"/>
<path d="M136.424 147.809C136.334 147.482 142.254 143.312 149.555 144.112C155.45 144.755 159.836 148.379 159.732 148.658C159.629 148.912 155.721 146.209 149.865 145.579C142.112 144.743 136.527 148.124 136.437 147.809H136.424Z" fill="white" stroke="black" stroke-width="3" stroke-miterlimit="10"/>
<path d="M188.781 144.779C188.703 144.451 193.94 140.282 200.403 141.082C205.614 141.724 209.509 145.348 209.406 145.627C209.316 145.882 205.859 143.179 200.674 142.548C193.811 141.712 188.871 145.094 188.781 144.779Z" fill="white" stroke="black" stroke-width="3" stroke-miterlimit="10"/>
<path d="M204.027 148.33C203.524 147.797 202.621 147.676 201.976 148.112C201.318 148.561 201.176 149.409 201.615 150.003C202.092 150.67 203.163 150.84 203.846 150.318C204.504 149.834 204.582 148.9 204.027 148.318V148.33Z" fill="black"/>
<path d="M199.41 145.991C198.907 145.458 198.004 145.337 197.359 145.773C196.701 146.221 196.559 147.07 196.998 147.664C197.475 148.331 198.546 148.5 199.229 147.979C199.887 147.494 199.964 146.561 199.41 145.979V145.991Z" fill="black"/>
<path d="M197.887 151.119C197.384 150.585 196.481 150.464 195.836 150.9C195.179 151.349 195.037 152.197 195.475 152.791C195.953 153.458 197.023 153.628 197.707 153.106C198.365 152.622 198.442 151.688 197.887 151.106V151.119Z" fill="black"/>
<path d="M151.154 151.119C150.651 150.585 149.748 150.464 149.103 150.9C148.445 151.349 148.303 152.197 148.742 152.791C149.219 153.458 150.29 153.628 150.973 153.106C151.631 152.622 151.709 151.688 151.154 151.106V151.119Z" fill="black"/>
<path d="M145.53 149.725C145.027 149.191 144.124 149.07 143.479 149.507C142.822 149.955 142.68 150.804 143.118 151.397C143.596 152.064 144.666 152.234 145.35 151.713C146.008 151.228 146.085 150.294 145.53 149.713V149.725Z" fill="black"/>
<path d="M147.04 154.403C146.537 153.87 145.634 153.749 144.989 154.185C144.331 154.634 144.189 155.482 144.628 156.076C145.105 156.743 146.175 156.912 146.859 156.391C147.517 155.906 147.594 154.973 147.04 154.391V154.403Z" fill="black"/>
</svg>
