<svg width="73" height="100" viewBox="0 0 73 100" fill="none" xmlns="http://www.w3.org/2000/svg">
<path d="M53.7594 13.3472C54.9785 13.0427 56.2702 13.1082 57.4355 13.6452C57.3871 13.4454 57.3171 13.1147 57.2821 12.7054C57.161 11.2777 57.6239 10.8127 57.5324 9.85002C57.4355 8.84475 56.7816 7.83292 56.028 7.44653C55.4898 7.17147 54.5533 7.04049 54.0716 6.97172C53.9397 6.95208 53.6517 6.91606 53.2965 6.76216C52.9682 6.62136 52.7206 6.43799 52.5591 6.30373C52.2631 6.13346 51.4988 5.62917 51.0521 4.55513C50.9121 4.22113 50.5058 3.24533 50.8045 2.21714C51.1005 1.19876 51.924 0.730508 52.1474 0.589704C55.1103 -1.27677 58.337 1.66701 60.2289 4.136C60.5007 4.49292 61.5853 6.30045 61.7441 6.38886C62.0509 6.56241 62.7156 6.71631 63.0843 6.89968C63.9239 7.3221 65.1995 8.26188 65.9719 8.87749C67.9122 10.4263 69.3924 12.5679 70.0786 15.2562C70.267 15.993 70.5011 18.3932 70.6868 18.7272C70.8348 18.9957 71.5749 19.1627 71.8898 19.703C71.9893 19.8733 72.463 21.0587 72.4953 21.2355C72.7698 22.7909 72.2288 23.9894 71.548 25.2468C73.2972 29.6182 72.8828 34.9721 70.2374 38.7181C68.2701 41.5047 64.8577 42.7851 64.0531 43.0961C62.6187 43.6528 60.7672 44.3699 59.0825 44.4976C58.8188 44.5173 57.9926 44.5664 56.9376 44.9037C56.281 45.1132 55.7589 45.3654 55.4198 45.5455C55.2691 44.6384 55.1346 43.6528 55.0323 42.5951C54.9273 41.5211 54.8708 40.5093 54.8466 39.5728C55.5436 39.5597 56.2406 39.5466 56.9376 39.5335C59.3974 39.3763 61.884 39.1111 64.193 38.0534C64.8658 37.4083 65.7808 37.0088 66.4967 36.2524C68.5742 34.0585 68.2648 30.8134 67.7023 27.8697C66.2302 28.4558 64.08 28.2069 63.1596 26.573C62.9793 26.2521 62.7021 25.1485 62.6348 25.0961C62.4222 24.9193 61.7629 24.9422 61.448 24.7294C60.7322 24.2448 59.7338 23.2526 59.1417 22.4831C58.6116 21.7954 58.4393 21.4254 58.1083 21.0489C57.9791 20.9015 57.6373 20.5708 57.1422 20.2335C56.7681 19.9781 55.6809 19.261 54.2169 19.2872C53.8993 19.2937 53.641 19.333 53.4795 19.3625C53.4337 19.3035 53.3907 19.2413 53.3449 19.1824C53.2265 19.0252 53.0624 18.7927 52.8767 18.5046C52.2658 17.5615 51.9536 17.09 51.8917 16.5497C51.8217 15.9144 51.9536 15.2399 52.3061 14.5555C52.4488 14.2804 52.7986 14.1462 52.7556 13.7238M63.6494 8.55986C63.6279 8.52712 63.087 8.24551 62.9928 8.20949C60.124 7.11253 57.71 9.74196 58.5093 13.2064C58.6977 14.025 59.1955 15.158 59.9733 15.2955C59.8495 14.1953 59.7499 13.393 60.0432 12.3092C60.603 10.2331 61.8087 9.48001 63.4637 8.86112C63.5983 8.80873 63.8432 8.84802 63.6521 8.56314L63.6494 8.55986ZM54.2384 14.585C53.1835 14.9484 52.4703 16.2615 53.3799 17.3159C53.9935 18.0297 56.3106 18.3114 57.309 18.8156C60.1967 20.2695 60.0702 24.1007 64.3653 23.6881C65.0865 23.6193 65.03 24.2841 64.6317 24.6836C64.3545 24.9619 63.8916 24.6934 63.9024 25.1027C63.9239 26.0065 64.9519 26.7039 65.6274 26.812C67.4951 27.1132 69.9171 25.846 70.9371 23.9697C71.8306 22.3259 71.7095 21.5171 70.6599 20.1287C70.5872 20.0305 70.6734 19.8405 70.3746 19.9355C70.5523 20.9539 69.1152 23.5506 68.219 23.007C67.5381 22.5944 68.55 21.8085 68.7815 21.4221C69.9871 19.405 69.2282 15.5477 68.2405 13.5469C67.4655 11.9752 65.7916 9.70267 64.1096 9.92206C61.6095 10.2462 60.0567 13.4389 61.3888 16.0978C62.4491 18.2164 65.065 17.6335 64.263 15.0991C64.158 14.7651 63.5902 14.729 63.6548 14.2477C63.9939 14.2575 64.341 14.1888 64.6747 14.3132C64.8443 14.3754 65.8938 15.0925 65.9154 15.2399C66.0069 15.8195 65.5144 15.695 65.4417 15.7507C65.396 15.7867 65.439 16.7036 65.3448 17.0638C65.1188 17.9217 64.2603 18.6093 63.5283 18.737C63.9993 20.1025 64.4029 20.9375 65.3018 21.9624C65.4821 22.1687 65.7189 22.0967 65.6866 22.4012C65.622 23.0103 65.1269 22.7188 64.8093 22.5355C64.2765 22.2277 63.7705 21.4156 63.4826 20.8098C63.2753 20.3743 62.8851 18.9302 62.7398 18.7698C62.5595 18.57 61.6795 18.3212 61.257 17.8988C60.9986 17.6368 60.7403 17.0474 60.525 16.9655C60.0863 16.7985 59.4216 16.864 58.9668 16.4875C58.5335 18.7272 58.0383 15.957 57.5755 15.361C56.8865 14.4769 55.183 14.2608 54.2465 14.5817L54.2384 14.585ZM56.1976 6.05486C57.0884 6.43143 57.5378 7.59389 58.1379 8.40924C58.8376 7.87549 59.4216 6.9881 60.3474 6.90624C60.377 6.69994 60.3662 6.50674 60.2881 6.31682C60.1078 5.87476 58.6519 4.15893 58.2644 3.76598C57.3655 2.85567 55.8397 1.72596 54.6771 1.56551C54.0796 1.48365 53.0032 1.53603 52.5295 2.01739C52.2631 2.28917 51.9724 2.96373 51.9724 3.39596C51.9724 5.40979 55.0215 5.56041 56.1976 6.05486Z" fill="black"/>
<path d="M9.97686 94.6697C11.5566 94.0115 13.2655 93.946 14.8936 93.5858C15.0443 93.553 15.1197 93.517 15.2085 93.3631C14.5169 92.1253 14.1213 90.7239 13.8548 89.2732C13.4538 87.076 13.1471 83.055 14.6191 81.3588C14.8236 81.1263 15.1816 80.9593 15.3915 80.6973C16.3199 79.5217 16.8824 78.3135 18.2576 77.6422C19.0299 77.2656 19.6597 77.377 20.3432 77.1084C20.7792 76.9382 21.1694 76.4568 21.5516 76.2898C22.8837 75.7102 24.4822 76.3913 25.3569 77.6487L25.4914 77.6553C26.8478 76.9152 27.9915 75.9624 28.371 74.1581C28.7397 72.4062 28.2822 70.9982 28.1342 69.2791C28.1099 69.1546 28.0427 69.0924 27.9431 69.0531C27.8301 69.0106 27.7036 68.9877 27.569 68.9844C27.5502 68.7061 27.5206 68.4375 27.4775 68.1821C32.3458 67.4617 37.2464 67.1343 42.1551 67.1244C42.2762 67.1244 42.3893 67.1081 42.4942 67.0786C44.8651 66.8723 47.2199 66.7741 49.5612 66.2272C49.9649 66.1323 50.3497 66.1257 50.7211 66.1748C50.6969 66.1748 50.6727 66.1814 50.6484 66.1847C50.4547 66.2076 50.3363 66.1945 50.2125 66.4172C51.4719 67.7695 52.5269 69.3282 53.3558 71.0866C55.0377 74.6558 55.5275 78.6344 54.0232 82.4393C54.6421 83.0157 55.1373 83.7524 55.471 84.6038C57.5997 83.1172 60.412 83.3071 62.3227 85.203C63.6764 86.5456 64.5402 89.0408 64.4164 91.1266C64.3922 91.5327 64.1527 92.3513 64.1904 92.5969C64.2227 92.8097 64.5725 93.1797 64.6371 93.5498C64.8928 94.9807 64.115 96.3789 63.1005 97.06C61.0956 98.4124 57.7585 98.5794 55.4656 98.5368C53.493 98.5008 51.5042 98.7792 49.5101 98.9789C40.7477 99.8565 31.6677 99.863 22.881 99.2769C19.1564 99.028 14.7402 98.7792 11.1233 97.7379C9.43594 97.2532 6.93854 95.9336 9.97417 94.6697H9.97686ZM19.6489 78.7686C18.0773 79.0207 16.258 80.6416 16.0993 82.5834C15.849 85.6516 16.9739 91.2871 18.9546 93.4319C21.0537 95.7044 24.6437 95.5898 27.2891 95.0462C27.8597 94.9283 29.9426 94.28 30.2656 93.8445C30.9034 92.9898 30.6289 90.8057 30.244 89.8365C30.0422 89.3322 29.8027 88.9393 29.5255 88.6282C28.8527 87.8718 28.118 87.636 27.4748 87.4428C27.09 87.3282 26.3149 87.1023 25.3273 87.2594C24.4257 87.4002 23.7395 87.7964 23.4569 87.9733C22.6684 88.471 21.6942 89.306 21.086 89.3715C20.7496 89.4075 20.5962 89.0309 20.8519 88.6413C21.2071 88.1042 21.6404 87.9471 22.3508 87.4461C22.5904 87.2758 22.9429 86.9942 23.3277 86.5488C20.171 85.9562 18.6828 82.22 19.6516 78.7653L19.6489 78.7686ZM23.7772 83.5527C22.4935 83.3235 21.2932 79.8296 22.6469 78.9389C22.9994 78.7064 23.5323 78.6638 23.9332 78.5066C24.0517 78.4608 24.3208 78.5263 24.2131 78.2447C24.092 77.9271 22.9402 77.4228 22.6253 77.4097C21.8288 77.3769 21.0725 78.2742 20.7092 79.0437C19.805 80.9593 20.7846 84.3877 22.6603 85.0164C23.8606 85.4159 25.5533 84.8625 25.8628 83.258C25.1873 83.4741 24.4876 83.6771 23.7772 83.5494V83.5527ZM53.6895 83.7131C53.5226 83.6706 52.9978 84.6103 52.7368 84.8232C51.7222 85.6451 49.6285 85.5599 48.8373 84.3648L49.3217 82.9633C48.038 82.8257 46.5902 84.3811 47.6182 85.799C48.7862 87.41 52.8148 87.4395 53.9532 85.8121C54.4995 85.0327 54.3353 84.3124 53.6895 83.7164V83.7131ZM62.9525 88.6511C61.7791 85.1114 58.765 84.1486 55.9285 85.7466C55.1239 86.1985 54.8009 86.7224 54.2196 87.397C53.5065 88.2254 53.2104 88.6609 52.6426 89.6498C52.5592 89.7939 52.5134 90.046 52.3035 89.9969C51.7303 89.8561 52.5592 88.1304 52.4919 88.0519C51.036 88.5398 49.3782 88.4677 47.968 87.7801C47.3033 87.4559 47.2657 87.1153 46.7247 86.706C46.1542 87.7048 45.5299 88.9818 45.5083 90.2229C45.5029 90.4881 45.7236 92.0631 45.8044 92.2072C45.834 92.2596 46.3695 92.6067 46.4852 92.6755C49.8303 94.6434 57.7881 95.3311 61.2786 93.8576C63.3211 92.9964 63.7194 90.9629 62.9525 88.6544V88.6511ZM31.9018 92.3709C35.0235 92.4724 38.1534 92.3087 41.2751 92.384C41.5496 92.3906 41.7891 92.5314 42.0286 92.5412C42.949 92.574 43.7429 92.5314 44.6283 92.2399C44.1466 90.5405 44.4184 88.6151 45.1127 87.0499C45.3146 86.5914 46.0573 85.6876 46.1246 85.4028C46.2592 84.8559 46.0654 84.427 46.3507 83.7262C47.0423 82.0398 48.4148 81.4603 49.938 81.4472C50.1802 80.5336 50.5166 79.5054 50.5866 78.5459C50.9095 74.0468 47.8012 69.3413 44.8113 66.9378L32.2005 68.4408C33.425 74.0959 32.0902 80.5074 27.0281 82.5441C26.8505 84.0111 26.2907 85.0295 25.3515 85.9529C26.6567 85.7499 27.6767 85.6746 28.9038 86.3262C30.166 87.0007 31.4577 89.2372 31.6596 90.8581C31.7134 91.2936 31.5708 92.2465 31.8991 92.3709H31.9018ZM20.2141 97.1877C22.6711 98.2487 28.2364 98.3469 30.2171 96.1857C30.427 95.9565 30.6127 95.9631 30.7527 95.5439C31.0379 94.6729 30.3544 95.318 30.0476 95.4588C29.1541 95.8648 28.5863 95.9107 27.7224 96.1333C27.6255 96.1595 27.6605 96.3855 27.5475 96.4248C26.4899 96.7915 22.62 96.8996 21.6458 96.4215C21.5381 96.3691 21.565 96.1759 21.4601 96.1399C16.3011 94.3291 15.3807 88.7755 15.2112 83.032C15.2058 82.8519 15.3054 82.4754 15.0847 82.5114C14.6218 83.9227 14.4899 85.1015 14.5761 86.6274C14.7941 90.4815 17.0035 95.8026 20.2141 97.1877Z" fill="black"/>
<path d="M0.436673 63.7975C0.536246 63.4046 0.86726 62.7956 0.883407 62.5172C0.904937 62.1341 0.563157 61.6364 0.512025 61.1681C0.380158 59.9991 0.506642 58.912 1.02873 57.91C1.54005 56.9309 2.29896 56.6133 3.0175 55.9191C2.76453 47.5723 8.33794 40.5027 15.2731 39.6971C15.4238 39.6808 15.5799 39.6873 15.7333 39.6971C15.9889 39.8314 16.2473 39.9689 16.5029 40.1032C16.5756 41.1772 16.6106 42.3102 16.5971 43.4923C16.5944 43.7772 16.5891 44.0555 16.581 44.3338C16.5487 44.3338 16.5137 44.3404 16.4814 44.3437C15.5906 44.3666 13.6934 44.5598 11.7046 45.9613C11.0264 46.4394 9.74542 47.5101 8.64204 49.3799C7.62747 51.0957 7.11615 53.342 6.9789 55.4082C7.63554 55.5589 8.13341 55.8143 8.45904 56.0107C9.04302 56.3677 9.95263 56.9145 10.2971 58.0017C10.4021 58.3357 10.4317 59.0953 10.5528 59.2722C10.7089 59.4981 12.224 59.9205 12.59 60.1989C12.8483 60.3986 13.5911 61.1157 13.879 61.4072C15.7521 63.2998 16.6859 67.0459 15.012 69.4756C14.9044 69.6327 14.6568 69.6786 14.5976 69.8849C14.3984 70.5692 14.7456 71.4304 14.3473 72.4357C13.7579 73.9223 12.5146 74.8818 11.1045 74.7148C10.8622 74.6853 10.5124 74.4692 10.3294 74.4921C9.87459 74.5478 9.02149 75.4188 7.90197 75.4253C7.21572 75.4253 6.59944 74.9735 6.1258 74.9112C5.94549 74.885 5.73558 75.1339 5.50683 75.1765C3.85176 75.4777 2.58153 74.7148 1.59119 73.2249C-0.149999 70.6052 -0.343763 66.9345 0.439367 63.8041L0.436673 63.7975ZM3.1709 73.1463C3.59879 73.5032 3.94057 73.4999 4.33617 73.6899C4.45728 73.7455 4.5407 74.204 5.06279 73.978C4.88248 73.0841 4.13972 72.2196 4.74523 71.2864C5.25655 71.9183 5.47992 72.5634 6.08812 73.143C6.62097 73.6505 7.22648 74.1155 7.91273 74.1352C8.6824 74.1581 8.84926 74.0631 9.37403 73.4541C8.96767 72.8385 8.5021 72.0035 8.48057 71.2012C8.4698 70.7199 8.66895 69.9733 9.05379 70.5365C9.24217 70.8116 9.43055 71.735 9.69697 72.1705C10.3994 73.3133 11.8661 73.6571 12.7999 72.7075C13.9383 71.5516 13.688 69.6851 12.8591 68.4375L12.668 69.934C12.4231 69.9569 12.2966 69.9864 12.189 69.6786C11.9441 68.9746 11.6911 66.0308 12.2859 65.664C12.8752 65.3038 12.8295 66.5121 13.069 66.9935C13.1282 67.1146 14.0567 68.395 14.1293 68.4375C14.3096 68.5456 14.4792 68.0184 14.5357 67.8743C15.7413 64.7799 13.1632 61.8852 10.8919 60.88C9.93649 60.4576 9.06186 60.2578 8.07689 60.0122C7.82661 59.95 6.88471 59.7699 6.96275 59.3835C7.04348 59.2853 7.34221 59.0069 7.40679 59.0069H9.37134C8.87886 56.8523 6.74476 56.6002 5.13814 56.777C3.45616 56.9636 1.63693 58.1032 1.54005 60.32C1.53198 60.4805 1.56427 61.3744 1.82532 61.25C2.51156 60.9291 3.08209 59.7372 4.04553 60.0548L4.02669 60.7817C0.353246 62.4714 0.221379 70.6937 3.16551 73.1463H3.1709Z" fill="black"/>
<path d="M9.37935 59.007C8.88687 56.8524 6.75277 56.6002 5.14614 56.777C3.46416 56.9637 1.64494 58.1032 1.54806 60.3201C1.53998 60.4805 1.57228 61.3744 1.83332 61.25C2.51957 60.9291 3.09009 59.7372 4.05353 60.0548L4.03469 60.7818C0.361254 62.4714 0.229384 70.6937 3.17352 73.1463C3.60141 73.5032 3.94319 73.5 4.33879 73.6899C4.4599 73.7456 4.54332 74.204 5.06541 73.9781C4.8851 73.0841 4.14234 72.2196 4.74785 71.2864C5.25917 71.9184 5.48254 72.5635 6.09074 73.143C6.6236 73.6506 7.22911 74.1156 7.91535 74.1352C8.68503 74.1581 8.85188 74.0632 9.37665 73.4541C8.97029 72.8385 8.50472 72.0035 8.48319 71.2013C8.47243 70.7199 8.67157 69.9733 9.05641 70.5365C9.24479 70.8116 9.43317 71.735 9.69959 72.1705C10.402 73.3133 11.8687 73.6572 12.8025 72.7075C13.9409 71.5516 13.6906 69.6852 12.8617 68.4376L12.6706 69.934C12.4257 69.9569 12.2993 69.9864 12.1916 69.6786C11.9467 68.9746 11.6938 66.0308 12.2885 65.6641C12.8832 65.2973 12.8321 66.5122 13.0716 66.9935C13.1308 67.1147 14.0593 68.395 14.1319 68.4376C14.3123 68.5456 14.4818 68.0184 14.5383 67.8744C15.744 64.7799 13.1658 61.8853 10.8945 60.88C9.93911 60.4576 9.06448 60.2578 8.07952 60.0123C7.82924 59.95 6.88733 59.7699 6.96537 59.3836C7.04611 59.2853 7.34483 59.007 7.40941 59.007H9.37397H9.37935Z" fill="white"/>
<path d="M63.6522 14.2477C63.9913 14.2576 64.3385 14.1888 64.6722 14.3132C64.8417 14.3755 65.8913 15.0926 65.9128 15.2399C66.0043 15.8195 65.5118 15.6951 65.4392 15.7507C65.3934 15.7868 65.4365 16.7036 65.3423 17.0638C65.1162 17.9217 64.2577 18.6094 63.5258 18.7371C63.9967 20.1026 64.4004 20.9376 65.2992 21.9625C65.4795 22.1688 65.7164 22.0967 65.6841 22.4013C65.6195 23.0103 65.1243 22.7189 64.8067 22.5355C64.2739 22.2277 63.768 21.4157 63.48 20.8099C63.2728 20.3744 62.8826 18.9303 62.7372 18.7698C62.5569 18.5701 61.6769 18.3212 61.2544 17.8988C60.9961 17.6369 60.7377 17.0475 60.5224 16.9656C60.0838 16.7986 59.419 16.8641 58.9642 16.4875C58.531 18.7273 58.0358 15.957 57.5729 15.3611C56.884 14.477 55.1805 14.2608 54.2439 14.5818C53.189 14.9452 52.4758 16.2583 53.3854 17.3127C53.999 18.0265 56.3161 18.3081 57.3145 18.8124C60.2022 20.2663 60.0757 24.0975 64.3708 23.6849C65.092 23.6161 65.0355 24.2809 64.6372 24.6803C64.36 24.9587 63.8971 24.6902 63.9079 25.0995C63.9294 26.0032 64.9575 26.7007 65.6329 26.8088C67.5006 27.11 69.9227 25.8428 70.9426 23.9665C71.8361 22.3227 71.715 21.5139 70.6654 20.1255C70.5928 20.0273 70.6789 19.8373 70.3801 19.9323C70.5578 20.9507 69.1207 23.5474 68.2245 23.0038C67.5437 22.5912 68.5555 21.8053 68.787 21.4189C69.9926 19.4018 69.2337 15.5445 68.2461 13.5437C67.471 11.972 65.7971 9.69945 64.1151 9.91884C61.615 10.243 60.0622 13.4357 61.3944 16.0946C62.4547 18.2132 65.0705 17.6303 64.2685 15.0958C64.1636 14.7618 63.5957 14.7258 63.6603 14.2445L63.6522 14.2477Z" fill="white"/>
<path d="M54.2196 87.397C53.5064 88.2254 53.2104 88.661 52.6425 89.6499C52.5591 89.7939 52.5134 90.0461 52.3035 89.997C51.7302 89.8561 52.5591 88.1305 52.4918 88.0519C51.0359 88.5398 49.3782 88.4678 47.968 87.7801C47.3033 87.4559 47.2656 87.1154 46.7247 86.7061C46.1542 87.7048 45.5298 88.9819 45.5083 90.2229C45.5029 90.4881 45.7236 92.0632 45.8043 92.2072C45.8339 92.2596 46.3694 92.6067 46.4852 92.6755C49.8303 94.6435 57.7881 95.3311 61.2785 93.8576C63.3211 92.9964 63.7194 90.9629 62.9524 88.6544C61.7791 85.1146 58.765 84.1519 55.9285 85.7499C55.1238 86.2018 54.8009 86.7257 54.2196 87.4003V87.397Z" fill="white"/>
<path d="M30.2654 93.8477C30.9032 92.993 30.6287 90.809 30.2439 89.8397C30.0421 89.3354 29.8025 88.9425 29.5254 88.6314C28.8014 87.816 27.9833 87.577 27.4747 87.446C26.9418 87.3085 25.058 86.8239 23.4568 87.9765C23.0504 88.2679 21.6698 89.3125 21.0859 89.3747C20.7495 89.4107 20.5961 89.0342 20.8517 88.6445C21.2904 87.983 21.8232 87.8488 22.3507 87.4493C22.4395 87.3805 22.4422 87.2201 22.531 87.1513C22.7759 86.9614 23.2092 86.9286 23.3276 86.5521C20.1709 85.9594 18.6827 82.2232 19.6515 78.7686C18.0798 79.0207 16.2606 80.6416 16.1018 82.5834C15.8515 85.6516 16.9765 91.287 18.9572 93.4318C21.0563 95.7043 24.6463 95.5897 27.2917 95.0462C27.8622 94.9283 29.9452 94.2799 30.2681 93.8444L30.2654 93.8477Z" fill="white"/>
<path d="M52.5296 2.01734C52.2632 2.28913 51.9725 2.96368 51.9725 3.39592C51.9725 5.40974 55.0216 5.56037 56.1977 6.05482C57.0884 6.43139 57.5379 7.59384 58.138 8.40919C58.8377 7.87545 59.4217 6.98806 60.3474 6.9062C60.377 6.6999 60.3663 6.5067 60.2882 6.31678C60.1079 5.87472 58.652 4.15888 58.2645 3.76594C57.3656 2.85563 55.8397 1.72592 54.6772 1.56547C54.0797 1.48361 53.0033 1.53599 52.5296 2.01734Z" fill="white"/>
<path d="M30.2171 96.1858C30.4271 95.9565 30.6128 95.9631 30.7527 95.544C31.038 94.673 30.3544 95.318 30.0476 95.4588C29.5363 95.6913 28.9604 95.9074 27.7224 96.1334C25.3784 96.5689 23.5511 96.9062 21.4601 96.1399C20.8088 95.9009 19.4902 95.3999 18.263 94.0639C15.8786 91.4639 15.3377 87.302 15.2112 83.0353C15.2058 82.8552 15.3054 82.4787 15.0847 82.5147C14.6218 83.926 14.49 85.1048 14.5761 86.6307C14.7941 90.4848 17.0035 95.8059 20.2141 97.191C22.6711 98.252 28.2365 98.3502 30.2171 96.189V96.1858Z" fill="white"/>
<path d="M49.1602 96.1804C52.8579 96.9297 55.6352 97.2504 58.7542 97.162C58.7542 97.162 60.0541 97.126 61.6607 96.4291C62.5838 96.0266 63.087 95.6274 63.3454 94.9959C63.5176 94.5738 63.5337 94.1615 63.523 93.8899C63.1381 93.7917 63.0116 94.204 62.7264 94.3709C59.9599 95.971 57.562 95.8695 54.5829 95.6863C51.4181 95.49 48.1753 95.2347 45.3899 93.2944C45.363 93.5169 45.3522 93.8441 45.4599 94.1942C45.8474 95.4605 47.4325 95.8335 49.1602 96.1836V96.1804Z" fill="white"/>
<path d="M25.8629 83.2612C25.1874 83.4773 24.4877 83.6803 23.7772 83.5526C22.4936 83.3234 21.2933 79.8295 22.6469 78.9388C22.9995 78.7064 23.5323 78.6638 23.9333 78.5066C24.0517 78.4608 24.3209 78.5263 24.2132 78.2447C24.0921 77.927 22.9403 77.4228 22.6254 77.4097C21.8288 77.3769 21.0726 78.2741 20.7093 79.0436C19.8051 80.9592 20.7847 84.3876 22.6604 85.0163C23.8607 85.4158 25.5534 84.8624 25.8629 83.2579V83.2612Z" fill="white"/>
<path d="M59.9734 15.2922C59.8496 14.192 59.75 13.3897 60.0433 12.3058C60.6031 10.2298 61.8087 9.47667 63.4638 8.85778C63.5984 8.80539 63.8433 8.84468 63.6522 8.5598C63.6307 8.52706 63.0897 8.24545 62.9955 8.20943C60.1268 7.11246 57.7128 9.7419 58.5121 13.2063C58.7005 14.025 59.1983 15.1579 59.9761 15.2955L59.9734 15.2922Z" fill="white"/>
<path d="M49.3218 82.96C48.0381 82.8226 46.5903 84.3769 47.6183 85.7937C48.7862 87.4036 52.8149 87.433 53.9533 85.8068C54.4996 85.028 54.3354 84.3081 53.6895 83.7126C53.5227 83.6701 52.9979 84.6092 52.7369 84.8219C51.7223 85.6432 49.6286 85.5581 48.8374 84.3638L49.3218 82.9633V82.96Z" fill="white"/>
<path d="M57.5352 66.1487C56.2918 55.6539 55.1454 44.8873 54.1201 33.8522C53.4069 26.18 52.7718 18.6224 52.212 11.1827C46.6817 12.4958 40.3467 13.6157 33.3254 14.1986C26.5383 14.7618 20.3325 14.7258 14.8506 14.3787C15.1843 22.136 15.588 30.021 16.067 38.0206C16.6994 48.5711 17.4368 58.8956 18.2684 68.991C24.8267 68.9353 31.7269 68.6701 38.9338 68.1232C45.4168 67.632 51.6254 66.9575 57.5405 66.1454L57.5352 66.1487Z" fill="white" stroke="black" stroke-width="0.791328" stroke-miterlimit="10"/>
<path d="M48.4066 16.8935C44.3026 17.8758 39.7115 18.7239 34.6925 19.2642C29.1487 19.8602 24.0489 19.9748 19.5062 19.8209C19.6462 24.0745 19.8453 28.4328 20.1144 32.8862C20.5988 40.9186 21.2716 48.6136 22.0817 55.9518C27.0684 55.6997 32.1628 55.3722 37.3621 54.9564C42.3381 54.5602 47.2091 54.0985 51.9751 53.5811C51.2727 47.6804 50.6161 41.6389 50.016 35.4632C49.3997 29.1467 48.8668 22.9579 48.4093 16.8967L48.4066 16.8935Z" fill="white" stroke="black" stroke-width="0.791328" stroke-miterlimit="10"/>
<path d="M36.9504 45.2016C35.6694 44.9464 34.1543 45.5321 33.1774 46.517C32.7037 46.9947 31.8775 48.14 32.7656 48.6504C33.433 49.0332 34.2135 47.6819 34.9239 47.3808C35.481 47.1452 36.3476 47.0013 36.9208 47.1845C37.3675 47.3285 38.522 48.8402 38.7965 47.7571C39.0899 46.5988 37.8277 45.3783 36.9504 45.2049V45.2016Z" fill="black"/>
<path d="M27.3428 25.3995C26.7642 26.031 27.5446 26.4826 28.0398 26.6724C29.3854 27.1861 31.1938 26.7378 32.2864 25.6973C32.6094 25.3897 33.632 24.215 32.7708 23.9238C32.2111 23.7373 32.1303 24.2903 31.8774 24.5029C31.5921 24.7451 30.3165 25.3962 30.007 25.3962H27.3455L27.3428 25.3995Z" fill="black"/>
<path d="M41.1325 21.0946C40.231 20.9474 38.3122 21.0815 38.4925 22.5605C38.7131 22.9368 39.647 22.446 40.021 22.4034C41.0545 22.2856 42.6046 23.0153 43.2585 23.9675C43.4065 24.1835 43.5949 25.1291 44.0147 24.8772C44.4803 24.599 44.1197 23.8268 43.9555 23.4407C43.4523 22.2529 42.2386 21.2713 41.1298 21.0913L41.1325 21.0946Z" fill="black"/>
<path d="M29.8565 28.0759C31.5573 27.7387 33.546 30.7807 33.912 33.5542C34.278 36.3212 33.0778 39.2191 32.1709 39.278C31.8479 39.2977 31.5627 38.9571 30.7688 38.9473C30.2763 38.9408 30.0987 39.0685 29.8645 39.0685C28.9065 39.0685 27.8462 36.9106 27.5663 34.9852C27.1653 32.2509 28.1072 28.4263 29.8565 28.0792V28.0759Z" fill="white" stroke="black" stroke-width="0.593496" stroke-miterlimit="10"/>
<path d="M40.1448 27.2868C41.8967 26.9397 44.012 29.8867 44.2003 32.765C44.3376 34.8378 43.5329 37.7619 41.8133 38.1647C40.0936 38.5675 38.374 36.2327 37.8519 34.1927C37.1253 31.3504 38.3605 27.6372 40.1421 27.2868H40.1448Z" fill="white" stroke="black" stroke-width="0.593496" stroke-miterlimit="10"/>
<path d="M31.9987 29.6771C31.7673 29.8441 31.377 30.1781 31.0622 30.7577C30.6289 31.5567 30.5966 32.3459 30.5993 32.6766C30.8872 33.0532 31.1752 33.433 31.4632 33.8096C31.1994 34.0159 30.9357 34.2189 30.672 34.4252C30.6424 34.5627 30.3679 35.8987 31.1133 36.9204C31.5062 37.4574 31.996 37.6506 32.2221 37.7193C32.3539 37.7324 32.5585 37.7226 32.7926 37.5949C33.0025 37.4803 33.1586 37.31 33.2609 37.1823C33.3281 36.3637 33.3981 34.8083 33.0671 33.0008C32.7738 31.3864 32.2947 30.2797 31.9906 29.6804L31.9987 29.6771Z" fill="black" stroke="black" stroke-width="0.593496" stroke-miterlimit="10"/>
<path d="M39.1733 41.5647C39.5823 41.1557 39.9106 40.2788 39.5904 39.5328C39.1598 38.5282 37.973 38.7213 37.8492 38.7442C37.4348 38.8194 37.1172 39.0583 37.1307 39.1107C37.1522 39.1957 37.9568 38.718 38.6539 39.1205C38.7642 39.1826 39.0898 39.3953 39.2701 39.8469C39.2944 39.909 39.4128 40.2199 39.3832 40.6387C39.3751 40.7533 39.3509 41.0183 39.2163 41.2768C38.9607 41.7611 38.4762 41.892 38.4843 41.9116C38.4897 41.928 38.8665 41.8723 39.1759 41.5615L39.1733 41.5647Z" fill="black" stroke="black" stroke-width="0.593496" stroke-miterlimit="10"/>
<path d="M42.3623 28.6882C42.1309 28.8552 41.7407 29.1892 41.4258 29.7688C40.9925 30.5678 40.9602 31.3569 40.9629 31.6876C41.2509 32.0642 41.5389 32.444 41.8268 32.8206C41.5631 33.0269 41.2993 33.2299 41.0356 33.4362C41.006 33.5738 40.7315 34.9098 41.477 35.9314C41.8699 36.4684 42.3597 36.6616 42.5857 36.7304C42.7176 36.7435 42.9221 36.7337 43.1562 36.606C43.3661 36.4913 43.5222 36.3211 43.6245 36.1934C43.6918 35.3747 43.7618 33.8193 43.4307 32.0118C43.1374 30.3975 42.6584 29.2907 42.3543 28.6915L42.3623 28.6882Z" fill="black" stroke="black" stroke-width="0.593496" stroke-miterlimit="10"/>
<path d="M28.4625 39.9289C28.4437 39.8406 29.6789 38.715 31.2021 38.9309C32.432 39.1043 33.347 40.0827 33.3254 40.158C33.3039 40.2267 32.4885 39.497 31.2667 39.3268C29.6493 39.1011 28.484 40.014 28.4652 39.9289H28.4625Z" fill="white" stroke="black" stroke-width="0.593496" stroke-miterlimit="10"/>
<path d="M39.386 39.1102C39.3699 39.0219 40.4625 37.8963 41.8108 38.1122C42.898 38.2857 43.7107 39.264 43.6892 39.3393C43.6704 39.408 42.9491 38.6783 41.8673 38.5082C40.4356 38.2824 39.4049 39.1953 39.386 39.1102Z" fill="white" stroke="black" stroke-width="0.593496" stroke-miterlimit="10"/>
<path d="M42.5668 40.07C42.4619 39.9264 42.2735 39.8938 42.1389 40.0112C42.0017 40.1319 41.9721 40.3603 42.0636 40.5202C42.1632 40.6996 42.3865 40.7453 42.5292 40.605C42.6664 40.4745 42.6826 40.2233 42.5668 40.0667V40.07Z" fill="black"/>
<path d="M41.6035 39.438C41.4985 39.2944 41.3101 39.2618 41.1756 39.3793C41.0383 39.5 41.0087 39.7284 41.1002 39.8882C41.1998 40.0677 41.4231 40.1134 41.5658 39.9731C41.703 39.8426 41.7192 39.5913 41.6035 39.4347V39.438Z" fill="black"/>
<path d="M41.2858 40.8231C41.1809 40.6795 40.9925 40.6469 40.8579 40.7643C40.7207 40.885 40.6911 41.1134 40.7826 41.2733C40.8822 41.4527 41.1055 41.4984 41.2481 41.3581C41.3854 41.2276 41.4015 40.9764 41.2858 40.8198V40.8231Z" fill="black"/>
<path d="M31.5357 40.8231C31.4307 40.6795 31.2424 40.6469 31.1078 40.7643C30.9706 40.885 30.941 41.1134 31.0325 41.2733C31.132 41.4527 31.3554 41.4984 31.498 41.3581C31.6353 41.2276 31.6514 40.9764 31.5357 40.8198V40.8231Z" fill="black"/>
<path d="M30.3626 40.4466C30.2577 40.303 30.0693 40.2704 29.9347 40.3879C29.7975 40.5086 29.7679 40.737 29.8594 40.8968C29.9589 41.0763 30.1823 41.1219 30.3249 40.9816C30.4622 40.8511 30.4783 40.5999 30.3626 40.4433V40.4466Z" fill="black"/>
<path d="M30.6773 41.7105C30.5724 41.5669 30.384 41.5343 30.2494 41.6518C30.1122 41.7725 30.0826 42.0009 30.1741 42.1607C30.2736 42.3402 30.497 42.3859 30.6396 42.2456C30.7769 42.1151 30.793 41.8638 30.6773 41.7072V41.7105Z" fill="black"/>
</svg>
