<?xml version="1.0" encoding="UTF-8"?>
<svg id="Pixellag_Image" data-name="Pixellag Image" xmlns="http://www.w3.org/2000/svg" viewBox="0 0 1372.65 800.77">
  <defs>
    <style>
      .cls-1 {
        fill: #fefefe;
      }
    </style>
  </defs>
  <path class="cls-1" d="M519.14,383.01c9.4,3.1,23.4,2.8,34.7,5.2,25.8,5.6,60.4,21.7,78.7,40.5,1.1,1.1,1.1,3.2,2.4,4.4s2.2,0,2.3,0c7.1,9,15.7,26.4,17,38.4s-2.4,39.4-7.5,51.1c-.8,2-2.5,4-3.7,5.9l1.9.5-1.6,1.1c.8,2.9-1.6,3.7-2.5,5.6-15.1,29.3-29.8,52.4-50.7,78.2-3.6,4.4-12.7,16.6-16.4,19.6s-2,1.1-3.3,1l.9,2.8c-6,1.4-8,7.5-11.7,11.5-28.4,31.3-58.6,57.5-85.4,89.1-12.5,14.7-17.2,24.9-33.9,35.9-5.5,3.6-10.8,12.5-17.1,16-3.6,2-5.9,1.9-9,3.3s-4.7,5.2-5.4,5.5c-.9.6-2.4-.2-3.3.5s-.2,1.5-.3,1.6c-.6.4-1.6-1.6-2.5-1.8s-2,1.4-2.6,1.5-4.5-4.3-8-1.6c-.3-1.9,1.6-2.4,1.9-4.3.4-3.5-2.4-17,3.8-13.7.4-3,2-6.7,3.5-9.2s5-5.2,5.8-8.3-.8-7.7-.8-10.6c0-12,1.1-24.1,1.4-36.1.7-26.2,1-52.7,2.3-78.9.7-13.3-1.1-27.4,2.6-41.1,3.8-13.7-2.3-24.2-1.6-29.2s1.9-.5,2-1.2c.4-2.4-1.4-13.1-.8-15.1,1.4-4.4.5-11.8.8-18.1s1-8.9,1.9-13.2c-3.7-1.3-2.5-3.4.8-1.5.5-3.1-2.3-.7-2-4.3s3.5-4.8,2.5-7.1l-2.4,1.9c1.1-1.7-.2-7.1.2-8s5.6-4.3,2.2-4.2-2.4-1-2.4-4h2.8c-3.6-4.4-2.8-9.4-2.9-14.7l2.9-1-2.8-1.9,2.8-1.9-2.8-1.4v-1.9c5.1-3.2,7.4-11,9.4-17.1l6.5,1c.4-2.1-1.2-2.6-2.8-2.9l1.9-4.8,3.8,1,2.1-6.5c5.2,1.2,8.9-5.6,12.9-.5,2,2.4,3.3,10.1,5.2,13.7s3.5,3.6,4.3,6.2c-1.9,1.7-1.6,3.6-2.5,5.1s-1.7.8-2.3,1.7c-2.5,4.9-.3,5.1-.3,7.4s-1,30.6-.5,32.3,2.8.5,1.7,5.5-2.5,1-1.6,3,1.6,0,1.7,1.9-1.4,10.8-.9,12.4,1.9,0,1.8,1l-1.9,1v2.4l1.9-1c.3,4.6-2.1,8.6-1.7,13.1s1.8,4.8,1.6,5.4-1.5.4-1.7,1c-.9,4.1,2.3,6,1.8,7.5s-.8-1.3-1.2,2.8.3,4.7.5,8.7,1.6,9-1.1,9.5l1.9.5-1.9,1.4,1.9,1.4-1.9.5,1.9,1c.2,2.6.7,3.9-1.9,4.7-.2.8,2.1,0,2.4,2.2.8,4.9.3,14.1.5,19.6.4,11.5,2.1,30.7.9,41.8-.4,3.4-2.8,3.6-2.7,3.9.2,1.5,2.7,2.2,2.9,3.8.9,8-.2,17.6.2,25.7s1.2,12.5,1.6,18.6c1.6.4,1.9-.7,2.8-1.4,5.8-4.5,14.8-14.3,20.4-19.8,33.4-33.2,67.2-67.8,92.8-107.4,6.6-10.2,11.9-18.6,16.3-30s3-8.5,3.6-13.5.5-11.1.9-16.4,2.5-8.8,1.4-12.3-3.8-1.4-.8-6.9c-3.1-.9-.8-2.1-1.5-4.4s-4.8-11.6-5.4-12.1c-.8-.7-2.3,0-2.6-.3s1-1.8.6-2.9-2.5-1.4-3.1-2.1c-27-34-66.7-43.4-109.3-48.1-32.6-3.6-85.5,1-116.3,12.7-5.9,2.2-12.5,7.4-17.8,9.6-1.4.6-4.1,0-4.6.6s-.2,2.2-1,3.1-3,.7-3.8,2.1-.8,10.4.2,11.5,2.3.3,3.2,1,.9,2.9,2.1,3.9c4.3,4.4,10,8.8,15.3,11.8l-3.8,6.7-6.5,1.9,2.8,2.4c-3.5-.5-2.5,3.6-6.6,1v5.6l-6.6,2.1-.9,5.6-2.4-1.9c-1.4,1.1-2.4,2-1.4,3.7l-4.6,1c-1.2-2.5,1.8-3,1.8-3.2,0-1.5-1.6-3,0-5.2-6,.9-7.3-.4-11.3-4.3l4.7-.5-.9-3.8-1.3,1.8-9-2.9,1.4-3.6-1-1.9c-2.6,1.5-4.1,2-7.1,1-.5-1.6,1.8-.5,2-1.5.3-1.9-1.5-3.4-1.8-4.9-.6-3.9,5.8-15.1,7.8-19.3,10.9-23.1,30.3-39.4,52.5-52.3s0-2.5,3.6-.9l-.9-1.8c.8-1,9.2-3.5,10.1-4.1,8.1-5.3,14.8-5.1,24.1-8.4s.7-1.8,1.3-1.9c5.5-.5,1.3,0,5-1.4,7.7-2.7,19.2-4,27.5-5.6,14.2-2.8,28.2-5.1,43-6.1s39.8-1,46.3,1.1h-.3v.2Z"/>
  <path class="cls-1" d="M754.14,390.21l2.7-1c-1.3,3.5.2,8.7-.5,11.9s-2.7,5.1-3.1,7.9,2.7,4-1.6,4l-2.4,8.7,2.3-1,.6,1.9h1.8c.5-4.3,3.2-1.2,4.8-1.3,2.4,0,4.2-2.8,7.5.5.8-5.1-5.4-2.4-8.5-5.7l6.6-1.4-5.5-1.6-1.9-6.9,3.6-1.3c-.9,2.6-.9,7.5,2.8,7.6-.8-1.3-.5-5.7.2-6.5s5.5,0,4.5-3c-3.6,0-9.3-.8-10.4-4.8l5.1,1c1.3-3.7,3.4-2.5,1.5.9,2.7.8,5.8-2.2,7.5.5l-1.9,2.9c4,1.8,3.3,4.3,3.2,8.1l3.3,1.3c-3,2-.4,2.7-.2,4,.5,3.3-2.1,2.9,4,5.1l-.9,3.1c2.4,1.6,4.2,6.1,2.8,9.1l1.9-1c.8,1.7,0,5.5.6,6.7,4.6,11.9,9.2,25,12.4,37.6s4.4,24.3,8.4,34c.8,2.1.5,4.5.8,5.9.6,2.5,4.4,5.6.7,6.7,2.3,2.1,2.5,11.2,2.8,11.7.8,1,4.3.9,2.6,4,4.9-2.1,8.5,0,12.7.5s2.7-.6,4.4-.3c7.7,1.5,19.2,4.5,18.7,14.1l-5.2,1c.8,6.4-5.4,7.8-6.2,14.2-6.3-1.3-4.9.3-7.8,2.9-2.9,2.7-4.8,2.5-5.3,5.7l-2.7-1c-1,5.7-2.1,11.8,1.9,16.7l-1.9.5c-.4,1.5,1.7.5,1.9,1.5.5,2.1-1,6.4-.7,7.5.8,2.1,3.3,2,3.4,2.9s-.8,2-.7,3.1c.3,2.7,2.7,10.2-.3,9.6v1c1.1,0,2.2.5,2.6,1.5s.8,10.7,1.2,13.1c.7,3.7,4.9,8.1.8,11.9h2.8c.3.2-.7,2.5-.5,3.3,4.4,24.8,13,50,17.4,75.3s-.8,2.6-.7,3,1.4,0,2,1.3c2.4,5-2.2,3.7-3.2,5.1s-.8,4.1-1.6,5.8c-3.4,6.6-10.4,8.3-14.8,12.6s-1.4,3.8-2.3,4.5-1.9-.5-2.6-.3,0,2.4-2,.7c.2,7.1-6.8,5.5-10.5,8.1s-.6,3.3-1.8,4.5-5.5,1-3.9,4.5l-10.3-2.9.7-1.6c-.8-.5-2-.6-2.5-1.7-1.3-3.4-1.6-17.5-2.4-22.4-4.3-27-10.7-54.4-11-81.9l-2-1.1c1.2-10.4-2.2-20.9-3.4-31.4-1.2-10.4-.2-22.2-4.1-32.3l1.8-.4-2-1.5c.6-4.1,1.9-8.5-3.5-9.6s-9.7-1-12.1-1c-17.7,0-37.7.7-55.6,1.7-3.1.2-9.7.5-12.3,1s-4.2,3.4-4.5,4.1c-.5,1.1,0,2.7-.3,3.5-6.7,14.5-17.5,34.4-21.7,49.2-.6,1.8,0,4.1-1.2,5.9l2.4.9,7.1-10.9,10.4.6-7.9,46.5-10.3,28.7c-5.3,16.6-14.1,33.2-25.9,45.1-5,4.9-12.3,14-17.2,17.9s-9.9,5.8-11.6,6.9-8.6,5-10.2,5.4c-3.5.8-13.6-.8-13.1-6l-1.8,1c1.9-3.4-.2-6.5,0-9,.8-18.6,12.2-47.2,18.6-64.9.8-2.3,3-12.6,3.6-13.4,2.4-3.3,1.5,0,2.9-5.2s3.6-6.1,4.9-8.8,1.6-8.5,2.8-11.4c1.7-4.3,6.5-10.6,8.3-14.4,2.5-5.1,2.7-11.4,7.9-15.8-5.8-2.9,1.5-1.8,1.9-2.4,0-1-.8-2.2-.7-3.1s3.9-8.8,4.5-10.3,2-1.1,2.5-2.4c.9-2,1.6-5.6,2.1-7.9l1.9,1c-1.3-5.2,3.8-7,3.5-11.4l6.9-11.9c-6-2.5-12.5-2.8-17.6-7.3-.6-1,1.6-10.5,2.3-11.2,2.1-2.4,8.2-3.1,8.8-3.8,1.9-1.9-4-2.2-4.7-4.3,2.5-.8,1.9-1.8,2-4.2,5.8.9,5.5-4.5,7.9-6.9s10.2-4.1,11.8-5.1,1.4-3.5,2.5-4.4c1.5-1.1,6.2-1.4,8.1-2.8,2.8-1.9,1.8-5.4,2.7-7.9,4.4-11.2,9.2-21.3,13.5-33s1.6-2.9,2.4-4.6c1.2-2.8-1.1-5.4,3.8-7.3l-1.9-1.4c3.8,0,2.3-4.6,2.8-6.9s1.9-.7,2.4-2.6c2.7-10.9,10-23.7,14-35.2s2.1-9.8,3.4-14.3l-4.7-2.4c5.7-3.4,2.4-3,3-6.4,1.1-6.5,11.6-15.6,11.6-21.7,5.5-1.3,4.2-4.6,5.4-6.5s3.2-.8,4.5-1.7c2.4-1.7,4.2-7.3,9-5.1l-.5-1.9c1.7-.6,2.4,1.6,3.3,1.6s1.9-3.7,3.4,1.2l.2-.4.3-.3ZM752.04,428.21c-.3.3-4.2-3.7-6.1,1s.8,2.8.4,3.6c-14.9,33.9-24.2,73-38.6,106.8-.3.8-3.5,2-.3,4.4,5-1.7,12.6.6,16.9,0s11-2.3,16-2.7c8.3-.7,16.8.8,24.9-2,.8-4-3.7-12.7-1.9-15.1l1.9-1-3.4-1c.8-4-.5-8.1-.9-12.1s-.4-2.3-1.2-4.9-2.3-6.8.9-8.3l-2.8-1.9,2.8-3.8-3.8.5-.9-3.8h2.8v-2.8l-3.8-1c.3-3,4.5,0,4.7-1.4.7-4.1-2.5,0-4.7-3.8l6.6-2.9-5.7.5-1-5.1c5.1-2.3-.6-2,0-3.9.8-2.3,4.2,0,4.7-.5v-2.4l-1.8-.9.8-4.4h-4.7l2.8-4.3c-1.6-2.2-4.3-1.3-6.6-1.4l.5-1.9c2.6,2.2,4.3-1.2,7.1-1l-.5-1.9-3.3,1-.8-6.3c5.3-1.3-1.4-11.2-1-11.8s3.3-.3,2.9-2.4l-2.5-3.3-.6,1.8h0l.2.4Z"/>
  <path class="cls-1" d="M1168.14,13.51c.4.7,3.5,2,2.3,4.2l-1.7,1.1c2.5,0,4.4,4.7.9,4l1.9,1.5-1.9,1,2.3,2.4c-1.7,6.2-.9,13-.9,19.6s1,6.5.9,6.9c0,.9-2.2,6.8-2.1,8s1.6,2.5,1.6,4-1.6.4-2.2,1.9c-1.7,5.5.9,10.6,1.1,14.1s-1.5.4-1.9,1.3c-.7,1.5-1.7,10,.9,9.7l-2.9,9,2,1c-2.9,3.3,0,4.2-.2,5.8-.3,2.3-5.4,9.8-.7,11.2-3.3,2.2.2,5.2,0,5.5s-1.5-.2-1.8.5.7,2.9.7,4.1c-.2,5.5-1.8,13,1,17.4-3.1-.7-1.1,6.5-1,9.6.3,15.8-.5,31.8.4,48.6,0,.7,1.3,1.5,1.3,2.2,0,1.1-3.7,10.2.3,9.5v1.5l-1.9,1c2.8,3.5.3,4.1.3,6.2,0,4.3.8,10.8.4,14.6s-3.7,3.1.3,4.1v2c-3.6,1-1.2,2.8-1.1,5s-1.4.3-1.9,1.8c-1.1,3.8-2.6,14.7-5.2,16.7s-2.3,0-3.2,1.7.2,5.7,0,6.1-2.4.8-3.6,2.8-1.4,4-1.9,5.1c-.7,2-.2,3.3-2,5.8s-6.4,3.8-6.7,4.1c-2.2,2.7-4.6,11.6-6.9,13.4-3.9,3.1-6.7,1.5-10.2,1.9s-3,1.7-4,1.8c-2.4.3-2.7-3.2-3.7-4.8s-3.4-.2-1.4-3.9c-4.7-.9-2.2-5.5-2.8-7.4s-2.7-1.9-3.8-4-.7-6-1.2-7.6c-1-2.8-3.4-6.2-4.6-9.1s-.3-6.6-4-6.1l-3.6-10.9-3.2,1,2.8-3.5c-2.1-2.3-2.5-5.2-3.7-7.8s-1.3-2.9-2.2-5-2.9-8.4-6.2-7.7c.6-1.4,1.1-2.3.5-3.9-1.7-4.1-9.8-17-12.6-21.5-5.2-8.2-12.7-14.7-15.9-23.5-4.3,2-2.6-3.6-2.8-3.9-.7-1.3-4.3-1.1-4.5-1.3-.7-.9-.5-3.9-2.5-4.8l-2,11.5c2.6,14.1,1,28.8.7,43.1-.2,7.8.2,13.8-.3,20.9-.5,7.1-.7,15.2-1.5,17.1s-2.2,1.5-2.1,1.9c0,1.4,1.6,2.3,1.6,3,0,2.2-4,8.5-7.1,5.5l.9,3.4c-3.7,1.2-1.5,4-2.2,5.3s-5.7,4.8-5.9,5.2c-.5,1,.8,2.5.4,3.8s-2.9,1.7-3.1,3.2l-.9-2-.9,2h-2.3l.8-1.9-3.6-2.7,2.8-2.5-2.8-1.5c2.3-3.3.8-2.9.5-5.2s.4-1.5.2-2.1-2.2,0-1.6-2.7,2-.5,2-1c0-1.4-2.2-5.3-2.4-7-.8-6.5-1-13.9-1.9-20.6-.8-6.9-1.2-14.7-2.3-21.3s-.8-2.2-1.9-3l1.9-.5c1.2-2.4-1.9-1.8-1.9-2.5-.2-2.2,2-3.4,1.8-4.8s-2-3.2-2.4-5.4c-2.6-12.9-1.4-31.8-5-44.5s-2.8-7.3-3.5-11.5c-.4-2.7.6-6.6-.3-9.4s-.9,0-1.2-6.2-3.1-7.3-3-8.1c0-1.4,4.3-4-2.2-4.5,3.3-2.9-1.4-7.2,2.8-8.5-5.9-2.7-.7-10.6-5.6-12.5l4.5-4.5c-1.9-2.5-2.2-11.2-.4-13.5s3.8-.7,4.2-1,0-4.4.5-6c1.2-5.3,6-9.9,10.9-10.9-2.3-6.8,2.1-14.4,8.9-10l1.3-1.5-.7-2.3c.9-2,9.8-1.5,12.3-2,3.4,1.7,4.3,6.5,5.9,8.8,19.1,28.2,48.8,46.9,69.7,74.5,1.3,1.7,6,12.9,9.4,9.5s-3.1-3.4-1.9-5c1.6-.4,3.2-.8,2.8-3l-2.8-.5c2.2-10.6,1-22.2,2.3-32.7.5-3.6-.3-6.8,3.4-8.2v-1.9c-.3-1.1-4.4-.3-2.2-6.3s1.6-1,2-1.7c.9-2.1-6-7-.2-6.6l.5-1.9h-2.7c-.2-.4-.3-3,0-3.5.4-1.3,3.4.7,2.8-2s-2.2-1.3-3.2-3.6c-1.8-4.1.4-6.7.2-8.2-.6-3.5-5.3-8.9,3-8.7.3-5.4-3.8-10.7-.9-16.2s4-1.2,4.6-1.9,1.4-10.4,3.7-13.2,3.1-.3,4.9-2.1.8-3.4,1.4-4.6,1.8-.8,2-1.2c.6-1.1.3-4.3,1.8-6.7,2.7-4.4,5.5-2.5,9-4.1s.8-2,2.4-2.5c4.8-1.4,11.6-2.3,15.2,2s1.2,3.5,2.2,5.2h-.6Z"/>
  <path class="cls-1" d="M1080.74,362.11c.2.2,2.1,4.4,1,4.7h2.8l-.9-3.3,1.9-.5c-.4,2.6,1.4,1,2.4,1.8s1.3,2.6,2.4,3.3,4,1,4.5,1.7c2.9,4-1.1,13-2.2,16.8s-2.6,9.6-4.5,14.6c-12.5,32.9-21.5,68.7-34,101.7-2.1,5.5-4.2,5.6-5.3,7.5s1.3,2.9,0,4.9-3.1.9-4,2.2-1,5.1-2,7.2c-2.4,5-9.8,11-13.6,15.2-8.2,9.1-15.9,20.5-28.6,23.4-.8,3.1,2,2.7,2.8,5.2l-1.9,1.8c2.9,2.1,1,5.8,1.3,9s3.6,3.8-1.3,7.1c2.5-.6,2.8,9,2.7,9.5-1.5,5.4-.7,2.6-.4,8.5.3,5.9.6,10.8.4,11.3-.5,1.5-2.8,1.2-2.7,2l2,1c-.5,2.5-.8,5.4-.7,7.9,1.4,17.6,1.1,35.2,3.5,52.6s5.8,28.8,5,30.1c-1.2,1.9-3.9.8-4.6,1.8s-1.4,5.2-2.6,6.5c-1.2,1.3-3,.2-3.4.5-.7.5-1.5,3.4-3,4l1.9.5-1.4,1.9c-4.6-4.6-6.3,3-11.8,1l-.9,5.7-1.4-1.9c-2.9-.2,1.3,2.8-2.4,1.9l-.5-1.9c-2.7,3.5-7,2.4-10.8,2.9l4.7,1.4c-2.6,2.5-7.2.4-7.5,5.2l-3.8-1.9c-.9,1.1.9,5.4-1.4,4.8-5.3-1.7-9.3-4.3-9-10.5l-1.9,1-.9-2.4,2.7-1.5c-3.1-3.6-.2-5.8-.2-7.8,0-3.4-1.4-7.7-.7-11.5l-1.9-1,2-1c0-1.2-.9-2.6-.8-3.7,1.4-26.7,2.5-53.6,5.5-79.8.9-8.4,2.4-16.2,3.5-24s1.4-13.6,3-20.2c-2.1,1.2-3.5,1-5.7.6-6.2-1.3-19.5-12.6-24.2-17s-9.3-10.8-13.7-15.6l-1.7.8.9-3.8c-4.1.7-3.2-2.7-4.7-4.3s-3.1-2.3-4.3-3.6-.8-2.6-1.8-3.5c-1.8-1.6-.6,2.3-2.7-2.9-3.3-7.8-15.6-25.1-20.8-32.3-1.7-2.3-1.4-6.4-5.3-5.6l1.9-2.4c-4.6-3.2-6.7-10.2-9.5-15-6.1-10.4-14.1-20.6-18.9-32.3-4.8-11.6-2.4-7.9-2.3-8.3s2.8-5.5,3-5.7c3.3-2.6,5.6,1.2,8-4.9,2.5-6.2-.2-2.5.3-3.4.8-1.4,9.3-11.5,9-5.8h.9c.6-5.1,4-2.8,5.8-3.4s3.7-4.9,6.2-5,2.2,1.9,3.1,2.2,2.6-.9,4.7,0,10,12.4,11.3,14.3c22.2,30.7,44.3,67.4,72.3,93.9,3,2.9,7.8,10.5,12.9,9.1l5.8-19c3.8-1.3,2.5-5.7,3.5-9,5.8-18.5,12.5-39.2,18.1-58.5,1.2-4,2.1-10.3,4.2-13.6s3.6.2,0-3c4-1.4,1.8-6,1.9-8.5s1.4-.6,1.9-1.2c1.1-1.9,1.6-4.1,3.8-5.5l-3.8-1c5.1-2,4.2-7.4,6.2-10.8.9-1.5,4.1-1.3,2.4-5.6,1.4-1,6.5-1.5,7.3-2.2s2-7.8,4.5-10.3,5.8-.2,7.9-1.4,3.7-6,6.9-7.3,6.2,1.4,9.5-.8l1.4,1.9c.3-1.8,2.5-6.4,3.9-7.1s6.2-.6,6.5-.4l.2.3.2-.3Z"/>
  <path class="cls-1" d="M452.84,149.01c.6,3,2.1,5.4,2.5,10.6s3.9,2.4,0,4.1c3.1,13.2,5.9,27.3,8.3,41.1,5.4,30.1,8.9,59.5,14.3,89.6.7,3.8,5.8,21.3,5.4,23.1s-1.5.6-1.6.9l.7,1.8h-3.7c1.7,4.3-2.4,6.6-3.7,8.7s-.5,3.4-1.1,4.1-4.6,1.3-6.4,2.8-1.7,3-2.1,3.3c-.9.6-2.6,0-3.4.3-1.3.9,0,7.5-4.9,4.9l.7,1.8-5,6.2-1.9-2c-3.5,2.2-6,4.8-8.9,7.5-1,.9-3,1.2-3.5,1.7s.8,2.1-.7,2.8c-1.2-1.5-11.4-3.4-11.6-5.4s1.6-2.6,1.4-4-1.8-2.3-2.2-4.1c-1.3-7.5.3-15.4-3.2-22.3-2.2,0,.4,3.8-2.2,3-4.7-2.2-9.1-3.2-12.6-7.5s-1.3-5.3-2.2-7c-7.6-13.4-20.3-28.3-30.5-39.8s-6-6.5-7-6.5l-3.3,4,2.6,1.4c-1.6,15.7,1.7,30.8,1.7,46.6-5.1.7-2.7,3.8-4.3,7.1s-1.9,1.4-2.6,2.4c-3,4.3-3.2,6.1-9.6,6.4,2.6,3.5-2.4,4.9-4.6,6.7-3.2,2.7-10.7,6-11.1,6.5s.6,1.5,0,2.3c-2.3,3-6.2,6.2-10.1,6.2s-5.4-1.7-5.7-2c-1.2-1.3-3.3-15-3.1-17.1s1.7-.2,2-2.1c1.9-14.3.7-33.1,1.8-47.9.2-2.4,2.9-10.8,2.8-12s-1.6-.6-2-1.3c-2.2-4.1.5-12,.6-15.7s-2.9-9.3.4-10c0-.9-1.3-.2-1.7-.7s1.2-12,1.2-14.4-1.5-3.4-1.4-5,3.6-3.3,0-6l2.8-1.5c-2-3.3-2.7-4.8,0-7.9-4.2-.2-1.4-6-2-8.3s-3-3.5-3.7-5.2l1.9-.5-1.9-3,2.4-1-.6-4.1-2.3,4-3.3-4.5,1.9-.5v-2c-4.2.7-6.9-2.7-5.6-7h-6.6c-.3-2.4,1.9-3.8,3.7-4-1.1-3-3.7-4-6.6-4,1.4-5.1,5.7-5.1,3.7-11l9.4-1-1.9-2.5,2.7-1.6-.7-4.8c3.7.2,4.8-3.2,6.9-4.3s9.9-.6,12,.2,1.1,2.1,1.7,2.3c2,.9,4.5,1.4,6.5,2.7l3.4-6h1.3l.5,2c2-1.3,3.8-2.3,6.1-1.5,5.2,1.8,10.3,15.1,12.1,20.3l-4.5,4.8c-.7,4.5,9.1,11.2,11.8,14.3s5,7.2,7,9.5c3.8,4.1,30.1,31,32.2,30.6s1.2-8.6.9-10.5c-.5-4-.6-6.2-.7-9.7-.5-7.6-3.2-16.6.3-23.7h-2.8l1.9-15.5c-4.3,1.2.2-3.2,0-5-2.7-.9-1.2-9.1-1.5-13s-1.4-1.5.2-7.3,0-3.2.4-4,3.9-1.4,5.5-3.7,2.9-6.4,4.6-9.3-.3-2.2.2-3,8.7-4.7,9.8-5.5,3.7-5.1,5.6-5.6,2.8,1.5,3.6,1.6,1.8-1.9,3.7-1.7c3.1.2,7.2,7.8,7.8,10.8,1.1,6.7.3,19.3,1.5,26l.2-.5h0Z"/>
  <path class="cls-1" d="M892.14,117.41c10,10.2,21.4,27.6,30.3,40.1s6.5,7.1,6.9,8.4-.7,2.6-.4,2.9,2.1,0,3.3,1.1,2.4,6.1,3.6,7.7,2.3,1.3,3.5,2.8c3.3,4.6,4.9,10.4,10.8,10.6,9,.3,14-1.7,23.7,1.6s9.7,4.3,9.4,8.6-2.8,6.9-3.2,7.6-4.8,6.2-5.2,6.5c-3.1,3-8.4,2.3-5.5,10.5l1.7-.8c3.5,9.9,9.8,17.9,14.3,27.1,4.2,8.6,14.1,29.6,15.6,38.4s-.3,2.7-.7,4.2l1.8,1.1h-4.6l-1,9h-3.7c2.1,5.2-2.9,4.7-6.6,5l1.9,1.5-4.7,3,2.8,1.5h-4.7l-.9,7-3.7-4,.9,5-1.9-2c-.7,8.6-6.5,6.9-10.6,9.9s-.8,2.9-1.8,3.8c-2.3,2.2-8.8,3.8-12,2.8-5.4-1.8-5.5-14.5-6.9-19.5-6.9-24.3-17.8-41.1-26.9-63.2-1.2-2.9.7-5.6-5.7-6.4l-32.7,7-5.3,5.8,2.4,3.5c-2.2,3.4.7,7-3.4,10l1.9,1c-1.9,3.5-1.7,7.8-2.2,11.7s0,15.4-.7,18-1.8.6-1.9,1.3c-.7,5.4-.3,6.8-3.1,12.6s-7.5,8.5-12.7,14.4-5,6.4-4.8,9.3c-4-2.7-3.7.8-5,1.7-4.1,2.9-3.7,3.3-6.7,6.4s-8,5.3-12.9,3.8-1.8-3.9-2-6.1c-.8-9.1.2-12,2.2-21.2,3.1-14.6,6.6-30.8,8.7-46.6,0-1,1.9-2.1,1.7-3.2l-13.9-3.8c-.2-3-2.5-12.9-.9-14.6s3.8-1.1,5.7-4.2-1.8-3.4-2.2-4.6c-1-3.3,5-6,6.6-7.9,1.8-2.2,3.7-7.3,5.9-9.2s4.9-1.7,5.3-3c1-3,2.1-13.3,2.5-17.1,1.2-11.4,1.7-23.3,2.6-34.6.5-5.2.3-13.1.9-17.5.9-6.3,4.9-5.3,5.2-6.6,1-4.3-.9-7.6,0-11.3l-3.7-.5c1.2-2.9,5.9-6.3,6.8-8.8s-.5-3.4,0-4.5,3.5-2.2,3.5-2.9-1-1.9-.5-3.4,2.9-1.2,3.4-1.5,2.7-3.3,5.2-5.4,3-5.1,8.4-6,11.1,1.2,16,6.3h-.2l.1-.1ZM883.74,196.21c1.2,2.4-1.5,3.5-2.2,5.3-3.3,9.5,7.5,6.4,8,4s-3.3-5.7-4-7.4.8-5.3-2.4-3.5.7,1.6.7,1.7h0l-.1-.1Z"/>
  <path class="cls-1" d="M631.14,117.61c0,.3-1.6.4-1.9,1.5-.7,2.3-.5,2.6-1.5,5.5-2.4,6.8-4.6,13.8-6.6,20.7-8.8,9-19.9,15.4-30.9,20l-.9,2.4c-3.5-.9-3.2-7.9,0-8l-1.7-3.8c0-.2,1.4,0,1.7-.8,1.3-5-5.1-13.5-10.2-13.3-.8,3.2-2.2,6.8-3.6,9.7s-2,1.3-2,1.4c-.2.5.8,2.1.7,3.3-.2,2.3-2,4-2.4,6.2-.8,4.1-.8,12.2,1.5,15.6s4.8,5.4,5.2,5.7c10.3,9.4,26.3,16.5,37.2,25.9,21.9,19,43.8,46.6,38,79.3-1.4,8-3.2,7-5.2,10.9s0,2.9-.5,3.5-3.1.6-4.2,2.5c-1.6,2.7-2.9,6.4-5.4,9.7-5.9,7.8-11.7,9-18.3,14.5s-6,7.7-8.2,9.5c-5.2,4-13.5,6.3-19.2,10s.4,2.2-4.5,1.4l-1,3.5c-4.4-1.6-10.6,2.6-14.3,2.6s-8.3-2.6-12.5-3.7c-2.2-5.9,2.2-11.8-1.1-16.8,3.5-.5,10.5-.4,10.2-5.5s-3.1-4.6,1-9,5.1-1.7,7.1-3.4c3.3-2.8,5.4-9.8,11.6-10.1v-2.4c-3.2-1.3-2.1-5.4-3.3-8.4-2.7-6.6-7.2-13.6-11.1-19.2-.6-.8-.7-1.9-.6-2.9l-2.8,1c.2-4.6-3.5-5.4-4.7-9l-1.9,2c1.1-5-5-7.3-7.8-9.9-8.9-8.3-21.2-17.5-31.3-25.1-1.6-1.2-6.5-1.9-6.7-2.2-.7-.7-.4-2.7-1.3-3.5-3.4-3.1-5.2-3.3-8-9s-5.3-11.9-.3-12.2l-2.8-2c-.8-2.5,1.6-1.6,1.9-2.7,1.3-5.2-1.1-8.9-.9-9.3s1.3.1,1.5-.2,0-2.6.5-4,1.9-2.1,2.2-2.8-2.8-4.9,3.2-7.5l-1.9-1.5c3.3,0,2.1-6,3.1-8.7s4.7-4,5.3-5,0-2.5.3-3c11.8-18.9,28.2-38.9,46.2-52s23.1-15.5,29.8-16.2c4-.4,8.3,1.4,11.2,1.7s2.5-1.8,7.2.7,18,13.9,14.4,22.5h.2l.3-.1Z"/>
  <path class="cls-1" d="M196.94,93.81c0,.2-1.5.2-1.5.7,0,1.9,2.1,3.6,2.4,5.2,1.4,6.3-3.9,9-5,13.8-1.8,8.1-1,22.2-1.4,30.9s-1.3,14.1-1.3,19.9,0,15.3.2,16,1.7,0,1.7,1l-1.7,1c-.4,6.3,2,15.4,1.6,21.1-.4,5.7-.8,2.1-1.7,2.9,2.5.8,2.7,3.8,0,3.5l1.6,1.5c.5,3.1-2.1,2.1-1.6,5s2,.6,2.3,2.4-2.2,3.9.3,6.6l-2.6.5c-.2,3.6,1.4,6.9,1.7,10.5s-1.4,7.4.9,11l-2.6.5,2.4,3.5-2.4,3.5c3,.4,3.7,4.8,0,5-.3,1.5,1.1.7,1.7,1.7,2.4,3.7-.6,3-1.7,5.3l2.6.6-.5,14.5c2.7,6.8-.6,22.1,2.4,28.3s.5,1.6,1.8,1.5c3,0,9.8-2.7,13.4-3.6,14.1-3.5,29.5-7.4,42.8-11.1,6.8-1.9,8.4-1.1,14.6-1.2,2.8,0,8.3-2.5,9.5,1l2.2-.9,1.7,7-4.4,1c2.8,4.9-2.5,7.9-3.3,10.7s0,3.8-.3,4.2-4.8.4-6.4,2-.5,2.6-1.5,3.5c-2.4,2.4-1.9,2.3-3.7,4.3s-5.8,2.5-6.6,3.4.4,1.7,0,2.5c-1.7,3.8-4.5,3.7-7.1,5.9s-1.5,3.2-3.2,4.4-2.7,0-2.8.2c-.6.6-.6,3.4-1,3.8s-1.6-.7-2.5-.5c-13.2,1.7-40.1,3.8-51.6,8.8-4.1,1.8-6.5,4.4-6.8,9.7l-2.6-1v2.5c-2.8-.7-2.2.6-4.4,1.5l1.7,2c-2.5,2.8-3.7.3-6.1,1.5s-7.8,7.6-7,9.5l-3-1.1c-.5,0-.4,1.6-.7,1.8-2.7,1.8-4.1-2.4-4.4-2.5-.8-.4-2.4,1.5-3.2-.7,1.7-3.5-.7-3.4-.9-4.2-1.7-7.6,1.2-12.9-8.8-9.8-20.7,6.5-40.5,13.7-61.6,20.2-1.7.6-4-1.2-5.9,2.2l-1.7-1.9c-4.3.9-2.3,2.3-2.7,2.9-2.6,4.1-9.3,1.1-12.1,3l.4,2-2.2-2c-1.7,4.6-6.7,4.6-3.9-1-3.5,1.2-13.1-1.5-10.5,5-1.2,1.3-3.1-2.9-3.7-3.8l-5.8.6c-3.7-7.4,6.4-3.1,8.5-6.8h-4.7l-.9-1.9c-1.5.9-4.3,1.8-5.3,0l.9-10,5.7,1c-1.9-4.4-1.6-8.1,3.5-8l-2.6-5h3.5l-.8-2.8,3-3.1c6.4,5.3,2.8-4.7,3-5,.6-.2,1.2.5,1.7.5,3.9-.3.4-1.5.3-1.7-1.8-2.7,3.3-6.7,5.8-3.8l.9-7,3.5.5-.9-2,2.2-2.5,2.2,2c.3-4.2,3.7-2.9,6.5-3l.4,2c-2.8-.2-2.1,4.9-3.7,6.8s-5,4.6-7.1,7.3-5.6,7.6-8.4,11.4c.9,1.5,1.6,1.5,3,1.5s9.7-1.6,12-2.3c9.6-2.7,18.6-9.8,28.6-11.7l-.9-2,10-2.3c13.1-7.8,27.1-10.7,41.7-16.7,8.4-3.5,4.8-12.6,5.1-20.3s1.6-12.9,1.4-20c-.6-23,1.9-53.4,3.5-77s1.3-23.7,2.9-34.7.9-3,2.4-2.8c-.5-2.2-3.4-1.1-2.6-4h2.6l-1-5.4,1.7-.6v-1.9l-1.7-1.4.9-5.6,1.7,2-1.7-8.4,2.4-1.7-.8-4.9h3.5l-3.5-2v-2.9h2.6c.7-3.2-1-2.7-1.2-3-2.2-3.2,2.4-1.4,2.9-3.5s-2.6-1.6-2.6-3.5l3.5-1.5-1.7-3.5,3.5-1c-4.4-5.4,1.3-9.3,3-13s1.2-7.3,2.4-8.7,6.8-.4,7.7-2.7l-1.7-1.1c-1-4.5,2.1-3.7,3.4-5,5.1-5.3,7-7.6,14.5-3.4.5.7,1.2,6.2,1,6.8v-.4h.8Z"/>
  <path class="cls-1" d="M818.24,71.21c.7.4,3.4,6.6,3.9.8h.9c.4,3.7,7,4.3,8.3,7.8s1.3,9.7-.7,12.6-2.1.3-2.9,1.3-8.7,10.1-9.1,10.7,0,2.3-.3,2.7-2.1-.9-3.3-.6c-1.8.5-3,1.9-4.7,2.7s-3,0-3.2,0c-.7.6-.7,3.5-1.1,3.8s-1.9-.8-2.7-.4c-1.8.8-2.3,3.9-3,4.3s-6.5,0-7.5.4c-2.2.7-9.8,6.3-10.6,6.4-2.1.2-5.4-4.4-7.6-4.7s-7.6,1-9.3,2.1c-3.2,2.1.7,6.4.5,8.3s-2,.9-2.7,2.3-3.6,9.3-3.6,9.8c0,1,1.2,2.2,1.2,3.2,1.2,40.2,6,87,13.6,126.4,1.1,5.9,4.1,11.1,3.6,17.2l-2.9.6,1.9,3-2.2-.8-2.5,6.7c-2.4-1.1-3.5,1.6-5.1,3.1l-1.4-2,.9,6c-1.6,1.1-5.3-8.3-3.7-2.1-2.6.2-4.3,2.7-6.5,3.6-3.2,1.4-5.9-1.5-3.8,3.4l-3.7-4c-.9,4.5-5.2,6.5-9.4,6l1.9,2c-4.7.7-7.3,4.1-12.2,2l.5,5c-2.5-.6-2-3.2-3-4s-5-1.5-5.7-2.2.6-1.5,0-2.4c-.9-1.2-2.9-1.6-3.8-3l2.8-2.5-2.8-.5c.9-3.8,1.4-6.7,0-10.5l-1.9,1v-3l1.9,1c-.3-1.5.6-3.2.5-4.5-3-39.6-8.2-82.7-4.3-122.8.7-6.6,1.9-9.1,3.7-14.3s0-3.4,1-5.5,8.8-9.4,11.2-9.7l-1-2.9c-9.8,2.5-19.2,6.6-28.9,9.5-14,4.2-27.4,6.4-40.4,12.8-8.8,4.3-12.4.2-20.4-3.5.9-6.9,2.1-14.9,10.2-14.9l-1.8-4.9,2.7-1.6-1.8-.5.8-2.5c4.5,1.5,5.5-4.7,8.1-6.4s7.8-2.3,10.9-4.1c1-.6,4.7-4.8,5.6-5.3,7.9-3.3,20.5-4.9,28.9-7.3,33.5-9.8,66.2-23.8,98.3-32.8,4.3-1.2,13.2-5.1,17.6-2.3h.2-.1Z"/>
  <path class="cls-1" d="M285.24,21.11l-.4-2c2.1-.8,3.8,2,5.2,2s3-1.6,5.4-1.7c12.1-.2,37.2,8.6,31.9,27.5-.6,2.2-2.4,3.4-2.6,4.8-1.4,5.8-7.8,19.9-11.5,24.6-10.4,13.1-26.7,28.6-40.3,39.7s-10.8,11.9-18,12l.9,2c-2.4,0-4.1,1-4.8-2l-2.2,2c.3-5.6,3.7-11.1,6.1-16.2s2.7-6.8,4.4-11.1,13.7-19.1,13.8-24.1l-3.5-1.6.9-2c-12.8-3.7-26.5-2.5-39.5-.9-20.8,2.6-42.6,7.2-63,11.7-16.7,3.7-32.7,7.9-48.8,13.9-2.4.9-6.6.6-8.5,2.2s-1.6,4-2.5,5.1-2.5.7-3,1.1.8,2.1-.3,3.6c-1.6,2.2-5.9,6.1-8.4,4.3,1.4,5.8-4.8,10.3-9.6,8l1.7,3.3c-1.6,4.7-7.1,1.9-6,6.6l-2.6-1.5,2.6-3.5c-5.6.4-7.1,0-4.4-6-2.8,1.8-15.4,2.2-16.5-.5-.6-1.9,1.7-1.2,1.7-2.1s-.9-2.3-.3-4.1,4.4-5.4,5-7.2.3-5.8,1.5-8.3c1.9-3.8,18-21.6,21.3-23.6s3,0,3.7-.6,1-2.5,1.8-3.1c1.1-.9,2.5.4,3.5,0,1.8-.8,2.8-5.8,6.9-2.4v-2.9c3.8.5,6.9-2.9,10.5-4.6s11.7-6.1,15.9-7.8,6.4-.4,8.3-1.3,1.1-2.1,1.2-2.2c.5-.2,1.8,1,2.8.9s.5-1.7,1.2-2c18.4-8.1,40.6-11.4,59.9-16.9,1.3-.4,1.1-2.1,1.7-2.1,22.5-.9,46.8-9.9,69.6-12.5,3-.3,4.5.8,7.4,1.4h0l-.1.1Z"/>
  <path class="cls-1" d="M1363.74,74.31l-2.8-2c-.7-1.8,3.7-1.6.7-4.2-5.2-4.6-15.4-2.8-21.5-3.5-23.9-2.9-49-7.1-73.2-4.6-13.2,1.4-47.2,11.2-57.9,7.8-1.1-.4,0-2.7-4.7-1.7-1.7.4-7,3.1-8.2,4.3-.7.8-2,7-4.7,8,6.6,6.5-.7,5.6-2.3,8.5-1.9,3.4,1,8.1.2,10.5-.2.5-1.7.4-1.7,1,0,2,2.2,4.7,0,7.4,3.3,1.1,8,.2,8.4,5,5.7-3.5,3.9-.6,5.3,0,3.5,1.3,13.8.3,17.6.3,14.2,0,27.2-.8,40.5.7-.5.4-.9.7-1.5,1.1l2.8,3.5-4.7-1v3l4.7.5-6.6,2.5c.8,2.8,2.7,1.9,4.7,1v3.5l-3.7.5,2.8,5-2.9.5c-.7,6.3,2,13.4-.8,18.9,5.2,2.8.9,2.1.9,5s2.2,3,1.9,3.5c0,.2-1.7-.7-2,1.4-1,8.6,1.8,19.8-.8,29,3.4,1.2.4,9.6.4,13.2-.3,22-.3,42.2-1.3,62.7-.2,2.9-.2,7-1.8,9,3.4,2.3.9,12.8,1.3,17,.2,2,3.2,4.3,2.4,7.3,4.1,1.1,7.2,0,11.1-.9l-2.8-2c8,1.7,3.4-9.8,9.4-9-1.8-2.3.7-1.7,1.1-3.3,1.2-4.8-.7-6.8,3.7-8.9.7-.3,1.7.3,1.8.2.7-1,0-3.6.3-4.4,0-.3,1.8-4.9,2.1-5.5.7-1.4,2.7-1.3,3.3-2.8,1-2.4,1.1-11.6,0-14.2h2.8c-.6-2.8-2.5-5.1-3.2-7.9-2.3-9.7-1-21.3-1.8-31.3-1.4-19.2-3.7-39-5.7-57.9-.6-4.8-2.7-34-3.7-35.7-.6-.9-2.4-.6-2.3-1.5h0c1,.1,2.2.4,3.2.7,6.5,1.7,17.8.4,24.9,2.3s1.3,4.3,6.3,2l-.9,2,16.9,2-1.4,3c7,6.1,17.5,4,22.3-4,.6-1,0-2.6,1.5-4.5,1.5-1.8,5.8-3.7,6.7-5.2.6-1,0-2.3,0-2.8.2-.6,1.6-.3,1.7-1.1.2-4.9.2-2.1,1.3-5.4.8-2.4,2.1-10.4,4.6-11.3.9-.3,2.4.5,2.5.3,1.6-2.4-2.2-1.4-1.9-3h1.7c.4-.6-.6-8.9,2-8.4l-.8-4.9,2-1.1h0l-.2-.1Z"/>
</svg>