<svg width="93" height="64" viewBox="0 0 93 64" fill="none" xmlns="http://www.w3.org/2000/svg">
<path d="M21.3069 63.875C9.87881 63.875 0.606934 54.6787 0.606934 43.3438C0.606934 34.3898 6.38568 26.7762 14.4357 23.9674C14.4213 23.5824 14.4069 23.1975 14.4069 22.8125C14.4069 10.2086 24.6994 0 37.4069 0C45.9313 0 53.3632 4.59102 57.3451 11.4348C59.5301 9.98047 62.1751 9.125 65.0069 9.125C72.6257 9.125 78.8069 15.2559 78.8069 22.8125C78.8069 24.552 78.4763 26.2059 77.8869 27.7457C86.2819 29.4281 92.6069 36.7994 92.6069 45.625C92.6069 55.7053 84.3701 63.875 74.2069 63.875H21.3069ZM32.6632 32.9355C31.3119 34.2758 31.3119 36.443 32.6632 37.7689C34.0144 39.0949 36.1994 39.1092 37.5363 37.7689L43.1426 32.2084V51.3281C43.1426 53.2244 44.6807 54.75 46.5926 54.75C48.5044 54.75 50.0426 53.2244 50.0426 51.3281V32.2084L55.6488 37.7689C57.0001 39.1092 59.1851 39.1092 60.5219 37.7689C61.8588 36.4287 61.8732 34.2615 60.5219 32.9355L49.0219 21.5293C47.6707 20.1891 45.4857 20.1891 44.1488 21.5293L32.6488 32.9355H32.6632Z" fill="#262626"/>
</svg>
