<svg width="262" height="233" viewBox="0 0 262 233" fill="none" xmlns="http://www.w3.org/2000/svg">
<path d="M129.994 1.94573C135.219 2.17816 140.745 3.15956 146.137 3.62874C148.059 3.79661 151.061 3.43074 152.495 4.64887C154.302 6.17693 153.27 8.34203 153.112 10.2833C152.084 22.9683 151.118 36.0794 149.546 48.674C149.397 49.862 149.264 51.8291 148.169 52.5436C146.983 53.3184 143.484 52.6642 141.969 52.5436C140.63 52.436 140.358 52.4145 139.225 52.1735C135.219 51.3212 129.449 51.8592 125.352 51.0414C121.279 50.2279 116.379 50.1805 112.364 49.3627C110.929 49.07 108.845 49.5521 107.607 48.6137C106.369 47.6754 106.627 46.2463 106.675 44.9593C106.761 42.6565 107.296 40.3192 107.502 38.0207C108.458 27.475 109.433 16.8948 110.418 6.3491C110.552 4.89422 110.609 3.40491 110.628 1.95003C117.02 2.16095 123.631 1.67025 129.994 1.95003V1.94573ZM125.146 4.06778C123.014 3.67178 120.801 3.77078 118.645 3.62874C116.857 3.51252 115.021 3.0003 113.124 3.25426C112.655 5.76801 112.732 8.30759 112.497 10.8429C111.799 18.3196 110.891 25.8522 110.212 33.3375C109.83 37.5687 109.572 41.7956 109.223 46.0268L109.73 46.7327L146.625 50.2666L150.726 6.80537C150.43 6.43089 145.563 6.32328 144.698 6.23288C139.966 5.74649 135.204 5.03627 130.3 4.5714C128.483 4.39922 126.796 4.37339 125.142 4.06778H125.146Z" fill="black"/>
<path d="M155.478 213.656C155.091 213.587 154.637 213.794 154.374 213.423C156.372 211.185 158.394 208.077 159.063 205.004C159.78 201.72 158.781 198.362 156.128 196.524C155.803 196.301 155.067 196.077 154.895 195.857C154.68 195.586 154.469 194.415 154.173 193.907C152.801 191.579 149.67 190.993 147.313 191.303C146.868 191.364 146.649 191.682 146.161 191.57C145.669 191.458 144.239 190.046 143.885 189.577C141.859 186.909 141.973 184.171 143.135 181.119C143.412 180.396 144.129 178.778 144.55 178.196C144.655 178.054 144.732 177.904 144.928 177.912L145.061 177.938C145.234 177.254 145.406 176.574 145.468 175.864L136.624 174.064C136.117 174.723 135.63 175.42 135.123 176.113C135.161 176.143 135.199 176.182 135.238 176.242C134.454 178.162 133.617 180.129 133.163 182.187C131.887 187.989 133.536 193.524 138.398 196.486C137.747 197.794 137.016 199.525 137.743 200.945C136.586 201.048 135.242 200.803 134.114 200.945C134.023 200.958 133.832 201.139 133.665 201.173C128.736 202.107 124.362 205.938 124.286 211.753C121.848 211.814 119.395 211.676 116.953 211.745C112.034 211.891 107.057 212.408 102.176 212.761C100.852 212.855 99.4755 212.829 98.1513 212.903C98.811 210.41 98.8014 207.763 98.5433 205.202C98.5959 204.828 99.1695 204.44 99.3942 204.1C100.766 202.021 100.962 199.688 100.092 197.312C99.9439 196.903 99.4946 196.262 99.399 195.905C98.9831 194.368 101.55 188.449 102.353 186.87C104.59 182.458 107.927 178.024 111.35 174.645C111.957 174.043 113.563 172.502 114.209 172.145C114.362 172.058 114.505 171.977 114.682 171.972C114.682 171.972 114.672 171.964 114.668 171.964C114.017 171.495 113.444 170.866 112.722 170.5C111.527 169.898 110.011 169.923 108.706 169.781C106.938 169.592 105.169 169.428 103.395 169.317C103.175 169.381 102.922 169.398 102.65 169.351C102.387 169.304 102.124 169.269 101.861 169.235C101.799 169.235 101.732 169.235 101.67 169.23C102.038 169.286 102.406 169.338 102.774 169.385C102.984 169.571 101.521 171.081 101.388 171.258C97.1952 176.66 93.6434 182.707 91.1575 189.272L89.862 184.709C82.9209 170.948 63.9809 177.706 65.1569 193.524C65.6349 199.955 69.3015 204.832 73.3362 209.089C76.1184 212.025 80.5976 217.383 84.0586 218.856C91.5161 222.024 100.197 222.73 108.114 223.285C123.205 224.335 138.517 224.503 153.518 222.42C156.205 222.045 162.567 221.309 164.494 219.2C165.139 218.494 165.111 217.362 164.475 216.647C163.055 215.055 157.577 214.022 155.478 213.643V213.656ZM78.1692 211.177L72.8677 205.869C68.876 201.371 65.9504 194.949 67.2985 188.536C68.6083 182.294 74.4213 182.479 78.1644 186.181C79.2687 187.274 80.3108 188.876 81.0948 190.257C84.0825 195.513 85.3541 201.806 89.1737 206.506L78.1692 211.172V211.177ZM89.6756 217.577C88.4088 217.956 87.424 217.926 86.1525 217.581C83.5567 216.88 81.1474 214.84 79.4073 212.7L90.2971 208.219C90.4118 208.219 90.4978 208.271 90.5839 208.349C91.0619 208.792 92.2236 211.603 92.4004 212.343C93.1318 215.382 92.3765 216.759 89.6756 217.573V217.577ZM95.785 201.345L96.8223 205.508C97.0852 208.753 97.2812 212.804 94.5851 214.939C94.4799 212.967 94.0019 210.966 93.151 209.222C91.7169 206.27 89.231 203.932 87.8017 200.941C84.5032 194.049 82.5098 183.732 74.2492 182.019C74.1202 181.993 73.9672 181.795 73.9242 181.795H71.7443C71.6917 181.515 71.8256 181.519 71.9785 181.403C75.2053 178.95 80.1769 178.584 83.6523 180.542C86.7022 182.26 88.2654 185.329 89.1259 188.833C89.8382 191.734 89.5274 194.368 91.54 196.714C91.9081 197.14 93.8107 198.982 93.9254 197.566C93.9493 197.295 92.6681 195.672 92.41 195.186C91.9702 194.355 91.7408 193.554 91.4109 192.681C92.759 191.768 94.6759 192.818 95.7706 193.826C97.7258 195.625 99.8722 199.938 98.1943 202.555C97.4629 202.693 96.7745 200.162 95.7802 201.345H95.785ZM147.375 217.173C142.681 219.79 133.775 220.887 129.071 217.986C124.883 215.399 125.328 208.908 128.698 205.719C132.446 202.176 138.517 202.396 142.819 204.561C143.36 204.832 145.836 206.782 146.18 206.437C145.783 204.513 143.537 202.942 141.983 202.159C141.486 201.909 139.674 201.324 139.507 201.117C138.962 200.454 139.129 198.659 139.798 198.087C139.989 198.027 141.663 199.378 142.102 199.576C144.373 200.596 148.111 200.218 149.589 197.837C150.726 196.004 149.665 194.441 148.422 193.18C152.911 192.9 154.732 197.063 151.668 200.76C151.324 201.178 150.76 201.664 150.31 201.939C149.479 202.447 148.15 202.499 148.441 203.82C148.771 204.397 151.023 203.36 151.477 203.067C152.419 202.465 153.599 201.109 154.149 200.076C154.436 199.538 154.57 198.728 154.78 198.315C155.076 197.734 155.741 198.487 156.013 198.789C161.033 204.427 151.897 214.637 147.366 217.164L147.375 217.173Z" fill="black"/>
<path d="M81.6447 166.88C81.0472 166.794 80.4544 166.682 79.876 166.54C80.4592 166.729 81.1332 166.828 81.6447 166.88Z" fill="black"/>
<path d="M55.6392 130.41C62.3079 136.72 70.621 138.235 72.8152 138.377C72.9969 138.39 75.0573 138.511 77.7916 138.584C78.394 138.601 78.8768 138.61 79.1732 138.614C79.5795 134.804 80.0145 131.004 80.4735 127.203C80.3253 127.22 80.1149 127.246 79.8568 127.272C77.9112 127.47 74.0342 127.862 69.7558 126.316C68.8666 125.998 64.3252 124.173 61.1797 119.791C60.6443 119.046 60.1471 118.099 59.7982 117.264C60.912 115.986 62.6473 114.027 62.9102 112.392C63.0393 111.582 63.0345 109.137 62.8385 108.367C62.5565 107.261 61.5335 107.11 61.0937 106.193C61.7629 104.708 62.4704 102.922 62.6999 101.334C63.2018 97.8902 62.3222 94.7437 61.7008 91.4035C61.2132 88.7778 60.9981 83.5695 57.7283 82.4246C57.3124 82.2782 56.581 82.5236 56.6814 82.0544L60.2858 74.6121C60.7065 73.4973 60.8738 71.8918 60.195 70.8329C59.4253 69.6277 57.451 69.3005 56.2224 68.6463C46.4513 63.4423 36.7518 57.9886 27.0715 52.6598C26.0485 52.1002 24.9538 51.2394 23.9164 50.7315C21.3398 49.4746 20.3933 51.5751 19.4611 53.2409C16.6311 58.2942 14.3795 63.6446 11.7407 68.7797C8.98719 74.1343 5.26325 79.984 2.92085 85.3903C2.34242 86.7203 1.93608 87.7706 2.80612 89.1222C3.62357 90.4049 5.79388 90.973 7.07025 91.6488C11.669 94.0851 16.2152 96.8657 20.7374 99.3149C21.6887 99.8314 23.0368 100.12 23.7348 100.877L25.8668 101.915L26.8133 105.935C29.0888 111.466 33.1569 114.591 39.0321 116.644C39.185 116.696 39.185 116.959 39.3476 116.993C39.6774 117.07 40.1316 116.911 40.4566 117.088L40.6574 117.286C39.1038 119.851 42.039 123.084 44.9263 123.372C46.4895 123.527 48.3013 123.363 49.8215 123.075C51.5137 125.563 53.4068 128.288 55.644 130.401L55.6392 130.41ZM6.96986 88.7132C6.5205 88.4636 4.99077 88.0116 4.85691 87.6458L22.0282 53.4906C22.4919 52.7201 23.5101 53.426 24.1268 53.7402C28.7829 56.0904 33.3004 59.0088 37.8704 61.5096C44.0945 64.9144 50.7106 68.1254 56.7435 71.7196C57.2693 72.0338 57.8478 72.2361 58.3736 72.5288L51.8962 86.277C51.1791 86.4491 51.3225 85.98 50.9401 85.7432C50.4907 85.4677 48.2391 84.3271 47.7898 84.2668C46.5469 84.099 44.4674 83.901 43.779 84.9641C43.5735 84.3228 44.1519 84.1076 44.3527 83.703C46.2887 79.8462 48.3156 76.0326 50.3473 72.2189L50.2469 71.4097C49.3673 70.9749 48.3491 70.6047 47.4886 70.1399C40.1316 66.1626 32.7458 61.346 25.2215 57.7261C23.9403 57.1105 23.5196 56.891 22.7691 58.0962C20.8044 61.2556 19.1217 65.5815 17.3673 68.9777C14.9579 73.6393 12.2809 78.2321 9.96239 82.9282C9.64689 83.5652 8.32271 85.9584 8.62866 86.4276L34.5624 100.486L35.4276 100.215L40.0264 91.7091C40.275 94.6188 42.3592 97.0078 44.8259 98.751L40.7243 106.865C39.7396 107.149 39.5962 106.503 39.252 106.331C28.3622 100.942 17.5632 94.5801 6.97464 88.7132H6.96986ZM42.8277 119.451C41.7665 116.369 45.6864 118.345 47.2448 116.941C48.1005 116.167 47.4934 115.142 46.5517 114.987C45.1367 114.755 43.1241 114.953 41.6135 114.737C37.1677 114.109 32.1674 110.519 30.1596 106.865C29.629 105.896 29.3613 104.833 28.7829 103.886C29.0219 103.727 30.5755 104.523 30.9054 104.695C33.984 106.305 36.6706 108.152 40.0742 109.331C40.2367 109.387 40.1602 109.663 40.5427 109.706C41.0829 109.766 42.3688 108.888 42.7273 108.47C43.258 107.855 43.9894 106.31 44.4387 105.513C44.6586 105.122 44.5056 104.381 45.2275 104.446C45.2896 105.586 46.0449 107.256 46.805 108.182C47.3022 108.789 48.6837 110.084 49.5585 109.65C50.8301 107.988 49.5251 107.734 48.6789 106.684C46.5564 104.05 47.6703 100.632 47.6894 97.6405C47.5173 97.1326 46.3174 96.8055 45.8728 96.4654C43.5018 94.6662 41.7282 91.8899 42.7512 89.0059C43.5304 86.8107 46.2648 86.2124 48.3969 87.267C48.8319 87.4822 51.399 89.8195 51.8245 90.2671C52.4841 90.9687 53.555 92.3547 54.0856 93.1984C54.6114 94.0335 55.5054 96.3664 56.0456 96.87C56.5905 97.3736 57.8 97.266 57.9338 96.474C58.2684 94.5414 54.4298 90.2585 53.5693 88.4248C54.143 87.5166 54.4824 86.3157 55.0034 85.4204C55.2568 84.9857 55.6822 84.1893 56.2224 84.4519C56.2607 84.4691 56.2846 84.7059 56.4137 84.7704C58.3736 85.7561 58.1872 86.1564 58.7082 88.1063C60.9025 96.3492 61.7342 102.814 55.5819 109.645C55.1086 110.171 54.3294 109.985 54.6019 111.285C54.8983 112.702 56.7578 112.056 57.4175 111.204L59.9081 108.389C60.5678 109.538 60.6156 111.479 60.1232 112.697C59.5257 114.174 57.3936 116.309 56.0503 117.273C54.3963 118.461 51.0835 120.157 49.0279 120.518C47.4838 120.789 43.4205 121.185 42.8229 119.451H42.8277Z" fill="black"/>
<path d="M257.344 95.8193L241.411 54.8761C240.416 53.4901 237.108 54.5318 235.756 55.0569C225.846 58.905 216.06 63.1018 206.366 67.2125C204.979 67.8022 203.158 68.0088 202.321 69.3776C201.604 70.5527 201.886 71.5384 202.192 72.7393C202.67 74.6117 203.727 77.0824 204.439 78.9634C206.155 83.5045 208.182 87.9768 210.075 92.4576C210.415 93.8135 208.507 94.924 207.666 95.9269C206.098 97.795 204.1 100.464 203.306 102.681C202.317 105.444 202.192 108.457 202.809 111.302C199.941 113.093 199.032 115.891 200.022 118.917C200.309 119.79 201.442 121.099 201.098 121.865C199.721 124.934 194.529 128.606 191.097 129.544C190.27 129.772 189.763 129.975 188.974 130.104C185.408 130.698 183.118 129.424 179.667 128.709C177.975 128.36 175.556 128.046 172.463 128.283C172.119 131.477 171.784 134.675 171.459 137.873L173.997 139.108C175.589 139.935 177.229 140.684 178.969 141.23C179.103 141.274 179.222 141.321 179.337 141.377C179.715 141.472 180.269 141.601 180.943 141.73C188.272 143.094 194.405 140.985 196.241 140.4C201.298 138.79 205.419 135.269 208.913 131.705L210.577 129.445C211.132 129.183 212.088 130.082 212.188 130.108C213.249 130.371 215.224 130.612 216.29 130.482C217.929 130.28 219.626 128.373 220.167 127.039C220.348 126.591 220.496 125.123 220.769 124.956C222.093 124.839 223.384 124.715 224.655 124.34C229.235 122.984 233.92 119.429 236.473 115.667C238.619 112.512 239.671 109.055 240.555 105.47C240.78 105.276 241.224 105.306 241.444 105.181C243.457 104.036 246.531 102.857 248.739 101.957C250.632 101.187 254.198 100.283 255.805 99.379C257.019 98.6947 257.788 97.0934 257.334 95.8193H257.344ZM235.885 111.565C234.379 114.617 231.3 118.232 228.145 119.958C226.773 120.707 222.409 122.438 220.893 122.438H214.334C213.837 123.372 214.989 124.452 215.945 124.641C216.954 124.844 218.785 124.426 218.202 126.01C217.666 127.461 215.754 127.87 214.244 127.676C210.18 127.159 204.812 123.178 202.976 119.829C201.925 117.905 201.322 115.383 203.602 114.01C204.214 114.47 204.363 115.249 204.759 115.787C205.247 116.446 208.091 120.212 209.023 118.508C209.788 117.117 208.268 116.394 207.671 115.602C204.539 111.427 203.913 106.623 206.318 102.018C207.561 99.633 209.688 97.6358 211.299 95.4449C213.111 92.9784 214.817 87.9725 219.134 89.1691C220.702 89.6038 222.093 93.6241 222.05 94.9886C222.007 96.4262 221.003 98.6473 220.205 99.8956C219.746 100.614 218.579 102.181 217.992 102.775C217.647 103.124 216.146 104.062 216.032 104.389C215.778 105.112 216.787 106.696 216.983 107.587C217.49 109.839 217.322 112.701 216.414 114.853C215.836 116.218 214.344 117.087 215.788 118.417C216.605 118.865 217.442 117.707 217.738 117.169C218.36 116.058 218.876 114.294 218.905 113.067C219.316 113.015 219.44 113.364 219.846 113.437C221.61 113.743 225.688 111.758 227.49 110.997C229.737 110.041 232.084 108.862 234.264 107.824C234.814 107.562 236.367 107.157 237.123 106.877C237.333 106.8 237.558 106.585 237.644 106.981C237.72 107.338 236.171 110.949 235.87 111.565H235.885ZM254.017 97.5798C253.773 97.7563 253.524 97.8079 253.424 97.8295C251.995 98.148 250.733 98.897 249.356 99.3661C245.861 100.558 234.881 105.388 221.462 110.575C220.965 110.768 220.568 110.919 220.386 110.988C220.057 109.249 218.183 106.567 219.153 104.945C219.368 104.587 221.175 102.302 221.476 102.069C221.95 101.703 223.298 101.325 223.953 101.01C230.789 97.7563 237.907 95.0015 245.006 92.0745C246.234 91.5709 247.926 90.9037 249.079 90.2193C249.169 90.1634 249.389 90.2107 249.518 90.1978C245.933 80.1127 241.874 70.1308 237.749 60.2136L208.383 72.2012C208.024 72.2443 207.522 72.3648 207.25 72.7307C206.858 73.2601 207.169 74.0134 207.326 74.3749C208.474 77.0178 211.787 82.8847 212.561 84.3955C213.168 85.5792 212.771 85.1531 213.45 86.608C213.79 87.3311 214.105 87.9079 213.823 88.3383C213.675 88.5578 213.383 88.4847 213.149 88.7731C212.805 89.1992 212.614 89.8621 211.935 90.2064C211.524 90.2064 210.883 87.895 210.73 87.5463C209.071 83.8187 207.298 79.7855 205.897 75.9676C205.639 75.2573 204.138 71.0692 204.367 70.7464C205.974 69.7779 207.847 69.3776 209.592 68.6458C222.05 63.4246 227.729 61.195 238.327 57.0326C238.877 56.8174 239.317 56.6452 239.546 56.5548L254.662 95.6084C254.71 96.2627 254.648 97.1279 254.017 97.5798Z" fill="black"/>
<path d="M94.4658 50.7442C93.5958 51.4028 92.9026 51.5276 92.0039 52.0011C81.8933 57.3643 71.4386 63.3775 61.0029 68.2845C60.8548 68.3534 60.8309 68.6332 60.5966 68.715C58.8231 69.3391 57.9626 68.4868 57.0591 67.2902C53.7272 60.2483 50.3713 53.2192 46.939 46.2289C44.2524 40.7581 40.5045 34.6545 38.2577 29.119C37.5933 27.4877 37.2443 25.6755 38.9318 24.4316C40.0791 23.5879 43.1242 22.5118 44.5392 21.75C44.6635 21.6854 44.7209 21.3884 44.936 21.2722C54.2721 16.2404 63.6274 11.4022 73.0209 6.435C75.6071 5.38474 76.9265 9.64176 77.7965 11.3334C83.9346 23.2737 89.2982 35.5584 95.5271 47.4729C95.8043 49.1774 95.8665 49.681 94.461 50.7442H94.4658ZM93.113 48.5791L73.7619 9.14245L40.256 26.7L59.1864 66.2184L93.113 48.5791Z" fill="black"/>
<path d="M188.157 10.1286L193.559 12.8102C201.38 17.2695 209.339 21.7891 217.189 26.313C217.724 26.6229 218.862 26.8769 219.407 27.2686C219.952 27.6603 220.75 29.0205 220.779 29.6016C220.812 30.2816 219.373 32.9159 218.957 33.7467C213.503 44.6539 207.403 55.996 201.384 66.6536C200.734 67.8029 200.046 70.407 198.335 70.6222C197.837 70.6825 196.408 70.3855 195.973 70.1487C191.762 67.8889 187.469 65.3365 183.248 62.9906C178.697 60.4596 174.127 57.7349 169.614 55.1652C167.797 54.1322 164.743 52.9356 163.309 51.6529C161.277 49.8364 163.634 47.0859 164.508 45.2781C170.274 33.4023 176.431 21.6858 182.502 9.93918C183.879 7.90752 186.685 8.69091 188.162 10.1286H188.157ZM185.514 11.3941C185.275 11.2864 184.892 11.0626 184.663 11.3037L164.963 49.8063L174.433 55.006C181.732 58.9488 188.707 63.3091 196.064 67.2089C196.403 67.3896 197.814 68.1042 198.086 67.9019L218.063 29.58C217.628 29.4165 217.174 28.9129 216.892 28.745C207.867 23.3215 198.062 18.238 188.779 13.2406C187.736 12.6811 186.608 11.8934 185.518 11.3941H185.514Z" fill="black"/>
<path d="M243.28 123.376L258.659 123.591C258.745 124.31 258.84 125.352 258.855 126.613C258.878 128.244 258.888 129.058 258.592 129.381C257.779 130.263 256.101 129.647 251.292 129.561C250.374 129.544 249.619 129.553 249.107 129.561L248.902 133.496C250.36 133.229 251.431 132.884 252.97 132.927C255.475 132.996 257.048 133.607 258.482 135.463C260.188 137.666 260.231 142.444 259.213 144.932C258.831 145.862 257.535 147.282 256.68 147.898C254.012 149.818 249.213 150.252 245.986 149.336C245.522 149.202 243.084 148.113 242.788 147.902C242.515 147.709 242.195 147.278 242.118 146.99C242.037 146.671 243.055 142.091 243.29 141.936C243.796 142.031 244.293 142.182 244.786 142.35C245.541 142.608 246.077 142.815 246.239 142.879C247.31 143.31 249.71 144.274 251.502 143.421C253.066 142.677 253.501 140.869 253.448 140.193C253.414 139.746 253.228 139.388 253.228 139.388C253.228 139.388 253.022 138.997 252.621 138.674C251.407 137.692 247.965 137.606 246.808 138.459C246.751 138.502 246.636 138.592 246.454 138.639C246.196 138.704 245.775 138.695 244.59 137.843C244.236 137.589 243.777 137.236 243.28 136.775V123.376Z" fill="black"/>
<path d="M203.641 148.742C203.708 148.768 203.751 149.022 203.971 149.103C209.162 150.959 214.889 152.741 219.698 155.043C220.243 155.306 221.371 155.31 222.026 155.715C222.332 155.904 223.374 157.295 223.451 157.617C223.742 158.784 223.068 160.906 222.696 162.107C220.387 169.614 216.644 177.017 214 184.451C212.905 185.596 212.021 186.203 210.243 185.622C209.961 185.527 209.927 185.273 209.793 185.23C204.42 183.547 199.429 181.36 194.286 179.355C192.545 178.674 190.624 178.571 189.453 176.961C188.511 175.67 188.998 174.353 189.395 172.993C191.623 165.408 195.49 157.729 197.966 150.162C199.558 147.847 200.959 147.752 203.631 148.742H203.641ZM204.463 151.751C203.278 151.316 200.969 149.96 200.089 151.312C197.455 158.336 194.529 165.314 192.063 172.386C191.876 172.92 191.135 174.964 191.245 175.334C191.436 175.967 193.368 176.329 193.989 176.591C198.923 178.666 204.014 180.388 209.172 182.406C209.373 182.484 209.401 182.794 209.683 182.923C210.099 183.108 211.476 183.259 211.906 183.125L212.212 182.841C215.004 175.059 218.56 167.5 220.97 159.61C221.496 157.049 218.594 157.105 216.667 156.412C212.671 154.97 208.498 153.24 204.453 151.755L204.463 151.751Z" fill="black"/>
<path d="M229.015 132.368C229.345 132.459 231.386 136.767 231.41 137.43H232.032C232.094 137.189 232.185 136.845 232.318 136.436C232.534 135.756 232.734 135.265 232.892 134.882C233.15 134.253 233.471 133.461 233.906 132.368H239.006C237.577 135.024 236.148 137.68 234.713 140.336L239.327 148.553C239.25 149.306 234.919 149.37 234.106 149.147C232.648 146.056 231.592 143.822 231.496 143.603C231.482 143.572 231.448 143.482 231.348 143.43C231.233 143.37 231.09 143.396 230.985 143.43L228.365 149.25C226.649 148.996 224.995 149.121 223.274 149.237C224.861 146.396 226.453 143.555 228.04 140.714C226.592 137.934 225.138 135.153 223.69 132.372H229.001L229.015 132.368Z" fill="black"/>
<path d="M125.146 4.06796C126.796 4.37357 128.483 4.39939 130.304 4.57157C135.209 5.03644 139.97 5.74666 144.703 6.23306C145.568 6.32345 150.435 6.43106 150.731 6.80554L146.629 50.2668L109.734 46.7329L109.228 46.027C109.577 41.7915 109.835 37.5646 110.217 33.3377C110.896 25.8524 111.804 18.3197 112.502 10.843C112.741 8.30776 112.66 5.76818 113.128 3.25443C115.031 2.99617 116.862 3.50839 118.65 3.62891C120.801 3.77096 123.019 3.67195 125.151 4.06796H125.146ZM127.231 6.87871C126.542 6.59893 119.434 6.36649 118.023 6.25458C117.488 6.21153 115.982 5.71223 115.667 6.11253L112.531 38.2791C112.66 38.4599 115.633 38.8129 116.15 38.8645C122.684 39.5403 129.659 40.2376 136.136 40.9306C138.995 41.2362 141.911 41.714 144.784 41.5849C145.038 41.4557 145.143 41.2663 145.195 41.0167C145.43 39.8717 145.281 38.1112 145.41 36.9017C146.214 29.3734 147.093 21.7848 147.696 14.222C147.825 12.5906 147.92 10.9205 147.877 9.28486C147.605 8.88885 142.188 8.95772 141.185 8.68655C137.231 7.62767 130.787 8.32498 127.235 6.88302L127.231 6.87871Z" fill="#FFF6E5"/>
<path d="M150.444 79.506C151.338 79.5663 152.232 79.6309 153.121 79.6997C151.329 78.9766 149.483 78.3654 147.562 77.9134C146.486 77.6594 145.425 77.5045 144.368 77.3926C146.41 78.021 148.432 78.7571 150.444 79.5103V79.506Z" fill="white"/>
<path d="M143.264 72.8555C143.943 72.9071 144.617 72.9889 145.291 73.0836C144.641 72.9631 143.991 72.8469 143.336 72.7393C143.312 72.778 143.288 72.821 143.264 72.8598V72.8555Z" fill="white"/>
<path d="M137.188 172.932C139.717 173.07 142.432 173.092 144.736 173.475C143.718 172.739 142.342 172.196 141.553 172.024C139.903 171.667 138.508 172.067 137.188 172.932Z" fill="white"/>
<path d="M214.334 122.438C213.837 123.372 214.989 124.452 215.945 124.642C216.954 124.844 218.785 124.426 218.202 126.01C217.666 127.461 215.754 127.87 214.244 127.676C210.18 127.16 204.812 123.178 202.976 119.829C201.924 117.905 201.322 115.383 203.602 114.01C204.214 114.47 204.362 115.249 204.759 115.787C205.247 116.446 208.091 120.212 209.023 118.508C209.788 117.118 208.268 116.394 207.671 115.602C204.539 111.427 203.913 106.623 206.318 102.018C207.561 99.6331 209.688 97.6359 211.299 95.445C213.111 92.9786 214.817 87.9726 219.134 89.1692C220.702 89.604 222.093 93.6242 222.05 94.9887C222.007 96.4264 221.003 98.6474 220.205 99.8957C219.746 100.615 218.579 102.181 217.991 102.775C217.647 103.124 216.146 104.062 216.031 104.389C215.778 105.113 216.787 106.697 216.983 107.588C217.489 109.839 217.322 112.701 216.414 114.853C215.835 116.218 214.344 117.087 215.788 118.417C216.605 118.865 217.442 117.707 217.738 117.169C218.36 116.059 218.876 114.294 218.905 113.067C219.316 113.015 219.44 113.364 219.846 113.437C221.61 113.743 225.688 111.759 227.49 110.997C229.737 110.041 232.084 108.862 234.264 107.824C234.814 107.562 236.367 107.157 237.123 106.877C237.333 106.8 237.558 106.585 237.644 106.981C237.72 107.338 236.171 110.949 235.87 111.565C234.364 114.617 231.286 118.232 228.131 119.958C226.759 120.707 222.394 122.438 220.879 122.438H214.32H214.334Z" fill="white"/>
<path d="M253.424 97.8336C252.912 98.1091 250.207 99.0302 249.356 99.3703C240.048 103.089 230.636 106.507 221.462 110.579C221.137 110.721 221.175 111.259 220.386 110.992C220.057 109.253 218.183 106.572 219.153 104.949C219.368 104.591 221.175 102.306 221.476 102.073C221.95 101.708 223.298 101.329 223.953 101.015C230.789 97.7604 237.907 95.0057 245.006 92.0787C246.234 91.5751 247.926 90.9079 249.078 90.2235C249.169 90.1675 249.389 90.2149 249.518 90.202C245.933 80.1168 241.874 70.135 237.749 60.2177L208.383 72.2054C207.929 72.5627 208.082 72.8984 208.172 73.3504C208.794 76.4409 211.375 81.2015 212.561 84.3997C212.814 85.0798 212.939 85.9665 213.187 86.6509C213.364 87.1373 214.124 87.8604 213.823 88.3382C213.684 88.562 213.283 88.6051 213.149 88.7729C212.805 89.1991 212.613 89.8619 211.935 90.2063C211.524 90.2063 210.883 87.8948 210.73 87.5462C209.071 83.8186 207.298 79.7854 205.897 75.9674C205.639 75.2572 204.138 71.069 204.367 70.7462C205.973 69.7777 207.847 69.3774 209.592 68.6457C219.105 64.6555 228.661 60.773 238.327 57.0325C238.643 56.9077 238.715 56.1243 239.546 56.5547L254.662 95.6083L254.853 96.9512C254.533 97.231 254.079 97.2439 253.706 97.4419C253.572 97.5108 253.529 97.7734 253.424 97.8336Z" fill="#FFF6E5"/>
<path d="M56.2273 84.4475C56.2655 84.4647 56.2894 84.7014 56.4185 84.766C58.3785 85.7517 58.192 86.152 58.7131 88.1019C60.9073 96.3447 61.7391 102.81 55.5867 109.641C55.1135 110.166 54.3343 109.981 54.6067 111.281C54.9031 112.697 56.7627 112.051 57.4224 111.199L59.913 108.384C60.5727 109.533 60.6205 111.475 60.1281 112.693C59.5306 114.169 57.3985 116.304 56.0552 117.268C54.4012 118.456 51.0884 120.152 49.0328 120.514C47.4887 120.785 43.4254 121.181 42.8278 119.446C41.7666 116.364 45.6865 118.34 47.2449 116.937C48.1006 116.162 47.4935 115.138 46.5517 114.983C45.1367 114.75 43.1242 114.948 41.6136 114.733C37.1678 114.105 32.1675 110.515 30.1597 106.86C29.6291 105.892 29.3614 104.829 28.783 103.882C29.022 103.722 30.5756 104.519 30.9055 104.691C33.984 106.301 36.6706 108.147 40.0743 109.327C40.2368 109.383 40.1603 109.658 40.5428 109.701C41.083 109.761 42.3689 108.883 42.7274 108.466C43.258 107.85 43.9894 106.305 44.4388 105.509C44.6587 105.117 44.5057 104.377 45.2276 104.441C45.2897 105.582 46.045 107.252 46.8051 108.177C47.3023 108.784 48.6838 110.08 49.5586 109.645C50.8302 107.984 49.5252 107.73 48.679 106.68C46.5565 104.045 47.6704 100.628 47.6895 97.6361C47.5174 97.1281 46.3175 96.801 45.8729 96.461C43.5018 94.6617 41.7283 91.8854 42.7513 89.0015C43.5305 86.8063 46.2649 86.2079 48.397 87.2625C48.832 87.4777 51.3991 89.815 51.8245 90.2627C52.4842 90.9643 53.555 92.3503 54.0857 93.1939C54.6163 94.0376 55.5055 96.362 56.0456 96.8656C56.5858 97.3692 57.8001 97.2616 57.9339 96.4696C58.2685 94.5369 54.4299 90.2541 53.5694 88.4204C54.143 87.5122 54.4824 86.3112 55.0035 85.4159C55.2569 84.9812 55.6823 84.1849 56.2225 84.4475H56.2273Z" fill="white"/>
<path d="M24.1267 53.7359C28.7829 56.0861 33.3003 59.0044 37.8704 61.5053C44.0945 64.91 50.7106 68.1211 56.7435 71.7153C57.2693 72.0295 57.8478 72.2318 58.3736 72.5245L51.8961 86.2726C51.1791 86.4448 51.3225 85.9757 50.9401 85.7389C50.4907 85.4634 48.2391 84.3228 47.7898 84.2625C46.5469 84.0946 44.4674 83.8966 43.779 84.9598C43.5734 84.3185 44.1519 84.1032 44.3527 83.6986C46.2887 79.8419 48.3156 76.0282 50.3473 72.2146L50.2469 71.4053C49.3673 70.9706 48.3491 70.6004 47.4886 70.1356C40.1315 66.1583 32.7458 61.3417 25.2214 57.7217C23.9403 57.1062 23.5196 56.8867 22.7691 58.0919C20.8043 61.2513 19.1216 65.5772 17.3672 68.9734C14.9579 73.635 12.2809 78.2278 9.96237 82.9238C9.64687 83.5609 8.32269 85.9541 8.62864 86.4233L34.5624 100.481L35.4276 100.21L40.0312 91.7048C40.2797 94.6145 42.364 97.0035 44.8307 98.7467L40.7291 106.86C39.7443 107.145 39.6009 106.499 39.2567 106.327C28.367 100.938 17.568 94.5758 6.9794 88.7089C6.53004 88.4593 5.00031 88.0073 4.86646 87.6414L22.0377 53.4862C22.5014 52.7158 23.5196 53.4217 24.1363 53.7359H24.1267Z" fill="#FFF6E5"/>
<path d="M93.1129 48.5792L59.1863 66.2186L40.2559 26.7001L73.7618 9.14258L93.1129 48.5792ZM72.5093 12.8142L43.6595 28.1679C43.5113 28.7791 44.3575 30.3804 44.6634 31.0346C48.4208 39.1053 52.8379 47.0684 56.9347 55.0315C57.169 55.4835 57.5036 57.0459 58.0725 57.2052C58.9568 57.4549 59.1098 56.7274 59.5353 56.5165C67.987 52.3068 76.6826 48.0412 84.8667 43.4183C85.3447 43.1471 86.6402 42.8975 86.8505 42.2862L72.5093 12.8099V12.8142Z" fill="#FFF6E5"/>
<path d="M185.513 11.3934C186.603 11.897 187.736 12.6804 188.774 13.2399C198.057 18.2373 207.862 23.3251 216.887 28.7443C217.169 28.9165 217.623 29.4201 218.058 29.5793L198.081 67.9012C197.808 68.1035 196.398 67.3889 196.059 67.2082C188.702 63.3084 181.727 58.9481 174.428 55.0053L164.958 49.8056L184.658 11.303C184.887 11.0619 185.274 11.2858 185.509 11.3934H185.513ZM187.951 15.9345C187.86 15.8914 187.803 15.6332 187.66 15.5514C187.277 15.3319 185.829 15.0263 185.566 15.362C182.334 21.5259 179.261 27.7586 176.048 33.9311C174.891 36.1564 173.5 38.3215 172.367 40.5512C172.013 41.2442 171.033 42.9745 171.258 43.603C171.636 44.1669 172.558 44.3132 173.17 44.6963C179.949 48.9662 187.244 52.5044 194.214 56.5032C194.883 56.8863 196.14 58.0097 196.781 58.3541C197.082 58.5176 198.984 59.2838 199.209 59.2494L214.459 30.6038C214.354 30.1045 212.284 29.4803 211.681 29.1704C203.65 24.9952 196.131 20.0624 187.956 15.9345H187.951Z" fill="#FFF6E5"/>
<path d="M204.463 151.751C208.507 153.236 212.676 154.966 216.677 156.408C218.603 157.101 221.505 157.049 220.979 159.606C218.57 167.496 215.013 175.055 212.222 182.837L211.916 183.121C211.485 183.254 210.109 183.104 209.693 182.919C209.406 182.789 209.382 182.484 209.181 182.402C204.023 180.383 198.932 178.662 193.999 176.587C193.377 176.324 191.446 175.963 191.255 175.33C191.145 174.96 191.886 172.915 192.072 172.382C194.534 165.309 197.46 158.328 200.098 151.307C200.978 149.956 203.287 151.307 204.473 151.746L204.463 151.751ZM204.678 154.742C203.961 154.467 203.201 154.325 202.527 153.946C202.355 153.907 202.259 154.002 202.14 154.088C201.753 154.355 199.2 160.794 198.817 161.788C197.823 164.371 196.939 167.031 196.112 169.661C195.94 170.203 195.347 170.69 195.576 171.422L211.079 177.31C211.361 177.241 211.442 177.026 211.576 176.828C212.26 175.795 213.316 172.558 213.852 171.194C214.932 168.452 216.151 165.447 217.102 162.688C217.318 162.073 217.901 160.639 217.781 160.088C217.662 159.537 216.935 159.623 216.467 159.408C212.986 157.785 208.311 156.137 204.678 154.742Z" fill="#FFF6E5"/>
<path d="M127.231 6.87813C130.783 8.32009 137.227 7.62278 141.18 8.68166C142.184 8.95283 147.6 8.88396 147.872 9.27997C147.92 10.9156 147.82 12.5857 147.691 14.2171C147.089 21.7799 146.209 29.3685 145.406 36.8968C145.277 38.1063 145.42 39.8668 145.191 41.0118C145.138 41.2615 145.033 41.4508 144.78 41.58C141.907 41.7091 138.99 41.2313 136.132 40.9257C129.654 40.2327 122.68 39.5354 116.145 38.8596C115.629 38.808 112.655 38.455 112.526 38.2742L115.662 6.10764C115.978 5.71164 117.483 6.20665 118.019 6.24969C119.429 6.3616 126.538 6.59404 127.226 6.87382L127.231 6.87813Z" fill="black"/>
<path d="M72.5094 12.8145L86.8506 42.2908C86.6403 42.902 85.3448 43.1517 84.8667 43.4228C76.6875 48.0457 67.9871 52.3114 59.5353 56.521C59.1147 56.732 58.9569 57.4594 58.0725 57.2098C57.5037 57.0505 57.1643 55.488 56.9348 55.036C52.838 47.073 48.4209 39.1099 44.6635 31.0392C44.3575 30.3806 43.5114 28.7837 43.6596 28.1725L72.5094 12.8188V12.8145Z" fill="black"/>
<path d="M187.951 15.9345C196.131 20.0624 203.65 24.9952 211.677 29.1704C212.279 29.4847 214.349 30.1088 214.454 30.6038L199.205 59.2494C198.98 59.2881 197.077 58.5177 196.776 58.3541C196.136 58.0097 194.878 56.8863 194.209 56.5032C187.239 52.5044 179.944 48.9663 173.166 44.6963C172.559 44.3132 171.636 44.1669 171.253 43.603C171.034 42.9746 172.014 41.2442 172.363 40.5512C173.496 38.3215 174.887 36.1564 176.043 33.9311C179.256 27.7586 182.33 21.5259 185.561 15.362C185.824 15.0263 187.268 15.3319 187.655 15.5514C187.798 15.6332 187.856 15.8871 187.947 15.9345H187.951Z" fill="black"/>
<path d="M204.678 154.742C208.311 156.132 212.987 157.781 216.467 159.408C216.935 159.628 217.657 159.529 217.781 160.088C217.906 160.648 217.318 162.072 217.102 162.688C216.146 165.443 214.932 168.447 213.852 171.193C213.316 172.554 212.26 175.795 211.576 176.828C211.447 177.026 211.366 177.241 211.079 177.31L195.576 171.422C195.347 170.69 195.94 170.203 196.112 169.661C196.943 167.031 197.823 164.371 198.817 161.788C199.2 160.79 201.753 154.355 202.14 154.088C202.259 154.006 202.355 153.911 202.527 153.946C203.196 154.32 203.961 154.467 204.678 154.742Z" fill="black"/>
<path d="M115.485 143.68C115.189 143.942 114.792 144.102 114.3 144.071C113.736 144.037 113.191 143.955 112.65 143.843C114.892 144.734 117.56 145.083 119.697 145.307C119.821 145.32 119.945 145.328 120.07 145.341C118.908 144.747 117.655 144.291 116.489 143.951C116.169 143.856 115.829 143.766 115.485 143.68Z" fill="white"/>
<path d="M172.133 182.574C156.482 178.842 138.617 175.412 118.798 172.971C100.121 170.673 82.8779 169.644 67.4658 169.377C68.3741 150.67 70.3102 130.25 73.8046 108.431C76.6872 90.4175 80.2869 73.6219 84.2451 58.1562C100.556 58.7804 118.435 60.1234 137.594 62.5639C156.233 64.9356 173.39 68.0004 188.912 71.3535C184.844 85.5794 181.13 101.256 178.228 118.263C174.227 141.739 172.515 163.364 172.133 182.57V182.574Z" fill="#FFF6E5" stroke="black" stroke-width="2" stroke-miterlimit="10"/>
<path d="M164.441 153.877C151.558 150.674 136.677 147.734 120.051 145.75C105.336 143.994 91.7697 143.284 79.6609 143.189C79.9812 131.761 80.9659 119.033 83.0502 105.272C85.1201 91.5967 87.9262 79.17 90.9857 68.1465C103.477 68.3918 117.35 69.2441 132.327 71.0778C148.403 73.0492 162.945 75.8126 175.766 78.8342C172.759 89.5392 170.001 101.57 167.946 114.797C165.737 129.023 164.733 142.152 164.441 153.877Z" fill="white" stroke="black" stroke-width="2" stroke-miterlimit="10"/>
<path d="M108.248 115.012C109.142 115.787 109.041 116.51 107.851 116.743C106.79 116.945 106.173 116.347 107.158 117.853C109.419 121.314 116.312 123.987 120.266 124.232C127.293 124.667 132.781 122.351 137.948 117.69C137.523 116.881 133.579 116.829 135.185 115.542C136.653 114.362 139.688 115.335 141.032 116.381C142.485 117.509 143.255 119.394 143.164 121.249C142.217 121.598 139.583 118.495 139.091 118.934C137.542 124.461 135.577 129.794 131.108 133.577C123.497 140.017 110.647 135.691 108.821 125.756C108.644 124.796 108.764 123.63 108.616 122.825C108.525 122.343 106.833 121.064 106.345 120.501C105.585 119.618 104.935 118.482 104.361 117.466C103.831 117.152 100.924 120.023 102.095 117.023C102.913 114.935 106.479 113.489 108.248 115.017V115.012ZM133.23 127.37H130.376C129.085 127.37 126.064 129.01 124.927 129.781C124.205 130.271 123.999 130.964 122.799 130.68C124.224 128.511 120.27 129.286 119.243 129.639C118.621 129.85 115.519 131.834 115.963 132.492C117.001 132.833 118 133.444 119.047 133.745C123.875 135.144 128.349 133.491 131.595 129.764C131.81 129.518 133.393 127.517 133.23 127.37Z" fill="black"/>
<path d="M152.519 80.3927C154.044 81.5075 157.06 86.2337 156.009 88.033C155.124 89.5481 154.307 86.4145 153.967 85.7861C152.576 83.2293 149.675 80.8404 146.649 81.1761C145.764 81.2751 144.799 81.7744 143.885 81.8347C142.939 80.2033 145.869 78.9723 147.122 78.8474C148.895 78.6666 151.08 79.3467 152.519 80.397V80.3927Z" fill="black"/>
<path d="M118.067 82.5194C118.764 83.3028 118.932 83.815 118.808 84.9083C118.707 85.0202 116.47 83.7074 116.126 83.5782C112.684 82.3085 109.39 83.221 106.747 85.6486C106.302 86.0576 105.623 87.5254 105.317 86.1092C105.073 84.9858 106.809 83.122 107.64 82.4204C110.389 80.1089 115.552 79.6785 118.067 82.5151V82.5194Z" fill="black"/>
<path d="M133.23 127.371C133.393 127.522 131.81 129.519 131.595 129.764C128.349 133.492 123.875 135.145 119.047 133.746C117.995 133.44 117.001 132.833 115.963 132.493C115.519 131.835 118.626 129.85 119.243 129.639C120.266 129.287 124.224 128.512 122.799 130.681C123.999 130.97 124.205 130.272 124.927 129.782C126.064 129.011 129.086 127.371 130.376 127.371H133.23Z" fill="#D2797B"/>
<path d="M106.053 105.974C103.874 100.21 107.282 89.3462 115.609 88.5972C123.942 87.8483 124.797 100.959 121.408 105.457C121.537 105.776 126.91 106.602 127.317 109.577C127.388 110.123 126.772 111.54 126.045 110.868C125.271 109.577 125.352 108.436 123.741 107.605C120.925 106.15 117.177 107.653 116.704 110.532C116.47 111.97 117.158 112.977 116.26 114.225C114.194 113.33 114.171 111.544 114.615 110.3C114.873 109.577 115.672 108.785 114.974 108.255L101.823 107.506" fill="black"/>
<path d="M121.026 95.2772C120.715 93.6673 118.592 91.6313 116.565 91.4463C108.907 90.7533 105.164 102.556 107.669 106.994L109.868 106.912C109.686 104.458 110.796 101.777 112.268 99.5944L114.983 99.5471L114.362 97.1926C116.126 95.8453 118.607 95.0835 121.021 95.2685L121.026 95.2772Z" fill="black"/>
<path d="M149.397 113.713C148.881 114.462 143.757 111.806 142.609 111.488C138.183 110.257 133.445 110.532 128.861 110.752C128.082 108.63 132.221 109.633 132.585 109.125C130.658 103.563 134.397 90.6288 142.939 91.2271C152.156 91.8771 151.209 106.667 146.381 111.402C147.461 112.09 149.235 112.301 149.402 113.709L149.397 113.713ZM148.011 98.3336C143.69 90.1424 135.898 96.2202 134.196 102.397C133.522 104.846 133.675 107.429 134.258 109.835L136.404 109.921C137.059 107.631 137.384 101.454 141.543 102.711L140.922 100.357C143.054 98.9491 145.205 97.688 148.011 98.3379V98.3336Z" fill="black"/>
<path d="M121.026 95.2777C118.612 95.0926 116.131 95.8545 114.367 97.2017L114.988 99.5562L112.273 99.6036C110.8 101.786 109.691 104.468 109.873 106.921L107.674 107.003C105.169 102.565 108.912 90.7581 116.57 91.4554C118.597 91.6405 120.72 93.6764 121.03 95.2863L121.026 95.2777Z" fill="white"/>
<path d="M148.011 98.3333C145.21 97.6833 143.054 98.9445 140.922 100.352L141.543 102.707C137.384 101.454 137.059 107.626 136.404 109.916L134.258 109.83C133.675 107.424 133.522 104.846 134.196 102.392C135.898 96.2155 143.69 90.1335 148.011 98.329V98.3333Z" fill="white"/>
<path d="M133.641 111.47C133.866 111.246 134.272 111.186 134.564 111.35C134.86 111.518 134.927 111.858 134.736 112.103C134.521 112.378 134.043 112.464 133.732 112.266C133.436 112.081 133.397 111.711 133.646 111.47H133.641Z" fill="black"/>
<path d="M130.582 109.606C130.758 109.468 131.041 109.468 131.217 109.615C131.399 109.77 131.404 110.024 131.241 110.183C131.064 110.359 130.73 110.372 130.543 110.196C130.366 110.028 130.381 109.757 130.577 109.606H130.582Z" fill="black"/>
<path d="M128.588 110.278C128.765 110.14 129.047 110.14 129.224 110.287C129.406 110.442 129.41 110.696 129.248 110.855C129.071 111.031 128.736 111.044 128.55 110.868C128.373 110.7 128.387 110.429 128.583 110.278H128.588Z" fill="black"/>
<path d="M138.842 112.03C139.067 111.806 139.473 111.746 139.765 111.909C140.061 112.077 140.128 112.417 139.937 112.662C139.722 112.938 139.244 113.024 138.933 112.826C138.637 112.641 138.599 112.271 138.847 112.03H138.842Z" fill="black"/>
<path d="M136.227 113.218C136.452 112.994 136.858 112.934 137.15 113.098C137.446 113.266 137.513 113.606 137.322 113.851C137.107 114.126 136.629 114.213 136.318 114.015C136.022 113.829 135.984 113.459 136.232 113.218H136.227Z" fill="black"/>
<path d="M105.695 108.935C105.92 108.711 106.326 108.651 106.617 108.815C106.914 108.982 106.981 109.322 106.79 109.568C106.574 109.843 106.096 109.929 105.786 109.731C105.489 109.546 105.451 109.176 105.7 108.935H105.695Z" fill="black"/>
<path d="M110.413 108.763C110.638 108.539 111.044 108.479 111.336 108.643C111.632 108.811 111.699 109.151 111.508 109.396C111.293 109.671 110.815 109.757 110.504 109.559C110.208 109.374 110.169 109.004 110.418 108.763H110.413Z" fill="black"/>
<path d="M107.956 110.859C108.181 110.635 108.587 110.575 108.879 110.738C109.175 110.906 109.242 111.246 109.051 111.492C108.836 111.767 108.358 111.853 108.047 111.655C107.751 111.47 107.712 111.1 107.961 110.859H107.956Z" fill="black"/>
<path d="M151.678 200.76C151.334 201.178 150.77 201.664 150.32 201.94C149.488 202.447 148.159 202.499 148.451 203.821C148.781 204.397 151.032 203.36 151.487 203.067C152.428 202.465 153.609 201.109 154.159 200.076C154.446 199.538 154.579 198.729 154.79 198.315C155.086 197.734 155.751 198.487 156.023 198.789C161.043 204.428 151.907 214.637 147.375 217.164C142.844 219.691 133.775 220.879 129.071 217.978C124.884 215.391 125.328 208.9 128.698 205.71C132.446 202.168 138.517 202.387 142.82 204.552C143.36 204.824 145.836 206.773 146.18 206.429C145.784 204.505 143.537 202.934 141.983 202.151C141.486 201.901 139.674 201.315 139.507 201.109C138.962 200.446 139.129 198.651 139.798 198.079C139.99 198.018 141.663 199.37 142.103 199.568C144.373 200.588 148.112 200.209 149.589 197.829C150.726 195.995 149.665 194.433 148.422 193.172C152.911 192.892 154.732 197.054 151.668 200.752L151.678 200.76Z" fill="#99B655"/>
<path d="M78.1598 186.182C79.2641 187.275 80.3062 188.876 81.0902 190.258C84.078 195.514 85.3496 201.807 89.1691 206.507L78.1646 211.173L72.8631 205.866C68.8715 201.367 65.9459 194.945 67.294 188.532C68.6038 182.29 74.4168 182.476 78.1598 186.177V186.182Z" fill="#5A4E3D"/>
<path d="M71.7492 181.796C71.6966 181.516 71.8305 181.52 71.9834 181.404C75.2102 178.95 80.1818 178.585 83.6572 180.543C86.7071 182.261 88.2703 185.33 89.1308 188.833C89.843 191.734 89.5323 194.369 91.5449 196.715C91.913 197.141 93.8156 198.983 93.9303 197.567C93.9542 197.296 92.6731 195.673 92.4149 195.187C91.9751 194.356 91.7457 193.555 91.4158 192.681C92.7639 191.769 94.6808 192.819 95.7755 193.826C97.7307 195.626 99.8771 199.939 98.1992 202.556C97.4678 202.693 96.7794 200.162 95.7851 201.346L96.8224 205.508C97.0854 208.754 97.2814 212.804 94.5852 214.939C94.48 212.968 94.002 210.966 93.1511 209.223C91.717 206.27 89.2312 203.933 87.8018 200.941C84.5033 194.05 82.5099 183.733 74.2494 182.019C74.1203 181.994 73.9673 181.796 73.9243 181.796H71.7444H71.7492Z" fill="#99B655"/>
<path d="M90.5841 208.353C91.0621 208.797 92.2237 211.607 92.4006 212.348C93.132 215.387 92.3767 216.764 89.6758 217.577C88.409 217.956 87.4242 217.926 86.1526 217.582C83.5569 216.88 81.1475 214.84 79.4075 212.701L90.2972 208.22C90.412 208.22 90.498 208.271 90.5841 208.349V208.353Z" fill="#5A4E3D"/>
</svg>
