<svg width="223" height="223" viewBox="0 0 223 223" fill="none" xmlns="http://www.w3.org/2000/svg">
<path d="M219.012 69.7369C218.387 68.5983 217.116 67.4038 215.973 67.0081C215.392 66.8065 214.216 66.8289 213.778 66.4966C213.484 66.2726 213.319 65.3319 212.962 64.8952C211.323 62.8831 208.096 62.8943 206.196 64.4659C205.821 64.7757 205.413 65.6791 205.071 65.8545C204.56 66.1196 204.178 65.7276 203.678 65.7538C201.818 65.8545 199.995 67.079 198.731 68.5834C196 71.8311 195.012 76.8222 194.155 81.0666C192.994 80.5328 192.027 79.3942 190.829 78.9425C187.201 77.5763 183.408 79.9243 183.074 84.3368C182.68 89.4734 185.926 93.0086 185.551 98.3319C185.448 99.8065 184.97 101.255 184.886 102.808C184.687 106.444 185.136 108.964 187.187 111.808C184.695 114.892 185.933 119.431 188.194 122.227C186.069 124.388 183.493 126.046 180.545 125.262C178.432 124.698 175.23 121.708 173.635 119.991C173.26 119.588 172.507 118.908 172.474 118.341C171.65 117.938 170.596 117.583 170.357 118.472C170.14 119.282 169.394 119.812 168.585 119.842C168.556 119.842 168.526 119.849 168.497 119.853C167.813 123.112 167.13 126.371 166.442 129.63C166.556 129.977 166.685 130.313 166.843 130.63C167.277 130.731 167.681 130.988 167.946 131.44C168.269 131.981 168.648 132.478 168.982 133.012C168.993 132.967 169 132.922 169.012 132.877C169.056 132.665 169.07 132.526 169.254 132.403C175.116 136.637 182.056 140.493 189.021 137.159C193.174 135.169 196.846 131.112 199.286 126.901C203.156 126.89 208.953 123.683 209.375 118.871C209.441 118.102 209.261 117.299 209.46 116.542C213.021 114.093 215.851 109.374 216.972 104.857C218.255 99.6945 217.608 94.3749 218.167 89.2196C218.821 83.1795 222.14 75.4484 219.009 69.7518L219.012 69.7369ZM206.031 74.9519C206.439 72.9025 206.655 70.5246 207.107 68.5162C207.457 66.9707 207.824 65.6567 209.46 65.7612C212.047 65.9255 211.731 68.1653 211.533 70.3342C211.345 72.3911 210.838 74.5674 210.669 76.6393L208.802 84.7997C208.644 85.0722 208.592 84.9639 208.386 84.9079C207.06 84.5384 205.755 83.6611 204.27 83.6686C204.715 80.7605 205.454 77.8525 206.031 74.9557V74.9519ZM216.381 85.8785C215.204 92.4225 216.476 99.3883 214.293 105.735C212.694 110.386 209.313 114.925 204.792 115.922C203.906 116.116 200.437 115.985 200.15 116.564C199.146 118.613 203.63 118.274 204.494 118.203C205.255 118.139 206.133 117.99 206.821 117.643C207.861 118.356 206.883 120.207 206.321 121.006C203.116 125.564 194.067 125.18 190.428 121.383C188.649 119.528 186.613 115.646 189.113 113.54C189.712 114.376 190.994 115.033 191.917 115.414C192.604 115.698 193.736 116.321 194.155 115.5C191.932 113.884 189.928 112.577 188.466 109.979C185.525 104.764 188.274 100.785 187.87 95.5321C187.576 91.7394 185.04 88.3013 185.393 84.5197C185.713 81.0704 189.131 80.391 191.424 82.0036C193.938 83.7694 195.247 87.4315 195.328 90.668C195.346 91.4221 195.07 93.3334 195.239 93.7515C195.515 94.4309 198.11 95.9689 198.882 96.7379C201.241 99.0934 202.796 103.36 202.425 106.907C202.407 107.097 201.738 108.516 202.348 108.314C203.344 107.676 203.807 106.895 203.921 105.608C204.266 101.763 202.282 97.3053 199.698 94.8826C199.213 94.4272 197.36 93.2438 197.165 92.8817C196.802 92.2023 197.272 91.7207 197.301 91.0562C197.382 89.3129 197.327 87.4725 196.813 85.8188C196.629 85.229 196.221 84.7213 196.088 84.2099C195.699 82.7316 197.408 76.9006 198.007 75.2394C198.749 73.1788 201.201 67.8293 203.63 68.4117C203.969 68.4938 204.366 68.8074 204.41 69.218C204.097 74.0859 202.833 78.8007 201.899 83.5491C201.587 84.2173 200.194 83.5491 199.521 84.2285C199.154 84.5981 199.235 85.5463 199.532 85.5463C200.668 85.5463 202.079 85.4194 203.175 85.5463C205.112 85.7703 207.74 86.8118 209.522 87.7189C210.279 88.1034 212.069 89.7049 212.705 88.8313C213.462 87.7861 211.327 86.4609 210.706 86.0166C210.912 85.7143 211.04 85.3596 211.125 84.9975C212.338 79.7899 213.179 74.4704 214.164 69.2031C215.362 68.9044 216.498 70.0729 217.053 71.1965C219.211 75.5828 217.186 81.369 216.377 85.8822L216.381 85.8785Z" fill="black"/>
<path d="M151.196 207.079C150.715 206.989 150.142 207.254 149.811 206.776C152.314 203.879 154.85 199.855 155.692 195.868C156.588 191.613 155.339 187.264 152.009 184.882C151.601 184.591 150.682 184.3 150.461 184.016C150.189 183.665 149.928 182.149 149.554 181.492C147.833 178.476 143.908 177.718 140.949 178.121C140.391 178.196 140.119 178.614 139.505 178.469C138.887 178.323 137.097 176.498 136.653 175.889C134.113 172.432 134.256 168.886 135.716 164.933C136.061 163.992 136.958 161.898 137.491 161.147C137.623 160.961 137.722 160.77 137.969 160.782L138.134 160.819C138.351 159.93 138.568 159.049 138.641 158.131L127.556 155.802C126.92 156.657 126.31 157.556 125.674 158.456C125.726 158.493 125.773 158.545 125.818 158.624C124.836 161.114 123.785 163.66 123.219 166.325C121.62 173.843 123.689 181.015 129.783 184.848C128.967 186.547 128.049 188.783 128.96 190.627C127.512 190.761 125.829 190.444 124.41 190.627C124.296 190.642 124.053 190.881 123.844 190.922C117.665 192.135 112.182 197.096 112.082 204.626C109.024 204.701 105.948 204.525 102.89 204.618C96.7265 204.805 90.4819 205.473 84.3659 205.933C82.7083 206.056 80.9809 206.022 79.3159 206.115C80.1429 202.886 80.1282 199.459 79.8084 196.141C79.8782 195.655 80.5913 195.152 80.8743 194.715C82.5981 192.02 82.8406 188.999 81.749 185.92C81.5616 185.393 80.9992 184.557 80.8816 184.098C80.3597 182.108 83.5794 174.441 84.5865 172.391C87.3908 166.672 91.5735 160.935 95.8664 156.556C96.6309 155.776 98.6377 153.778 99.45 153.319C99.6448 153.211 99.8212 153.103 100.042 153.099C100.034 153.095 100.031 153.091 100.023 153.084C99.2111 152.479 98.4907 151.662 97.5865 151.191C96.0869 150.407 94.1904 150.441 92.5512 150.262C90.3349 150.019 88.1149 149.803 85.8913 149.661C85.6119 149.743 85.2995 149.769 84.954 149.706C84.6269 149.646 84.2961 149.601 83.9653 149.556C83.8845 149.556 83.8073 149.553 83.7264 149.549C84.1895 149.623 84.6526 149.691 85.1121 149.747C85.373 149.989 83.5427 151.942 83.3736 152.169C78.1214 159.165 73.6631 167.001 70.55 175.501L68.9254 169.591C60.2257 151.766 36.4713 160.516 37.9525 181.007C38.5553 189.335 43.1496 195.655 48.207 201.169C51.695 204.969 57.311 211.913 61.6481 213.82C71.002 217.927 81.8814 218.841 91.8124 219.554C110.737 220.917 129.93 221.133 148.741 218.434C152.108 217.953 160.084 216.993 162.502 214.265C163.311 213.35 163.278 211.883 162.48 210.961C160.701 208.897 153.828 207.556 151.2 207.071L151.196 207.079ZM54.2641 203.861L47.6152 196.984C42.6129 191.157 38.9449 182.84 40.6319 174.53C42.2748 166.445 49.5632 166.683 54.2567 171.48C55.6387 172.895 56.9472 174.971 57.9322 176.763C61.6775 183.572 63.2726 191.725 68.0654 197.813L54.2678 203.861H54.2641ZM68.6939 212.155C67.1098 212.648 65.8675 212.607 64.2797 212.163C61.0269 211.252 58.0057 208.609 55.8188 205.843L69.4731 200.038C69.6164 200.034 69.7267 200.105 69.8333 200.206C70.436 200.777 71.8878 204.421 72.112 205.38C73.0309 209.318 72.0826 211.099 68.6939 212.155ZM76.3535 191.131L77.6509 196.522C77.9817 200.725 78.2243 205.974 74.8466 208.736C74.7106 206.179 74.1115 203.592 73.0493 201.333C71.2483 197.507 68.1352 194.48 66.3416 190.608C62.2104 181.683 59.7074 168.315 49.3537 166.094C49.192 166.06 48.9972 165.806 48.9457 165.806H46.2149C46.1487 165.44 46.3141 165.448 46.5089 165.295C50.5519 162.118 56.7854 161.64 61.1445 164.179C64.967 166.403 66.9297 170.379 68.0066 174.915C68.8997 178.67 68.5064 182.09 71.0315 185.128C71.4909 185.681 73.8799 188.066 74.0233 186.233C74.049 185.882 72.4465 183.777 72.1267 183.15C71.5754 182.075 71.2887 181.037 70.8734 179.906C72.5604 178.722 74.9642 180.085 76.3388 181.392C78.7903 183.721 81.4807 189.309 79.3784 192.703C78.4595 192.882 77.5958 189.604 76.3535 191.135V191.131ZM141.041 211.633C135.153 215.022 123.987 216.445 118.095 212.686C112.843 209.337 113.402 200.927 117.629 196.794C122.326 192.202 129.941 192.49 135.337 195.29C136.013 195.641 139.119 198.168 139.553 197.72C139.057 195.23 136.241 193.192 134.289 192.18C133.665 191.855 131.393 191.101 131.184 190.832C130.504 189.97 130.71 187.644 131.551 186.905C131.79 186.823 133.889 188.578 134.444 188.835C137.292 190.157 141.978 189.668 143.831 186.584C145.261 184.206 143.93 182.183 142.368 180.552C147.999 180.19 150.278 185.58 146.437 190.37C146.003 190.911 145.297 191.542 144.735 191.896C143.691 192.557 142.026 192.621 142.394 194.334C142.809 195.081 145.628 193.737 146.198 193.36C147.381 192.579 148.863 190.825 149.55 189.489C149.91 188.79 150.079 187.741 150.344 187.211C150.715 186.461 151.549 187.432 151.891 187.827C158.184 195.133 146.731 208.359 141.052 211.633H141.041Z" fill="black"/>
<path d="M42.4992 114.096C42.9403 114.507 44.0943 117.034 44.7302 117.874C48.9349 123.422 57.1201 126.203 63.4272 125.116L63.0927 126.666C63.9344 126.352 64.8091 126.218 65.7096 126.218L68.4037 113.514C68.0435 113.275 67.6245 113.092 67.143 112.991C66.8196 112.924 66.5256 112.723 66.294 112.461C66.2609 112.622 66.2279 112.779 66.1984 112.943C65.8934 113.443 62.0746 113.772 61.3469 113.742C58.4175 113.619 55.6646 111.427 54.3157 108.59L54.3451 108.344C57.8773 105.734 60.9058 99.9371 57.4656 95.7225C60.1744 91.2951 61.9166 86.8939 61.7769 81.3391C61.7071 78.6252 60.9168 76.0868 61.1116 73.3243C61.3873 69.3486 64.0704 64.548 62.4679 60.5947C61.9533 59.3255 60.4611 57.7613 59.2078 57.5523C58.4396 57.4216 57.4435 57.6456 56.6423 57.5523L60.281 36.9273C60.2479 29.5807 52.2538 30.3459 47.6375 29.5396C41.0731 28.3936 34.5786 26.9638 27.9702 25.9634C27.6872 25.9223 27.4079 25.6834 27.0918 25.6498C20.8582 24.9629 20.6303 28.7146 19.6196 34.3627C19.3145 36.0612 19.1749 37.7859 18.8698 39.4881C18.1237 43.6393 17.2526 47.7717 16.591 51.9415C9.98626 51.557 2.65743 58.1757 8.31761 65.485C6.68572 66.5003 5.30375 67.553 4.39959 69.4569C2.92206 72.559 3.55424 74.448 5.16776 77.2216C-1.10254 82.6382 3.6351 91.1085 9.45332 93.7888C9.2916 96.5923 8.46463 98.2311 9.58196 101.02C10.0855 102.278 10.7765 103.166 11.9563 103.569C13.9374 104.249 16.4146 104.406 18.4618 104.816C23.3685 105.805 28.312 106.798 33.2444 107.743C33.8656 108.09 34.3103 109.751 34.8028 110.464C35.8062 111.92 37.9894 112.898 39.5368 113.339C40.4263 113.589 41.7751 113.421 42.5029 114.1L42.4992 114.096ZM23.262 31.1896C23.8243 29.1812 24.133 27.9643 26.2758 28.0576C28.5436 28.1584 31.5905 29.1476 33.906 29.5359C40.6688 30.6632 47.8029 31.477 54.5326 32.9591C57.1201 33.5302 58.3955 34.9114 58.1161 38.0173C56.6497 44.1246 56.1755 50.8627 54.687 56.9214C54.6098 57.2424 54.3488 58.2765 54.2386 58.4669C54.0107 58.8626 52.75 59.4636 52.4266 59.9675C52.0554 59.6764 52.2832 59.6838 52.32 59.4822C53.0551 55.4655 53.8747 51.5122 54.6171 47.5067C55.0619 45.0989 55.3118 42.2879 55.8668 39.9548C56.0101 39.3575 56.6239 38.2786 56.6497 37.8381C56.668 37.5096 56.1939 36.2516 55.9917 35.9828C54.7899 34.3925 48.6666 33.9968 46.6525 33.6347C40.5145 32.541 34.2405 31.156 28.0841 30.3161C27.2057 30.1966 25.2614 29.6329 25.0445 30.9507C24.7689 32.638 24.7762 34.7434 24.5263 36.5278C23.9713 40.511 23.3061 44.5203 22.6776 48.4437C22.3247 50.6574 21.6925 52.8449 21.7293 55.1183C21.2368 55.1781 21.2588 54.521 20.9942 54.1776C20.634 53.7147 19.9173 53.2779 19.9173 52.6284L23.2656 31.1859L23.262 31.1896ZM45.1823 48.7311C41.9405 48.0256 38.8826 47.2715 35.56 46.7041C34.7551 46.566 32.8916 45.7559 32.219 46.3345C30.2232 53.0764 27.893 59.7585 26.4375 66.6907C26.1214 68.1877 25.787 69.7966 25.5481 71.2898C25.3496 72.5292 24.9343 73.3915 26.081 74.0112C28.9662 75.5716 33.7847 77.0835 36.953 78.1735C39.9007 79.1889 42.8925 80.0512 45.8843 80.8874L44.5207 89.1412C44.4068 89.563 44.1679 90.1043 43.6974 90.0035C36.3098 86.6064 28.437 84.7287 21.1339 81.0778L30.8481 44.1358L33.8693 44.3224L52.0076 47.6597L51.6584 49.8734C51.4122 50.1161 45.9725 48.9028 45.1823 48.7311ZM51.2762 51.9378L46.2151 79.2001C41.8781 77.9047 37.5043 76.643 33.2371 75.0826C32.4469 74.7951 26.9962 72.7382 26.8786 72.3649C26.636 71.5959 27.066 70.924 27.1469 70.2931C27.5071 67.5083 28.0253 65.0706 28.731 62.3716C29.9733 57.5933 31.5795 52.8897 33.1783 48.2608C33.634 47.9658 35.8173 48.6303 36.409 48.7348C40.7497 49.5113 45.6491 50.3288 49.8979 51.4376C50.1404 51.501 51.199 51.8295 51.2762 51.9415V51.9378ZM46.0093 44.9981C41.8964 44.2179 37.824 43.2249 33.7112 42.6313C32.9872 42.5268 31.3295 42.1983 30.7415 42.2244C30.1314 42.2506 29.8153 42.5343 29.58 43.1726C28.8008 45.3042 28.2863 48.6863 27.6321 51.0568C24.8681 61.0762 22.1299 71.1032 19.5975 81.2122C19.502 81.5482 19.7372 82.0969 19.9541 82.3172C20.1893 82.5561 21.3875 83.1385 21.7771 83.34C27.8048 86.4683 34.9204 87.8757 41.0033 90.7725C41.5289 91.0226 42.2971 91.3325 42.5727 91.8924C40.8379 91.6722 39.0994 91.4332 37.3756 91.1309C33.2886 90.4179 29.161 89.5406 25.0776 88.7641C23.4972 88.4618 21.3691 88.3871 19.8622 87.9279C17.995 87.3605 18.3626 85.3185 18.6235 83.6312C19.4395 78.3714 20.7516 73.1078 21.6852 67.8592C23.4347 58.0114 24.8056 47.6523 26.9006 37.9053C27.3454 35.8447 27.6615 33.8438 29.9182 33.7617C30.9951 33.7206 33.1856 34.2171 34.3691 34.4187C39.2575 35.2511 44.1385 36.3599 48.9864 37.3454C49.8905 37.5283 52.4817 37.7075 53.0882 38.316C53.5219 38.749 53.5219 39.294 53.4998 39.9025C53.4594 40.9851 53.011 43.1838 52.7904 44.3373C52.7243 44.6808 52.4302 46.1105 52.2465 46.1553C50.236 45.4871 48.0785 45.3901 46.0093 44.9981ZM31.9507 96.6483C31.9874 99.8326 27.6578 99.3398 27.3564 97.5778C27.2204 96.7752 27.7092 94.6026 28.4627 94.3562C29.7895 93.9194 31.9323 94.8714 31.9507 96.6483ZM19.1638 66.8811L18.6015 65.8806C18.7301 65.6716 19.5534 64.6114 19.7409 64.8279C19.6306 65.358 19.5167 65.8844 19.4138 66.4219C19.366 66.6795 19.5571 66.9632 19.1638 66.8811ZM9.04535 58.1757C9.30998 57.6941 10.2656 56.7609 10.7177 56.4249C12.8641 54.8197 17.6937 53.2219 19.3844 56.1785C20.7443 58.5527 19.5093 61.4607 17.8333 63.1443C15.7126 65.2722 14.9849 64.3165 12.5444 64.253C11.699 64.2307 11.0889 64.8317 10.1517 64.1672C8.44625 62.9577 8.01255 60.0571 9.04535 58.1757ZM12.7098 66.8848C17.1607 66.4593 20.0276 70.2744 17.0247 74.6421C15.6244 76.6803 15.3156 75.7732 13.6249 75.3663C11.3278 74.8175 9.5158 75.2356 7.28114 75.8105C3.26756 71.3981 8.86893 67.2507 12.7134 66.8848H12.7098ZM10.284 89.5929L9.97156 91.1458C8.4242 90.6232 6.7629 89.0404 5.76686 87.5845C1.09905 80.7568 10.3428 74.4965 15.6942 79.4651C16.9549 80.6336 16.7344 82.1156 16.172 83.676C15.0731 86.7334 11.1256 87.7749 8.47933 87.0395C8.23308 88.4767 9.67385 88.6969 10.2766 89.5929H10.284ZM12.6252 101.501L11.6623 99.784C11.5152 96.1704 12.6032 92.6577 13.1582 89.1337L15.7641 88.1556L13.4963 98.7388L14.1542 99.7691C16.0912 100.202 18.0502 100.654 19.9982 101.016C26.5735 102.237 33.3621 103.592 40.022 104.562C42.0986 104.865 42.8226 104.913 44.1826 102.946L49.1922 75.65L50.4823 78.405C49.6626 83.8067 48.6078 89.1337 47.5787 94.457C46.8142 98.4103 46.4834 106.918 41.6539 106.832C39.8749 106.798 37.6109 106.052 35.8283 105.742C28.0805 104.402 20.3032 103.196 12.6179 101.497L12.6252 101.501ZM36.4531 108.318C37.1367 108.31 37.8571 108.635 38.5261 108.687C40.7865 108.855 44.3002 108.818 46.1305 107.194C47.8102 105.705 48.2072 103.118 48.6556 100.896C50.0265 94.1024 50.9674 87.1627 52.2832 80.3536C52.5001 79.0806 53.4851 80.5888 53.9923 79.8459C53.5071 78.1661 52.1766 77.4157 51.6253 75.6239C50.1882 70.965 51.1696 64.4098 54.7458 61.2816C56.0873 60.1094 59.1453 59.3404 60.1891 61.2965C61.6335 64.0029 59.0166 70.1662 58.7961 73.3243C58.5352 77.0573 59.726 80.2565 59.4614 84.1538C59.1637 88.5625 55.819 95.1177 52.5699 97.5703C52.5221 97.6039 52.5038 97.7607 52.3714 97.8503C51.9708 98.134 49.8685 99.1009 49.7214 99.3921C49.3245 100.157 50.3426 100.646 50.9307 100.68C52.9522 100.796 54.3562 98.8396 55.8999 97.7122C56.2454 97.9586 56.4769 98.3356 56.5725 98.7836C57.5722 103.465 51.6988 108.251 48.3652 109.714C44.8037 111.278 39.1546 112.077 36.4531 108.318Z" fill="black"/>
<path d="M42.2969 2.72498C42.3888 2.59805 42.8519 2.31434 43.0026 2.29941C44.0648 2.18369 44.3037 3.6545 44.5169 4.49817C45.5644 8.63063 46.0532 13.1551 47.0493 17.3323C47.1191 19.3967 45.3586 19.4378 44.7742 17.4555C44.0354 14.9506 43.701 11.7701 43.1937 9.16072C42.9328 7.8131 41.5765 3.72543 42.2969 2.72498Z" fill="black"/>
<path d="M53.0733 15.8171C54.4296 12.8082 56.5503 8.11209 58.1932 5.35338C58.5792 4.70757 59.193 4.06549 59.9501 4.45372C60.7072 4.84196 60.3397 5.81255 60.0971 6.47702C59.193 8.96322 55.9549 15.3878 54.5288 17.5567C53.9959 18.3667 53.6761 19.2701 52.6543 18.4675C52.1912 17.4596 52.6911 16.6757 53.0733 15.8208V15.8171Z" fill="black"/>
<path d="M31.7521 13.7637C33.6155 15.0142 35.4422 16.4552 37.2285 17.8439C37.8019 19.0795 37.28 20.3114 35.9605 19.7402C34.2514 18.0977 31.0427 16.7501 29.4917 15.0926C29.0359 14.6073 28.7309 13.6367 29.2859 13.1141C30.1312 12.3227 30.9876 13.2522 31.7484 13.7637H31.7521Z" fill="black"/>
<path d="M68.5064 22.4017C68.2234 22.7377 66.9701 23.1969 66.496 23.3984C65.3823 23.88 62.1516 25.3247 61.1776 25.4441C60.075 25.5748 59.4244 24.2869 60.663 23.5403C61.5231 23.0177 66.4408 21.0018 67.356 20.8264C68.5836 20.5875 69.3738 21.3714 68.5064 22.4054V22.4017Z" fill="black"/>
<path d="M110.833 123.067C110.535 123.362 110.131 123.545 109.627 123.511C109.054 123.474 108.499 123.38 107.951 123.253C110.23 124.261 112.939 124.653 115.107 124.903C115.232 124.918 115.361 124.93 115.486 124.941C114.31 124.269 113.035 123.754 111.851 123.369C111.524 123.265 111.182 123.16 110.833 123.063V123.067Z" fill="white"/>
<path d="M203.178 85.546C205.115 85.77 207.743 86.8115 209.526 87.7186C210.283 88.1031 212.073 89.7046 212.709 88.8311C213.466 87.7858 211.331 86.4606 210.709 86.0164C210.915 85.714 211.044 85.3594 211.128 84.9972C212.341 79.7897 213.183 74.4701 214.168 69.2028C215.366 68.9042 216.502 70.0726 217.057 71.1962C219.214 75.5825 217.189 81.3687 216.381 85.882C215.204 92.426 216.476 99.3918 214.293 105.738C212.694 110.389 209.313 114.929 204.792 115.925C203.906 116.12 200.437 115.989 200.15 116.567C199.146 118.617 203.631 118.277 204.494 118.206C205.255 118.143 206.133 117.993 206.821 117.646C207.861 118.359 206.883 120.211 206.321 121.01C203.116 125.568 194.067 125.183 190.428 121.387C188.649 119.532 186.613 115.649 189.113 113.544C189.712 114.38 190.994 115.037 191.917 115.418C192.604 115.701 193.736 116.325 194.155 115.504C191.932 113.887 189.928 112.581 188.466 109.982C185.525 104.767 188.275 100.788 187.87 95.5356C187.576 91.7428 185.04 88.3047 185.393 84.5232C185.713 81.0738 189.131 80.3944 191.424 82.0071C193.938 83.7728 195.247 87.4349 195.328 90.6715C195.346 91.4255 195.07 93.3368 195.239 93.7549C195.515 94.4343 198.11 95.9724 198.882 96.7414C201.241 99.0969 202.796 103.364 202.425 106.91C202.407 107.101 201.738 108.519 202.348 108.317C203.344 107.679 203.807 106.899 203.921 105.611C204.266 101.766 202.282 97.3088 199.698 94.886C199.213 94.4306 197.36 93.2472 197.165 92.8851C196.802 92.2057 197.272 91.7242 197.301 91.0597C197.382 89.3164 197.327 87.476 196.813 85.8222C196.629 85.2324 196.221 84.7247 196.089 84.2133C195.699 82.735 197.408 76.904 198.007 75.2428C198.75 73.1822 201.201 67.8328 203.631 68.4151C203.969 68.4973 204.366 68.8108 204.41 69.2215C204.097 74.0893 202.833 78.8042 201.899 83.5526C201.587 84.2208 200.194 83.5526 199.521 84.232C199.154 84.6015 199.235 85.5497 199.532 85.5497C200.668 85.5497 202.079 85.4228 203.175 85.5497L203.178 85.546Z" fill="white"/>
<path d="M146.433 190.373C146 190.915 145.294 191.545 144.732 191.9C143.688 192.561 142.023 192.624 142.39 194.338C142.806 195.084 145.625 193.74 146.194 193.363C147.378 192.583 148.859 190.829 149.546 189.492C149.907 188.794 150.076 187.745 150.34 187.215C150.712 186.465 151.546 187.435 151.888 187.831C158.18 195.137 146.727 208.363 141.049 211.637C135.161 215.026 123.995 216.448 118.103 212.689C112.851 209.341 113.409 200.93 117.636 196.798C122.333 192.206 129.949 192.494 135.345 195.293C136.021 195.644 139.127 198.172 139.56 197.724C139.064 195.234 136.249 193.195 134.297 192.184C133.672 191.859 131.401 191.105 131.191 190.836C130.511 189.974 130.717 187.648 131.559 186.909C131.798 186.827 133.896 188.581 134.451 188.839C137.3 190.16 141.986 189.671 143.838 186.588C145.268 184.21 143.938 182.187 142.376 180.555C148.006 180.193 150.285 185.584 146.444 190.373H146.433Z" fill="#99B655"/>
<path d="M54.2568 171.484C55.6388 172.899 56.9472 174.975 57.9322 176.767C61.6775 183.576 63.2727 191.729 68.0654 197.817L54.2678 203.865L47.619 196.988C42.6167 191.161 38.9486 182.844 40.6356 174.534C42.3227 166.225 49.5669 166.687 54.2605 171.484H54.2568Z" fill="#5A4E3D"/>
<path d="M168.361 166.949C152.468 162.738 134.326 158.867 114.2 156.115C95.2306 153.521 77.7245 152.364 62.0708 152.061C62.9933 130.959 64.9597 107.918 68.5102 83.3027C71.4395 62.9763 75.0929 44.0312 79.1101 26.583C95.6717 27.2886 113.832 28.8042 133.286 31.5554C152.215 34.232 169.636 37.6888 185.4 41.4741C181.269 57.5224 177.498 75.2095 174.554 94.3972C170.489 120.879 168.754 145.282 168.361 166.952V166.949Z" fill="#FFF6E5" stroke="black" stroke-width="2" stroke-miterlimit="10"/>
<path d="M160.551 134.576C147.466 130.962 132.356 127.647 115.471 125.408C100.531 123.425 86.7514 122.626 74.457 122.518C74.7805 109.624 75.7839 95.2633 77.8972 79.7376C79.9959 64.309 82.8481 50.2915 85.9538 37.853C98.6378 38.133 112.729 39.0924 127.935 41.1605C144.257 43.3854 159.029 46.5025 172.047 49.9144C168.993 61.9908 166.192 75.5678 164.108 90.485C161.866 106.533 160.845 121.346 160.551 134.576Z" fill="white" stroke="black" stroke-width="2" stroke-miterlimit="10"/>
<path d="M46.215 79.1998C41.878 77.9044 37.5042 76.6426 33.237 75.0822C32.4468 74.7948 26.9961 72.7379 26.8785 72.3646C26.6359 71.5956 27.066 70.9236 27.1468 70.2927C27.507 67.5079 28.0253 65.0702 28.7309 62.3713C29.9732 57.593 31.5794 52.8894 33.1782 48.2604C33.634 47.9655 35.8172 48.63 36.4089 48.7345C40.7496 49.511 45.649 50.3285 49.8978 51.4372C50.1404 51.5007 51.1989 51.8292 51.2761 51.9412L46.215 79.2035V79.1998ZM38.2761 52.8819C38.4562 49.9776 33.7663 51.5268 35.0454 54.0018C36.0671 52.8782 36.85 52.7251 38.2761 52.8819ZM47.3728 56.6112C47.619 54.8081 44.958 51.7695 43.7561 53.748C43.1056 54.8193 44.4986 54.4572 45.0536 54.6663C45.671 54.8977 46.3804 55.999 46.6634 56.6373L47.3728 56.6112ZM36.4053 63.9503C36.6699 64.2714 36.8537 65.1113 37.3682 65.3875C38.4892 65.6638 36.9014 62.543 36.4714 62.2817C37.541 60.9863 38.1217 56.2678 36.5523 55.4801C34.3544 54.3714 32.377 59.3064 32.818 61.2775C33.9537 61.5463 33.6303 60.0419 33.8582 59.1945C34.2919 57.5893 36.1517 54.6252 36.6184 57.7348C35.2254 57.4362 34.6484 58.4628 34.1853 59.7507C34.0162 60.221 34.0309 61.0423 33.7736 61.5239C33.5678 61.9046 33.1304 62.0278 32.9099 62.6027C32.0388 64.8724 34.3948 68.6315 36.5302 68.9377C37.2139 69.0347 38.9119 69.1392 38.7686 68.0007C37.4381 68.1351 36.1994 67.926 35.1409 66.9592C34.4793 66.3544 33.1856 63.913 33.7884 63.0357C34.2441 62.3638 36.0487 63.5173 36.4016 63.9466L36.4053 63.9503ZM44.0281 64.2228C44.6052 63.5546 44.7375 60.6802 44.517 59.7469C44.3479 59.019 43.4437 57.1674 42.6903 57.2122C41.176 57.3018 39.9741 60.9415 39.805 62.3526C39.7132 63.1141 39.647 64.361 40.5916 64.2676C40.7019 62.808 40.8121 59.9821 41.9258 58.9593C42.58 58.362 43.3739 58.6196 43.407 59.6014C41.5141 59.0862 41.0988 62.2257 41.0841 63.7711C41.1613 64.1333 43.69 64.6185 44.0318 64.2228H44.0281Z" fill="white"/>
<path d="M46.2187 165.806C46.1525 165.44 46.3179 165.448 46.5127 165.295C50.5557 162.118 56.7893 161.64 61.1483 164.178C64.9708 166.403 66.9335 170.379 68.0104 174.915C68.9035 178.67 68.5102 182.09 71.0353 185.128C71.4947 185.681 73.8837 188.066 74.0271 186.233C74.0528 185.882 72.4503 183.777 72.1305 183.15C71.5792 182.075 71.2925 181.037 70.8772 179.906C72.5642 178.722 74.968 180.085 76.3426 181.391C78.7941 183.721 81.4845 189.309 79.3822 192.703C78.4633 192.882 77.5996 189.604 76.3573 191.135L77.6547 196.525C77.9855 200.729 78.2281 205.977 74.8504 208.74C74.7144 206.183 74.1153 203.596 73.0531 201.337C71.2521 197.511 68.139 194.483 66.3454 190.612C62.2142 181.686 59.7112 168.318 49.3575 166.097C49.1958 166.064 49.001 165.81 48.9495 165.81H46.2187V165.806Z" fill="#99B655"/>
<path d="M19.9576 82.3133C20.1928 82.5522 21.391 83.1346 21.7806 83.3361C27.8083 86.4644 34.924 87.8718 41.0068 90.7686C41.5324 91.0187 42.3006 91.3286 42.5762 91.8885C40.8414 91.6683 39.103 91.4294 37.3792 91.127C33.2921 90.414 29.1646 89.5367 25.0811 88.7602C23.5007 88.4579 21.3726 88.3832 19.8657 87.924C17.9986 87.3566 18.3661 85.3147 18.6271 83.6273C19.443 78.3675 20.7552 73.1039 21.6887 67.8553C23.4382 58.0075 24.8092 47.6484 26.9042 37.9014C27.3489 35.8408 27.665 33.8399 29.9217 33.7578C30.9986 33.7167 33.1892 34.2132 34.3727 34.4148C39.261 35.2473 44.142 36.356 48.9899 37.3415C49.894 37.5244 52.4852 37.7036 53.0917 38.3121C53.5254 38.7451 53.5254 39.2901 53.5033 39.8986C53.4629 40.9812 53.0145 43.1799 52.794 44.3334C52.7278 44.6769 52.4338 46.1066 52.25 46.1514C50.2395 45.4832 48.0821 45.3862 46.0128 44.9942C41.9 44.214 37.8276 43.221 33.7148 42.6275C32.9907 42.5229 31.3331 42.1944 30.745 42.2206C30.1569 42.2467 29.8188 42.5304 29.5836 43.1687C28.8044 45.3003 28.2898 48.6824 27.6356 51.0529C24.8716 61.0723 22.1334 71.0993 19.6011 81.2083C19.5055 81.5443 19.7407 82.093 19.9576 82.3133Z" fill="#EFEFEF"/>
<path d="M52.5699 97.5701C52.5222 97.6037 52.5038 97.7605 52.3715 97.8501C51.9708 98.1338 49.8685 99.1006 49.7215 99.3918C49.3245 100.157 50.3426 100.646 50.9307 100.68C52.9522 100.795 54.3562 98.8393 55.8999 97.712C56.2454 97.9583 56.4769 98.3354 56.5725 98.7833C57.5722 103.465 51.6989 108.25 48.3652 109.714C44.8037 111.278 39.1546 112.077 36.4531 108.317C37.1368 108.31 37.8571 108.635 38.5261 108.687C40.7865 108.855 44.3002 108.818 46.1306 107.194C47.8102 105.704 48.2072 103.117 48.6556 100.896C50.0265 94.1021 50.9674 87.1624 52.2832 80.3534C52.5001 79.0804 53.4851 80.5886 53.9923 79.8457C53.5072 78.1658 52.1767 77.4155 51.6253 75.6236C50.1882 70.9648 51.1696 64.4096 54.7458 61.2813C56.0873 60.1092 59.1453 59.3401 60.1891 61.2963C61.6336 64.0027 59.0167 70.1659 58.7961 73.3241C58.5352 77.0571 59.726 80.2563 59.4614 84.1536C59.1637 88.5623 55.819 95.1175 52.5699 97.5701Z" fill="white"/>
<path d="M21.7256 55.1217C21.2331 55.1815 21.2551 54.5244 20.9905 54.181C20.6303 53.7181 19.9136 53.2813 19.9136 52.6318L23.2619 31.1893C23.8242 29.1809 24.133 27.9639 26.2758 28.0573C28.5435 28.158 31.5904 29.1473 33.906 29.5355C40.6688 30.6629 47.8028 31.4767 54.5326 32.9625C57.1201 33.5336 58.3954 34.9148 58.1161 38.0207C56.6496 44.1279 56.1755 50.8661 54.6869 56.9248C54.6097 57.2458 54.3488 58.2799 54.2385 58.4703C54.0106 58.866 52.75 59.467 52.4265 59.9709C52.0553 59.6797 52.2832 59.6872 52.3199 59.4856C53.055 55.4689 53.8746 51.5156 54.6171 47.5101C55.0618 45.1023 55.3117 42.2913 55.8667 39.9582C56.0101 39.3609 56.6239 38.282 56.6496 37.8415C56.668 37.513 56.1938 36.255 55.9917 35.9862C54.7898 34.3959 48.6665 34.0002 46.6524 33.6381C40.5144 32.5444 34.2404 31.1594 28.0841 30.3195C27.2056 30.2 25.2613 29.6363 25.0445 30.9541C24.7688 32.6414 24.7762 34.7468 24.5263 36.5312C23.9713 40.5144 23.306 44.5236 22.6775 48.4471C22.3247 50.6607 21.6925 52.8483 21.7292 55.1217H21.7256Z" fill="white"/>
<path d="M52.0075 47.6558L51.6583 49.8695C51.4121 50.1121 45.9724 48.8989 45.1822 48.7272C41.9405 48.0217 38.8825 47.2676 35.5599 46.7002C34.755 46.562 32.8915 45.752 32.2189 46.3306C30.2232 53.0724 27.8929 59.7546 26.4374 66.6868C26.1214 68.1837 25.7869 69.7927 25.548 71.2859C25.3495 72.5253 24.9342 73.3876 26.0809 74.0073C28.9662 75.5677 33.7847 77.0796 36.9529 78.1696C39.9006 79.185 42.8924 80.0473 45.8842 80.8835L44.5206 89.1372C44.4067 89.5591 44.1678 90.1004 43.6973 89.9996C36.3097 86.6025 28.4369 84.7248 21.1338 81.0739L30.848 44.1318L33.8692 44.3185L52.0075 47.6558Z" fill="#FFF6E5"/>
<path d="M13.1581 89.1375L15.764 88.1595L13.4963 98.7426L14.1542 99.7729C16.0911 100.206 18.0501 100.658 19.9981 101.02C26.5735 102.24 33.362 103.596 40.0219 104.566C42.0986 104.868 42.8226 104.917 44.1825 102.95L49.1922 75.6538L50.4822 78.4088C49.6626 83.8105 48.6078 89.1375 47.5786 94.4608C46.8141 98.4141 46.4834 106.922 41.6538 106.836C39.8749 106.802 37.6108 106.056 35.8283 105.746C28.0804 104.406 20.3032 103.2 12.6178 101.501L11.6549 99.7841C11.5079 96.1705 12.5958 92.6578 13.1508 89.1338L13.1581 89.1375Z" fill="white"/>
<path d="M69.8296 200.206C70.4324 200.777 71.8842 204.421 72.1084 205.38C73.0273 209.319 72.079 211.099 68.6903 212.156C67.1061 212.648 65.8638 212.607 64.2761 212.163C61.0233 211.252 58.0021 208.609 55.8152 205.843L69.4694 200.038C69.6128 200.034 69.7231 200.105 69.8296 200.206Z" fill="#5A4E3D"/>
<path d="M15.6977 79.4649C16.9584 80.6334 16.7379 82.1154 16.1755 83.6758C15.0766 86.7331 11.1291 87.7747 8.48283 87.0393C8.23658 88.4765 9.67735 88.6967 10.2801 89.5926L9.96771 91.1456C8.42035 90.623 6.75905 89.0402 5.76301 87.5843C1.0952 80.7566 10.3389 74.4963 15.6904 79.4649H15.6977Z" fill="white"/>
<path d="M9.0453 58.1753C9.30994 57.6938 10.2656 56.7605 10.7176 56.4245C12.8641 54.8193 17.6936 53.2216 19.3843 56.1782C20.7442 58.5524 19.5093 61.4604 17.8333 63.144C15.7126 65.2718 14.9848 64.3162 12.5443 64.2527C11.699 64.2303 11.0889 64.8276 10.1516 64.1668C8.44621 62.9573 8.01251 60.0568 9.0453 58.1753Z" fill="white"/>
<path d="M17.0247 74.6418C15.6243 76.68 15.3156 75.7729 13.6249 75.366C11.3278 74.8173 9.51576 75.2354 7.28109 75.8102C3.26751 71.3978 8.86888 67.2504 12.7134 66.8846C17.1644 66.459 20.0312 70.2742 17.0284 74.6418H17.0247Z" fill="white"/>
<path d="M204.266 83.6648C204.711 80.7568 205.45 77.8488 206.027 74.9519C206.435 72.9025 206.652 70.5246 207.104 68.5162C207.453 66.9707 207.821 65.6567 209.456 65.7612C212.044 65.9255 211.728 68.1653 211.529 70.3342C211.342 72.3911 210.834 74.5674 210.665 76.6393L208.798 84.7997C208.64 85.0722 208.589 84.9639 208.383 84.9079C207.056 84.5383 205.751 83.6611 204.266 83.6686V83.6648Z" fill="white"/>
<path d="M28.4627 94.3558C29.7896 93.9191 31.9323 94.871 31.9507 96.6479C31.9875 99.8322 27.6578 99.3394 27.3564 97.5774C27.2204 96.7748 27.7093 94.6022 28.4627 94.3558Z" fill="white"/>
<path d="M19.7407 64.8278C19.6304 65.3579 19.5165 65.8843 19.4136 66.4218C19.3658 66.6794 19.5569 66.9631 19.1637 66.881L18.6013 65.8805C18.73 65.6715 19.5533 64.6113 19.7407 64.8278Z" fill="white"/>
<path d="M36.4053 63.9507C36.0525 63.5214 34.2478 62.3679 33.7921 63.0398C33.1856 63.9171 34.4794 66.3585 35.1446 66.9632C36.2032 67.9301 37.4418 68.1391 38.7723 68.0047C38.9156 69.1396 37.2176 69.0388 36.5339 68.9417C34.3985 68.6356 32.0389 64.8765 32.9136 62.6068C33.1342 62.0319 33.5715 61.9087 33.7774 61.5279C34.0383 61.0464 34.0199 60.2251 34.189 59.7547C34.6521 58.4668 35.2292 57.4403 36.6222 57.7389C36.1554 54.6293 34.2956 57.5933 33.8619 59.1985C33.634 60.0422 33.9575 61.5503 32.8218 61.2815C32.3807 59.3068 34.3618 54.3754 36.556 55.4842C38.1217 56.2756 37.5447 60.9904 36.4751 62.2857C36.9052 62.547 38.493 65.6679 37.3719 65.3916C36.8574 65.1154 36.6736 64.2754 36.409 63.9544L36.4053 63.9507Z" fill="black"/>
<path d="M44.0281 64.2229C43.6863 64.6186 41.1612 64.1333 41.0804 63.7712C41.0951 62.2257 41.5104 59.0862 43.4033 59.6014C43.3739 58.6196 42.5763 58.362 41.9221 58.9593C40.8084 59.9821 40.6981 62.808 40.5879 64.2677C39.647 64.361 39.7094 63.1104 39.8013 62.3526C39.9741 60.9415 41.1723 57.3018 42.6866 57.2122C43.44 57.1674 44.3442 59.019 44.5132 59.747C44.7301 60.6802 44.5978 63.5584 44.0244 64.2229H44.0281Z" fill="black"/>
<path d="M47.3727 55.7417L46.6633 55.7678C46.3803 55.1295 45.671 54.0282 45.0535 53.7968C44.4985 53.5915 43.1092 53.9498 43.7561 52.8784C44.9579 50.8999 47.6189 53.9424 47.3727 55.7417Z" fill="black"/>
<path d="M37.2836 53.7481C35.8576 53.5913 35.0784 53.7443 34.0529 54.868C32.7702 52.3967 37.4637 50.8475 37.2836 53.7481Z" fill="black"/>
<path d="M103.482 90.7274C104.39 91.6009 104.287 92.4184 103.081 92.676C102.001 92.9075 101.38 92.228 102.379 93.9303C104.673 97.8351 111.678 100.851 115.692 101.128C122.829 101.62 128.398 99.0072 133.65 93.7474C133.216 92.8328 129.214 92.7768 130.846 91.3247C132.338 89.9957 135.418 91.0895 136.785 92.2691C138.259 93.5421 139.045 95.6699 138.95 97.7604C137.991 98.1524 135.315 94.6545 134.815 95.1473C133.242 101.385 131.246 107.403 126.707 111.67C118.978 118.934 105.93 114.055 104.077 102.849C103.897 101.766 104.019 100.452 103.868 99.5411C103.776 98.996 102.056 97.5588 101.56 96.9167C100.788 95.9237 100.126 94.6396 99.5455 93.4935C99.0052 93.1352 96.0539 96.3754 97.2447 92.9933C98.0717 90.6378 101.696 89.0064 103.489 90.7311L103.482 90.7274ZM128.85 104.667H125.954C124.641 104.667 121.576 106.514 120.422 107.384C119.691 107.937 119.481 108.721 118.261 108.396C119.709 105.947 115.692 106.824 114.652 107.22C114.023 107.459 110.87 109.699 111.318 110.442C112.369 110.826 113.384 111.513 114.449 111.856C119.352 113.435 123.895 111.569 127.192 107.365C127.409 107.086 129.015 104.831 128.853 104.663L128.85 104.667Z" fill="black"/>
<path d="M148.44 51.669C149.991 52.927 153.053 58.2578 151.987 60.2886C151.09 61.9945 150.259 58.4631 149.91 57.7538C148.495 54.8682 145.551 52.1729 142.479 52.55C141.578 52.662 140.6 53.2219 139.674 53.2929C138.715 51.4525 141.688 50.0638 142.96 49.9219C144.761 49.7166 146.981 50.4819 148.44 51.669Z" fill="black"/>
<path d="M113.453 54.0654C114.159 54.9502 114.332 55.5251 114.207 56.7644C114.104 56.8914 111.833 55.4093 111.483 55.2637C107.988 53.8303 104.647 54.8606 101.957 57.6006C101.505 58.0598 100.814 59.7173 100.505 58.1233C100.259 56.854 102.019 54.7523 102.868 53.9609C105.661 51.3553 110.903 50.8662 113.453 54.0654Z" fill="black"/>
<path d="M128.85 104.667C129.015 104.834 127.409 107.089 127.189 107.369C123.892 111.573 119.349 113.439 114.446 111.86C113.38 111.517 112.366 110.83 111.314 110.445C110.862 109.702 114.016 107.463 114.648 107.224C115.688 106.828 119.705 105.951 118.257 108.4C119.478 108.724 119.687 107.937 120.418 107.388C121.573 106.518 124.642 104.67 125.95 104.67H128.846L128.85 104.667Z" fill="#D2797B"/>
<path d="M101.255 80.5289C99.0383 74.0259 102.504 61.7704 110.958 60.9268C119.422 60.0831 120.29 74.8733 116.846 79.9465C116.978 80.3049 122.436 81.2382 122.844 84.5942C122.918 85.2101 122.289 86.8078 121.55 86.0538C120.768 84.5942 120.848 83.31 119.213 82.373C116.35 80.7305 112.546 82.4253 112.068 85.6767C111.829 87.3006 112.527 88.4354 111.619 89.8428C109.521 88.8311 109.499 86.819 109.947 85.4117C110.208 84.5942 111.02 83.702 110.311 83.1047L96.9543 82.2573" fill="black"/>
<path d="M116.46 68.46C116.144 66.6458 113.99 64.3462 111.932 64.1372C104.155 63.3532 100.354 76.6727 102.898 81.6787L105.132 81.5854C104.948 78.8192 106.073 75.7917 107.569 73.3316L110.329 73.2794L109.697 70.6252C111.491 69.1058 114.008 68.2473 116.46 68.4563V68.46Z" fill="black"/>
<path d="M145.268 89.2568C144.742 90.1005 139.542 87.1066 138.377 86.7482C133.885 85.3595 129.07 85.6694 124.417 85.9195C123.627 83.5229 127.832 84.654 128.196 84.0828C126.24 77.8076 130.037 63.2152 138.707 63.8909C148.069 64.6225 147.102 81.3092 142.203 86.6511C143.302 87.4276 145.099 87.6665 145.268 89.2568ZM143.86 71.9094C139.472 62.6664 131.559 69.524 129.831 76.4973C129.144 79.2635 129.302 82.1752 129.894 84.8891L132.077 84.9862C132.742 82.403 133.073 75.4371 137.296 76.8519L136.664 74.194C138.829 72.6037 141.016 71.1815 143.864 71.9169L143.86 71.9094Z" fill="black"/>
<path d="M116.46 68.4602C114.008 68.2512 111.491 69.1098 109.697 70.6291L110.329 73.2833L107.569 73.3355C106.073 75.7956 104.948 78.8194 105.132 81.5893L102.898 81.6826C100.354 76.6729 104.155 63.3572 111.932 64.1411C113.99 64.3464 116.144 66.6497 116.46 68.4639V68.4602Z" fill="white"/>
<path d="M143.861 71.9095C141.012 71.1778 138.829 72.6001 136.66 74.1866L137.293 76.8445C133.069 75.4297 132.739 82.3993 132.073 84.9788L129.89 84.8817C129.295 82.1678 129.14 79.2561 129.828 76.4899C131.555 69.5203 139.468 62.6627 143.857 71.902L143.861 71.9095Z" fill="white"/>
<path d="M129.269 86.7297C129.497 86.4759 129.912 86.4087 130.206 86.5953C130.507 86.782 130.574 87.1665 130.379 87.4464C130.158 87.7563 129.677 87.8533 129.357 87.6331C129.056 87.424 129.019 87.0097 129.269 86.7334V86.7297Z" fill="black"/>
<path d="M126.163 84.6279C126.343 84.4712 126.63 84.4712 126.81 84.6391C126.994 84.8109 126.997 85.0983 126.836 85.2775C126.656 85.4791 126.318 85.4903 126.126 85.2924C125.946 85.1058 125.965 84.7959 126.159 84.6279H126.163Z" fill="black"/>
<path d="M124.138 85.3819C124.318 85.2251 124.605 85.2251 124.785 85.3931C124.969 85.5648 124.972 85.8522 124.811 86.0314C124.631 86.233 124.292 86.2442 124.101 86.0463C123.921 85.8597 123.94 85.5498 124.134 85.3819H124.138Z" fill="black"/>
<path d="M134.551 87.3567C134.778 87.1028 135.194 87.0356 135.488 87.2223C135.789 87.4089 135.855 87.7934 135.661 88.0734C135.44 88.3832 134.959 88.4803 134.639 88.26C134.337 88.051 134.301 87.6366 134.551 87.3604V87.3567Z" fill="black"/>
<path d="M131.897 88.7004C132.125 88.4466 132.54 88.3794 132.834 88.566C133.135 88.7527 133.202 89.1372 133.007 89.4171C132.786 89.727 132.305 89.824 131.985 89.6038C131.684 89.3947 131.647 88.9804 131.897 88.7041V88.7004Z" fill="black"/>
<path d="M100.891 83.8698C101.119 83.616 101.534 83.5488 101.828 83.7354C102.129 83.9221 102.196 84.3066 102.001 84.5866C101.78 84.8964 101.299 84.9935 100.979 84.7732C100.678 84.5642 100.641 84.1498 100.891 83.8736V83.8698Z" fill="black"/>
<path d="M105.684 83.6721C105.911 83.4182 106.327 83.351 106.621 83.5377C106.922 83.7243 106.988 84.1088 106.794 84.3888C106.573 84.6987 106.092 84.7957 105.772 84.5755C105.47 84.3664 105.434 83.9521 105.684 83.6758V83.6721Z" fill="black"/>
<path d="M103.188 86.0388C103.416 85.7849 103.831 85.7177 104.125 85.9044C104.427 86.091 104.493 86.4755 104.298 86.7555C104.077 87.0654 103.596 87.1624 103.276 86.9422C102.975 86.7331 102.938 86.3188 103.188 86.0425V86.0388Z" fill="black"/>
<path d="M33.8508 67.0938C34.1117 67.426 34.0529 67.7135 33.6633 67.7695C33.3141 67.818 33.1377 67.5641 33.4023 68.1913C34.0088 69.6322 36.1332 70.8977 37.3939 71.1105C39.6396 71.4876 41.481 70.726 43.3077 69.0237C43.1974 68.6878 41.933 68.5534 42.4954 68.0905C43.0099 67.6649 43.9509 68.139 44.3478 68.5945C44.7742 69.0872 44.9579 69.8562 44.8624 70.5916C44.5463 70.7036 43.8075 69.3933 43.6348 69.5501C42.9438 71.7041 42.1278 73.7684 40.5584 75.1422C37.8864 77.4828 33.9059 75.3886 33.667 71.383C33.6449 70.9948 33.7221 70.5356 33.7037 70.2109C33.6927 70.0167 33.1928 69.4605 33.0532 69.2216C32.84 68.8483 32.6709 68.3779 32.5202 67.9561C32.3622 67.8142 31.3257 68.8707 31.8072 67.7135C32.1417 66.9071 33.3399 66.4368 33.8544 67.0938H33.8508ZM41.4516 72.7344L40.5364 72.6523C40.1211 72.6149 39.0919 73.1786 38.7023 73.4511C38.4524 73.6228 38.3642 73.8954 37.9856 73.746C38.5186 72.9248 37.2211 73.1189 36.8793 73.2271C36.6735 73.2943 35.6039 73.9924 35.7252 74.2687C36.045 74.4329 36.3464 74.7054 36.6735 74.8585C38.1767 75.5566 39.6726 75.0265 40.8451 73.6415C40.9223 73.5482 41.4993 72.8016 41.4552 72.7381L41.4516 72.7344Z" fill="black"/>
<path d="M42.1315 72.2227C42.1866 72.2974 41.5214 73.1784 41.4331 73.2867C40.0843 74.918 38.3715 75.5451 36.6551 74.7276C36.2802 74.5521 35.9384 74.2311 35.5708 74.037C35.4348 73.7122 36.6587 72.8909 36.894 72.8126C37.2872 72.6819 38.7721 72.4505 38.1583 73.4173C38.5884 73.5928 38.6913 73.2717 38.978 73.0701C39.4264 72.7491 40.6062 72.0809 41.0803 72.1257L42.1278 72.219L42.1315 72.2227Z" fill="#D2797B"/>
</svg>
