<svg width="155" height="144" viewBox="0 0 155 144" fill="none" xmlns="http://www.w3.org/2000/svg">
<path d="M126.506 96.2789C120.673 94.592 115.658 98.0141 112.456 103.444C110.971 102.556 109.579 102.512 107.938 102.548C105.665 98.5807 103.178 94.7853 100.199 91.4906C100.624 91.3895 101.058 91.3105 101.501 91.2446C100.973 90.5066 100.472 89.751 99.9129 89.0305C99.7563 88.8285 99.64 88.6176 99.555 88.4023C94.2543 88.8197 88.9447 89.1931 83.635 89.5621C84.382 90.5066 84.9456 91.6311 85.3885 92.7777L85.7777 92.7513C90.5729 95.8132 95.2832 101.594 98.1818 106.998C98.486 107.564 99.7653 109.972 99.819 110.398C99.9218 111.237 98.9691 113.376 98.8662 114.558C98.6023 117.699 99.7698 120.866 102.583 121.683C102.65 124.811 103.536 127.701 105.334 130.038H105.223C106.086 130.75 106.864 131.554 107.75 132.226C108.618 132.881 109.62 133.346 110.608 133.799C111.574 133.935 112.509 134.071 113.426 134.001C114.464 133.922 115.524 133.443 116.562 133.329C118.338 132.27 119.881 130.935 121.299 129.41L123.402 126.186C127.776 123.062 131.883 119.091 133.506 113.249C135.501 106.075 133.238 98.2337 126.493 96.2832L126.506 96.2789ZM101.425 117.312C100.785 114.817 101.684 111.711 103.058 109.73C104.784 107.248 108.613 104.243 111.418 105.671L110.765 108.078C106.645 109.282 102.812 113.728 102.861 118.832C102.472 119.289 101.523 117.69 101.425 117.308V117.312ZM108.573 130.038C108.211 130.482 106.131 127.798 105.871 127.337C105.026 125.834 104.176 122.043 104.189 120.277C104.216 116.262 107.012 111.478 110.479 110.494C110.586 111.535 110.331 112.91 110.479 113.899C110.604 114.742 111.208 115.357 111.977 115.081C112.737 110.279 113.444 105.065 117.157 102.056C120.619 99.2485 124.784 97.6582 128.564 100.72C128.644 101.173 128.407 101.023 128.152 101.111C127.579 101.3 126.971 101.296 126.385 101.498C119.13 104.05 116.683 115.015 113.033 121.674C112.067 123.436 108.841 127.354 108.586 128.844C108.519 129.221 108.595 129.652 108.573 130.038ZM110.872 131.233C110.711 131.106 110.559 130.992 110.505 130.759C110.487 129.384 110.89 128.519 111.619 127.504C111.874 127.148 113.48 125.233 113.713 125.422C113.766 126.252 114.777 126.537 115.381 126.687C117.161 127.122 118.969 126.744 120.758 126.849C119.595 129.41 112.863 132.806 110.872 131.233ZM131.986 107.309C132.334 111.562 130.357 115.652 127.995 118.735C125.696 121.731 123.053 124.473 119.519 124.987C117.591 125.268 115.743 124.653 113.905 124.987C114.603 123.265 115.578 121.688 116.343 120.005C118.861 114.47 122.601 103.325 129.23 103.672C131.359 103.782 131.798 105.038 131.986 107.309Z" fill="black"/>
<path d="M143.826 22.1926L145.857 7.10295C145.884 6.8877 145.812 6.6988 145.709 6.52308C145.235 5.70161 141.334 5.27549 140.274 5.09099C135.492 4.26512 130.42 3.51832 125.616 2.89453C124.815 2.7891 120.619 2.16091 120.306 2.63974L115.86 33.6845C116.021 34.2688 117.738 34.528 118.271 34.6466C121.169 35.3011 124.162 35.4505 127.065 36.0303C125.544 38.631 125.405 41.8641 125.544 44.9216C125.58 45.7299 125.965 46.793 125.933 47.5574C125.902 48.4096 125.097 49.5254 124.904 50.5753C124.573 52.3588 125.79 53.11 123.553 54.0545C120.445 55.3592 115.113 53.4878 112.885 50.7466C112.554 50.3381 112.339 49.8153 112.201 49.2267C111.847 49.4331 111.48 49.622 111.087 49.8637C111.042 49.89 110.452 50.0218 110.563 49.8724C110.398 50.0921 110.617 50.8872 110.648 51.1244C110.872 52.8377 111.239 54.5377 111.48 56.251C111.789 58.4211 112.12 60.5824 112.402 62.7481L115.135 64.8435C119.787 67.387 125.361 67.0136 129.99 64.5536C130.536 64.2637 132.205 62.9019 132.339 62.8623C132.688 62.7701 135.792 63.8551 136.682 63.921C140.61 64.2153 143.826 61.953 145.159 57.6787C145.333 57.1208 145.262 56.4223 145.432 56.0181C145.553 55.737 146.903 54.7398 147.243 54.3752C149.901 51.5461 152.218 47.1181 153.014 43.0195C154.678 34.4137 152.58 23.4929 143.817 22.1926H143.826ZM122.194 32.762C120.794 32.538 119.344 32.4281 117.935 32.292L121.934 4.8362L143.821 8.13089L141.88 21.3756L141.607 21.7182L139.728 21.9686C139.268 21.9466 141.138 12.3393 141.155 11.5222C141.191 10.1297 140.762 10.1429 139.697 9.91442C135.072 8.90844 130.08 8.78983 125.437 7.68721L124.059 7.95957L121.362 25.461L133.529 27.4554C132.961 29.2169 133.945 30.7896 134.459 32.3491L133.135 34.4796C131.404 33.7372 129.378 34.0623 127.535 33.8207C125.799 33.5923 123.956 33.0344 122.18 32.7532L122.194 32.762ZM138.208 60.8504C132.768 61.4742 126.296 57.7226 127.266 50.5314L128.223 52.1699C131.498 56.9934 137.604 59.2469 142.681 57.3404C142.395 59.4402 139.836 60.6659 138.208 60.8548V60.8504ZM144.873 53.8217C141.276 57.0285 134.974 56.2334 131.529 53.0749C127.951 49.7934 126.662 43.9552 127.969 38.9297C129.27 33.9349 132.285 37.3614 133.855 39.9796L133.842 40.4189C131.14 43.3314 131.458 48.2031 134.75 50.3469C136.995 51.8053 138.633 51.3924 140.31 49.2223C140.574 48.884 140.605 48.3569 140.86 48.1021C141.522 47.4344 143.218 47.386 142.596 45.4663C142.341 45.0446 138.807 45.2731 138.297 45.5849C137.993 45.7695 138.208 45.8705 138.27 46.0638C138.61 47.1664 139.567 47.8473 138.507 48.8972C136.28 51.1025 133.556 45.8178 134.924 42.567C136.781 38.1697 140.619 38.7276 143.906 37.7787C144.618 37.5723 145.49 37.234 144.577 36.373C143.553 35.4065 139.335 36.6278 138.06 37.1813C137.219 37.5459 136.365 38.1477 135.734 38.8857C134.142 36.5882 136.038 33.7724 138.038 32.762C139.836 31.8571 142.193 32.1075 143.866 31.3607C144.855 30.9214 144.81 30.1965 143.866 29.7221C141.688 28.6239 138.503 29.8231 136.4 30.7588C134.696 22.1882 144.832 22.8604 148.389 27.1347C154.629 34.6378 151.457 47.9483 144.868 53.8217H144.873Z" fill="black"/>
<path d="M72.6087 135.846C72.054 135.679 71.4367 135.939 71.0788 135.42C74.0311 128.299 68.2429 120.216 61.7433 120.814C61.6404 120.278 61.8909 119.68 61.8641 119.201C61.8194 118.42 61.2781 117.168 61.3989 116.588C61.5062 116.082 62.7587 114.576 63.1211 113.943C66.6057 107.815 68.3994 101.415 68.4084 94.0125L69.7772 93.9114C67.961 92.9801 65.7737 93.292 63.7831 93.5117C61.3228 93.784 58.8984 94.2277 56.4292 94.3551C56.371 94.5528 56.3129 94.7505 56.2503 94.9438C56.9704 94.9086 57.5564 95.0053 57.5564 95.4358V100.048C57.5564 102.205 56.3039 105.438 55.0783 107.073C53.204 109.563 52.958 107.951 50.6275 108.307C49.29 108.509 48.118 109.66 47.2816 110.815C46.9505 111.277 46.8566 111.971 46.5122 112.34C45.6444 113.267 43.3765 114.066 42.1374 115.419C38.2636 119.636 40.1245 127.337 42.8263 131.77C43.3541 132.631 44.0296 133.241 44.5216 133.984C44.6692 134.203 44.8929 134.26 44.8034 134.643C42.5802 134.414 40.4152 135.016 38.2323 135.302C36.0405 135.587 33.8486 135.583 31.6612 136.286C30.4311 136.681 29.2994 136.909 29.872 138.811C30.3193 140.305 33.9112 140.753 35.2174 140.986C44.4277 142.638 62.0743 143.077 71.1191 140.96C72.0987 140.731 74.7111 140.046 75.1181 138.983C75.883 136.98 73.888 136.224 72.6087 135.842V135.846ZM66.9277 136.567C62.8661 138.93 54.0271 138.688 49.9431 136.303C44.2532 132.986 37.4271 118.942 46.5122 115.551C46.9192 117.532 48.033 120.431 50.1444 120.058C50.7304 119.606 49.3303 117.756 49.0887 117.08C48.4848 115.388 48.6101 112.173 50.2696 111.417C50.7527 111.198 51.4774 110.872 51.8174 111.474C50.1981 116.654 55.4138 119.834 59.2697 118.622C59.4978 122.268 56.2771 121.279 54.4252 121.929C52.1663 122.725 54.1076 123.889 55.5569 123.454L55.6509 123.889C54.7249 124.262 52.6404 126.995 53.0788 128.062C53.1593 128.251 53.4187 128.528 53.6245 128.488C53.8392 128.444 56.4337 125.87 57.0733 125.426C59.9675 123.436 63.6042 122.878 66.5654 125.026C70.0634 127.566 71.0744 134.151 66.9233 136.571L66.9277 136.567Z" fill="black"/>
<path d="M34.6939 101.38C34.9444 101.424 35.2084 101.52 35.4723 101.687C37.1363 102.741 38.8406 103.73 40.5538 104.696C40.357 103.11 39.7442 100.976 39.5116 100.233C38.8406 98.0674 38.7601 96.3805 38.2456 94.228C37.5344 91.2628 36.0627 88.5084 34.94 85.7408C34.9087 85.3235 35.7183 84.7305 35.942 84.3395C37.8744 80.9789 38.4782 75.9051 36.3222 72.5094L34.7163 70.6336L38.0488 67.8924C38.2009 68.0066 38.2635 68.1252 38.2948 68.2614C38.6348 67.866 39.1358 67.6025 39.8023 67.6025C39.9902 67.6025 40.1646 67.6244 40.3301 67.664C40.5449 67.3081 40.7685 66.9479 41.0145 66.5877C41.113 66.4427 41.2158 66.3197 41.3232 66.2055C41.189 65.4324 41.019 64.6548 40.8043 63.8597C40.1154 61.303 39.5384 58.7288 38.6885 56.2248C38.4782 55.6054 38.2814 54.9948 38.107 54.3798C38.107 54.4413 38.107 54.4984 38.107 54.5599C34.1482 58.5926 29.4916 61.571 25.2913 65.2523L19.8385 54.1997C17.3425 49.5959 12.0015 34.3744 7.72517 32.5909C5.86881 31.8177 3.8022 32.8325 3.39067 35.1476C2.80915 38.4642 4.585 41.4558 5.41701 44.4737C0.836483 47.0743 3.8022 52.6841 5.59147 56.3566C5.92696 57.0463 7.1705 58.7859 7.08551 59.3789C6.95579 60.3014 5.55568 60.9384 7.12129 62.2738C7.85937 62.9064 9.04476 61.6808 9.37577 60.934C10.4091 58.6102 8.32011 56.0886 7.46573 54.1909C6.93789 53.0224 5.28729 49.631 5.43938 48.4889C5.502 48.0056 5.97616 47.5707 6.26244 47.2413L16.2689 67.9759C10.0781 69.7945 5.62278 76.0764 4.50449 83.2105C3.668 88.5435 5.28729 96.0115 10.7222 96.9999C12.0731 97.2459 13.1869 96.811 14.2426 96.8857C14.8912 96.9296 16.2868 97.8258 17.3201 97.9488C20.013 98.2739 21.601 97.593 23.3947 95.3482C23.6765 94.9967 23.7973 94.3685 23.9941 94.2192C24.173 94.083 25.6447 94.0171 26.2799 93.6305C26.8346 93.2967 27.1298 92.6158 27.6666 92.2687C28.4091 94.6717 29.7735 96.7056 31.3748 98.4232C31.8401 98.924 33.6249 100.699 34.0766 101.019C34.3495 101.213 34.5419 101.318 34.6895 101.388L34.6939 101.38ZM35.4633 79.8324C35.3783 80.566 34.8371 81.8048 34.4882 82.4418C34.345 82.7009 33.8843 83.7377 33.5756 83.4741C32.7168 81.5807 31.9251 79.459 30.6591 77.9214L28.8117 72.7158C33.683 70.9016 36.1075 74.3676 35.4589 79.8324H35.4633ZM30.9857 90.7005C28.6417 92.3917 26.5125 87.0411 25.4703 85.4685C24.8172 84.4845 23.9494 83.395 23.2158 82.4681C22.6387 81.7389 20.7824 79.3711 20.1695 79.0636C19.7849 78.8703 18.6352 78.6199 18.5368 79.1954C18.4563 79.6698 23.1845 85.5959 23.8599 86.6678C24.7411 88.0647 26.9598 91.4604 24.097 91.7723C21.8828 92.0139 20.089 90.4632 18.6308 88.7456C17.8614 87.8363 16.0766 84.792 15.4056 84.3395C15.1328 84.155 15.0164 84.0496 14.6765 84.1638C13.9831 84.5591 14.0637 85.2532 14.3768 85.9693C14.7883 86.9094 16.9086 90.0196 17.6064 90.8103C18.7784 92.1413 20.3306 93.2352 21.9633 93.5822C20.9434 96.4728 17.6467 95.9149 15.6114 94.8649C13.6566 93.859 12.4399 91.7987 11.013 90.0679C10.1138 90.3446 10.597 92.1106 10.8877 92.8486C11.0219 93.1869 12.0239 94.5179 11.8718 94.6761C3.16254 92.5235 6.26244 79.2217 11.0174 74.0337C11.2948 74.6136 10.6685 75.1715 10.8117 75.7953C10.9324 76.3312 11.2277 76.586 11.6839 76.3444C12.2073 76.0632 13.9518 72.5225 15.0478 71.6527C16.5329 70.4754 20.42 70.2997 21.9722 71.275C25.0945 73.2342 29.4514 80.0388 30.9454 83.764C31.6656 85.5607 32.9002 89.3211 30.9857 90.7005ZM32.0995 95.8797L35.6646 93.1385C36.3132 94.7683 36.3714 96.5167 36.5995 98.2651L35.1905 99.2886C34.6671 98.8274 32.0637 96.3937 32.0995 95.8797Z" fill="black"/>
<path d="M116.777 89.8876C105.044 90.1423 92.3443 90.8935 78.8398 92.3783C65.6752 93.8236 53.4053 95.7829 42.1285 98.0101C41.8288 83.8605 40.9296 68.5248 39.1359 52.1963C37.7134 39.2416 35.8794 27.0512 33.8083 15.6911C43.5912 12.4096 56.1116 9.16322 70.8641 7.56859C85.4914 5.98713 98.2936 6.47036 108.457 7.56859C110.59 18.9287 112.474 31.1849 113.909 44.2627C115.703 60.5868 116.553 75.8654 116.777 89.8876Z" fill="#FFF6E5" stroke="black" stroke-width="2" stroke-miterlimit="10"/>
<path d="M107.15 72.4391C98.5216 72.3952 89.034 72.7642 78.8352 73.7965C67.1021 74.987 56.4201 76.854 46.9459 78.9933C47.0622 70.4711 46.7625 60.9121 45.7292 50.5316C44.6646 39.8436 43.014 30.1748 41.1487 21.6613C49.2899 18.9816 59.6676 16.3591 71.8615 15.1115C83.2323 13.9473 93.2478 14.2812 101.353 15.1115C103.29 23.8358 104.999 33.8033 106.059 44.8559C107.021 54.9026 107.289 64.1628 107.15 72.4435V72.4391Z" fill="white" stroke="black" stroke-width="2" stroke-miterlimit="10"/>
<path d="M131.529 53.0746C127.951 49.7931 126.662 43.9549 127.969 38.9294C129.27 33.9347 132.285 37.3611 133.855 39.9793L133.842 40.4186C131.14 43.3311 131.458 48.2029 134.75 50.3466C136.995 51.8051 138.633 51.3921 140.31 49.222C140.574 48.8838 140.605 48.3566 140.86 48.1018C141.522 47.4341 143.218 47.3858 142.596 45.4661C142.341 45.0444 138.807 45.2728 138.297 45.5847C137.993 45.7692 138.208 45.8702 138.27 46.0635C138.61 47.1661 139.568 47.847 138.507 48.897C136.28 51.1022 133.556 45.8175 134.924 42.5668C136.781 38.1694 140.619 38.7273 143.907 37.7785C144.618 37.572 145.49 37.2338 144.578 36.3727C143.553 35.4063 139.335 36.6275 138.06 37.181C137.219 37.5456 136.365 38.1475 135.734 38.8855C134.142 36.588 136.038 33.7721 138.038 32.7618C139.836 31.8568 142.193 32.1072 143.866 31.3604C144.855 30.9211 144.81 30.1963 143.866 29.7219C141.692 28.6236 138.503 29.8229 136.401 30.763C134.696 22.1924 144.832 22.8645 148.389 27.1388C154.629 34.6419 151.457 47.9525 144.868 53.8258C141.272 57.0326 134.969 56.2375 131.525 53.079L131.529 53.0746Z" fill="white"/>
<path d="M59.274 118.617C59.5022 122.263 56.2815 121.275 54.4296 121.925C52.1706 122.72 54.112 123.884 55.5613 123.449L55.6552 123.884C54.7293 124.258 52.6448 126.99 53.0831 128.057C53.1637 128.246 53.4231 128.523 53.6289 128.484C53.8346 128.444 56.438 125.865 57.0777 125.422C59.9718 123.432 63.6085 122.874 66.5698 125.022C70.0678 127.561 71.0787 134.146 66.9276 136.567C62.866 138.93 54.027 138.688 49.943 136.303C44.2531 132.986 37.427 118.942 46.5121 115.551C46.9191 117.532 48.0329 120.431 50.1443 120.058C50.7303 119.605 49.3302 117.756 49.0886 117.08C48.4847 115.388 48.61 112.173 50.2695 111.417C50.7526 111.197 51.4773 110.872 51.8172 111.474C50.1979 116.653 55.4137 119.834 59.2696 118.621L59.274 118.617Z" fill="#99B655"/>
<path d="M23.2157 82.4683C22.6387 81.7391 20.7823 79.3713 20.1695 79.0638C19.7848 78.8705 18.6352 78.6201 18.5368 79.1956C18.4563 79.67 23.1844 85.5961 23.8599 86.668C24.7411 88.0649 26.9598 91.4606 24.097 91.7725C21.8827 92.0142 20.089 90.4635 18.6307 88.7458C17.8614 87.8365 16.0766 84.7922 15.4056 84.3397C15.1327 84.1552 15.0164 84.0498 14.6765 84.164C13.9831 84.5594 14.0636 85.2534 14.3768 85.9695C14.7883 86.9096 16.9086 90.0198 17.6064 90.8105C18.7784 92.1415 20.3305 93.2354 21.9633 93.5824C20.9434 96.473 17.6466 95.9151 15.6114 94.8652C13.5761 93.8152 12.4399 91.7989 11.0129 90.0681C10.1138 90.3448 10.5969 92.1108 10.8877 92.8488C11.0219 93.1871 12.0239 94.5181 11.8718 94.6763C3.1625 92.5237 6.26241 79.222 11.0174 74.0339C11.2947 74.6138 10.6685 75.1717 10.8116 75.7955C10.9324 76.3314 11.2276 76.5862 11.6839 76.3446C12.2073 76.0634 13.9518 72.5228 15.0477 71.653C16.5328 70.4757 20.42 70.2999 21.9722 71.2752C25.0945 73.2344 29.4514 80.039 30.9454 83.7642C31.6656 85.5609 32.9002 89.3213 30.9857 90.7007C28.6417 92.3919 26.5125 87.0414 25.4702 85.4687C24.8171 84.4847 23.9493 83.3952 23.2157 82.4683Z" fill="white"/>
<path d="M143.822 8.13551L141.88 21.3802L141.607 21.7228L139.729 21.9732C139.268 21.9513 141.138 12.3439 141.156 11.5268C141.191 10.1343 140.762 10.1475 139.697 9.91904C135.072 8.91306 130.08 8.79445 125.437 7.69182L124.059 7.96418L121.362 25.4656L133.529 27.46C132.961 29.2215 133.945 30.7942 134.459 32.3537L133.135 34.4843C131.404 33.7419 129.378 34.0669 127.535 33.8253C125.799 33.5969 123.956 33.039 122.18 32.7578C120.78 32.5338 119.331 32.424 117.922 32.2878L121.921 4.83203L143.808 8.12672L143.822 8.13551Z" fill="#FFF6E5"/>
<path d="M110.478 113.895C110.604 114.739 111.208 115.354 111.977 115.077C112.737 110.276 113.444 105.061 117.157 102.052C120.619 99.245 124.784 97.6547 128.563 100.717C128.644 101.169 128.407 101.02 128.152 101.108C127.579 101.296 126.971 101.292 126.385 101.494C119.13 104.046 116.683 115.011 113.033 121.671C112.066 123.432 108.841 127.351 108.586 128.84C108.519 129.218 108.595 129.648 108.573 130.035C108.211 130.479 106.13 127.795 105.871 127.333C105.026 125.831 104.176 122.04 104.189 120.274C104.216 116.259 107.012 111.475 110.478 110.491C110.586 111.532 110.331 112.907 110.478 113.895Z" fill="#99B655"/>
<path d="M113.905 124.987C114.603 123.265 115.578 121.688 116.343 120.006C118.861 114.471 122.601 103.326 129.23 103.673C131.359 103.783 131.798 105.039 131.986 107.31C132.335 111.563 130.357 115.652 127.996 118.736C125.696 121.732 123.053 124.473 119.519 124.987C117.591 125.269 115.744 124.654 113.905 124.987Z" fill="#5A4E3D"/>
<path d="M142.681 57.3359C142.395 59.4357 139.836 60.6613 138.208 60.8502C132.768 61.474 126.296 57.7225 127.266 50.5312L128.224 52.1698C131.498 56.9932 137.604 59.2468 142.681 57.3403V57.3359Z" fill="white"/>
<path d="M111.422 105.671L110.769 108.079C106.649 109.282 102.816 113.728 102.865 118.832C102.476 119.289 101.528 117.69 101.429 117.308C100.79 114.813 101.689 111.707 103.062 109.726C104.789 107.244 108.618 104.239 111.422 105.667V105.671Z" fill="#99B655"/>
<path d="M33.5801 83.4744C32.7212 81.5811 31.9295 79.4593 30.6636 77.9218L28.8162 72.7161C33.6874 70.9019 36.1119 74.3679 35.4633 79.8327C35.3783 80.5663 34.8371 81.8051 34.4881 82.4421C34.345 82.7012 33.8843 83.738 33.5756 83.4744H33.5801Z" fill="white"/>
<path d="M113.712 125.426C113.766 126.256 114.777 126.542 115.381 126.691C117.161 127.126 118.968 126.748 120.758 126.854C119.595 129.415 112.863 132.811 110.872 131.238C110.711 131.111 110.559 130.996 110.505 130.764C110.487 129.389 110.89 128.523 111.619 127.508C111.874 127.153 113.48 125.237 113.712 125.426Z" fill="#5A4E3D"/>
<path d="M35.6646 93.1387C36.3132 94.7684 36.3714 96.5168 36.5995 98.2652L35.1904 99.2888C34.6671 98.8275 32.0637 96.3938 32.0995 95.8799L35.6646 93.1387Z" fill="#F1BD22"/>
<path d="M69.5534 54.6606C69.7145 56.1937 71.1101 57.1689 72.1613 57.907C75.6862 60.3802 79.8104 61.373 83.8363 60.0507C85.299 59.5719 86.547 58.4736 87.8845 57.9113C88.296 57.74 88.8999 57.4062 89.2622 57.7093C90.2106 58.5307 87.4506 60.5559 86.878 60.9205C86.14 61.3905 84.4625 61.9528 84.0018 62.4361C83.5411 62.9193 82.9953 65.0059 82.2975 65.9724C80.4859 68.4939 77.1936 69.8381 74.3934 69.2583C69.5713 68.2567 67.0574 60.5207 66.6951 55.5348C65.2816 55.8467 65.1474 58.1573 63.5952 58.1398C62.3382 57.784 63.7338 55.2053 64.2259 54.5508C65.0937 53.391 66.9903 52.5344 68.3054 52.4509C69.5132 52.3763 71.7811 52.5037 70.788 54.4409L69.549 54.6562L69.5534 54.6606ZM71.1951 61.9397C70.2691 62.2955 71.4814 64.3733 71.8392 64.8653C73.0738 66.561 76.29 68.1908 77.9272 66.4029C78.0346 65.8801 74.6484 63.095 74.0579 62.7436C73.3109 62.2999 72.0137 61.6234 71.1951 61.9397Z" fill="black"/>
<path d="M57.449 27.5037C57.0553 26.9502 58.5494 23.818 58.9564 23.2338C60.7636 20.6331 64.3645 19.4822 66.5295 22.2497C67.0708 22.9394 67.7597 23.9718 66.8516 24.6044C64.5345 24.0333 62.4947 23.7433 60.4729 25.3687C59.8645 25.8563 58.1557 28.4965 57.449 27.5037Z" fill="black"/>
<path d="M84.1092 18.9459C85.7732 18.8053 87.9606 19.9914 88.9984 21.5026C89.2891 21.9287 90.0406 23.3388 90.063 23.8089C90.1525 25.6671 88.3364 23.7825 87.6877 23.453C85.9119 22.5613 84.4044 22.0737 82.481 22.7326C81.5371 23.0533 79.7836 24.8148 79.9849 22.4954C80.1549 20.5361 82.5749 19.0733 84.1047 18.9459H84.1092Z" fill="black"/>
<path d="M71.1951 61.9398C72.0182 61.6236 73.3109 62.3001 74.058 62.7438C74.6484 63.0952 78.0301 65.8847 77.9273 66.4031C76.2945 68.191 73.0739 66.5612 71.8393 64.8655C71.4814 64.3735 70.2692 62.2913 71.1951 61.9398Z" fill="#D2797B"/>
<path d="M80.8079 44.8246C79.7254 45.2199 77.963 46.8321 78.6205 48.3784C79.0902 48.7826 81.8233 46.0414 82.6777 45.7734C83.4247 45.5362 84.382 45.668 85.1558 46.2786C85.9028 46.8717 86.793 48.1808 86.4486 49.6744C86.1981 50.7638 85.3661 51.6029 84.3328 51.8445C84.3462 52.0509 84.4267 52.9515 84.9501 53.2634C85.8 53.7686 87.0032 52.2354 87.0703 52.1476C87.9337 51.023 87.9292 49.6304 87.9247 49.2439C87.9068 48.0709 87.4998 47.2099 87.2895 46.819C88.5957 46.16 89.0028 43.5946 89.1235 41.9736C89.4948 37.014 87.1822 25.2541 81.6533 26.6818C76.9967 27.8855 78.4103 37.8618 79.6628 41.7407C79.8417 42.2899 80.9376 44.5917 80.8079 44.8202V44.8246ZM82.6866 38.96C82.5569 38.8414 83.8005 37.1501 83.8497 36.9217C84.0017 36.2452 82.87 34.1673 82.4317 33.7149C81.0092 32.2432 79.3273 33.8774 80.2219 30.7892C81.3715 26.8136 84.3193 28.6454 85.715 31.3471C87.5713 34.9405 88.4436 41.1828 86.8512 45.0398L84.798 43.7966L84.5341 38.9864L82.6822 38.96H82.6866Z" fill="black"/>
<path d="M67.9386 28.9492C62.8839 27.8817 63.0763 36.3029 63.6936 40.2653C63.9799 42.1016 64.5167 44.1355 65.5097 45.5676C65.5097 45.7872 63.783 46.433 63.5594 46.9294C63.3849 47.316 63.3536 48.4054 63.8636 48.3659C64.284 48.3351 65.125 47.6806 65.787 47.5795C66.5296 47.4697 67.9073 47.4697 68.6588 47.5576C69.4864 47.6586 72.6444 49.0556 72.877 48.9897C74.0624 48.6514 74.4068 43.2877 74.3576 42.0005C74.1832 37.757 71.8706 29.775 67.9431 28.9448L67.9386 28.9492ZM64.6643 35.1915C64.6911 32.5558 65.957 29.674 68.4038 30.8952C71.8661 32.626 74.0445 42.5672 72.4923 46.6351L70.0052 45.8971C70.1931 44.3288 70.1797 42.6727 69.7771 41.1527L67.7284 41.2713C67.4108 40.8013 69.1598 39.7074 69.2314 39.2506C68.4933 36.8301 67.0395 34.3261 64.6687 35.1915H64.6643Z" fill="black"/>
<path d="M82.6865 38.9601L84.5384 38.9865L84.8024 43.7967L86.8555 45.0399C88.448 41.1829 87.5757 34.9406 85.7194 31.3472C84.3237 28.6455 81.3804 26.8137 80.2263 30.7893C79.3317 33.8775 81.0136 32.2477 82.436 33.715C82.8744 34.1674 84.0017 36.2409 83.854 36.9218C83.8048 37.1502 82.5568 38.8415 82.691 38.9601H82.6865Z" fill="white"/>
<path d="M64.6641 35.1917C67.0349 34.3263 68.4887 36.8303 69.2268 39.2508C69.1597 39.7076 67.4062 40.8059 67.7238 41.2715L69.7725 41.1529C70.1751 42.6685 70.1885 44.3246 70.0006 45.8973L72.4877 46.6353C74.0399 42.5674 71.8615 32.6262 68.3992 30.8954C65.9524 29.6742 64.6865 32.5559 64.6597 35.1917H64.6641Z" fill="white"/>
<path d="M66.0867 48.5413C66.3507 48.2426 66.8293 48.1635 67.1693 48.3832C67.5182 48.6028 67.5942 49.0553 67.3661 49.3848C67.1156 49.7494 66.5564 49.8636 66.1896 49.6044C65.8407 49.3584 65.8005 48.8708 66.0867 48.5457V48.5413Z" fill="black"/>
<path d="M69.0211 49.2796C69.285 48.9809 69.7636 48.9018 70.1036 49.1215C70.4525 49.3411 70.5285 49.7936 70.3004 50.1231C70.0499 50.4877 69.4908 50.6019 69.124 50.3427C68.775 50.0967 68.7348 49.6091 69.0211 49.284V49.2796Z" fill="black"/>
<path d="M66.6861 50.765C66.95 50.4662 67.4287 50.3872 67.7686 50.6068C68.1175 50.8265 68.1936 51.2789 67.9654 51.6084C67.7149 51.973 67.1558 52.0872 66.789 51.8281C66.4401 51.5821 66.3998 51.0944 66.6861 50.7694V50.765Z" fill="black"/>
<path d="M88.0499 46.6087C88.3138 46.31 88.7924 46.2309 89.1324 46.4506C89.4813 46.6702 89.5573 47.1227 89.3292 47.4522C89.0787 47.8168 88.5196 47.931 88.1528 47.6718C87.8039 47.4258 87.7636 46.9382 88.0499 46.6131V46.6087Z" fill="black"/>
<path d="M90.7921 47.3509C91.056 47.0522 91.5346 46.9731 91.8746 47.1928C92.2235 47.4124 92.2995 47.8649 92.0714 48.1943C91.8209 48.559 91.2618 48.6732 90.895 48.414C90.546 48.168 90.5058 47.6804 90.7921 47.3553V47.3509Z" fill="black"/>
<path d="M88.8507 49.0999C89.1146 48.8012 89.5932 48.7221 89.9332 48.9418C90.2821 49.1614 90.3581 49.6139 90.13 49.9434C89.8795 50.308 89.3203 50.4222 88.9535 50.163C88.6046 49.917 88.5644 49.4294 88.8507 49.1043V49.0999Z" fill="black"/>
</svg>
