<svg width="251" height="215" viewBox="0 0 251 215" fill="none" xmlns="http://www.w3.org/2000/svg">
<path d="M54.4825 101.335C43.7464 100.73 34.0643 95.9654 31.9206 85.2325C33.8008 83.6817 35.5313 82.3822 35.8187 79.8313C35.9384 78.7832 35.4354 76.6494 35.5732 76.1468C35.657 75.8526 37.4773 74.1628 37.8964 73.521C39.1119 71.6761 39.7885 69.3177 39.7466 67.1252C42.3872 67.1733 45.5547 69.2642 47.2672 66.3925C51.8838 51.1355 59.0811 35.7233 63.3563 20.4716C63.979 18.2523 64.6257 17.1239 61.7755 16.3539L19.0949 9.62109C18.3105 9.66922 17.6578 9.958 17.4004 10.7013L0.389177 58.7078C0.35325 61.3603 4.0417 61.0929 6.03562 61.5154C4.56862 67.1465 5.71827 72.3713 10.4007 76.2109C10.8617 76.5906 12.8437 77.6923 12.9275 77.8206C13.2628 78.3393 12.9874 80.0025 13.1311 80.8367C13.4005 82.3982 14.9753 84.4036 16.3405 85.27C16.9154 85.6336 19.0949 86.3235 19.1907 86.4411C19.3284 86.6176 19.9511 89.9974 20.1727 90.7193C24.6755 105.527 37.0102 111.591 52.3329 113.388C53.4586 113.169 54.4525 113.158 55.5603 113.559C56.2069 109.672 56.8955 105.768 57.62 101.859C56.5482 101.81 55.5124 101.618 54.4944 101.34L54.4825 101.335ZM3.50879 58.2907L19.5619 12.6158L60.8295 19.0063L45.0697 64.9593L39.4951 64.1625C38.9323 60.4565 39.0999 56.6436 39.7646 52.9644C41.0579 52.8574 43.6626 54.0072 44.6985 53.2478L55.71 22.8086C56.3147 20.6374 54.0873 20.7444 52.4526 20.4181C43.3872 18.6106 34.0523 17.8245 24.9629 16.0918L22.3343 16.4608L11.1611 46.9001C11.221 47.1407 11.3228 47.4402 11.5084 47.606C12.6042 48.5739 23.2743 49.4135 25.4359 50.1301C25.903 50.4349 25.3641 53.7505 25.4239 54.6864C25.5138 55.9965 25.9209 57.665 26.5436 58.8308C24.8671 58.8148 23.0947 61.4673 21.9091 61.5314L3.5028 58.2854L3.50879 58.2907ZM8.57442 62.0555L20.3643 64.1893C19.6877 65.5315 18.8195 67.0931 18.6817 68.6011C18.6219 69.2642 18.4243 71.7777 19.6458 71.414C20.0529 71.291 21.7055 67.1091 22.1846 66.3176C22.927 65.0877 24.5078 63.2801 25.7173 62.4619C26.9808 61.6063 28.6274 61.371 29.8788 60.5528C29.1004 56.7238 27.1783 51.9911 29.795 48.4242C31.3698 46.2797 33.8367 45.0979 36.615 45.9107C39.3035 46.6969 37.8784 48.7718 37.585 50.4937C37.2797 52.3013 36.7947 54.5206 36.6629 56.3014C36.1121 63.8416 39.3574 71.2696 30.771 75.5585C26.5616 77.6602 22.9929 77.735 18.4602 76.5532C10.7899 74.5585 7.27508 69.6332 8.56844 62.0502L8.57442 62.0555ZM16.1489 78.8955C21.969 81.1683 27.4717 80.3447 32.729 77.2912C34.4535 85.5694 16.3645 86.9171 16.1489 78.8955Z" fill="black"/>
<path d="M250.473 6.89374C248.324 -2.18135 238.444 0.412298 231.3 0.556687C214.349 0.904289 197.362 1.28932 180.429 1.62623C166.453 1.90431 151.891 1.44976 137.981 2.15031C134.658 2.31609 132.012 2.43374 129.85 5.11295C129.395 5.6798 128.389 7.26273 128.281 7.89911V49.745C128.281 49.745 128.227 49.745 128.203 49.7397C128.323 50.2263 128.311 50.7504 128.162 51.2317C128.15 51.3012 128.126 51.3707 128.108 51.4456C128.311 51.9804 128.341 52.574 128.197 53.1248C137.688 54.1034 147.724 55.1355 156.448 56.7826C157.34 56.9538 158.501 57.1142 159.43 57.542C160.98 57.4778 162.537 58.3335 162.435 60.1143C161.843 70.5423 159.088 80.9811 157.448 91.3129C155.717 102.212 153.819 113.105 151.274 123.88C151.244 124.014 151.196 124.143 151.149 124.266C152.041 125.057 152.903 125.886 153.49 126.87L153.586 126.233C158.268 130.458 162.681 135.988 168.393 139.015C174.668 142.341 180.56 141.148 186.554 137.945C187.249 137.576 190.356 135.394 190.596 135.357C191.021 135.298 191.416 135.993 191.889 136.18C194.021 137.057 196.805 136.635 198.565 135.196C199.2 134.678 199.937 133.218 200.242 133.046C200.619 132.838 202.811 132.715 203.619 132.512C214.337 129.865 223.349 120.554 226.127 110.474C227.468 110.463 228.839 110.388 230.187 110.436C238.156 110.714 248.665 113.805 250.563 103.372L250.485 6.89909L250.473 6.89374ZM162.861 73.0076C163.717 72.8258 163.579 73.9916 163.872 74.5798C165.058 76.9542 167.705 75.4515 167.926 73.152C168.232 70.0129 167.639 66.4674 167.95 63.2855L168.369 62.8844L170.441 62.8469C170.519 64.6652 170.333 66.5208 170.429 68.3391C170.573 71.1306 171.878 75.3446 169.327 77.4248C167.459 78.9489 164.316 78.981 162.429 77.5532L162.861 73.0023V73.0076ZM192.362 37.7127L192.087 56.9698L180.279 56.7024V37.718H169.178L168.89 37.1886L185.776 18.1828C186.458 18.0812 187.261 19.0812 187.728 19.5357C193.476 25.1829 198.5 31.5788 204.308 37.1832L204.727 37.9854L192.362 37.718V37.7127ZM205.26 73.3766C204.655 78.8527 199.152 81.2591 195.182 76.8794C191.919 73.2803 192.308 63.9379 198.482 63.1839C200.937 62.8844 203.811 63.8791 204.661 66.2588C205.236 67.8792 205.451 71.66 205.26 73.3766ZM187.853 74.4943C187.901 74.8847 187.889 75.1841 188.29 75.4141H192.65L192.931 78.3553H185.764C185.59 78.3553 185.063 77.9917 184.782 77.9543L184.494 77.4248L184.536 63.6865C185.237 63.3817 186.955 63.0929 187.452 63.6438C188.392 64.6866 187.614 72.4996 187.859 74.4889L187.853 74.4943ZM182.512 70.184C182.099 72.7456 178.722 73.8151 176.345 73.5424V77.9543L175.878 78.3126C175.525 78.3874 175.159 78.3714 174.8 78.3714C174.225 78.3714 173.609 78.4623 173.255 77.9543V63.3817C179.333 62.5849 183.632 63.2641 182.512 70.184ZM182.8 117.276C182.818 119.725 182.638 118.372 181.722 120.233C180.65 122.405 181.165 124.351 181.967 126.474C174.662 130.052 171.058 125.977 166.651 121.142L156.681 109.506L157.418 106.688L186.752 108.041L183.889 111.602C182.812 113.554 182.788 115.126 182.806 117.276H182.8ZM192.931 133.437C192.907 132.752 193.566 132.282 193.709 131.64C194.637 127.431 189.147 122.132 184.782 124.346C184.087 123.041 185.039 120.49 186.386 119.864C189.374 118.474 193.811 120.966 195.745 123.137C199.062 126.859 199.817 133.843 192.931 133.437ZM201.224 129.966C201.062 122.303 194.039 115.912 185.901 116.592C185.847 109.811 193.859 108.682 196.536 103.581C197.685 101.377 197.554 99.2917 198.182 97.1258C198.967 94.4359 201.961 94.8477 203.451 96.8264C205.805 99.9494 204.823 104.244 202.481 107.099C201.901 107.805 198.979 109.944 199.434 110.682C203.457 112.356 205.445 115.308 206.116 119.378C208.278 120.116 208.074 116.57 207.697 115.249C206.972 112.736 204.918 111.656 204.182 109.372L213.457 109.64C212.625 111.174 209.098 112.586 210.26 114.463C213.128 113.779 215.146 111.688 217.313 109.96L223.295 110.174C218.804 119.201 211.822 127.41 201.236 129.961L201.224 129.966ZM246.545 104.367C245.455 108.468 239.312 107.607 235.773 107.511C231.684 107.404 227.516 106.95 223.433 106.688L206.697 106.163C207.846 102.5 208.152 98.2114 205.697 94.9493C202.925 91.2701 196.619 91.5375 195.524 96.2007C194.763 99.4414 195.17 102.671 191.829 104.982C190.662 105.153 189.452 105.142 188.279 105.11C182.213 104.944 176.058 104.319 170.022 104.03C165.956 103.837 161.849 103.923 157.795 103.49L160.891 84.2432C165.429 84.318 169.992 84.3555 174.531 84.4945C193.673 85.0881 212.954 86.0614 232.121 86.3876C235.001 86.4357 239.085 87.0721 240.581 84.2539L240.641 12.7762C239.498 8.46062 235.45 9.87242 232.151 9.9152C201.481 10.3216 170.908 11.0436 140.233 11.5035C138.718 11.4126 137.287 13.3698 137.287 14.5838V50.8146L131.934 50.1301L131.946 8.96865C131.958 7.84563 132.964 6.58357 133.994 6.10227C136.095 5.12899 143.095 5.70119 145.867 5.63702C174.291 4.97925 202.871 4.06479 231.277 3.74928C234.037 3.71719 240.995 3.31611 243.246 3.88297C247.563 4.96321 246.455 10.1558 246.599 13.2629C247.904 41.8785 246.875 71.7242 246.599 100.431C246.587 101.698 246.928 102.944 246.551 104.372L246.545 104.367ZM206.14 79.1575L209.924 63.9111L213.978 63.6758C215.828 68.6278 217.104 73.6707 217.816 78.8955L215.116 79.0345L214.014 76.0719C211.044 75.644 209.619 75.6654 209.248 78.7778L206.14 79.1575ZM219.906 79.1575V63.6491H225.666C226.882 63.6491 229.492 65.3122 230.079 66.4032C231.486 69.0129 231.45 75.5852 228.756 77.5532C227.822 78.2323 225.091 79.1575 223.977 79.1575H219.9H219.906Z" fill="black"/>
<path d="M133.527 202.674C133.108 202.594 132.611 202.829 132.323 202.407C134.497 199.829 136.7 196.251 137.425 192.706C138.203 188.92 137.119 185.053 134.227 182.935C133.874 182.679 133.072 182.417 132.886 182.165C132.652 181.855 132.425 180.502 132.102 179.919C130.611 177.24 127.198 176.561 124.635 176.919C124.15 176.989 123.91 177.358 123.377 177.229C122.845 177.101 121.288 175.475 120.898 174.935C118.695 171.86 118.821 168.705 120.084 165.192C120.384 164.358 121.162 162.497 121.623 161.828C121.737 161.662 121.821 161.491 122.036 161.502L122.18 161.534C122.371 160.742 122.557 159.962 122.623 159.143L113.001 157.074C112.45 157.833 111.923 158.635 111.366 159.432C111.408 159.464 111.45 159.512 111.492 159.582C110.642 161.796 109.725 164.058 109.234 166.432C107.845 173.117 109.642 179.497 114.935 182.909C114.222 184.417 113.432 186.406 114.222 188.048C112.965 188.166 111.504 187.887 110.27 188.048C110.174 188.059 109.965 188.273 109.779 188.31C104.414 189.39 99.66 193.802 99.5702 200.497C96.9176 200.567 94.247 200.406 91.5945 200.492C86.2414 200.658 80.8285 201.251 75.5174 201.663C74.0803 201.776 72.5774 201.743 71.1343 201.824C71.8529 198.952 71.8409 195.904 71.5595 192.952C71.6194 192.519 72.2421 192.075 72.4816 191.684C73.9785 189.289 74.1881 186.599 73.242 183.866C73.0804 183.395 72.5894 182.652 72.4876 182.246C72.0325 180.476 74.8288 173.657 75.703 171.834C78.14 166.748 81.7686 161.646 85.493 157.753C86.1576 157.058 87.9 155.282 88.6006 154.876C88.7683 154.78 88.9239 154.683 89.1156 154.678C89.1156 154.678 89.1036 154.673 89.0976 154.667C88.391 154.127 87.7683 153.4 86.9839 152.983C85.6846 152.288 84.0379 152.314 82.6129 152.159C80.6908 151.945 78.7627 151.753 76.8347 151.625C76.5952 151.699 76.3197 151.721 76.0204 151.667C75.7329 151.614 75.4515 151.571 75.1641 151.534C75.0923 151.534 75.0264 151.534 74.9545 151.528C75.3557 151.592 75.7569 151.657 76.1581 151.705C76.3856 151.919 74.7989 153.657 74.6492 153.86C70.0865 160.085 66.2184 167.053 63.5179 174.609L62.1108 169.352C54.5603 153.502 33.9445 161.283 35.2258 179.508C35.7468 186.914 39.7406 192.535 44.1296 197.439C47.1534 200.818 52.0275 206.995 55.7938 208.69C63.9131 212.343 73.3558 213.155 81.9722 213.792C98.3966 215.006 115.054 215.193 131.383 212.797C134.305 212.369 141.227 211.514 143.329 209.086C144.029 208.273 143.999 206.968 143.311 206.15C141.766 204.316 135.802 203.123 133.521 202.69L133.527 202.674ZM49.3988 199.813L43.6267 193.695C39.2855 188.513 36.1001 181.117 37.5671 173.727C38.9921 166.534 45.3212 166.748 49.3929 171.015C50.5904 172.272 51.7281 174.117 52.5843 175.711C55.8357 181.764 57.2188 189.016 61.3803 194.428L49.4048 199.808L49.3988 199.813ZM61.9192 207.187C60.542 207.626 59.4642 207.588 58.0871 207.193C55.2608 206.385 52.6442 204.032 50.7461 201.572L62.5958 196.412C62.7216 196.412 62.8174 196.471 62.9072 196.562C63.4281 197.07 64.6915 200.31 64.8891 201.166C65.6855 204.669 64.8652 206.252 61.9252 207.193L61.9192 207.187ZM68.5656 188.492L69.6913 193.283C69.9787 197.021 70.1883 201.69 67.2603 204.145C67.1465 201.872 66.6256 199.567 65.7035 197.562C64.1407 194.16 61.4342 191.465 59.8834 188.021C56.2967 180.085 54.1232 168.192 45.1356 166.219C44.9978 166.186 44.8242 165.962 44.7823 165.962H42.4111C42.3513 165.636 42.495 165.646 42.6626 165.507C46.1714 162.684 51.5844 162.256 55.3626 164.513C58.6798 166.491 60.3863 170.026 61.3204 174.058C62.0929 177.401 61.7575 180.438 63.9491 183.139C64.3502 183.631 66.422 185.748 66.5477 184.123C66.5717 183.807 65.1825 181.941 64.9011 181.379C64.4221 180.422 64.1766 179.502 63.8113 178.492C65.2783 177.438 67.3621 178.652 68.5536 179.812C70.6793 181.882 73.0205 186.855 71.1942 189.871C70.3979 190.032 69.6494 187.117 68.5656 188.476V188.492ZM124.713 206.722C119.605 209.738 109.911 211 104.797 207.658C100.241 204.679 100.726 197.198 104.39 193.524C108.468 189.438 115.078 189.695 119.761 192.187C120.348 192.497 123.042 194.749 123.419 194.348C122.988 192.134 120.545 190.321 118.851 189.422C118.312 189.134 116.336 188.46 116.156 188.224C115.563 187.46 115.743 185.39 116.474 184.732C116.683 184.663 118.503 186.219 118.982 186.449C121.455 187.62 125.521 187.187 127.132 184.449C128.371 182.337 127.216 180.534 125.862 179.085C130.748 178.764 132.73 183.556 129.395 187.818C129.018 188.299 128.407 188.861 127.916 189.176C127.012 189.765 125.563 189.823 125.88 191.342C126.24 192.005 128.689 190.813 129.186 190.476C130.209 189.781 131.497 188.219 132.096 187.032C132.407 186.412 132.557 185.481 132.784 185.005C133.108 184.337 133.832 185.203 134.125 185.551C139.586 192.048 129.647 203.808 124.719 206.722H124.713Z" fill="black"/>
<path d="M149.131 163.705L50.0156 150.684C51.5245 131.977 53.9496 111.998 57.626 90.9389C60.5121 74.409 63.8952 58.7402 67.5956 43.9912C81.7686 44.7934 96.9476 46.1036 112.977 48.0983C132.407 50.5208 150.37 53.6171 166.711 57.0129C162.669 72.4785 158.981 89.1527 155.951 106.955C152.526 127.073 150.376 146.069 149.137 163.705H149.131Z" fill="#FFF6E5" stroke="black" stroke-width="2" stroke-miterlimit="10"/>
<path d="M143.718 141.715L62.2786 131.014C62.536 119.201 63.5839 105.821 66.0149 91.2378C68.3741 77.0823 71.6135 64.3548 75.0864 53.2422C86.481 53.4133 99.205 54.1513 112.965 55.8358C129.323 57.8305 143.921 60.7664 156.526 63.943C153.418 74.9967 150.568 87.1788 148.31 100.382C145.766 115.26 144.371 129.126 143.712 141.715H143.718Z" fill="white" stroke="black" stroke-width="2" stroke-miterlimit="10"/>
<path d="M137.281 50.8149L131.928 50.1304L131.94 8.96897C131.952 7.84595 132.958 6.58389 133.988 6.10259C136.089 5.12931 143.089 5.70151 145.861 5.63734C174.285 4.97957 202.865 4.06511 231.271 3.74959C234.031 3.71751 240.989 3.31643 243.24 3.88329C247.557 4.96353 246.45 10.1562 246.593 13.2632C247.899 41.8789 246.869 71.7245 246.593 100.431C246.581 101.698 246.923 102.944 246.545 104.372C245.456 108.474 239.312 107.613 235.773 107.517C231.684 107.41 227.516 106.955 223.433 106.693L206.697 106.169C207.847 102.506 208.152 98.2171 205.697 94.955C202.925 91.2758 196.62 91.5431 195.524 96.2064C194.763 99.4471 195.171 102.677 191.829 104.987C190.662 105.158 189.452 105.148 188.279 105.116C182.213 104.95 176.058 104.324 170.022 104.035C165.956 103.843 161.849 103.928 157.795 103.495L160.891 84.2488C165.429 84.3237 169.992 84.3612 174.531 84.5002C193.674 85.0938 212.954 86.0671 232.121 86.3933C235.001 86.4414 239.085 87.0778 240.582 84.2595L240.641 12.7819C239.498 8.46629 235.45 9.87808 232.151 9.92087C201.482 10.3273 170.908 11.0492 140.233 11.5091C138.718 11.4182 137.287 13.3755 137.287 14.5894V50.8202L137.281 50.8149Z" fill="#D2797B"/>
<path d="M60.8294 19.0067L45.0696 64.9597L39.495 64.1629C38.9322 60.4569 39.0998 56.644 39.7645 52.9648C41.0578 52.8578 43.6625 54.0076 44.6984 53.2482L55.7098 22.809C56.3146 20.6378 54.0872 20.7447 52.4525 20.4185C43.3871 18.611 34.0522 17.8249 24.9628 16.0922L22.3341 16.4612L11.161 46.9005C11.2209 47.1411 11.3227 47.4406 11.5083 47.6063C12.6041 48.5743 23.2742 49.4139 25.4358 50.1305C25.9028 50.4353 25.3639 53.7509 25.4238 54.6867C25.5136 55.9969 25.9208 57.6654 26.5435 58.8312C24.867 58.8152 23.0946 61.4676 21.909 61.5318L3.50269 58.2858L19.5618 12.6162L60.8294 19.0067Z" fill="#FFF6E5"/>
<path d="M169.178 37.7123L168.89 37.1829L185.776 18.1771C186.458 18.0755 187.261 19.0755 187.728 19.5301C193.476 25.1773 198.5 31.5732 204.308 37.1776L204.727 37.9797L192.362 37.7123L192.087 56.9695L180.279 56.7021V37.7177H169.178V37.7123Z" fill="white"/>
<path d="M199.428 110.682C203.452 112.356 205.44 115.308 206.11 119.378C208.272 120.116 208.068 116.57 207.691 115.249C206.966 112.736 204.913 111.656 204.176 109.372L213.451 109.639C212.619 111.174 209.092 112.586 210.254 114.463C213.122 113.779 215.14 111.688 217.307 109.96L223.289 110.174C218.798 119.201 211.816 127.41 201.23 129.961C201.068 122.298 194.045 115.907 185.907 116.586C185.854 109.805 193.865 108.677 196.542 103.575C197.691 101.372 197.56 99.2863 198.188 97.1204C198.973 94.4305 201.967 94.8423 203.458 96.821C205.811 99.944 204.829 104.238 202.488 107.094C201.907 107.8 198.985 109.939 199.44 110.677L199.428 110.682Z" fill="white"/>
<path d="M8.57443 62.0551L20.3643 64.1888C19.6877 65.5311 18.8195 67.0926 18.6817 68.6007C18.6219 69.2638 18.4243 71.7772 19.6458 71.4136C20.0529 71.2906 21.7056 67.1086 22.1846 66.3172C22.9271 65.0872 24.5078 63.2797 25.7173 62.4615C26.9269 61.6433 28.6274 61.3705 29.8788 60.5523C29.1004 56.7234 27.1784 51.9906 29.795 48.4237C31.3698 46.2793 33.8367 45.0974 36.615 45.9103C39.3934 46.7231 37.8785 48.7713 37.5851 50.4933C37.2797 52.3008 36.7947 54.5201 36.6629 56.3009C36.1121 63.8412 39.3574 71.2692 30.771 75.5581C26.5616 77.6597 22.9929 77.7346 18.4602 76.5527C10.7899 74.558 7.27509 69.6328 8.56844 62.0497L8.57443 62.0551Z" fill="white"/>
<path d="M186.746 108.04L183.884 111.602C182.806 113.554 182.782 115.126 182.8 117.276C182.818 119.725 182.638 118.372 181.722 120.233C180.65 122.404 181.165 124.351 181.968 126.474C174.663 130.052 171.058 125.977 166.651 121.142L156.681 109.506L157.418 106.688L186.752 108.04H186.746Z" fill="white"/>
<path d="M219.906 79.1578V63.6494H225.666C226.882 63.6494 229.492 65.3126 230.079 66.4035C231.486 69.0132 231.45 75.5855 228.756 77.5535C227.822 78.2327 225.091 79.1578 223.978 79.1578H219.9H219.906ZM223.002 76.7513C226.349 76.6925 227.307 75.0133 227.51 72.0828C227.744 68.7191 227.121 66.2217 223.002 66.3233V76.7513Z" fill="white"/>
<path d="M198.482 63.1837C200.937 62.8842 203.811 63.8789 204.661 66.2586C205.236 67.879 205.452 71.6598 205.26 73.3764C204.655 78.8525 199.152 81.259 195.183 76.8792C191.919 73.2802 192.308 63.9377 198.482 63.1837ZM199.045 65.8415C195.674 66.3067 195.799 73.5476 197.416 75.2909C198.141 76.0717 200.386 76.3177 201.093 75.569C202.248 74.339 203.164 65.2746 199.045 65.8468V65.8415Z" fill="white"/>
<path d="M213.978 63.6758C215.828 68.6278 217.104 73.6707 217.816 78.8954L215.116 79.0344L214.014 76.0718C211.044 75.644 209.619 75.6654 209.248 78.7777L206.14 79.1574L209.924 63.9111L213.978 63.6758ZM210.637 73.5423C211.146 73.4033 213.397 73.3391 213.439 72.8792L212.319 68.7347L210.763 72.4621L210.637 73.5423Z" fill="white"/>
<path d="M176.345 73.5427V77.9546L175.878 78.3129C175.525 78.3878 175.159 78.3717 174.8 78.3717C174.225 78.3717 173.609 78.4626 173.255 77.9546V63.3821C179.333 62.5853 183.632 63.2644 182.512 70.1844C182.099 72.7459 178.722 73.8155 176.345 73.5427ZM176.345 71.1363C181.069 71.2325 180.92 65.3019 176.345 65.5212V71.1363Z" fill="white"/>
<path d="M192.931 133.436C192.907 132.752 193.566 132.281 193.709 131.64C194.638 127.431 189.147 122.131 184.782 124.345C184.087 123.04 185.039 120.49 186.386 119.864C189.374 118.473 193.811 120.966 195.745 123.137C199.063 126.859 199.817 133.843 192.931 133.436Z" fill="white"/>
<path d="M192.644 75.4142L192.925 78.3555H185.758C185.584 78.3555 185.057 77.9918 184.776 77.9544L184.488 77.4249L184.53 63.6866C185.231 63.3818 186.949 63.0931 187.446 63.6439C188.386 64.6867 187.608 72.4997 187.853 74.489C187.901 74.8794 187.889 75.1789 188.291 75.4089H192.65L192.644 75.4142Z" fill="white"/>
<path d="M16.1489 78.8953C21.969 81.1681 27.4718 80.3446 32.729 77.291C34.4535 85.5693 16.3645 86.9169 16.1489 78.8953Z" fill="white"/>
<path d="M170.447 62.8471C170.525 64.6654 170.339 66.521 170.435 68.3393C170.579 71.1308 171.884 75.3448 169.333 77.425C167.465 78.9491 164.322 78.9812 162.436 77.5534L162.867 73.0025C163.723 72.8206 163.585 73.9864 163.879 74.5747C165.064 76.9491 167.711 75.4464 167.932 73.1469C168.238 70.0077 167.645 66.4622 167.956 63.2803L168.375 62.8792L170.447 62.8418V62.8471Z" fill="white"/>
<path d="M223.001 76.7514V66.3233C227.121 66.2217 227.744 68.7191 227.51 72.0828C227.307 75.0133 226.349 76.6925 223.001 76.7514Z" fill="black"/>
<path d="M199.045 65.8414C203.17 65.2692 202.254 74.3336 201.092 75.5636C200.386 76.3176 198.141 76.0662 197.416 75.2855C195.799 73.5475 195.668 66.3066 199.045 65.836V65.8414Z" fill="black"/>
<path d="M210.637 73.542L210.763 72.4617L212.32 68.7344L213.439 72.8789C213.397 73.3388 211.146 73.4083 210.637 73.542Z" fill="black"/>
<path d="M176.345 71.1357V65.5206C180.92 65.3013 181.069 71.2319 176.345 71.1357Z" fill="black"/>
<path d="M81.6308 103.227C82.8463 105.971 85.3372 108.083 88.0078 109.591C98.7258 115.639 113.983 115.388 122.94 106.57L120.413 105.901C120.461 102.853 125.048 104.088 126.737 105.366C127.934 106.27 129.665 109.035 128.162 110.201C126.659 111.366 126.569 108.045 125.192 108.04C123 116.244 117.761 125.083 108.157 126.463C98.7258 127.816 91.2891 122.099 89.6364 113.388C86.1037 111.933 82.996 109.88 80.6668 106.949C79.4932 105.473 79.8824 104.382 77.134 104.826C77.158 101.853 81.2296 99.5373 83.978 101.126C87.5407 103.184 81.8763 102.965 81.6308 103.227ZM116.479 119.003C110.653 116.949 104.247 118.859 99.3366 122.073C104.372 125.634 112.821 123.645 116.479 119.003Z" fill="black"/>
<path d="M100.193 95.1897C101.983 95.6924 104.893 97.7513 103.81 99.7192C103.031 100.233 98.5164 96.7406 97.1033 96.393C95.8698 96.0935 94.2891 96.2539 93.0077 97.04C91.7682 97.7994 90.3013 99.4679 90.8701 101.366C91.2892 102.757 92.6604 103.826 94.3669 104.136C94.343 104.399 94.2112 105.548 93.343 105.949C91.9419 106.596 89.948 104.634 89.8402 104.527C88.4091 103.094 88.4211 101.318 88.4271 100.826C88.457 99.3342 89.1276 98.2326 89.4809 97.7352C87.3194 96.8956 86.6487 93.6228 86.4511 91.5586C85.8344 85.2323 89.6606 70.2373 98.7979 72.0608C106.498 73.5956 104.157 86.3179 102.085 91.2645C101.792 91.9651 99.9774 94.9009 100.193 95.1951V95.1897ZM97.0914 87.7136C97.3069 87.5585 95.2531 85.4034 95.1693 85.1146C94.9178 84.2483 96.786 81.6065 97.5105 81.029C99.8637 79.1519 102.642 81.2375 101.163 77.2962C99.2589 72.2266 94.3909 74.5636 92.0856 78.0075C89.0139 82.5905 87.5768 90.5533 90.2054 95.4678L93.5945 93.8849L94.0256 87.7457L97.0854 87.7136H97.0914Z" fill="black"/>
<path d="M121.467 74.9438C129.82 73.5802 129.503 84.3184 128.485 89.372C128.012 91.7143 127.12 94.3079 125.479 96.1369C125.479 96.4149 128.329 97.2385 128.701 97.8749C128.988 98.3669 129.042 99.7573 128.198 99.7038C127.503 99.661 126.114 98.8321 125.018 98.7038C123.791 98.5594 121.509 98.5594 120.276 98.677C118.905 98.8054 113.689 100.592 113.306 100.506C111.348 100.073 110.773 93.2331 110.863 91.5913C111.151 86.1794 114.977 76.0027 121.467 74.9438ZM126.88 82.9013C126.832 79.5429 124.743 75.8636 120.701 77.4252C114.977 79.6338 111.378 92.3079 113.947 97.5005L118.054 96.554C117.749 94.5539 117.767 92.4416 118.432 90.5057L121.821 90.6554C122.348 90.0565 119.45 88.6607 119.342 88.0778C120.557 84.9922 122.964 81.7996 126.88 82.9013Z" fill="black"/>
<path d="M86.978 71.6708C84.8763 67.0344 90.8521 63.0396 95.2531 62.8418C97.2171 62.7508 101.349 63.446 102.031 65.5156C102.971 68.366 98.3188 66.3926 96.9596 66.3178C95.0795 66.2162 93.0197 66.7777 91.4868 67.8151C90.6964 68.3499 87.5589 72.0719 86.978 71.6708Z" fill="black"/>
<path d="M122.593 66.3871C127.03 65.6759 131.772 67.7615 133.197 71.9434C133.605 73.1466 134.305 75.7777 132.641 76.2216C131.862 76.2216 130.868 73.6333 130.252 72.8686C127.401 69.3284 124.491 69.43 120.12 69.4086C119.084 67.9273 121.204 66.601 122.593 66.3818V66.3871Z" fill="black"/>
<path d="M116.48 119.003C112.821 123.645 104.372 125.634 99.3367 122.073C104.247 118.859 110.654 116.95 116.48 119.003Z" fill="#D2797B"/>
<path d="M97.0914 87.7139L94.0316 87.7459L93.6005 93.8851L90.2115 95.4681C87.5769 90.5481 89.0199 82.5907 92.0916 78.0077C94.3969 74.5638 99.2649 72.2269 101.169 77.2965C102.648 81.2378 99.8697 79.1522 97.5165 81.0292C96.792 81.6068 94.9238 84.2539 95.1753 85.1149C95.2591 85.4036 97.3189 87.5588 97.0974 87.7139H97.0914Z" fill="white"/>
<path d="M126.88 82.9007C122.958 81.7991 120.557 84.9917 119.342 88.0773C119.456 88.6602 122.348 90.056 121.821 90.6549L118.432 90.5052C117.767 92.441 117.743 94.5534 118.054 96.5534L113.947 97.5C111.378 92.3127 114.983 79.6332 120.701 77.4246C124.749 75.8631 126.838 79.5423 126.88 82.9007Z" fill="white"/>
<path d="M129.389 187.817C129.012 188.299 128.401 188.86 127.91 189.176C127.006 189.764 125.557 189.823 125.874 191.342C126.234 192.005 128.683 190.812 129.18 190.475C130.204 189.78 131.491 188.219 132.09 187.031C132.401 186.411 132.551 185.48 132.778 185.005C133.102 184.336 133.826 185.202 134.12 185.55C139.58 192.047 129.641 203.807 124.713 206.722C119.785 209.636 109.911 211 104.798 207.658C100.241 204.679 100.726 197.197 104.39 193.523C108.468 189.438 115.079 189.694 119.761 192.187C120.348 192.497 123.042 194.748 123.419 194.347C122.988 192.133 120.545 190.32 118.851 189.422C118.312 189.133 116.336 188.459 116.156 188.224C115.564 187.459 115.743 185.39 116.474 184.732C116.683 184.662 118.504 186.218 118.983 186.448C121.455 187.62 125.521 187.186 127.132 184.448C128.371 182.336 127.216 180.534 125.862 179.085C130.748 178.764 132.73 183.555 129.395 187.817H129.389Z" fill="#99B655"/>
<path d="M49.3869 171.02C50.5844 172.277 51.7221 174.122 52.5784 175.716C55.8297 181.769 57.2129 189.021 61.3744 194.433L49.3989 199.812L43.6267 193.695C39.2856 188.513 36.1001 181.117 37.5671 173.726C38.9922 166.534 45.3212 166.747 49.3929 171.015L49.3869 171.02Z" fill="#5A4E3D"/>
<path d="M42.4111 165.968C42.3512 165.641 42.4949 165.652 42.6625 165.513C46.1714 162.689 51.5843 162.262 55.3626 164.518C58.6798 166.497 60.3863 170.032 61.3204 174.064C62.0928 177.406 61.7575 180.444 63.949 183.144C64.3502 183.636 66.4219 185.754 66.5477 184.128C66.5716 183.813 65.1825 181.947 64.901 181.385C64.422 180.428 64.1765 179.508 63.8113 178.497C65.2783 177.444 67.362 178.658 68.5536 179.818C70.6792 181.888 73.0204 186.861 71.1942 189.877C70.3978 190.038 69.6493 187.123 68.5655 188.481L69.6912 193.273C69.9786 197.011 70.1882 201.68 67.2602 204.134C67.1464 201.861 66.6255 199.557 65.7034 197.551C64.1406 194.15 61.4341 191.455 59.8833 188.011C56.2966 180.075 54.1231 168.181 45.1355 166.208C44.9978 166.176 44.8241 165.951 44.7822 165.951H42.4111V165.968Z" fill="#99B655"/>
<path d="M62.9073 196.561C63.4283 197.069 64.6917 200.31 64.8893 201.166C65.6856 204.669 64.8653 206.251 61.9253 207.193C60.5482 207.631 59.4704 207.594 58.0932 207.198C55.267 206.39 52.6503 204.037 50.7522 201.578L62.6019 196.417C62.7277 196.417 62.8235 196.476 62.9133 196.567L62.9073 196.561Z" fill="#5A4E3D"/>
<path d="M116.617 100.853C116.988 100.489 117.665 100.393 118.144 100.66C118.635 100.928 118.743 101.479 118.425 101.88C118.066 102.324 117.282 102.463 116.761 102.147C116.27 101.848 116.21 101.254 116.617 100.858V100.853Z" fill="black"/>
<path d="M121.39 100.051C121.761 99.6876 122.437 99.5913 122.917 99.8587C123.408 100.126 123.515 100.677 123.198 101.078C122.839 101.522 122.054 101.661 121.533 101.345C121.042 101.046 120.982 100.452 121.39 100.057V100.051Z" fill="black"/>
<path d="M119.33 102.57C119.701 102.206 120.378 102.11 120.857 102.377C121.348 102.645 121.455 103.195 121.138 103.597C120.779 104.04 119.994 104.179 119.474 103.864C118.983 103.564 118.923 102.971 119.33 102.575V102.57Z" fill="black"/>
<path d="M83.2236 95.81C83.5949 95.4463 84.2715 95.3501 84.7505 95.6175C85.2415 95.8849 85.3493 96.4357 85.0319 96.8368C84.6727 97.2806 83.8883 97.4197 83.3673 97.1041C82.8763 96.8047 82.8165 96.2111 83.2236 95.8153V95.81Z" fill="black"/>
<path d="M86.1157 97.4946C86.487 97.1309 87.1636 97.0347 87.6426 97.302C88.1336 97.5694 88.2414 98.1202 87.924 98.5213C87.5647 98.9652 86.7804 99.1042 86.2594 98.7887C85.7684 98.4892 85.7085 97.8956 86.1157 97.4999V97.4946Z" fill="black"/>
<path d="M82.6247 98.3989C82.996 98.0352 83.6726 97.939 84.1516 98.2063C84.6426 98.4737 84.7504 99.0245 84.433 99.4256C84.0738 99.8695 83.2894 100.009 82.7685 99.693C82.2775 99.3935 82.2176 98.7999 82.6247 98.4042V98.3989Z" fill="black"/>
</svg>
