<svg width="433" height="463" viewBox="0 0 433 463" fill="none" xmlns="http://www.w3.org/2000/svg">
<path d="M297.414 342.058H147.347V433.414H297.414V342.058Z" fill="#B65562" stroke="black" stroke-width="4" stroke-miterlimit="10"/>
<path d="M415.717 387.736H297.414V433.415H415.717V387.736Z" fill="#B65562" stroke="black" stroke-width="4" stroke-miterlimit="10"/>
<path d="M147.347 365.455H29.0439V433.414H147.347V365.455Z" fill="#B65562" stroke="black" stroke-width="4" stroke-miterlimit="10"/>
<path d="M414.833 385.706H297.721V370.37H398.495C403.941 375.48 409.387 380.597 414.833 385.706Z" fill="#7C3841" stroke="black" stroke-width="3" stroke-miterlimit="10"/>
<path d="M29.8381 363.552H147.213V348.217H46.2067C40.7455 353.326 35.2918 358.443 29.8306 363.552H29.8381Z" fill="#7C3841" stroke="black" stroke-width="3" stroke-miterlimit="10"/>
<path d="M296.313 339.975H148.808C154.112 334.739 159.416 329.494 164.712 324.257H285.256C288.941 329.494 292.62 334.739 296.305 339.975H296.313Z" fill="#7C3841" stroke="black" stroke-width="4" stroke-miterlimit="10"/>
<path d="M368.745 22.4949C369.259 22.4109 370.055 22.589 372.144 24.0476V24.0486C378.511 28.5089 385.942 34.6205 392.017 39.7371C392.499 40.1438 393.058 40.4724 393.441 40.7078C393.881 40.9785 394.138 41.1535 394.303 41.323C394.428 41.4511 394.44 41.5126 394.445 41.5759C394.452 41.6729 394.435 41.9219 394.221 42.3943C393.616 42.9116 393.004 43.5724 392.438 44.1912C391.747 44.9461 391.08 45.6898 390.388 46.3386C389.691 46.9924 389.065 47.4536 388.506 47.6921C388.058 47.8834 387.704 47.9125 387.374 47.8171L362.58 29.0603C362.366 28.7234 362.324 28.3331 362.484 27.9167C362.555 27.8367 362.656 27.7287 362.781 27.5955C363.054 27.3042 363.418 26.9261 363.796 26.5388C364.574 25.743 365.333 24.9882 365.492 24.8464L365.498 24.8416L365.503 24.8357C366.38 24.0386 367.023 23.4698 367.579 23.072C368.124 22.6814 368.475 22.539 368.745 22.4949Z" fill="#5585B6" stroke="black" stroke-width="3"/>
<path d="M37.0137 147.437C37.1779 147.468 37.2864 147.527 37.415 147.646C37.5838 147.801 37.7541 148.026 38.0449 148.439C38.2316 148.705 38.4608 149.034 38.7383 149.384V149.421L39.1201 149.848C41.7893 152.838 44.0132 155.766 46.625 158.885C49.9556 162.861 53.3643 166.455 56.2715 170.522L55.9473 171.732C55.2704 172.035 54.6036 172.442 53.9961 172.838C53.042 173.459 52.2719 174.018 51.3623 174.583C50.4918 175.123 49.7404 175.503 49.0967 175.669C48.5499 175.81 48.183 175.773 47.8926 175.63C47.8502 175.589 47.7955 175.536 47.7305 175.472C47.5566 175.299 47.3294 175.068 47.0947 174.826C46.8606 174.585 46.6231 174.338 46.4307 174.135C46.3343 174.033 46.2508 173.944 46.1855 173.873C46.153 173.838 46.126 173.809 46.1055 173.786C46.0953 173.775 46.0879 173.766 46.082 173.759C46.0762 173.752 46.0732 173.749 46.0732 173.749L46.0645 173.738L45.2871 172.83C41.4189 168.273 37.7939 163.484 33.9512 158.731V158.73L33.2256 157.858C32.4894 156.994 31.7279 156.154 30.999 155.339C30.1185 154.354 29.2763 153.393 28.5088 152.4C28.5071 152.38 28.5065 152.361 28.5049 152.342C28.4896 152.159 28.4771 152.014 28.4717 151.876C28.471 151.859 28.4711 151.843 28.4707 151.827C28.6619 151.696 28.9164 151.529 29.2236 151.334C29.9425 150.877 30.8959 150.299 31.8711 149.725C32.8457 149.151 33.8293 148.587 34.6084 148.161C34.9993 147.947 35.3285 147.774 35.5742 147.651C35.6977 147.59 35.7883 147.548 35.8486 147.521C35.8503 147.521 35.852 147.519 35.8535 147.519C36.4703 147.386 36.8204 147.399 37.0137 147.437Z" fill="#F18923" stroke="black" stroke-width="3"/>
<path d="M366.201 292.339C366.428 292.306 366.837 292.324 367.538 292.611H367.539C367.496 292.593 367.565 292.623 367.823 292.784C368.04 292.921 368.325 293.106 368.658 293.33C369.322 293.777 370.151 294.355 370.977 294.945C371.803 295.534 372.616 296.13 373.249 296.61C373.566 296.85 373.829 297.056 374.023 297.214C374.12 297.293 374.182 297.347 374.218 297.379L374.231 297.395C374.296 297.474 374.343 297.538 374.376 297.589C374.313 297.647 374.222 297.725 374.087 297.832C373.922 297.964 373.609 298.201 373.34 298.48L373.228 298.602L373.222 298.609C370.071 302.282 366.636 305.79 363.124 309.296C359.697 312.716 356.183 316.149 352.841 319.686C351.961 319.994 350.853 319.627 349.181 318.448C348.317 317.839 347.516 317.174 346.606 316.476C345.904 315.937 345.135 315.38 344.349 314.969C344.341 314.913 344.349 314.868 344.36 314.823C344.405 314.641 344.561 314.348 344.928 313.938C345.285 313.539 345.738 313.142 346.237 312.718C346.691 312.332 347.252 311.87 347.651 311.441C352.799 305.904 357.973 300.707 363.367 295.321L363.366 295.32C363.893 294.794 364.325 294.204 364.663 293.75C365.031 293.255 365.293 292.918 365.564 292.674C365.803 292.459 365.994 292.369 366.201 292.339Z" fill="#9754B6" stroke="black" stroke-width="3"/>
<path d="M319.607 208.565C320.371 208.438 320.849 208.473 321.159 208.552C321.458 208.629 321.687 208.767 321.929 208.998C322.205 209.261 322.46 209.604 322.841 210.127C323.199 210.619 323.645 211.231 324.229 211.834V211.835C328.546 216.294 332.652 220.928 336.735 225.573V225.574C337.289 226.205 338.073 226.924 338.757 227.577C339.484 228.27 340.16 228.946 340.668 229.609C341.193 230.293 341.408 230.797 341.439 231.141C341.458 231.359 341.427 231.663 340.918 232.104C340.918 232.104 340.916 232.106 340.911 232.111C340.905 232.115 340.897 232.122 340.887 232.129C340.867 232.145 340.84 232.166 340.806 232.191C340.739 232.241 340.652 232.305 340.545 232.379C340.333 232.529 340.059 232.716 339.741 232.928C339.106 233.353 338.314 233.866 337.521 234.368C336.727 234.87 335.942 235.354 335.319 235.719C335.006 235.903 334.745 236.05 334.55 236.153C334.454 236.204 334.393 236.232 334.361 236.248C334.189 236.266 333.826 236.215 333.194 235.807C332.516 235.369 331.76 234.669 330.969 233.808C330.189 232.958 329.432 232.017 328.738 231.138C328.069 230.293 327.413 229.445 326.903 228.893L326.902 228.892L325.547 227.447C324.183 226.008 322.793 224.585 321.419 223.172C319.583 221.282 317.771 219.404 316.047 217.484L316.044 217.48L315.331 216.669C314.998 216.287 314.596 215.823 314.206 215.366C313.816 214.91 313.445 214.469 313.169 214.131C313.044 213.978 312.946 213.854 312.876 213.763C312.745 213.293 312.785 212.991 312.871 212.819C312.907 212.789 312.955 212.75 313.018 212.702C313.205 212.559 313.469 212.37 313.794 212.146C314.442 211.7 315.288 211.146 316.15 210.6C317.012 210.054 317.876 209.525 318.563 209.128C318.908 208.929 319.195 208.771 319.408 208.662C319.495 208.617 319.561 208.586 319.607 208.565Z" fill="#F1BD22" stroke="black" stroke-width="3"/>
<path d="M222.284 48.1155C222.466 48.0719 222.768 48.0507 223.262 48.1643L249.671 64.1106L249.677 64.1145C249.71 64.1346 249.89 64.2874 249.974 64.8489C250.041 65.2993 250.007 65.8003 249.925 66.1868C249.844 66.298 249.727 66.4526 249.577 66.6438C249.264 67.0438 248.844 67.5632 248.406 68.094C247.511 69.18 246.637 70.2023 246.458 70.386C246.186 70.6563 245.649 71.0473 245.05 71.3372C244.756 71.4791 244.486 71.5773 244.265 71.6292C244.192 71.6462 244.132 71.6555 244.084 71.6614L217.111 55.2913C217.007 55.1984 216.828 55.0302 216.659 54.8469C216.614 54.7979 216.574 54.7522 216.54 54.7122C216.557 54.6484 216.588 54.557 216.649 54.4338C216.806 54.1186 217.08 53.738 217.462 53.303C217.837 52.8753 218.265 52.4505 218.695 52.0315C219.101 51.6364 219.55 51.2058 219.876 50.8411C220.311 50.3536 220.674 49.8191 220.954 49.4172C221.26 48.9779 221.482 48.679 221.712 48.4573C221.918 48.259 222.092 48.1615 222.284 48.1155Z" fill="#56B6A9" stroke="black" stroke-width="3"/>
<path d="M282.36 277.168C282.853 276.952 283.647 276.923 284.474 277.096C284.513 277.116 284.566 277.142 284.631 277.176C284.825 277.278 285.094 277.424 285.417 277.605C286.061 277.964 286.892 278.442 287.724 278.928C288.555 279.414 289.379 279.905 290.011 280.29C290.327 280.483 290.589 280.647 290.775 280.767C290.85 280.815 290.907 280.852 290.948 280.88C291.273 281.226 291.333 281.413 291.342 281.453C291.343 281.457 291.358 281.468 291.31 281.568C291.24 281.71 291.102 281.897 290.832 282.201C290.609 282.452 290.225 282.857 289.93 283.245L289.624 283.647V283.653C284.847 289.919 279.367 296.279 274.097 302.15L274.096 302.151C273.634 302.666 273.256 303.193 272.958 303.594C272.64 304.023 272.408 304.314 272.164 304.537C271.848 304.827 271.427 305.095 270.448 305.079C270.014 304.725 269.484 304.391 268.998 304.104C268.234 303.652 267.329 303.173 266.479 302.726C265.611 302.269 264.805 301.847 264.177 301.483C263.863 301.301 263.623 301.15 263.457 301.031C263.417 301.003 263.388 300.978 263.365 300.96C263.352 300.925 263.336 300.881 263.321 300.827C263.286 300.696 263.26 300.535 263.25 300.364C263.242 300.218 263.249 300.081 263.263 299.965C263.346 299.92 263.444 299.865 263.541 299.801C263.71 299.689 263.953 299.503 264.158 299.219L264.162 299.215C268.128 293.672 272.653 288.791 277.134 283.53L277.133 283.529C278.063 282.438 278.971 281.114 279.795 280.015C280.628 278.904 281.444 277.925 282.36 277.168Z" fill="#F18923" stroke="black" stroke-width="3"/>
<path d="M200.608 306.49C200.758 306.429 201.067 306.358 201.675 306.426L201.682 306.427C201.63 306.421 201.71 306.431 202.025 306.527C202.29 306.608 202.638 306.724 203.046 306.867C203.861 307.152 204.878 307.532 205.885 307.927C206.894 308.321 207.877 308.725 208.628 309.057C209.006 309.225 209.308 309.366 209.519 309.474C209.536 309.483 209.55 309.492 209.565 309.5C209.572 309.527 209.581 309.562 209.588 309.604C209.622 309.8 209.63 310.07 209.6 310.396C209.554 310.89 209.433 311.381 209.307 311.743C209.054 311.91 208.679 312.211 208.441 312.716L208.439 312.721C205.379 319.273 201.719 325.708 198.241 332.07L198.24 332.073C197.908 332.684 197.64 333.381 197.417 333.942C197.175 334.548 196.967 335.044 196.719 335.453C196.479 335.851 196.252 336.08 196.025 336.211C195.822 336.328 195.506 336.431 194.952 336.38C194.93 336.373 194.837 336.349 194.637 336.286C194.378 336.204 194.032 336.085 193.622 335.939C192.803 335.648 191.768 335.261 190.74 334.861C189.711 334.461 188.7 334.053 187.928 333.723C187.541 333.558 187.227 333.418 187.006 333.311C186.955 333.287 186.913 333.264 186.878 333.246C186.751 333.06 186.696 332.782 186.84 332.224C187.027 331.505 187.425 330.784 187.828 329.974L189.091 327.447C192.111 321.481 195.627 315.032 198.894 309.488L198.895 309.486C199.241 308.897 199.497 308.302 199.698 307.85C199.916 307.359 200.065 307.05 200.228 306.821C200.367 306.626 200.479 306.542 200.608 306.49ZM194.932 336.379C194.927 336.378 194.921 336.378 194.916 336.378L194.914 336.377L194.932 336.379Z" fill="#9754B6" stroke="black" stroke-width="3"/>
<path d="M263.991 207.937C265.242 209.174 263.683 212.889 263.039 214.29C260.567 219.632 257.128 225.266 254.477 230.436C253.323 232.691 252.274 238.055 248.993 237.778C247.937 237.688 240.79 235.066 240.056 234.406C238.198 232.751 240.393 229.184 241.299 227.184C243.741 221.79 247.098 216.253 249.832 211.009C251.255 208.274 251.165 204.326 255.398 204.798C256.192 204.888 263.653 207.608 263.991 207.937Z" fill="#8FBDDE"/>
<path d="M130.175 68.6172C130.975 68.0927 131.526 68.0541 131.954 68.1523C132.409 68.2572 132.945 68.5721 133.593 69.2031L133.778 69.3926C134.323 69.9542 134.92 70.7252 135.592 71.6025C136.096 72.2602 136.644 72.9783 137.198 73.6201L137.05 75.2705L111.614 92.0449C111.261 92.169 110.726 92.2015 110.202 92.1182C110.173 92.1027 110.122 92.0764 110.048 92.0283C109.866 91.9088 109.624 91.7265 109.333 91.4824C108.752 90.9968 108.057 90.3387 107.369 89.6338C106.682 88.9308 106.024 88.2031 105.514 87.5879C105.259 87.2796 105.05 87.0111 104.898 86.7959C104.756 86.5951 104.702 86.496 104.692 86.4785C104.496 85.9929 104.567 85.663 104.853 85.3682L130.175 68.6172Z" fill="#B65462" stroke="black" stroke-width="3"/>
<path d="M102.816 212.807C103.414 212.674 103.808 212.699 104.076 212.767C104.364 212.84 104.623 212.993 104.904 213.27C105.204 213.565 105.494 213.965 105.847 214.507C106.101 214.897 106.405 215.387 106.738 215.873V215.895L107.026 216.29C107.408 216.815 107.897 217.33 108.25 217.721C108.645 218.158 108.916 218.487 109.081 218.781C109.231 219.05 109.228 219.175 109.216 219.24C109.204 219.314 109.137 219.544 108.747 219.934L81.5044 235.38C81.2616 235.485 81.1094 235.519 80.9868 235.521H80.978C80.7642 235.526 80.463 235.45 80.0483 235.168C79.6308 234.885 79.1829 234.45 78.7153 233.893C77.7507 232.742 76.9725 231.42 76.2212 230.323H76.2202C76.0186 230.027 75.7833 229.819 75.5981 229.679C75.427 229.549 75.233 229.429 75.1528 229.377C75.1309 229.363 75.1123 229.35 75.0962 229.339C74.9913 229.057 74.9956 228.913 75.0024 228.863C75.0087 228.816 75.0265 228.745 75.1372 228.617C75.265 228.47 75.4728 228.296 75.8101 228.068C76.2038 227.801 76.4665 227.654 76.9731 227.323L76.9771 227.321C80.9593 224.7 85.348 222.366 89.8267 220.014C94.2076 217.713 98.6796 215.391 102.816 212.807Z" fill="#5585B6" stroke="black" stroke-width="3"/>
<path d="M55.2471 292.374C55.5266 292.312 55.9676 292.289 56.6738 292.401L84.6299 307.161C84.6531 307.246 84.6775 307.354 84.6924 307.483C84.7201 307.723 84.7126 307.949 84.6953 308.115C84.135 308.903 83.1839 310.364 82.3496 311.557C81.8402 312.285 81.348 312.957 80.9268 313.462C80.7153 313.716 80.5415 313.903 80.4092 314.028C80.3759 314.059 80.3479 314.08 80.3281 314.097C80.2952 314.103 80.248 314.113 80.1826 314.121C80.0264 314.141 79.8425 314.153 79.6025 314.167C79.3482 314.182 78.977 314.197 78.5908 314.252L50.5078 299.365C50.423 299.235 50.3738 298.997 50.542 298.457C50.755 297.774 51.2098 297.026 51.6504 296.371C51.6773 296.352 51.7195 296.324 51.7959 296.275C51.9627 296.167 52.4064 295.897 52.7451 295.45L52.748 295.448C53.2262 294.814 53.5975 294.189 53.8867 293.725C54.1987 293.224 54.4079 292.925 54.6221 292.715C54.7991 292.542 54.9764 292.434 55.2471 292.374Z" fill="#F1BD22" stroke="black" stroke-width="3"/>
<path d="M193.661 102.144C196.83 101.207 199.662 104.684 202.029 106.294C208.644 110.79 215.154 115.472 221.799 119.967C222.683 120.784 222.81 122.125 222.376 123.204C222.054 124.005 217.327 128.583 216.42 129.16C214.502 130.396 213.588 129.317 211.933 128.306C203.895 123.376 196.381 116.558 188.253 111.621C187.174 110.857 186.957 109.426 187.444 108.227C187.751 107.471 192.942 102.354 193.654 102.144H193.661Z" fill="#BDEC85"/>
<path d="M338.938 70.3491C339.215 70.9828 339.573 71.6562 339.909 72.2808C340.432 73.2537 340.958 74.2194 341.351 75.1528C341.753 76.1103 341.928 76.8434 341.899 77.356C341.88 77.704 341.779 77.9392 341.434 78.1548L310.812 87.8618C310.427 87.9024 310.239 87.9161 310.077 87.9009C309.963 87.8902 309.838 87.8614 309.639 87.7495C309.612 87.7211 309.538 87.6417 309.415 87.48C309.222 87.2269 308.984 86.8714 308.725 86.4341C308.205 85.5599 307.645 84.439 307.215 83.3198C306.774 82.1723 306.52 81.1545 306.509 80.4438C306.504 80.1587 306.541 80.0009 306.565 79.9302L338.089 70.1313L338.938 70.3491Z" fill="#B65462" stroke="black" stroke-width="3"/>
<path d="M111.959 131.14C112.326 131.083 112.942 131.089 113.997 131.244C118.603 133.268 123.617 134.882 128.519 136.472C133.519 138.094 138.405 139.692 142.81 141.705V141.706C142.909 141.752 143.313 141.964 143.732 142.195C143.801 142.233 143.867 142.272 143.931 142.308C143.934 142.376 143.937 142.45 143.938 142.527C143.939 142.651 143.935 142.776 143.931 142.894C143.735 143.028 143.422 143.29 143.241 143.736C142.658 145.174 142.18 146.785 141.387 148.164C140.649 149.447 140.01 149.863 139.373 149.844C134.72 148.05 129.807 146.462 124.982 144.855C120.068 143.219 115.233 141.558 110.729 139.612H110.728C109.778 139.202 109.161 138.892 108.758 138.612C108.372 138.345 108.32 138.199 108.308 138.163C108.29 138.11 108.245 137.917 108.396 137.386C108.54 136.877 108.818 136.21 109.262 135.283C109.271 135.278 109.283 135.273 109.296 135.266C109.342 135.241 109.42 135.198 109.503 135.146C109.657 135.048 109.968 134.829 110.182 134.429L110.183 134.43C110.641 133.572 110.921 132.808 111.133 132.255C111.368 131.64 111.48 131.416 111.584 131.29C111.608 131.261 111.649 131.187 111.959 131.14Z" fill="#9754B6" stroke="black" stroke-width="3"/>
<path d="M170.393 259.137C170.556 259.157 170.753 259.197 170.954 259.251C171.156 259.305 171.335 259.367 171.466 259.425L171.469 259.426C171.508 259.521 171.551 259.654 171.604 259.845C171.651 260.013 171.728 260.306 171.794 260.527C171.864 260.757 171.969 261.076 172.136 261.372V261.371C172.309 261.68 172.529 261.891 172.709 262.031C172.815 262.113 172.929 262.186 173.005 262.233C173.407 263.146 173.916 264.376 174.132 265.505C174.249 266.112 174.257 266.574 174.191 266.884C174.151 267.071 174.094 267.167 174.031 267.228L143.967 277.076C143.092 277.214 142.584 277.262 142.271 277.254C142.242 277.253 142.217 277.249 142.196 277.248C142.166 277.192 142.12 277.109 142.062 276.985C141.899 276.639 141.656 276.09 141.261 275.44H141.26C141.054 275.1 140.782 274.907 140.636 274.813C140.578 274.777 140.523 274.746 140.479 274.722C140.004 273.737 139.4 272.402 139.134 271.184C138.989 270.518 138.977 270.023 139.05 269.699C139.101 269.474 139.179 269.367 139.31 269.287L170.235 259.124C170.27 259.126 170.322 259.128 170.393 259.137Z" fill="#F09F9D" stroke="black" stroke-width="3"/>
<path d="M395.038 171.734C395.511 171.715 395.771 171.76 395.893 171.789C395.896 171.794 395.899 171.8 395.902 171.805C395.986 171.991 396.081 172.245 396.187 172.553C396.259 172.762 396.426 173.268 396.501 173.485C396.598 173.763 396.725 174.114 396.872 174.392L396.873 174.394C399.795 179.912 403.267 186.998 405.734 192.764V192.765C406.147 193.727 406.803 195.127 407.231 196.509C407.444 197.195 407.572 197.794 407.597 198.26C407.612 198.534 407.586 198.692 407.566 198.773C407.432 198.852 407.236 198.955 406.977 199.078C406.452 199.326 405.765 199.614 405.035 199.899C403.929 200.332 402.801 200.732 402.091 200.964L401.538 201.135C400.782 201.34 400.094 201.557 399.419 201.635C398.819 201.705 398.554 201.62 398.444 201.552C397.711 200.743 397.252 199.82 396.836 198.733C396.443 197.704 396.004 196.255 395.411 195.002H395.412C392.532 188.913 389.369 182.466 386.5 176.51L386.499 176.509L386.278 176.023C385.845 175.009 385.959 174.779 385.959 174.777C385.965 174.765 386.017 174.656 386.31 174.457C386.61 174.252 387.055 174.024 387.72 173.732C388.59 173.351 390.557 172.62 392.478 172.151C393.441 171.916 394.332 171.763 395.038 171.734Z" fill="#99B655" stroke="black" stroke-width="3"/>
<path d="M286.667 141.379L282.629 171.212C282.067 172.306 281.145 172.381 280.044 172.471C278.576 172.59 271.954 171.901 270.71 171.392C269.092 170.725 269.407 169.114 269.466 167.646C269.586 164.754 270.575 161.959 270.942 159.128C271.729 153.104 272.193 147.021 273.025 141.005C273.804 140.712 273.991 139.806 274.808 139.536C276.074 139.109 283.49 139.791 284.929 140.225C285.475 140.39 286.015 141.184 286.659 141.372L286.667 141.379Z" fill="#FBEB7C"/>
<path d="M199.46 175.655C201.108 175.565 202.194 175.407 203.303 176.958C203.311 179.086 205.97 185.229 203.745 186.488L170.454 192.721C165.936 192.534 167.607 186.795 165.749 183.813L167.285 181.536L199.453 175.662L199.46 175.655Z" fill="#F09E9C"/>
<path d="M64.4409 32.325V32.366H65.3208C65.3227 32.3672 65.3247 32.3687 65.3267 32.3699C65.5113 32.4846 65.7936 32.6052 66.1509 32.6052C66.5037 32.6052 66.8056 32.4997 67.0405 32.3621C67.213 32.3578 67.3818 32.3531 67.5239 32.3503C67.8985 32.3431 68.2426 32.3466 68.5503 32.3826C68.8647 32.4194 69.0583 32.4816 69.1646 32.5378C69.1711 32.5413 69.1766 32.5464 69.1821 32.5496C69.1937 32.7461 69.2048 33.0213 69.2134 33.3601C69.2309 34.0541 69.2403 34.9657 69.2427 35.905C69.2452 36.9313 69.2383 37.9575 69.228 38.7537H68.6665V39.8298C68.444 39.7756 68.2286 39.7526 68.0396 39.7537C67.6354 39.756 67.105 39.8671 66.647 40.1765C63.454 40.1217 59.8607 40.3552 56.4419 40.4939C52.7226 40.6447 49.1816 40.6861 46.23 40.2107H46.229C46.0496 40.1819 45.9692 40.1495 45.9399 40.1345C45.9151 40.0931 45.8368 39.9326 45.7896 39.5095L45.7886 39.5046L45.7661 39.2527C45.7163 38.5543 45.6861 37.1107 45.7251 35.6599C45.747 34.8433 45.79 34.0697 45.8569 33.4685C45.8844 33.2215 45.9157 33.023 45.9448 32.8728C46.0137 32.8506 46.1111 32.8236 46.2446 32.7966C46.6997 32.7046 47.3147 32.66 48.0278 32.6501C48.7301 32.6404 49.4584 32.6644 50.1333 32.6873C50.7679 32.7088 51.4303 32.733 51.8872 32.7078C56.0925 32.4928 60.269 32.2821 64.4409 32.325ZM66.4946 32.366C66.4855 32.3661 66.4764 32.364 66.4673 32.364C66.4811 32.3643 66.4951 32.3638 66.5093 32.364C66.5045 32.3642 66.4995 32.3659 66.4946 32.366Z" fill="#F1BD22" stroke="black" stroke-width="3"/>
<path d="M205.368 294.882C207.825 294.792 212.874 295.728 212.972 299.107C212.986 299.646 212.544 300.493 212.679 300.815C212.799 301.115 213.728 301.871 214.043 302.284C214.934 303.467 216.02 305.048 216.732 306.359C217.541 307.85 219.466 311.641 219.886 313.154C221.362 318.489 216.964 323.066 213.279 325.883C202.956 333.78 185.396 336.596 173.365 332.558C170.099 331.457 166.608 329.854 166.345 325.636C166.263 324.272 166.885 319.964 167.162 318.466C169.222 307.303 179.657 300.201 189.771 304.359C191.134 304.921 192.303 305.925 193.674 306.442C193.666 305.887 194.176 305.235 194.123 304.733C194.071 304.261 193.367 303.557 193.239 302.756C192.962 301.055 194.176 299.429 195.299 298.395C195.734 297.991 196.895 297.541 196.91 296.927C196.094 293.99 195.284 290.993 194.745 287.981C192.228 274.099 192.82 258.935 195.741 245.173C196.213 242.963 197.487 236.932 198.543 235.313C200.446 232.414 204.559 232.983 205.96 236.13C207.038 238.557 205.735 240.917 205.181 243.292C201.749 257.976 200.648 272.174 203.495 287.12C203.997 289.742 204.701 292.312 205.383 294.874L205.368 294.882ZM210.492 298.463C210.125 298.021 208.904 297.571 208.327 297.586C208.237 298.013 208.664 297.766 208.836 298.028C210.035 299.834 206.282 301.587 205.053 301.961C203.33 302.493 197.352 303.587 196.76 301.092L197.15 299.998C196.723 299.879 196.655 300.178 196.401 300.396C194.423 302.156 195.419 303.475 197.577 303.962C198.034 304.067 199.584 304.299 200.004 304.299C200.963 304.299 203.068 303.213 203.315 305.018C203.472 306.179 202.618 306.359 201.742 306.434C199.779 306.614 197.809 306.397 195.914 305.902L195.269 308.307C196.888 310.128 198.685 312.532 199.682 314.84C200.124 315.874 201.24 318.556 199.27 318.256C198.393 318.121 197.397 315.11 196.858 314.136C192.985 307.116 186.085 303.505 178.706 306.501C171.732 309.333 168.061 317.103 168.952 324.962C170.997 326.984 173.784 327.898 176.481 328.37C187.291 330.266 204.192 327.119 212.559 319.193C213.953 317.874 216.68 315.027 216.792 313.004C216.957 309.978 213.354 304.808 211.406 302.696L209.443 303.752C208.881 303.759 208.544 302.808 208.619 302.328C208.799 301.227 211.818 300.043 210.499 298.448L210.492 298.463ZM174.294 330.61C182.961 332.791 192.363 332.446 200.88 329.674C206.611 327.808 212.754 324.587 216.53 319.47C217.189 318.578 217.931 317.267 218.021 316.121L215.916 319.08C207.922 328.348 191.224 331.817 179.875 331.172C178.923 331.12 177.949 330.723 176.931 330.865C176.324 330.745 175.71 330.528 175.103 330.423C174.833 330.378 174.249 330.123 174.301 330.618L174.294 330.61Z" fill="black"/>
<path d="M225.047 332.686C224.942 332.551 224.268 331.285 224.186 331.067C223.661 329.749 223.1 326.093 222.987 324.572C222.073 312.015 233.917 300.71 245.349 304.838C245.169 304.224 245.679 303.347 245.566 302.875C245.499 302.583 244.765 301.909 244.547 301.272C243.858 299.242 245.881 296.724 247.057 295.271C245.986 293.076 244.555 290.978 243.476 288.738C237.513 276.294 234.831 259.265 234.412 245.375C234.307 241.801 233.745 236.684 237.88 235.695C240.068 235.171 242.682 236.827 243.057 239.261C243.558 242.483 243.027 247.098 243.356 250.477C244.682 264.382 247.012 279.014 254.788 290.491L255.14 290.596C257.38 289.712 262.557 289.555 262.976 292.904C263.058 293.578 262.699 294.604 262.841 294.904C263.006 295.249 264.639 296.335 265.074 296.807C266.167 298.006 266.752 299.669 267.583 300.808C267.98 301.354 268.789 301.774 269.321 302.418C271.928 305.617 271.217 309.004 270.123 312.69C264.654 331.03 248.855 338.305 231.872 335.375C230.201 335.09 226.126 334.019 225.04 332.693L225.047 332.686ZM260.699 292.814C260.339 292.439 258.586 292.199 258.024 292.222C258.032 292.686 258.669 292.551 258.901 293.016C259.942 295.151 255.44 297.991 253.971 298.71C252.188 299.579 248.226 301.16 247.469 298.395C244.967 302.044 248.975 301.871 251.372 301.272C252.638 300.957 254.249 299.594 255.013 300.995C255.635 302.134 254.256 302.621 253.432 302.965C251.664 303.714 249.439 304.299 247.589 303.767L247.364 305.895C249.492 307.003 252.114 308.824 253.679 310.749C254.264 311.461 255.327 312.742 254.488 313.641C253.417 314.795 251.836 311.918 251.072 311.146C245.671 305.715 237.685 304.666 231.61 309.453C227.362 312.795 224.148 319.889 225.287 325.583C225.572 326.992 227.362 328.153 228.531 328.782C236.419 333.015 251.297 329.502 257.777 323.231C261.725 319.41 267.171 310.045 266.452 304.179C266.25 302.553 264.781 299.729 263.733 298.522C263.396 298.14 261.95 296.754 261.523 297.084C261.305 297.249 261.298 298.425 260.002 297.721C258.286 296.792 261.912 294.087 260.691 292.814H260.699ZM226.785 331.337C228.014 332.506 233.52 333.457 235.273 333.577C245.207 334.229 255.679 331.809 262.369 323.366C264.916 320.152 268.475 312.899 268.924 308.704C269.014 307.895 269.194 306.239 268.452 305.91C268.198 311.573 265.576 316.421 262.482 320.803C255.455 330.775 239.655 335.945 228.628 331.352C227.834 331.022 227.055 330.55 226.336 330.071C225.999 330.251 226.688 331.247 226.778 331.337H226.785Z" fill="black"/>
<path d="M210.492 298.463C211.81 300.059 208.791 301.242 208.612 302.344C208.537 302.823 208.874 303.775 209.436 303.767L211.398 302.711C213.346 304.823 216.949 309.993 216.785 313.02C216.672 315.035 213.953 317.882 212.552 319.208C204.177 327.134 187.276 330.281 176.474 328.385C173.777 327.913 170.99 326.999 168.945 324.977C168.053 317.118 171.724 309.341 178.699 306.517C186.078 303.52 192.977 307.131 196.85 314.151C197.389 315.125 198.386 318.137 199.262 318.271C201.24 318.571 200.124 315.889 199.674 314.855C198.678 312.555 196.88 310.15 195.262 308.322L195.906 305.917C197.802 306.412 199.772 306.629 201.734 306.449C202.611 306.367 203.465 306.194 203.308 305.033C203.06 303.228 200.948 304.314 199.996 304.314C199.569 304.314 198.019 304.082 197.569 303.977C195.412 303.49 194.423 302.171 196.393 300.411C196.64 300.186 196.715 299.894 197.142 300.014L196.753 301.107C197.345 303.602 203.323 302.508 205.046 301.976C206.274 301.594 210.027 299.841 208.829 298.043C208.656 297.788 208.237 298.028 208.319 297.601C208.896 297.586 210.117 298.036 210.484 298.478L210.492 298.463Z" fill="#99B655"/>
<path d="M174.294 330.61C174.241 330.116 174.826 330.371 175.095 330.416C175.702 330.52 176.316 330.738 176.923 330.858C177.942 330.715 178.916 331.112 179.867 331.165C191.209 331.817 207.915 328.34 215.908 319.073L218.013 316.114C217.923 317.26 217.182 318.571 216.522 319.462C212.747 324.587 206.604 327.808 200.873 329.666C192.355 332.438 182.961 332.783 174.286 330.603L174.294 330.61Z" fill="#5A4E3D"/>
<path d="M260.699 292.814C261.92 294.087 258.294 296.792 260.01 297.721C261.306 298.425 261.313 297.249 261.53 297.084C261.957 296.762 263.403 298.141 263.74 298.523C264.789 299.729 266.258 302.553 266.46 304.179C267.186 310.038 261.733 319.41 257.785 323.231C251.312 329.502 236.427 333.015 228.539 328.782C227.362 328.153 225.572 326.984 225.295 325.583C224.149 319.89 227.37 312.795 231.618 309.453C237.693 304.666 245.686 305.715 251.08 311.146C251.844 311.918 253.425 314.795 254.496 313.641C255.335 312.742 254.271 311.461 253.687 310.749C252.114 308.831 249.499 307.011 247.372 305.895L247.597 303.767C249.447 304.299 251.664 303.715 253.44 302.965C254.264 302.621 255.65 302.134 255.021 300.995C254.249 299.601 252.638 300.957 251.38 301.272C248.982 301.872 244.967 302.044 247.477 298.395C248.233 301.16 252.196 299.579 253.979 298.71C255.448 297.991 259.957 295.151 258.908 293.016C258.684 292.552 258.04 292.686 258.032 292.222C258.601 292.199 260.354 292.439 260.706 292.814H260.699Z" fill="#99B655"/>
<path d="M226.786 331.337C226.696 331.247 226.007 330.251 226.344 330.071C227.07 330.543 227.849 331.023 228.636 331.352C239.656 335.952 255.463 330.775 262.489 320.804C265.583 316.413 268.198 311.574 268.46 305.91C269.202 306.239 269.022 307.895 268.932 308.704C268.482 312.9 264.924 320.152 262.377 323.366C255.68 331.809 245.214 334.222 235.281 333.577C233.528 333.465 228.014 332.506 226.793 331.337H226.786Z" fill="#5A4E3D"/>
<path d="M315.663 234.497C310.749 235.621 307.198 239.516 309.97 244.798C308.614 245.802 307.677 247.271 306.801 248.716C304.666 252.253 301.886 257.422 303.692 261.565C304.703 263.888 306.853 265.229 308.576 266.877C307.812 272.691 310.973 277.628 316.982 275.103C319.806 278.639 325.544 279.111 327.799 274.698C330.009 275.8 333.56 275.47 335.208 273.447C337.972 270.061 337.538 258.673 336.571 254.47C335.695 250.657 333.62 246.072 330.159 244.184C333.073 239.344 329.32 235.036 324.645 234.212L324.473 233.965C324.106 226.878 322.6 219.865 320.06 213.302C315.933 202.641 307.55 191.478 297.834 185.957C296.328 185.103 295.032 184.795 293.421 185.515C290.305 186.901 289.698 191.748 292.492 193.861C293.032 194.273 293.788 194.49 294.373 194.872C296.695 196.4 298.515 197.764 300.531 199.704C309.76 208.597 315.094 221.416 315.671 234.497H315.663ZM313.528 237.793C317.236 235.561 326.653 234.879 328.803 239.644C329.297 240.73 328.953 243.135 327.604 243.247C326.878 243.307 324.286 242.333 324.435 243.757C324.525 244.618 327.132 244.783 327.904 245.038C335.305 247.495 335.867 260.906 335.013 267.506C334.489 271.537 332.938 274.549 328.518 272.848C328.061 272.376 328.825 269.072 328.496 267.993L328.338 267.731C328.159 267.596 327.837 267.589 327.634 267.656C326.803 267.948 326.938 274.474 324.211 275.343C322.181 275.994 319.716 275.448 318.637 273.387C319.177 272.436 319.813 266.6 319.057 266.36C318.607 266.225 318.382 266.637 318.263 267.012C317.528 269.372 318.015 272.99 314.936 273.53C313.191 273.837 311.962 273.237 311.176 271.604C309.558 268.225 312.299 260.516 312.614 256.463C312.682 255.579 313.019 252.867 311.925 252.972C311.131 253.054 311.288 255.504 311.161 256.223C310.794 258.254 310.232 260.763 309.685 262.756C309.603 263.071 309.28 264.457 309.071 264.449C307.325 263.019 304.965 260.936 304.935 258.403C304.905 255.489 308.651 248.439 310.816 246.529C311.91 245.562 313.446 245.345 314.659 244.573L314.33 243.427C313.221 243.157 312.719 244.199 312.06 243.809C311.932 243.734 311.266 242.326 311.221 242.041C310.951 240.288 311.356 239.636 312.532 238.55C312.599 238.482 313.453 237.831 313.528 237.786V237.793Z" fill="black"/>
<path d="M169.08 104.89C188.505 104.83 209.473 105.535 231.76 107.385C259.193 109.655 284.439 113.311 307.228 117.619C301.894 136.371 297.002 158.615 294.11 183.847C290.32 216.917 291.009 246.113 293.219 269.75C271.696 265.884 248.166 262.557 222.845 260.272C198.723 258.1 176.047 257.148 155.071 257.021C155.468 231.706 156.854 204.473 159.663 175.606C162.098 150.546 165.349 126.931 169.087 104.89H169.08Z" fill="#FFF6E5" stroke="black" stroke-width="3" stroke-miterlimit="10"/>
<path d="M180.55 119.906C195.182 119.728 211.072 120.205 228.032 121.673C249.316 123.514 268.777 126.622 286.169 130.289C283.242 144.823 280.684 161.205 279.063 179.219C277.309 198.643 276.953 216.456 277.365 232.249C251.14 225.787 232.161 223.283 219.353 222.247C218.368 222.165 217.424 222.098 217.333 222.09C196.328 220.518 181.354 221.084 171.738 221.874C171.305 206.856 171.571 189.945 173.122 171.528C174.736 152.365 177.447 135.066 180.543 119.921L180.55 119.906Z" fill="white" stroke="black" stroke-width="3" stroke-miterlimit="10"/>
<path d="M196.551 162.022C194.91 151.983 202.304 134.864 214.103 135.628C225.917 136.392 223.924 158.246 218.096 164.862C218.201 165.416 225.497 168.068 225.34 173.08C225.31 173.994 224.104 176.189 223.25 174.908C222.486 172.586 222.875 170.728 220.83 168.967C217.249 165.888 211.661 167.469 210.305 172.114C209.63 174.436 210.342 176.257 208.791 178.107C206.124 176.13 206.529 173.178 207.45 171.23C207.982 170.099 209.293 168.982 208.447 167.941L190.28 163.543" fill="black"/>
<path d="M220.897 142.137C220.853 139.41 218.388 135.529 215.609 134.742C205.091 131.76 197 150.348 199.42 158.282L202.506 158.671C202.851 154.581 205.046 150.415 207.63 147.171L211.436 147.748L211.136 143.717C213.931 141.919 217.571 141.26 220.897 142.144V142.137Z" fill="black"/>
<path d="M254.964 181.334C254.058 182.442 247.555 176.831 246.034 176.029C240.161 172.935 233.479 172.253 227.029 171.512C226.46 167.818 231.988 170.47 232.617 169.714C231.284 160.071 239.644 139.604 251.406 142.653C264.111 145.942 259.189 170.126 251.308 176.793C252.649 178.194 255.069 178.966 254.964 181.334ZM256.762 155.614C252.717 141.05 240.371 149.216 236.498 159.008C234.962 162.896 234.55 167.189 234.782 171.302L237.756 171.954C239.225 168.328 241.18 158.213 246.679 161.278L246.386 157.24C249.705 155.427 253.016 153.861 256.77 155.606L256.762 155.614Z" fill="black"/>
<path d="M264.243 145.94C263.965 146.734 262.34 147.348 261.875 147.041C261.703 146.929 261.044 144.576 260.137 143.437C258.422 141.28 255.897 140.403 254.706 138.178C256.759 136.2 263.92 143.752 264.243 145.94Z" fill="black"/>
<path d="M215.593 129.534C211.039 128.582 207.915 130.148 203.914 131.781L203.765 129.504C204.214 128.732 216.515 125.076 215.593 129.541V129.534Z" fill="black"/>
<path d="M220.429 145.574C217.103 144.69 213.462 145.349 210.668 147.147L210.968 151.178L207.162 150.601C204.578 153.852 202.383 158.01 202.038 162.101L198.952 161.711C196.532 153.777 204.622 135.19 215.14 138.172C217.92 138.958 220.384 142.839 220.429 145.566V145.574Z" fill="white"/>
<path d="M256.526 155.503C252.773 153.758 249.462 155.324 246.143 157.137L246.435 161.175C240.937 158.103 238.982 168.225 237.513 171.851L234.539 171.199C234.307 167.086 234.719 162.793 236.255 158.905C240.128 149.113 252.481 140.947 256.519 155.511L256.526 155.503Z" fill="white"/>
<path d="M196.603 166.554C196.97 166.239 197.554 166.239 197.921 166.576C198.296 166.921 198.303 167.498 197.973 167.857C197.606 168.262 196.917 168.284 196.528 167.887C196.161 167.513 196.198 166.891 196.595 166.554H196.603Z" fill="black"/>
<path d="M202.596 167.303C202.963 166.988 203.547 166.988 203.914 167.325C204.289 167.67 204.296 168.247 203.967 168.606C203.6 169.011 202.91 169.033 202.521 168.636C202.154 168.262 202.191 167.64 202.588 167.303H202.596Z" fill="black"/>
<path d="M199.599 170.3C199.966 169.985 200.551 169.985 200.918 170.322C201.292 170.667 201.3 171.244 200.97 171.603C200.603 172.008 199.914 172.03 199.524 171.633C199.157 171.259 199.195 170.637 199.592 170.3H199.599Z" fill="black"/>
<path d="M234.059 174.046C234.426 173.731 235.01 173.731 235.378 174.068C235.752 174.413 235.76 174.989 235.43 175.349C235.063 175.754 234.374 175.776 233.984 175.379C233.617 175.004 233.655 174.383 234.052 174.046H234.059Z" fill="black"/>
<path d="M238.554 175.544C238.921 175.229 239.506 175.229 239.873 175.566C240.247 175.911 240.255 176.488 239.925 176.847C239.558 177.252 238.869 177.274 238.479 176.877C238.112 176.503 238.15 175.881 238.547 175.544H238.554Z" fill="black"/>
<path d="M235.558 177.042C235.925 176.728 236.509 176.728 236.876 177.065C237.251 177.409 237.258 177.986 236.929 178.346C236.561 178.751 235.872 178.773 235.483 178.376C235.116 178.001 235.153 177.379 235.55 177.042H235.558Z" fill="black"/>
<path d="M211.626 197.636C212.458 198.333 211.739 199.652 210.795 199.532C210.173 199.457 207.019 197.734 205.978 197.374C199.528 195.156 189.879 197.329 187.594 189.845C185.602 183.327 193.535 173.61 201.805 177.843C204.652 179.304 205.678 182.068 208.495 183.574C211.567 185.222 213.911 184.84 216.968 185.627C218.556 186.031 218.166 187.665 216.825 187.71C216.286 187.725 214.638 187.402 213.986 187.29C210.9 186.758 207.289 185.822 204.997 183.889C204.09 183.124 203.356 181.851 202.487 181.019C193.73 172.598 183.062 190.931 195.011 193.523C197.4 194.04 199.917 194.025 202.33 194.415C205.708 194.962 208.675 196.198 211.634 197.636H211.626Z" fill="black"/>
<path d="M197.416 181.147C200.637 180.63 201.678 183.132 201.386 185.447C201.049 188.099 197.505 193.036 193.932 191.043C190.216 188.968 193.61 181.761 197.416 181.147Z" fill="black"/>
<path d="M313.528 237.793C313.453 237.838 312.606 238.49 312.531 238.557C311.363 239.644 310.951 240.295 311.22 242.049C311.265 242.333 311.932 243.742 312.059 243.817C312.719 244.206 313.221 243.165 314.329 243.435L314.659 244.581C313.453 245.352 311.917 245.57 310.816 246.536C308.651 248.447 304.913 255.497 304.935 258.411C304.958 260.943 307.325 263.026 309.07 264.457C309.28 264.457 309.595 263.078 309.685 262.764C310.224 260.771 310.793 258.269 311.16 256.231C311.288 255.512 311.131 253.062 311.925 252.979C313.011 252.867 312.681 255.586 312.614 256.47C312.299 260.524 309.557 268.233 311.175 271.612C311.955 273.245 313.191 273.844 314.936 273.537C318.015 272.998 317.528 269.379 318.262 267.019C318.382 266.644 318.607 266.225 319.056 266.367C319.813 266.607 319.176 272.443 318.637 273.395C319.716 275.455 322.18 276.009 324.21 275.35C326.937 274.474 326.802 267.956 327.634 267.663C327.836 267.588 328.158 267.603 328.338 267.738L328.495 268.001C328.833 269.079 328.068 272.383 328.518 272.855C332.938 274.556 334.489 271.544 335.013 267.514C335.874 260.913 335.305 247.503 327.904 245.045C327.132 244.791 324.525 244.626 324.435 243.764C324.285 242.341 326.877 243.315 327.604 243.255C328.952 243.142 329.297 240.737 328.803 239.651C326.645 234.886 317.228 235.568 313.528 237.801V237.793ZM322.562 249.241C322.248 249.098 318.712 249.091 319.244 247.892C320.045 246.229 326.51 247.338 326.705 248.237C326.982 249.503 325.806 249.031 325.199 249.173C325.042 249.211 325.079 249.548 324.922 249.593C323.948 249.84 323.222 249.548 322.562 249.241Z" fill="white"/>
<path d="M322.563 249.241C323.222 249.548 323.941 249.84 324.922 249.593C325.08 249.556 325.05 249.211 325.199 249.173C325.799 249.031 326.975 249.503 326.705 248.237C326.51 247.338 320.045 246.229 319.244 247.892C318.712 249.084 322.248 249.091 322.563 249.241Z" fill="black"/>
<path d="M147.961 190.669C150.816 190.587 151.1 190.594 152.321 190.534C154.906 190.399 157.011 190.19 158.427 190.025C158.614 189.95 159.198 189.68 159.528 189.036C159.888 188.339 159.805 187.463 159.333 186.766C159.805 184.863 160.187 182.705 160.367 180.33C160.42 179.626 160.449 178.944 160.464 178.285C156.951 178.502 154.074 178.869 152.007 179.192C151.482 179.274 141.324 180.847 140.822 179.364C140.777 179.229 140.725 178.817 140.388 178.457C140.051 178.098 139.668 178.248 139.556 177.91C139.346 177.296 139.653 176.435 139.459 175.768C138.814 173.595 137.661 172.846 135.593 171.842C137.466 166.688 137.271 160.447 132.949 156.356C131.6 155.083 129.383 153.794 127.375 153.921L127.27 153.517C128.814 153.502 132.567 148.632 132.949 148.535C133.638 148.362 135.009 148.617 136.447 148.243C144.927 146.002 153.917 132.255 152.621 124.321C152.606 124.231 152.584 124.081 152.554 123.886C152.554 123.886 151.887 120.223 148.471 116.612C147.991 116.102 147.557 115.795 147.16 115.6C147.032 115.533 146.86 115.45 146.725 115.398C145.632 114.941 143.182 114.342 142.028 114.372C139.871 114.424 139.249 115.495 138.238 114.971C137.661 114.671 137.841 114.319 136.889 113.57C136.043 112.896 135.174 112.626 134.829 112.491C134.417 112.334 133.908 112.214 133.076 112.146C125.323 111.472 92.8026 117.016 86.3975 120.867C86.3226 120.912 86.2552 121.017 86.1802 121.069L84.6295 124.905C81.8952 124.373 80.0448 124.778 77.6551 125.932C66.6353 135.731 80.5018 151.419 92.2932 153.607C95.7692 154.251 98.7357 153.404 101.133 153.704C102.474 153.869 105.68 156.663 107.381 156.341L107.276 156.948C105.328 158.034 103.83 160.806 103.905 162.889C103.942 163.856 105.268 164.972 104.751 166.103C104.586 166.47 104.422 166.47 104.1 166.875C103.178 168.066 103.455 169.804 103.717 171.183C103.935 172.322 105.373 173.73 105.418 173.88C105.448 174.007 104.586 175.595 104.557 176.33C104.459 179.109 105.838 180.578 108.257 181.979C108.332 182.398 107.298 182.57 106.939 182.982C105.56 184.578 106.534 189.343 108.991 189.56C110.64 189.703 116.34 188.796 118.408 188.549C120.536 188.294 126.469 186.818 128.042 186.931C128.888 186.991 129.877 188.234 132.267 189.381C132.836 189.65 133.308 189.86 133.615 189.987C136.297 190.594 138.5 190.789 140.006 190.849C141.519 190.916 141.796 190.827 147.969 190.654L147.961 190.669ZM135.631 174.427C136.552 174.974 137.226 175.955 137.099 177.026L134.132 176.42C133.938 176.097 134.852 173.925 135.631 174.427ZM129.832 157.113C135.863 160.417 134.649 170.254 131.533 174.996C130.132 173.842 128.349 170.883 128.409 169.167C128.469 167.332 130.896 166.32 130.11 162.837C127.323 163.459 127.765 168.358 124.079 168.703C118.55 169.22 121.052 162.103 122.461 159.795C124.116 157.09 126.379 155.217 129.84 157.113H129.832ZM123.307 171.482C123.495 171.333 126.057 170.651 126.169 170.741C126.768 174.209 129.405 176.487 132.072 178.645L119.614 180.465C120.348 179.506 121.539 178.974 122.026 177.738C122.88 175.603 121.435 172.996 123.307 171.475V171.482ZM141.212 116.881C145.564 116.379 148.741 119.121 149.669 122.912C151.864 131.888 143.856 143.478 134.484 146.212C135.608 142.017 140.013 140.713 142.62 137.237C145.377 133.558 149.295 124.598 144.972 120.979C140.755 117.443 138.837 122.897 138.088 122.905C136.192 122.927 135.968 117.481 141.212 116.874V116.881ZM136.889 139.32L137.324 125.13C140.567 126.336 141.137 120.852 143.204 122.62C147.01 125.887 141.152 137.387 136.889 139.32ZM94.5855 151.689C85.1689 150.73 73.6997 140.586 76.6213 131.176C78.2169 126.051 88.3902 125.093 86.9144 131.431C81.9252 129.183 78.9136 131.146 79.6778 136.323C80.352 140.908 86.4649 146.385 90.9447 147.973C93.9713 149.044 96.7131 148.565 98.6384 151.689C97.3424 151.591 95.8666 151.816 94.593 151.689H94.5855ZM88.4651 133.641L93.8214 146.414C88.128 144.879 81.1161 139.432 82.2323 133.394C82.457 133.064 82.9515 133.064 83.326 133.034C83.5133 133.019 83.813 133.004 83.9853 133.034C84.5996 133.131 85.079 133.678 85.7158 133.753C86.4424 133.843 88.0381 133.244 88.4651 133.641ZM105.186 153.007C94.3983 147.89 92.2033 137.005 89.012 127.16C88.6 126.831 87.5512 125.902 87.6411 124.755C87.6935 124.029 88.1804 123.527 88.3602 123.339C90.9073 120.702 105.927 118.297 108.13 117.938C112.572 117.211 113.224 116.919 118.977 116.027C122.408 115.495 125.323 115.113 127.51 114.851H133.061C133.338 114.829 134.867 114.746 135.803 115.81C136.005 116.042 136.148 116.282 136.245 116.514C136.133 116.582 136.02 116.657 135.915 116.739C134.889 117.533 134.589 118.777 134.492 119.459C134.507 119.998 134.454 120.545 134.492 121.077C134.964 128.441 136.192 136.458 133.129 143.523C132.484 145.006 131.45 146.145 130.334 147.224C129.892 148.093 128.881 149.314 128.154 149.966C126.087 151.801 119.914 153.592 122.244 156.139C120.498 155.674 119.24 154.865 117.322 154.731C111.891 154.341 110.737 155.637 105.193 153.007H105.186ZM120.273 157.975L118.49 162.402C118.078 162.522 117.621 162.372 117.209 162.432C116.685 162.507 115.531 163.084 115.681 162.23C115.254 162.23 114.797 162.2 114.37 162.23C114.513 162.829 113.958 162.747 113.494 162.432C111.044 162.679 109.179 163.076 106.856 163.833C105.268 157.51 115.629 155.719 120.266 157.975H120.273ZM106.819 171.977C104.017 166.935 109.733 164.949 114.108 164.717C115.419 164.65 116.752 164.477 117.989 165.047C117.981 167.16 118.94 169.377 121.045 170.321L121.06 171.153C120.513 171.82 117.846 170.276 116.872 170.141C114.498 169.827 111.666 170.171 109.418 170.898C108.579 171.168 107.463 172.366 106.826 171.969L106.819 171.977ZM112.572 172.419C116.011 172.014 122.663 173.251 119.172 177.521C116.925 180.27 115.127 178.472 112.954 178.63C111.965 178.705 111.104 179.679 109.89 179.679C105.515 179.664 106.354 173.153 112.572 172.419ZM109.478 187.178C107.845 183.934 109.493 184.406 112.183 183.919C112.303 183.897 112.52 183.769 112.842 183.717C115.337 183.29 117.966 183.102 120.491 182.705C120.513 182.705 120.536 182.563 120.925 182.503C122.109 182.316 123.42 182.271 124.641 182.098C124.663 182.098 124.738 181.941 125.075 181.896C126.708 181.664 137.638 180.038 138.2 180.368L138.642 183.02L109.471 187.185L109.478 187.178Z" fill="black"/>
<path d="M92.5106 154.318L90.7651 155.127L91.1996 154.116C91.7465 154.251 92.0686 154.236 92.5106 154.318Z" fill="#E5DDCF"/>
<path d="M88.3529 122.688L101.688 119.444L102.122 120.05C102.197 119.713 102.204 119.346 102.609 119.166C103.703 118.702 111.763 117.144 112.91 117.226C112.984 117.226 113.382 117.96 114.138 117.608L113.486 116.799C114.767 116.941 116.183 116.372 117.322 116.2C120.184 115.772 131.6 114.424 133.743 114.933C134.739 115.173 134.972 116.125 135.781 115.78C135.908 115.975 136.268 116.132 136.223 116.484C136.14 116.731 135.646 116.724 135.563 116.791C135.309 117.001 134.702 117.158 134.5 117.571C134.29 117.99 134.342 118.574 134.252 119.024C134.11 119.736 133.338 121.406 134.47 121.054C134.747 123.01 135.533 128.861 135.563 134.54C135.578 137.844 135.339 139.559 134.47 141.005C134.148 141.545 133.608 142.249 133.106 143.515C132.619 144.729 132.649 145.246 132.14 146.137C131.758 146.804 131.533 146.871 130.327 148.093C128.027 150.415 127.563 151.441 125.832 152.191C125.48 152.34 125.18 152.438 124.978 152.49C124.484 152.595 123.982 152.708 123.487 152.812C123.158 153.18 122.828 153.547 122.499 153.914C122.641 154.79 122.716 155.869 122.221 156.146C121.802 156.379 121.18 155.914 120.641 155.622C119.689 155.105 118.154 154.663 115.651 155.135C113.951 155.247 111.411 155.24 108.46 154.528C106.692 154.101 103.411 153.269 100.167 150.677C96.3612 147.636 94.7056 143.845 94.0314 141.912C92.9826 139.387 91.9563 136.66 90.9974 133.746C90.3007 131.648 89.6939 129.618 89.162 127.655C89.162 127.52 89.132 127.325 89.0047 127.153C88.75 126.823 88.3305 126.913 87.9559 126.771C87.2892 126.516 86.8097 125.527 86.9071 124.598C86.9895 123.751 87.5514 123.01 88.3454 122.688H88.3529ZM96.8107 125.385C96.1364 124.695 95.0951 124.83 94.4659 125.467C93.5519 126.973 96.4061 135.544 97.2152 137.484C97.7995 138.878 101.493 146.392 103.231 146.13C103.733 145.995 103.897 145.575 103.83 145.141C103.725 144.444 100.916 139.604 100.392 138.181C99.6724 136.24 97.3725 125.954 96.8107 125.377V125.385ZM116.303 149.793L134.23 119.174L116.303 149.793Z" fill="#D09D3E"/>
<path d="M130.11 162.837C130.11 162.837 130.409 162.627 130.327 162.432C127.765 161.81 127.81 164.477 126.829 165.976C125.847 167.474 124.596 168.531 122.544 167.924C119.487 165.729 122.251 162.485 122.461 159.795C124.117 157.09 126.379 155.217 129.84 157.113C135.871 160.417 134.657 170.254 131.541 174.996C130.14 173.842 128.357 170.883 128.417 169.167C128.477 167.332 130.904 166.32 130.117 162.837H130.11Z" fill="white"/>
<path d="M134.485 146.212C135.609 142.017 140.013 140.713 142.62 137.237C145.377 133.558 149.295 124.598 144.973 120.979C140.65 117.361 138.837 122.897 138.088 122.905C136.193 122.927 135.968 117.481 141.212 116.874C145.565 116.372 148.741 119.114 149.67 122.905C151.865 131.88 143.857 143.47 134.485 146.205V146.212Z" fill="#D09D3E"/>
<path d="M94.5857 151.689C85.1691 150.73 73.6998 140.586 76.6215 131.176C78.2171 126.051 88.3904 125.092 86.9146 131.431C81.9253 129.183 78.9138 131.146 79.6779 136.323C80.3522 140.908 86.4651 146.384 90.9449 147.973C93.9714 149.044 96.7133 148.565 98.6385 151.689C97.3425 151.591 95.8667 151.816 94.5932 151.689H94.5857Z" fill="#D09D3E"/>
<path d="M126.169 170.741C126.768 174.209 129.405 176.487 132.072 178.645L119.614 180.465C120.348 179.506 121.54 178.974 122.026 177.738C122.88 175.603 121.435 172.996 123.307 171.475C123.495 171.325 126.057 170.643 126.169 170.733V170.741Z" fill="#D09D3E"/>
<path d="M125.083 181.889C126.716 181.656 137.646 180.031 138.208 180.36L138.65 183.012L109.479 187.178C107.845 183.934 109.494 184.406 112.183 183.919C112.468 184.361 113.015 184.174 112.842 183.717C115.337 183.29 117.966 183.102 120.491 182.705C120.88 183.042 120.993 182.99 120.925 182.503C122.109 182.316 123.42 182.271 124.641 182.098C125.031 182.436 125.143 182.383 125.076 181.896L125.083 181.889ZM137.976 180.675L109.913 184.721L109.561 186.758C112.131 186.054 115.157 186.279 117.719 185.695C118.79 185.447 118.206 184.309 119.509 185.56L133.174 183.305L132.739 182.496H134.05L133.833 181.686L134.47 182.683L133.391 183.305L138.17 182.158L137.976 180.668V180.675Z" fill="#D9A13F"/>
<path d="M114.108 164.725C115.419 164.657 116.753 164.485 117.989 165.054C117.981 167.167 118.94 169.385 121.045 170.329L121.06 171.16C120.514 171.827 117.847 170.284 116.873 170.149C114.498 169.834 111.666 170.179 109.419 170.905C108.58 171.175 107.464 172.374 106.827 171.977C104.025 166.935 109.741 164.949 114.116 164.717L114.108 164.725ZM117.42 165.684C115.105 164.949 110.91 165.376 108.835 166.515C106.984 167.527 106.497 169.467 106.947 171.347C110.947 169.302 115.345 168.673 119.622 170.336C118.603 168.755 117.172 167.706 117.427 165.684H117.42Z" fill="white"/>
<path d="M116.093 162.784C116.49 162.702 116.82 162.672 117.045 162.664C117.382 162.642 117.569 162.664 117.891 162.597C117.891 162.597 118.191 162.537 118.498 162.402C119.165 162.11 121.038 159.518 120.281 157.974C119.187 155.742 112.827 156.071 109.291 158.431C107.666 159.518 107.104 160.724 106.894 161.308C106.849 161.428 106.182 163.316 106.872 163.833C107.403 164.238 108.123 163.339 110.13 162.941C110.625 162.844 111.688 162.829 113.794 162.799C114.767 162.784 115.569 162.784 116.108 162.784H116.093Z" fill="white"/>
<path d="M112.572 172.419C116.011 172.014 122.663 173.25 119.172 177.521C116.925 180.27 115.127 178.472 112.955 178.63C111.966 178.705 111.104 179.678 109.891 179.678C105.516 179.664 106.355 173.153 112.572 172.419ZM107.666 176.067C107.523 177.648 108.153 179.147 110.1 179.057C111.179 179.004 111.876 178.173 112.79 178.083C114.573 177.903 118.341 179.559 119.277 176.412C120.738 171.475 109.95 172.426 107.838 175.228C108.355 176.015 107.681 176.022 107.673 176.075L107.666 176.067Z" fill="white"/>
<path d="M122.453 159.795C122.244 162.485 119.479 165.729 122.536 167.924C124.589 168.538 125.825 167.512 126.821 165.976C127.817 164.44 127.757 161.81 130.319 162.432C130.402 162.619 130.095 162.814 130.102 162.837C127.315 163.458 127.757 168.358 124.072 168.703C118.543 169.22 121.045 162.102 122.453 159.795Z" fill="white"/>
<path d="M137.106 177.026L134.14 176.42C133.945 176.097 134.859 173.925 135.638 174.427C136.56 174.974 137.234 175.955 137.106 177.026Z" fill="white"/>
<path d="M112.835 183.717C113.007 184.174 112.467 184.361 112.175 183.919C112.295 183.896 112.512 183.769 112.835 183.717Z" fill="#C28A33"/>
<path d="M120.925 182.495C120.985 182.982 120.873 183.035 120.491 182.698C120.513 182.698 120.536 182.555 120.925 182.495Z" fill="#C28A33"/>
<path d="M125.083 181.889C125.143 182.376 125.038 182.428 124.648 182.091C124.671 182.091 124.746 181.934 125.083 181.889Z" fill="#C28A33"/>
<path d="M96.8108 125.392C97.3727 125.969 99.6725 136.248 100.392 138.188C100.916 139.604 103.725 144.444 103.83 145.141C103.898 145.575 103.733 145.995 103.231 146.13C101.493 146.392 97.7922 138.878 97.2154 137.484C96.4063 135.544 93.5521 126.973 94.466 125.467C95.0953 124.83 96.1366 124.695 96.8108 125.385V125.392Z" fill="#E9E7DE"/>
<path d="M116.992 154.318L117.539 153.097L117.644 154.318C117.427 154.296 117.202 154.333 116.985 154.318H116.992Z" fill="#D09D3E"/>
<path d="M118.416 154.528L118.521 154.625L118.416 154.73V154.528Z" fill="#1F160E"/>
<path d="M137.976 180.675L138.17 182.166L133.391 183.312L134.47 182.69L133.833 181.694L134.05 182.503H132.739L133.174 183.312L119.51 185.567C118.206 184.316 118.79 185.455 117.719 185.702C115.157 186.286 112.131 186.061 109.561 186.766L109.913 184.728L137.976 180.682V180.675Z" fill="#D09D3E"/>
<path d="M117.42 165.684C117.165 167.706 118.596 168.755 119.615 170.336C115.337 168.673 110.94 169.302 106.939 171.348C106.49 169.467 106.984 167.527 108.827 166.515C110.902 165.377 115.097 164.949 117.412 165.684H117.42Z" fill="white"/>
<path d="M107.666 176.067C107.666 176.015 108.347 176.008 107.831 175.221C109.943 172.419 120.731 171.467 119.27 176.405C118.333 179.559 114.565 177.903 112.782 178.075C111.868 178.165 111.172 179.004 110.093 179.049C108.145 179.139 107.523 177.641 107.658 176.06L107.666 176.067Z" fill="white"/>
<path d="M121.585 151.891L120.925 152.498V151.891H121.585Z" fill="#D09D3E"/>
<path d="M117.427 150.677H116.775V151.082H117.427V150.677Z" fill="#D09D3E"/>
<path d="M118.85 153.711L118.962 153.816L118.85 153.914V153.711Z" fill="#D09D3E"/>
<path d="M135.901 116.731C135.945 116.237 135.788 115.802 135.788 115.802C135.743 115.668 135.668 115.465 135.496 115.27C135.496 115.27 135.211 114.948 134.679 114.828C129.203 113.592 113.209 116.686 113.209 116.686C113.014 116.724 109.951 117.278 103.838 118.372C99.9121 119.076 98.0243 119.414 95.4547 120.103C94.9154 120.245 87.9784 122.126 88.1057 122.785C88.2256 123.429 94.7655 122.013 103.111 121.721C117.689 121.212 133.706 124.268 134.47 121.519C134.627 120.942 134.163 119.923 134.844 118.739C135.196 118.125 135.818 117.526 135.893 116.716L135.901 116.731Z" fill="#D09D3E"/>
<path d="M206.117 375.997C205.638 374.071 205.331 371.194 206.686 368.512C207.511 366.886 208.694 365.852 211.076 363.792C212.837 362.264 213.713 361.507 215.024 360.983C216.141 360.541 217.129 360.406 221.175 360.451C222.815 360.473 224.95 360.518 227.467 360.638C227.385 378.731 227.31 396.824 227.228 414.925H213.024C213.159 401.949 213.286 388.98 213.421 376.004H206.117V375.997Z" fill="#FFF6E5"/>
<path d="M76.614 408.287C78.9138 405.035 88.3829 397.873 88.9522 394.966C90.2258 388.433 80.7417 387.744 81.0938 394.779L73.2429 394.427C72.284 376.746 103.485 378.214 97.7246 396.614C96.3162 401.102 89.1695 406.661 86.7273 409.028C86.5175 409.231 86.0531 409.695 86.1804 410.04C86.2928 410.354 86.8547 410.422 87.1543 410.452C89.0721 410.632 96.908 410.639 98.0093 410.639L98.1441 417.487C96.5634 417.487 90.2332 417.487 88.6526 417.487H87.5139C83.2288 417.382 78.9513 417.277 74.6662 417.172C74.3066 416.153 73.8946 414.482 74.2767 412.587C74.7037 410.452 76.0297 409.111 76.614 408.287Z" fill="#FFF6E5"/>
<path d="M361.195 417.494C360.985 415.112 358.491 412.872 355 412.272V407.62C367.735 405.897 356.685 392.561 349.966 402.376C348.175 402.323 346.377 402.278 344.587 402.226C344.639 401.282 344.872 399.484 346.04 397.701C347.636 395.273 349.966 394.382 350.947 394.015C355.712 392.202 363.315 393.086 366.342 398.382C367.975 401.237 367.675 404.323 367.331 406.017C366.949 406.721 366.102 408.062 364.491 409.051C363.615 409.59 362.776 409.867 362.154 410.01C364.701 412.212 367.6 413.156 368.312 416.977C368.791 419.54 368.439 421.607 367.533 423.241C364.754 428.223 356.85 429.489 351.344 427.249C348.984 426.29 347.396 424.814 346.505 423.855C345.868 422.589 345.224 421.323 344.587 420.056C348.542 418.221 350.086 418.483 350.752 419.105C351.059 419.39 351.052 419.629 351.606 420.236C352.685 421.42 353.959 421.884 354.378 422.034C356.154 422.664 357.712 422.401 358.378 422.252C358.731 422.147 359.225 421.944 359.704 421.547C361.39 420.161 361.21 417.749 361.188 417.517L361.195 417.494Z" fill="#FFF6E5"/>
</svg>
