<svg width="476" height="476" viewBox="0 0 476 476" fill="none" xmlns="http://www.w3.org/2000/svg">
<g clip-path="url(#clip0_540_713)">
<rect width="476" height="476" fill="white"/>
<path d="M244.268 67.7899C254.654 69.2707 265.386 69.0086 275.9 69.7818C316.651 72.7827 357.377 76.8843 398.064 80.868C404.408 81.4839 411.456 81.3529 417.813 82.2571C419.399 82.4799 423.338 83.004 423.863 84.5766L399.675 229.72L402.873 224.177C407.618 219.42 413.72 218.162 420.064 217.258C419.949 207.102 419.731 196.291 424.771 187.144C432.663 172.834 452.296 176.936 450.813 194.81C450.186 202.332 443.113 213.484 444.417 220.272C444.788 222.185 449.239 223.876 450.838 225.474C459.856 234.411 458.64 253.177 455.89 264.63C455.366 266.805 453.486 269.819 453.396 271.903C453.307 273.986 455.187 277.446 455.315 280.316C455.673 288.323 451.977 294.862 446.272 299.854C445.07 300.903 442.678 301.702 442.025 302.37C441.066 303.353 438.47 309.617 437.254 311.53C424.349 331.842 407.721 322.538 394.508 308.412L388.138 300.234L377.522 365.455C376.089 368.154 373.237 367.578 370.615 367.381L319.695 358.981C319.273 367.486 315.935 374.051 323.225 380.512C329.825 386.356 328.508 382.87 333.164 379.594C337.82 376.318 346.21 376.253 350.84 379.096C352.209 379.935 353.693 382.071 354.678 382.359C356.033 382.765 357.773 382.385 359.385 382.779C369.873 385.373 376.243 397.77 378.353 407.808C381.551 423.048 375.642 437.568 367.034 449.715C369.604 450.148 386.347 452.887 384.646 456.91C383.457 459.714 371.625 461.994 368.453 462.584C329.007 469.949 280.3 468.808 240.124 467.97C213.161 467.406 168.164 468.048 143.209 459.845C134.345 456.923 137.197 454.027 144.463 451.983C167.473 445.496 209.056 445.063 233.678 444.474C251.482 444.054 269.313 444.932 287.104 444.828C290.942 441.316 288.921 439.586 288.972 435.694C289.164 418.226 307.02 407.14 322.931 411.202C320.578 409.328 321.601 404.899 320.706 403.365C320.45 402.92 313.747 398.674 312.392 397.482C299.882 386.448 295.201 371.483 299.908 355.076L213.213 340.688C201.151 343.531 190.33 354.29 185.124 365.533C183.884 368.207 180.852 376.987 180.929 379.594C181.018 382.792 186.582 387.549 186.084 395.215C185.572 402.959 180.788 403.981 179.829 407.113C178 413.089 178.473 418.816 175.327 425.368C173.229 429.731 169.673 432.378 167.627 435.786C165.439 439.429 166.437 441.473 161.794 444.199C149.374 451.485 135.113 439.651 126.914 430.806C115.786 418.802 100.731 406.576 93.2359 392.07C88.7463 383.368 84.9858 370.749 89.6033 361.379C90.1533 360.252 95.1033 354.015 96.28 352.534C115.786 328.068 145.588 345.13 154.708 369.792L161.461 368.849C163.904 359.623 168.56 350.974 174.597 343.688C175.928 342.077 182.234 336.56 182.259 335.197C173.651 333.31 163.29 333.061 154.977 330.388C153.288 329.85 151.843 329.745 151.19 327.727L159.863 266.334C159.351 265.927 149.784 270.986 148.057 271.575C128.884 278.088 114.264 272.715 102.688 256.479C101.754 255.169 99.9254 250.936 99.094 250.359C96.7149 248.721 90.9463 248.852 87.0068 245.72C80.8033 240.793 83.1568 235.84 81.0335 232.564C80.6882 232.026 75.4824 228.986 73.8452 227.165C68.5754 221.346 65.8893 211.741 65.2242 203.97C65.0579 202.096 65.7742 196.265 64.6231 195.452C54.6719 194.679 44.7591 193.552 34.8335 192.556C28.6045 191.94 19.1777 194.299 21.1091 184.392C28.8986 131.7 34.0021 78.6272 40.9986 25.8299C41.5486 21.7151 42.0347 15.2678 42.9812 11.5331C43.2754 10.3668 43.8126 9.47567 44.9126 8.92529L247.709 20.9551C248.873 21.3482 249.41 23.2614 249.423 24.4277L244.307 67.8292L244.268 67.7899ZM67.5777 27.5072C52.0114 30.2198 52.0114 57.4899 69.9568 56.743C88.4649 55.9829 88.5928 23.838 67.5777 27.5072ZM104.837 40.415C105.118 40.664 111.642 38.9473 111.834 38.0824C112.511 34.9243 106.116 29.8267 103.2 29.3549C81.2382 25.8299 79.2812 62.2206 102.458 57.8831C105.579 57.3065 110.107 53.5062 110.606 50.2039L104.568 47.5437C101.294 54.0042 93.4021 52.6282 92.8266 45.1063C92.4812 40.5591 95.7812 35.3436 100.629 35.8416C105.477 36.3395 104.377 39.9563 104.85 40.4019L104.837 40.415ZM134.256 31.9234L114.43 31.2682V37.8072C115.696 38.0038 120.378 37.1127 120.659 38.7507L118.344 58.6169C120.531 59.6521 122.961 59.3507 125.302 59.3507L127.221 38.4493L133.527 38.3576L134.256 31.9234ZM147.532 32.0806C130.15 34.3084 129.459 63.5441 149.924 61.2902C161.513 60.0191 166.654 43.1145 157.931 35.4878C155.207 33.1028 151.101 31.622 147.532 32.0806ZM165.913 61.9454C169.443 62.5482 176.03 61.9454 179.982 61.9454C180.187 61.9454 182.86 59.7439 183.167 59.3245C185.917 55.5767 184.971 50.7936 180.942 48.5659C185.661 47.5437 186.813 39.4846 182.822 36.8506C178.831 34.2166 171.374 35.3305 166.859 34.5311C167.857 38.4755 163.342 59.3901 164.403 61.1984C164.442 61.2771 165.772 61.9323 165.9 61.9585L165.913 61.9454ZM205.832 43.6255C206.114 42.3151 207.738 37.0603 206.114 36.5885C203.875 35.9333 198.107 36.5885 195.306 36.523C193.911 36.4837 191.571 35.2519 190.829 36.4575L187.989 63.2427C190.458 63.3082 203.351 65.4311 204.323 63.9504C204.617 63.5048 205.167 58.6562 204.63 58.3417C203.146 57.4637 195.139 58.761 194.999 57.0051C196.406 51.5537 194.436 53.1655 198.516 53.4669C199.488 53.5324 204.387 53.6897 204.592 53.4669C204.899 53.1393 204.003 48.8673 205.218 47.8976L196.278 46.9278V43.0096L205.82 43.6124L205.832 43.6255ZM227.436 39.9563C224.379 37.1782 215.72 37.4534 211.639 37.1389L208.442 64.5532L215.477 65.2084C215.668 62.6006 215.758 59.1542 216.436 56.6906C216.615 56.0222 217.101 54.4759 218.022 55.4194C218.636 56.0353 220.887 65.4443 221.296 65.7981C221.974 66.4009 227.436 65.1429 228.907 66.5188L224.584 55.0656C229.649 52.3137 232.092 44.189 227.436 39.9563ZM236.581 81.5364L41.5486 67.8686L26.801 185.991L109.518 193.198C112.204 179.727 130.393 174.079 136.801 187.616C138.438 191.062 137.939 195.976 141.751 196.278L220.542 202.948L236.568 81.5364H236.581ZM417.557 88.7437L243.629 73.6869C243.079 79.3479 241.442 84.9435 241.697 90.6701L396.196 104.98L396.414 107.876C385.235 170.606 374.9 233.494 364.974 296.46C364.654 297.496 363.938 298.151 362.864 298.282L181.747 270.37C180.699 269.885 180.123 269.256 180.34 268.011C183.5 247.463 186.915 226.863 189.256 206.224L174.968 204.887L157.317 325.002L372.201 360.672L417.557 88.7437ZM390.07 109.606L240.482 96.6194L225.53 206.368L224.149 208.229C214.773 209.815 204.668 206.237 195.101 206.971L186.736 265.6L360.651 291.743L390.07 109.606ZM438.674 219.276C437.165 211.61 452.335 188.704 440.631 184.969C426.74 180.54 423.863 208.504 426.651 217.192L438.674 219.276ZM70.9417 195.78V205.896C70.9417 213.707 77.58 224.36 84.3463 228.108C86.6486 229.392 97.8021 232.223 97.7893 233.311C97.7893 233.429 96.3184 234.949 96.2033 234.949H86.93C86.7254 237.321 89.0149 239.85 90.8056 241.108C99.7975 247.398 120.02 243.27 124.765 232.773C128.257 225.068 125.008 228.763 121.439 230.035C120.02 230.546 110.452 233.402 111.22 230.061C111.386 229.353 121.529 224.924 123.678 223.181C128.052 219.617 133.22 211.387 134.089 205.739C135.036 199.567 133.552 186.581 126.082 185.48C118.011 184.287 114.635 191.953 115.978 199.082C116.259 200.563 118.178 203.826 117.973 204.271C117.231 205.91 112.447 205.661 110.299 206.263C107.382 207.089 104.671 209.33 103.008 211.885C101.716 213.877 98.7998 224.491 98.3777 217.009C98.0196 210.457 102.739 203.721 108.649 201.31C109.48 200.969 113.228 201.048 110.58 199.37C108.227 197.877 99.9638 198.794 96.83 197.68C93.0312 197.995 88.887 204.887 86.5335 197.038L70.9417 195.78ZM168.79 204.258L139.359 201.637C139.845 207.862 137.274 214.336 134.371 219.721C133.693 220.979 132.094 222.028 131.813 222.984C131.288 224.78 131.915 227.296 131.621 229.314C130.521 236.718 125.686 242.693 118.894 245.393C129.101 266.583 154.977 248.839 164.173 235.774L168.79 204.245V204.258ZM428.122 263.018C425.756 263.713 415.51 263.018 412.134 263.018C410.854 263.018 405.725 264.827 404.766 265.94C402.31 268.758 403.295 274.157 406.096 276.371C407.567 277.525 413.668 280.001 415.331 280.001H426.523C426.613 280.001 427.137 281.548 427.137 281.639C427.086 283.094 419.693 284.182 418.209 283.92C426.216 291.402 436.768 286.265 442.844 278.704C451.12 268.391 455.801 244.869 449.175 233.062C444.085 223.98 427.828 222.277 418.618 223.286C413.118 223.889 404.152 227.597 404.907 234.451C405.661 241.304 408.974 237.845 412.786 237.57C416.917 237.268 426.408 237.53 429.925 239.64C430.834 240.19 431.358 240.636 431 241.789C430.296 244.069 423.018 242.038 421.1 242.064C417.454 242.117 410.778 242.969 407.554 244.62C402.566 247.162 401.492 250.556 402.272 256.125C403.154 262.442 406.646 258.392 410.944 257.868C413.809 257.514 428.467 258.274 429.094 261.393C429.209 261.983 428.544 262.9 428.135 263.018H428.122ZM401.466 242.667C402.374 241.095 399.957 238.775 399.816 237.085L399.036 231.031L397.117 246.69C398.077 246.349 398.46 244.96 399.317 244.03C399.906 243.388 401.377 242.838 401.479 242.667H401.466ZM405.956 282.714C405.789 282.426 401.914 280.316 400.609 278.691C397.488 274.825 397.475 271.431 397.744 266.596C397.936 262.992 399.484 262.612 396.759 258.471L395.838 251.906C395.94 256.597 392.653 264.8 393.408 269.033C394.035 272.506 401.3 285.807 403.82 288.467C407.107 291.939 405.367 288.899 405.38 287.471C405.393 286.042 406.467 283.566 405.956 282.701V282.714ZM411.174 285.872C409.409 287.969 414.001 294.744 416.073 296.198C428.263 304.769 450.928 297.155 449.533 279.988C441.309 290.223 430.475 296.198 417.633 290.026C416.623 289.541 411.468 285.505 411.174 285.859V285.872ZM157.279 387.706C157.304 389.383 156.575 400.443 153.736 396.211C153.314 395.582 152.495 383.643 151.958 381.049C147.213 357.907 125.686 334.961 102.906 352.783C110.734 353.674 116.259 355.299 122.68 360.016C136.187 369.963 139.935 386.225 148.057 400.05C152.163 407.048 157.445 412.67 161.896 419.222C163.073 420.965 165.861 427.255 166.245 427.53C168.471 429.155 172.692 416.142 172.986 414.504C175.199 401.99 168.637 391.939 157.292 387.706H157.279ZM161.756 436.008C162.331 431.16 161.487 428.552 159.313 424.477C155.475 417.282 148.645 410.625 144.232 403.313C136.174 389.973 132.132 371.928 118.472 363.017C111.565 358.509 101.153 355.194 95.2568 362.886C123.141 358.536 130.636 389.331 142.314 407.887C146.445 414.439 151.459 420.27 156.268 426.285L161.756 436.021V436.008ZM157.432 381.678C158.123 382.399 161.487 382.949 162.83 383.67C166.117 385.439 169.558 388.427 171.963 391.31C174.239 394.035 175.659 397.901 177.424 400.089C178.806 401.806 180.11 396.853 180.238 395.791C181.146 388.112 173.881 380.014 167.486 376.934C165.196 375.833 157.867 373.029 156.294 375.899C156.077 376.305 156.87 381.101 157.42 381.665L157.432 381.678ZM326.756 405.986C327.74 413.613 336.323 413.954 342.092 411.53C357.377 405.121 356.801 380.472 339.892 383.185C338.702 383.368 334.277 385.046 336.349 386.71C339.47 389.2 345.878 388.047 345.929 395.857C345.993 405.593 334.302 408.542 326.743 405.986H326.756ZM342.245 429.338C341.977 429.194 339.508 425.721 338.216 424.647C328.968 416.968 313.658 412.709 303.272 420.205C294.715 426.377 289.624 440.359 301.673 445.64C313.722 450.921 341.273 451.039 351.659 443.491C363.554 434.842 379.466 397.036 360.472 388.885C356.571 387.208 358.643 389.567 358.732 391.965C359.334 406.589 350.879 416.483 336.988 419.064L344.177 426.403C345.379 428.604 344.663 430.701 342.245 429.351V429.338ZM292.873 446.466C291.338 448.444 297.26 453.909 299.051 454.839C309.706 460.343 338.766 460.566 349.766 455.927C364.501 449.702 373.813 429.443 374.081 413.836C373.007 414.019 372.93 415.107 372.623 415.933C367.494 429.718 362.211 445.116 347.4 450.895C336.413 455.18 312.929 455.193 301.814 451.367C300.215 450.816 293.18 446.072 292.86 446.479L292.873 446.466Z" fill="black" stroke="black" stroke-miterlimit="10"/>
<path d="M324.85 215.358C322.484 233.481 307.058 260.529 287.463 262.389C269.146 264.132 260.41 252.155 255.972 235.735C255.511 234.018 254.77 227.191 254.386 226.588C254.181 226.261 249.244 223.928 247.799 222.539C246.954 221.727 242.977 216.524 242.977 215.672C242.964 210.221 251.482 218.215 253.043 219.158C270.848 230.022 293.18 227.768 310.806 217.664C313.479 216.131 315.564 213.825 318.467 212.75C317.994 211.361 314.349 211.466 314.003 209.802C313.453 207.142 319.593 207.508 321.077 207.823C324.146 208.478 333.918 215.188 332.268 218.608C330.465 222.343 327.395 215.672 324.888 215.358H324.85ZM274.544 246.271C265.949 255.143 281.924 257.174 288 256.414C293.973 255.667 304.41 248.708 306.994 243.152C308.478 239.955 304.871 239.168 302.146 238.867C294.229 237.963 280.338 240.295 274.557 246.284L274.544 246.271Z" fill="black"/>
<path d="M168.791 132.46L173.92 136.679C185.163 150.504 179.177 171.262 163.022 177.814C152.316 182.151 132.695 180.539 123.435 173.201C109.992 162.547 113.497 138.16 128.052 130.363C129.395 129.642 131.621 130.31 129.779 128.188C126.709 124.663 124.445 123.09 123.435 117.717C117.973 88.6256 161.436 78.8236 176.798 99.1484C184.638 109.527 181.211 127.703 168.791 132.473V132.46ZM151.357 105.19C139.116 105.923 139.155 125.881 153.71 123.902C160.195 123.024 163.47 115.49 160.733 109.671C159.21 106.461 154.695 104.993 151.37 105.19H151.357ZM145.601 139.13C133.962 141.004 132.695 160.634 144.859 162.416C163.905 165.207 163.24 136.286 145.601 139.13Z" fill="black"/>
<path d="M86.2906 110.917C85.4209 110.222 77.6313 116.499 76.6976 115.477C76.0965 114.822 77.5418 99.2144 78.143 97.6943C78.8337 95.9383 92.4302 86.477 94.3104 86.1231C96.0883 85.7955 106.027 86.988 108.342 87.4074C109.071 87.5384 109.634 87.6432 109.902 88.4557L99.3116 174.132L80.8546 173.568L79.3325 172.494L86.2906 110.903V110.917Z" fill="black"/>
<path d="M143.427 53.2442C137.326 47.0852 145.217 34.4919 152.79 40.1006C160.349 45.7092 150.474 60.3468 143.427 53.2442Z" fill="black"/>
<path d="M64.7512 48.0418C60.0698 42.9049 65.314 30.5082 73.1036 34.6229C82.6198 39.6419 72.0803 56.0878 64.7512 48.0418Z" fill="black"/>
<path d="M171.349 56.7299L172.014 50.8853C180.404 49.9025 179.586 58.3679 171.349 56.7299Z" fill="black"/>
<path d="M178.307 41.1355C178.831 42.0004 178.09 44.5165 177.655 45.5386L172.628 45.6303L173.267 40.4148C173.549 40.1134 177.974 40.5983 178.307 41.1487V41.1355Z" fill="black"/>
<path d="M216.756 49.5356L217.395 43.6649C225.517 42.2889 224.609 51.3833 216.756 49.5356Z" fill="black"/>
<path d="M268.456 130.848C286.58 129.642 288.23 165.824 280.773 177.854C281.058 178.745 292.732 181.563 293.563 189.791C293.717 191.298 292.336 195.138 290.763 193.225C289.1 189.582 289.304 186.463 285.812 183.999C279.711 179.701 271.526 183.449 270.451 191.338C269.914 195.269 271.397 198.113 269.428 201.454C264.951 198.768 264.938 193.867 265.91 190.473C266.486 188.507 268.239 186.41 266.729 184.877L238.116 181.457L247.143 176.932C242.949 160.687 250.615 132.034 268.456 130.848ZM270.502 138.776C253.849 136.077 245.483 168.196 250.855 180.671H255.64C255.294 173.896 257.75 166.636 260.999 160.778L266.908 160.936L265.591 154.396C269.454 150.872 274.864 149.024 280.121 149.784H280.134C279.481 145.329 274.902 139.497 270.502 138.776Z" fill="black"/>
<path d="M341.542 203.433C340.404 205.438 329.301 197.601 326.807 196.618C317.201 192.779 306.879 193.041 296.902 193.185C295.252 187.262 304.244 190.446 305.037 189.083C300.944 173.581 309.322 138.357 327.894 140.886C347.95 143.624 345.609 184.235 335.019 196.776C337.359 198.781 341.209 199.554 341.555 203.446L341.542 203.433ZM338.805 160.961C329.544 137.963 312.469 153.898 308.657 170.737C307.148 177.421 307.429 184.536 308.657 191.219L313.326 191.678C314.784 185.44 315.615 168.47 324.633 172.349L323.328 165.81C327.997 162.154 332.704 158.904 338.792 160.975L338.805 160.961Z" fill="black"/>
<path d="M344.778 144.018C344.522 145.381 342.181 146.731 341.401 146.311C341.12 146.154 339.611 142.445 337.986 140.781C334.916 137.61 330.874 136.706 328.585 133.299C331.297 129.643 343.806 140.493 344.765 144.018" fill="black"/>
<path d="M273.355 124.296C266.217 123.68 261.792 126.904 256.049 130.402L255.333 126.694C255.844 125.344 273.815 116.787 273.355 124.283V124.296Z" fill="black"/>
</g>
<defs>
<clipPath id="clip0_540_713">
<rect width="476" height="476" fill="white"/>
</clipPath>
</defs>
</svg>
